<svg width="100%" height="100%" viewBox="0 0 368 368" fill="none" xmlns="http://www.w3.org/2000/svg">
<path d="M88 128.001H56C42.768 128.001 32 138.769 32 152.001V232.001C32 236.417 35.576 240.001 40 240.001C44.424 240.001 48 236.417 48 232.001V208.001H96V232.001C96 236.417 99.576 240.001 104 240.001C108.424 240.001 112 236.417 112 232.001V152.001C112 138.769 101.232 128.001 88 128.001ZM96 192.001H48V152.001C48 147.593 51.584 144.001 56 144.001H88C92.416 144.001 96 147.593 96 152.001V192.001Z" fill="white"/>
<path d="M192 128.001H160C155.576 128.001 152 131.585 152 136.001V232.001C152 236.417 155.576 240.001 160 240.001C164.424 240.001 168 236.417 168 232.001V208.001H192C214.056 208.001 232 190.057 232 168.001C232 145.945 214.056 128.001 192 128.001ZM192 192.001H168V144.001H192C205.232 144.001 216 154.769 216 168.001C216 181.233 205.232 192.001 192 192.001Z" fill="white"/>
<path d="M328 224.001H304V144.001H328C332.424 144.001 336 140.417 336 136.001C336 131.585 332.424 128.001 328 128.001H264C259.576 128.001 256 131.585 256 136.001C256 140.417 259.576 144.001 264 144.001H288V224.001H264C259.576 224.001 256 227.585 256 232.001C256 236.417 259.576 240.001 264 240.001H328C332.424 240.001 336 236.417 336 232.001C336 227.585 332.424 224.001 328 224.001Z" fill="white"/>
<path d="M344 48.001H219.312L189.656 18.345C186.528 15.217 181.472 15.217 178.344 18.345L148.688 48.001H24C10.768 48.001 0 58.769 0 72.001V96.001C0 100.417 3.576 104.001 8 104.001C12.424 104.001 16 100.417 16 96.001V72.001C16 67.593 19.584 64.001 24 64.001H152C154.128 64.001 156.16 63.161 157.656 61.657L184 35.313L210.344 61.657C211.84 63.161 213.872 64.001 216 64.001H344C348.416 64.001 352 67.593 352 72.001V96.001C352 100.417 355.576 104.001 360 104.001C364.424 104.001 368 100.417 368 96.001V72.001C368 58.769 357.232 48.001 344 48.001Z" fill="white"/>
<path d="M360 264.001C355.576 264.001 352 267.585 352 272.001V296.001C352 300.409 348.416 304.001 344 304.001H216C213.872 304.001 211.84 304.841 210.344 306.345L184 332.689L157.656 306.345C156.16 304.841 154.128 304.001 152 304.001H24C19.584 304.001 16 300.409 16 296.001V272.001C16 267.585 12.424 264.001 8 264.001C3.576 264.001 0 267.585 0 272.001V296.001C0 309.233 10.768 320.001 24 320.001H148.688L178.344 349.657C179.904 351.217 181.952 352.001 184 352.001C186.048 352.001 188.096 351.217 189.656 349.657L219.312 320.001H344C357.232 320.001 368 309.233 368 296.001V272.001C368 267.585 364.424 264.001 360 264.001Z" fill="white"/>
</svg>
