<svg xmlns="http://www.w3.org/2000/svg" width="184.252" height="184.252" viewBox="0 0 184.252 184.252"><g fill="#666"><path d="M38.544 76.536c-.92.7-4.123 2.692-8.94 2.692-8.72 0-14.66-5.495-14.66-13.872 0-8.328 6.3-13.87 14.863-13.87 3.332 0 7.147 1.026 9.275 1.94-.445.984-.81 2.285-.965 3.1l-.233.076C36.237 54.78 33.59 53.2 29.67 53.2c-4.97 0-10.695 4.027-10.695 12.056 0 7.82 5.832 11.974 11.046 11.974 4.685 0 6.928-2.186 8.94-3.885l.154.154-.57 3.036zM60.14 77.312c0-.588.05-1.193.09-1.487-2.643.243-9.902.463-12.733.504-.048-.708-.11-9.092-.04-10.388 1.132 0 7.114.078 9.787.35-.077-.388-.116-.962-.116-1.35 0-.387.04-1.082.116-1.47-2.286.194-5.214.388-9.787.388 0-.97.08-8.037.118-9.7 5.036 0 9.596.312 12.148.503-.042-.264-.092-.807-.092-1.337 0-.528.036-.958.093-1.322-1.342.09-5.678.195-8.003.195-2.324 0-5.913-.08-8.237-.196.154 3.294.31 6.664.31 9.997v6.665c0 3.333-.155 6.704-.31 10.075 2.363-.117 5.99-.194 8.354-.194h.343c.81.003 1.835.014 2.893.033 1.833.033 3.767.088 5.16.16-.06-.41-.094-.84-.094-1.428zM68.815 65.622v3.082c0 3.332.154 6.7.31 10.034-.66-.117-1.85-.128-2.095-.128-.243 0-1.435.012-2.094.128.155-3.333.31-6.703.31-10.034v-6.666c0-3.332-.155-6.703-.31-10.035 1.473.117 3.336.195 4.81.195 1.472 0 2.944-.195 4.416-.195 4.38 0 8.39 1.293 8.39 6.17 0 5.16-5.14 7.012-8.085 7.4 1.9 2.363 8.7 10.646 10.947 13.165-.774-.117-2.073-.128-2.427-.128-.354 0-1.69.012-2.427.128-1.53-2.335-6.437-9.686-9.77-13.117l-1.975.002zm2.596-1.418c3.2-.065 7.4-1.08 7.4-5.502 0-3.852-3.37-5.076-6.004-5.076-1.782 0-2.945.116-3.758.193-.117 2.828-.232 5.427-.232 8.217v2.13c.384.054 2.2.043 2.595.037zM112.594 51.99c-.453.078-1.013.142-1.7.142-.675 0-1.256-.073-1.65-.142.17 3.174.462 9.047.462 12.9 0 2.897 0 5.427-.04 6.86-1.41-1.498-17.576-18.23-19.22-20.015l-1.268-.013c.057 2.465.13 5.14.13 10.022 0 6.25-.088 12.896-.407 16.994.454-.08 1.013-.142 1.7-.142.676 0 1.256.07 1.65.142-.17-3.173-.462-9.048-.462-12.898 0-2.9.002-5.882.04-7.314 1.41 1.5 17.668 18.458 19.22 20.56l1.268.013c-.058-2.466-.13-5.235-.13-10.117 0-6.25.09-12.898.408-16.993zM42.07 121.79c-7.615-12.05-9.782-23.68-10.085-32.58h-3.52c.296 9.71 2.65 19.892 7.92 29.87 1.242 1.003 4.16 2.278 5.684 2.71z"/><path d="M184.25 1.68S96.696.984 68.78 1c-4.37.003-7.302.31-8.248.37C26.048 3.606.115 33.843 0 66.818c-.032 9.586 2.522 20.39 6.667 34.973 5.476 19.267 11.89 41.367 11.89 41.367h3.5L9.127 99.54l.098-.066c9.497 18.347 31.392 33.086 56.237 33.086 13.407 0 25.84-3.753 35.638-10.666l.085.08-57.516 61.204h4.49s40.388-42.968 54.126-57.556c10.527-11.178 15.996-18.38 18.285-22.12 2.626-4.286 10.965-16.644 10.653-34.846l.112-.008 25.203 114.53h3.618s-21.146-93.745-25.25-113.35c-4.038-19.292-8.81-31.258-13.957-38.083-1.77-.985-4.528-2.107-5.83-2.41 7.473 9.427 13.056 23.453 13.056 37.488 0 34.355-27.95 62.304-62.306 62.304-34.354 0-62.304-27.95-62.304-62.304 0-34.356 28.05-62.306 62.324-62.306 15.235 0 29.356 5.588 40.21 14.79 2.097.29 4.91.945 6.588 1.55l.013-.034c-7.798-7.777-17.537-13.558-28.37-16.598v-.09l99.922.624-.002-3.08z"/><path d="M50.808 132.873c-2.228-.33-5.01-1.118-6.685-1.836 7.5 8.536 17.82 15.366 27.953 19.198l2.66-2.82c-10.992-3.713-18.98-9.678-23.928-14.542M142.47 127.885c-11.122 13.615-28.39 22.783-48.227 22.77-4.26 0-8.39-.477-11.836-1.178L79.56 152.5c5.445 1.257 10.27 1.73 14.885 1.73 20.405 0 37.86-9.523 48.972-22.057l-.948-4.288M165.644 17.304l-6 61.965h-.114c-.85-11.697-6.682-25.667-13.883-34.5-12.5-15.328-30.842-24.584-51.444-24.584-19.647 0-37.15 8.717-49.192 22.38l2.76 2.187c11.375-12.865 27.672-21.11 46.43-21.11 22.836 0 41.44 11.704 51.845 27.615 9.286 14.197 12.365 32.39 10.213 45.72-.727 4.5-2.36 13.256-8.36 23.175l1.05 4.614c7.36-11.405 11.092-21.556 14.006-47.503 2.234-19.906 6.073-59.962 6.073-59.962l-3.383.002z"/></g></svg>