<svg xmlns="http://www.w3.org/2000/svg" viewBox="0 0 323.14999 323.14999" height="323.15" width="323.15"><path d="M0 323.15h323.147V0H0v323.15z" fill="#3a7dc8"/><path d="M73.556 162.62c.723 4.782 1.71 9.462 2.997 13.992-.913-.27-1.735-.588-2.457-.938-.7-1.38-1.374-2.777-2.01-4.192l.036-.02c-.887-1.716-.634-4.688 1.434-8.84zm-10.943-35.18c0-26.464 9.653-50.718 25.6-69.444-.427 6.02-.005 12.895 1.273 20.513-2.098 3.825-4.06 7.8-5.843 11.91-8.126 18.776-11.763 38.146-11.41 56.485-2.345 2.86-4.336 5.657-5.944 8.374-2.387-8.88-3.677-18.215-3.677-27.84zm39.543-7.645c-9.19 6.784-17.304 13.655-23.803 20.317.57-15.475 4.098-31.583 10.89-47.267.7-1.628 1.436-3.233 2.2-4.814 2.418 10.05 6.038 20.765 10.713 31.765zm1.36-76.535c2.54-2.013 5.18-3.9 7.895-5.674 2.96.103 6.264.868 9.82 2.25-8.55 7.043-16.413 15.464-23.253 25.096-.365-10.135 1.526-17.652 5.54-21.672zm48.18-21.488c-8.58 3.34-16.922 7.93-24.777 13.654-2.474-1.142-4.882-2.067-7.197-2.742 9.854-5.232 20.6-8.968 31.972-10.912zm34.4-.308c19.095 2.915 36.551 10.897 50.948 22.518 4.06 4.264 7.668 9.055 10.793 14.327-24.218-.183-62.528 13.68-96.623 31.306-14.357 7.428-28.326 15.728-40.79 24.296-4.976-11.997-8.614-23.572-10.66-34.167-.348-1.786-.632-3.514-.874-5.21 7.958-12.653 17.69-23.406 28.477-31.85 11.292 6.065 24.518 17.33 37.85 32.694 2.008-.926 4.007-1.83 5.992-2.708-13.38-15.665-26.498-27.225-38.255-34.087 16.506-11.365 35.026-17.49 53.14-17.12zM78.783 183.48c.15.41.288.812.437 1.217-.27-.425-.536-.853-.8-1.277.12.017.24.04.363.06zm182.78-110.835l.29-.154c.953 1.592 1.868 3.215 2.737 4.856-.172 1.028-.485 2.128-.95 3.3-.098-.384-.183-.766-.293-1.144-.748-2.705-1.616-5.328-2.546-7.902.304.33.567.67.762 1.045zM89.373 192.65c-1.437-2.78-2.758-5.658-3.92-8.634.355.015.712.024 1.083.024 10.317 0 23.81-2.478 39.823-7.433-1.252-1.78-2.478-3.592-3.7-5.406-17.528 5.272-30.673 7.022-39.452 6.47-2.287-7.263-3.81-14.96-4.498-22.943 2.818-3.59 6.588-7.682 11.52-12.273 4.74-4.408 10.152-8.892 16.097-13.375 4.384 9.292 9.46 18.705 15.162 28.01 7.94 12.977 16.608 25 25.565 35.56h13.24c-10.154-11.05-20.546-24.71-30.352-40.735-5.864-9.578-11.05-19.253-15.453-28.76 12.214-8.543 26.24-16.968 41.273-24.744 46.872-24.236 81.69-31.974 97.26-29.903 1.73 4.01 3.232 8.215 4.456 12.623.66 2.41 1.21 4.842 1.715 7.3-8.27 11.534-25.474 26.68-49.65 42.015-3.534-6.92-7.425-13.886-11.65-20.8-3.82-6.23-7.847-12.306-11.99-18.11-1.93.825-3.902 1.674-5.905 2.57 4.323 6.002 8.54 12.334 12.51 18.832 4.244 6.934 8.138 13.912 11.654 20.845-7.398 4.512-15.376 9.012-23.91 13.427-11.78 6.087-23.56 11.45-35.05 15.972 1.25 1.79 2.502 3.532 3.744 5.224 11.223-4.47 22.698-9.727 34.177-15.656 8.074-4.175 16.093-8.68 23.8-13.38 7.883 16.397 13.56 32.372 16.438 46.567.47 2.323.842 4.555 1.147 6.714h6.368c-.343-2.555-.774-5.2-1.337-7.958-3.01-14.872-8.964-31.568-17.222-48.662 20.127-12.735 37.705-26.628 48.258-39.186 2.63 21.416-.822 44.266-10.158 65.83-4.807 11.102-10.91 21.147-17.93 29.977h7.662c6.133-8.293 11.516-17.503 15.864-27.556 10.664-24.618 14.004-50.902 9.705-75.132 1.034-1.6 1.928-3.167 2.67-4.698 5.564 12.955 8.654 27.212 8.654 42.177 0 24.522-8.286 47.132-22.19 65.21h12.217c12.538-18.65 19.884-41.085 19.884-65.21 0-64.58-52.54-117.123-117.124-117.123-25.94 0-49.931 8.483-69.365 22.813l-.018-.03c-1.315.795-2.507 1.747-3.61 2.82-26.878 21.475-44.13 54.522-44.13 91.52 0 24.12 7.332 46.56 19.87 65.21h16.797M24.424 312.67H9.45v-26.64h14.974v3.675H13.78v7.255h9.978v3.643h-9.98v8.364h10.646v3.702M59.246 312.67h-4.983l-6.625-10.9-6.686 10.9h-4.64l8.788-13.817-8.217-12.824h4.81l6.122 10.076 6.123-10.077h4.673l-8.274 12.9 8.91 13.74M76.068 299.04h2.304c2.223 0 3.856-.393 4.89-1.17 1.036-.78 1.557-1.988 1.557-3.644 0-1.53-.465-2.67-1.396-3.425-.927-.754-2.38-1.132-4.347-1.132h-3.01v9.372zm13.206-4.957c0 2.782-.908 4.91-2.72 6.393-1.808 1.484-4.383 2.22-7.734 2.22h-2.752v9.973h-4.33v-26.64h7.634c3.3 0 5.784.676 7.43 2.04 1.648 1.36 2.472 3.36 2.472 6.013M117.56 312.67h-14.975v-26.64h14.975v3.675h-10.645v7.255h9.983v3.643h-9.983v8.364h10.645v3.702M135.93 298.415h3.006c2.02 0 3.483-.372 4.384-1.13.905-.75 1.36-1.87 1.36-3.354 0-1.504-.49-2.583-1.466-3.24-.975-.654-2.455-.985-4.42-.985h-2.864v8.71zm0 3.61v10.644h-4.327v-26.64h7.485c3.412 0 5.94.642 7.582 1.93 1.64 1.288 2.464 3.23 2.464 5.828 0 3.317-1.715 5.68-5.14 7.086l7.48 11.795h-4.924l-6.345-10.644h-4.275M164.08 312.67h4.33v-26.64h-4.33v26.64zM195.18 312.67l-7.68-22.252h-.15c.206 3.304.31 6.402.31 9.29v12.96h-3.93v-26.64h6.102l7.352 21.188h.113l7.572-21.187h6.124v26.64h-4.17v-13.176c0-1.326.037-3.05.1-5.175.066-2.13.125-3.416.168-3.864h-.138l-7.95 22.213h-3.825M241.306 312.67h-14.982v-26.64h14.982v3.675h-10.654v7.255h9.986v3.643h-9.986v8.364h10.654v3.702M277.408 312.67h-5.31l-13.02-21.23h-.144l.082 1.18c.18 2.262.26 4.326.26 6.196v13.853h-3.933v-26.64h5.253l12.992 21.118h.107c-.027-.28-.08-1.295-.152-3.057-.063-1.75-.1-3.12-.1-4.108V286.03h3.965v26.64M302.215 312.67h-4.33v-22.91h-7.79v-3.73h19.912v3.73h-7.792v22.91M53.975 244.985c-4.936-15.884-7.715-24.87-8.334-26.945-.624-2.085-1.06-3.73-1.336-4.943-1.106 4.303-4.277 14.93-9.514 31.888h19.185zm9.07 30.618l-5.347-17.527h-26.84l-5.34 17.527H8.695l25.994-73.938 19.084-.002 26.093 73.94H63.045M105.674 275.603H90.06v-60.64H70.068v-12.996h55.6v12.997h-19.994v60.64M135.214 275.603v-73.636h15.617v60.74h29.87v12.896h-45.486M229.91 244.985c-4.934-15.884-7.71-24.87-8.335-26.945-.625-2.085-1.064-3.73-1.335-4.943-1.11 4.303-4.278 14.93-9.52 31.888h19.19zm9.068 30.618l-5.34-17.527h-26.843l-5.34 17.527h-16.82l25.986-73.94h19.09l26.09 73.94h-16.823M309.94 255.156c0 6.646-2.386 11.885-7.174 15.71-4.787 3.83-11.445 5.744-19.965 5.744-7.865 0-14.81-1.475-20.856-4.43v-14.506c4.966 2.216 9.175 3.773 12.617 4.684 3.444.906 6.59 1.358 9.445 1.358 3.423 0 6.054-.652 7.88-1.966 1.83-1.304 2.748-3.254 2.748-5.84 0-1.445-.402-2.727-1.212-3.852-.805-1.125-1.984-2.208-3.546-3.253-1.565-1.04-4.746-2.7-9.546-4.98-4.497-2.12-7.877-4.148-10.122-6.097-2.25-1.943-4.053-4.21-5.39-6.8-1.343-2.584-2.01-5.603-2.01-9.068 0-6.514 2.2-11.63 6.622-15.354 4.416-3.733 10.517-5.593 18.31-5.593 3.823 0 7.47.452 10.952 1.357 3.47.91 7.104 2.188 10.898 3.83l-5.034 12.14c-3.93-1.615-7.18-2.74-9.746-3.376-2.567-.642-5.095-.96-7.575-.96-2.958 0-5.225.693-6.803 2.067-1.58 1.38-2.37 3.175-2.37 5.39 0 1.376.32 2.575.964 3.604.63 1.02 1.65 2.014 3.04 2.97 1.394.957 4.695 2.677 9.9 5.16 6.885 3.292 11.6 6.59 14.152 9.9 2.546 3.307 3.824 7.36 3.824 12.162" fill="#fff"/></svg>