<svg
    viewBox="0 0 295.15271 401.84999"
    height="80"
    width="80"
    version="1.1"
    type="logo"
    a11ytitle="Alice">
 <path
      d="M40.928 348.78c0-12.01-6.128-17.77-13.604-17.77-7.477 0-13.606 5.76-13.606 17.77v10.91h27.21v-10.91zm-27.21 51.722H.113V348.78c0-20.223 12.257-31.376 27.21-31.376 15.076 0 27.333 11.153 27.333 31.376v51.722H40.928v-27.21h-27.21v27.21M85.66 386.9h23.166v13.603h-36.77V318.75H85.66v68.15m54.416-54.544H126.47V318.75h40.816v13.606H153.68v54.542h13.606v13.604H126.47V386.9h13.606v-54.542M213 317.404c10.05 0 20.592 6.25 26.352 15.688l-8.578 7.6c-5.516-6.743-11.033-9.683-17.16-9.683-10.786 0-20.1 10.905-20.1 28.68 0 17.646 9.314 28.555 20.1 28.555 6.127 0 11.644-2.82 17.16-9.682l8.58 7.6C233.594 395.6 223.05 401.85 213 401.85c-20.59 0-34.44-18.996-34.44-42.16 0-23.166 13.85-42.286 34.44-42.286m41.303 1.346h40.813v13.606h-27.208v16.424h27.208v13.605h-27.208V386.9h27.208v13.603h-40.813V318.75"
      fill="#273540"
    />
    <path
      d="M96.142 271.85L23.4 199.08V96.17L96.142 23.4h102.864l72.746 72.77v102.91l-72.747 72.77H96.142"
      fill="#fff"
    />
    <path
      d="M208.7 295.25H91.295v-11.7l8.275-8.27-8.276 8.27v11.7h-4.847L0 208.77V86.48L86.447 0H208.7l86.453 86.48v122.29L208.7 295.25M96.143 23.4L23.4 96.17v102.91l72.742 72.77h102.863l72.747-72.77V96.17L199.006 23.4H96.142"
      fill="#ed1c24"
    />
    <path
      d="M147.586 147.602l-2.5-28.906v-84.22h5v84.22l-2.5 28.906"
      fill="#ed1c24"
    />
    <path
      d="M147.586 147.602l.124-.01-2.5-28.9V34.6h4.75v84.09l-2.5 28.9.126.01.124-.01-.124.01.124.012 2.5-28.913V34.352h-5.25v84.35l2.5 28.912h.25l-.124-.012"
      fill="#ed1c24"
    />
    <path
      d="M147.615 147.602l2.612-29.223 14.79-83.884 4.928.87-14.792 83.882-7.538 28.352"
      fill="#cb3b46"
    />
    <path
      d="M147.615 147.602l.125.012 2.61-29.22 14.77-83.753 4.68.828-14.77 83.754-7.535 28.35.12.032.125.012-.125-.012.12.033 7.54-28.36 14.814-84.01-5.175-.913-14.812 84.01-2.613 29.23.246.043-.12-.033"
      fill="#cb3b46"
    />
    <path
      d="M147.618 147.615l8.086-29.516 30.392-83.516 4.7 1.71L160.4 119.81l-12.783 27.805"
      fill="#f46f1b"
    />
    <path
      d="M147.618 147.615l.132.036 8.085-29.51 30.344-83.38 4.44 1.62-30.347 83.378-12.78 27.8.124.058.132.036-.134-.035.126.057 12.786-27.81 30.443-83.647-4.957-1.806-30.442 83.647-8.087 29.523.257.092-.125-.057"
      fill="#f46f1b"
    />
    <path
      d="M147.618 147.582l12.7-26.993 43.306-75.01 4.33 2.5-43.308 75.01-17.028 24.49"
      fill="#f46f1b"
    />
    <path
      d="M147.618 147.582l.113.054 12.7-26.99 43.24-74.897 4.115 2.375-43.243 74.895-17.025 24.49.103.072.113.054-.112-.054.103.073 17.032-24.5 43.373-75.12-4.548-2.628-43.37 75.123-12.702 27 .215.125-.102-.073"
      fill="#f46f1b"
    />
    <path
      d="M147.618 147.612l16.665-23.75 54.133-64.516 3.83 3.218-54.135 64.513-20.49 20.535"
      fill="#273540"
    />
    <path
      d="M147.618 147.612l.102.072 16.663-23.745 54.047-64.42 3.64 3.057-54.05 64.414-20.49 20.53.087.09.103.07-.103-.07.09.09 20.497-20.54 54.218-64.616-4.02-3.377-54.218 64.616-16.67 23.754.192.16-.09-.088"
      fill="#273540"
    />
    <path
      d="M147.615 147.612l20.535-20.496 64.514-54.137 3.214 3.833-64.518 54.133-23.745 16.665"
      fill="#cb3b46"
    />
    <path
      d="M147.615 147.612l.09.09 20.53-20.493 64.414-54.056 3.05 3.644-64.417 54.047-23.74 16.663.07.102.09.09-.09-.09.073.103 23.75-16.67L236.05 76.83l-3.372-4.028-64.615 54.222-20.538 20.5.16.19-.072-.102"
      fill="#cb3b46"
    />
    <path
      d="M147.618 147.585l24.52-17.043 75.085-43.352 2.495 4.334-75.083 43.348-27.017 12.713"
      fill="#cb3b46"
    />
    <path
      d="M147.618 147.585l.07.102 24.518-17.04 74.97-43.286 2.37 4.118-74.97 43.285-27.01 12.71.052.113.07.102-.07-.102.053.114 27.024-12.716L249.89 91.57l-2.62-4.55-75.196 43.416-24.527 17.047.125.216-.052-.116"
      fill="#cb3b46"
    />
    <path
      d="M147.66 147.566l-.043-.015 27.777-12.77 83.417-30.363 1.707 4.703-83.42 30.357-29.478 8.074.042.017"
      fill="#ed1c24"
    />
    <path
      d="M147.66 147.566l.05-.142-.045-.015-.047.14.062.136 27.77-12.768 83.27-30.31 1.604 4.42-83.27 30.305-29.953 8.202.515.172.095-.286-.05.143.05-.142-.045-.014-.048.14.04.146 29.487-8.075 83.563-30.41-1.806-4.986-83.563 30.418-28.126 12.934.405.135.095-.286-.05.143"
      fill="#ed1c24"
    />
    <path
      d="M147.618 147.623l28.342-7.538 83.845-14.787.863 4.927-83.844 14.783-29.206 2.615"
      fill="#273540"
    />
    <path
      d="M147.618 147.623l.036.132 28.336-7.535 83.704-14.762.814 4.654-83.702 14.76-29.2 2.613.012.137.036.133-.036-.133.012.137 29.212-2.617 83.984-14.808-.91-5.197-83.986 14.81-28.348 7.54.048.27-.012-.138"
      fill="#273540"
    />
    <path
      d="M147.586 147.602l-.04-.015 28.905-2.5 84.224-.005-.008 5.003h-84.22l-28.9-2.498.04.015"
      fill="#f46f1b"
    />
    <path
      d="M147.586 147.602l.02-.058-.04-.015-.02.056.004.063 28.904-2.5 84.156-.006-.007 4.877H176.45l-28.9-2.495-.026.12.04.015.042-.116-.02.058.02-.058-.04-.015-.02.056-.007.063 28.9 2.496h84.286l.008-5.127-84.286.004-28.91 2.5-.016.12.04.016.042-.116-.02.058"
      fill="#f46f1b"
    />
    <path
      d="M147.615 147.602l-.07.008 29.148 2.602 83.657 14.744-.876 4.926-83.655-14.748-28.276-7.524.07-.008"
      fill="#ed1c24"
    />
    <path
      d="M147.615 147.602l-.013-.123-.07.004.002.25 29.142 2.6 83.53 14.722-.833 4.68-83.528-14.725-28.27-7.522-.03.12.013.124.07-.007-.025-.248.012.122-.013-.124-.07.005-.02.247 28.28 7.526 83.783 14.77.92-5.17-83.786-14.767-29.155-2.605-.01.126.012.124.07-.007-.025-.248.012.122"
      fill="#ed1c24"
    />
    <path
      d="M147.615 147.602l29.517 8.087 83.518 30.385-1.72 4.7-83.513-30.392-27.802-12.782"
      fill="#273540"
    />
    <path
      d="M147.615 147.602l-.033.12 29.512 8.085 83.396 30.344-1.634 4.467-83.39-30.35-27.8-12.777-.05.112-.034.12.033-.12-.05.114L175.37 160.5l83.636 30.436 1.804-4.934-83.64-30.433-29.52-8.088-.086.233.05-.114"
      fill="#273540"
    />
    <path
      d="M147.618 147.585l26.967 12.684 74.946 43.26-2.51 4.33-74.935-43.264-24.466-17.012"
      fill="#273540"
    />
    <path
      d="M147.618 147.585l-.053.114 26.962 12.68 74.834 43.195-2.385 4.113-74.824-43.2-24.46-17.008-.072.103-.052.114.052-.115-.07.102 24.47 17.015 75.048 43.327 2.638-4.545-75.06-43.328-26.972-12.685-.124.214.07-.102"
      fill="#273540"
    />
    <path
      d="M147.618 147.585l23.75 16.665 64.523 54.134-3.223 3.828-64.516-54.133-20.53-20.496"
      fill="#cb3b46"
    />
    <path
      d="M147.618 147.585l-.072.102 23.745 16.663 64.426 54.05-3.064 3.636-64.415-54.05-20.53-20.49-.088.09-.07.1.07-.1-.088.088 20.535 20.497 64.616 54.218 3.387-4.018-64.623-54.22-23.754-16.666-.16.19.087-.09"
      fill="#cb3b46"
    />
    <path
      d="M147.618 147.582l20.493 20.538 54.147 64.516-3.842 3.21-54.136-64.516-16.66-23.748"
      fill="#f46f1b"
    />
    <path
      d="M147.618 147.582l-.09.09 20.49 20.533 54.062 64.416-3.65 3.05-54.053-64.415-16.657-23.743-.102.072-.09.09.09-.09-.103.073 16.664 23.75 54.217 64.615 4.035-3.368-54.23-64.617-20.497-20.54-.19.16.102-.073"
      fill="#f46f1b"
    />
    <path
      d="M147.618 147.582l16.967 24.393 43.142 74.71-4.34 2.492-43.132-74.707-12.637-26.888"
      fill="#cb3b46"
    />
    <path
      d="M147.618 147.582l-.113.08 16.964 24.387 43.07 74.583-4.104 2.356-43.06-74.585-12.635-26.88-.123.056-.113.08.113-.08-.124.06 12.64 26.893 43.202 74.83 4.58-2.63L164.7 171.9l-16.97-24.395-.236.136.124-.057"
      fill="#cb3b46"
    />
    <path
      d="M147.615 147.582l12.78 27.804 30.394 83.494-4.708 1.7-30.387-83.487-8.08-29.51"
      fill="#cb3b46"
    />
    <path
      d="M147.615 147.582l-.125.058 12.776 27.797 30.347 83.36-4.448 1.608-30.337-83.355-8.08-29.504-.133.037-.125.057.125-.057-.133.036 8.083 29.513L186 260.758l4.965-1.797-30.444-83.625-12.78-27.81-.256.095.132-.037"
      fill="#cb3b46"
    />
    <path
      d="M147.61 147.582l7.537 28.358 14.8 83.886-4.932.858-14.79-83.88-2.615-29.22"
      fill="#ed1c24"
    />
    <path
      d="M147.61 147.582l-.12.033 7.535 28.352 14.777 83.758-4.686.814-14.767-83.754-2.616-29.215-.125.01-.12.034.12-.033-.125.013 2.615 29.227 14.814 84.007 5.177-.898-14.82-84.02-7.54-28.36-.243.043.124-.012"
      fill="#ed1c24"
    />
    <path
      d="M147.61 147.607l2.5 28.91.007 84.225-5.007-.015V176.51l2.5-28.903"
      fill="#273540"
    />
    <path
      d="M147.61 147.607l-.124.012 2.5 28.9.007 84.095-4.758-.014v-84.085l2.5-28.897-.125-.013-.124.012.124-.013-.124-.01-2.5 28.91v84.345l5.257.014-.008-84.356-2.5-28.914h-.25l.125.01"
      fill="#273540"
    />
    <path
      d="M147.607 147.615l-2.61 29.214-14.782 83.85-4.93-.89 14.786-83.836 7.538-28.34"
      fill="#f46f1b"
    />
    <path
      d="M147.607 147.615l-.123-.01-2.613 29.207-14.755 83.722-4.683-.843 14.764-83.71 7.535-28.33-.122-.034-.123-.01.123.01-.12-.033-7.538 28.345-14.81 83.967 5.176.93 14.804-83.98 2.612-29.218-.245-.044.12.033"
      fill="#f46f1b"
    />
    <path
      d="M147.618 147.65l-8.06 29.453-30.314 83.312-4.702-1.73 30.32-83.3 12.756-27.734"
      fill="#ed1c24"
    />
    <path
      d="M147.618 147.65l-.12-.03-8.058 29.444-30.27 83.19-4.468-1.642 30.276-83.18 12.753-27.728-.11-.053-.12-.03.12.03-.115-.05-12.758 27.737-30.365 83.425 4.938 1.816 30.36-83.436 8.06-29.455-.234-.086.114.05"
      fill="#ed1c24"
    />
    <path
      d="M147.618 147.65l-12.7 27-43.304 75.017-4.33-2.516 43.307-75.005 17.03-24.493"
      fill="#273540"
    />
    <path
      d="M147.618 147.65l-.113-.05-12.7 26.992-43.236 74.905-4.117-2.392 43.244-74.894 17.022-24.487-.103-.07-.113-.053.113.05-.103-.07-17.03 24.496-43.372 75.12 4.547 2.643 43.37-75.13 12.7-27.006-.216-.125.102.07"
      fill="#273540"
    />
    <path
      d="M147.618 147.612l-16.67 23.753-54.13 64.526-3.83-3.23 54.137-64.514 20.492-20.533"
      fill="#cb3b46"
    />
    <path
      d="M147.618 147.612l-.103-.072-16.666 23.75-54.05 64.424-3.637-3.07 54.05-64.416 20.49-20.53-.087-.088-.103-.072.103.072-.09-.088-20.495 20.536-54.22 64.614 4.02 3.393 54.216-64.626 16.672-23.757-.19-.16.088.09"
      fill="#cb3b46"
    />
    <path
      d="M147.618 147.65l-20.542 20.497-64.512 54.148-3.208-3.847 64.514-54.134 23.748-16.663"
      fill="#f46f1b"
    />
    <path
      d="M147.618 147.65l-.088-.088-20.54 20.493-64.41 54.064-3.048-3.658 64.415-54.05 23.743-16.66-.072-.102-.088-.087.087.088-.07-.1-23.753 16.666L59.18 218.43l3.368 4.04 64.612-54.23 20.546-20.5-.16-.19.072.1"
      fill="#f46f1b"
    />
    <path
      d="M147.618 147.585l-24.466 17.01-74.91 43.26-2.492-4.344 74.91-43.25 26.958-12.674"
      fill="#f46f1b"
    />
    <path
      d="M147.618 147.585l-.072-.103-24.46 17.007-74.797 43.194-2.37-4.13 74.797-43.183 26.953-12.67-.052-.115-.072-.103.072.103-.053-.113-26.963 12.678-75.022 43.315 2.617 4.562L123.22 164.7l24.47-17.013-.125-.215.052.113"
      fill="#f46f1b"
    />
    <path
      d="M147.618 147.582l-27.788 12.772-83.44 30.38-1.697-4.714 83.433-30.366 29.49-8.072"
      fill="#273540"
    />
    <path
      d="M147.618 147.582l-.053-.112-27.782 12.77-83.317 30.335-1.613-4.48 83.31-30.32 29.488-8.07-.032-.122-.052-.113.052.113-.032-.12-29.497 8.072-83.556 30.41 1.783 4.95 83.56-30.425 27.794-12.774-.084-.234.033.12"
      fill="#273540"
    />
    <path
      d="M147.618 147.574l-28.36 7.533-83.89 14.805-.854-4.938 83.88-14.79 29.224-2.61"
      fill="#cb3b46"
    />
    <path
      d="M147.618 147.574l-.032-.122-28.355 7.533-83.76 14.782-.81-4.692 83.752-14.768 29.22-2.61-.012-.123-.032-.122.032.122-.012-.125-29.228 2.61-84.01 14.81.898 5.186 84.02-14.827 28.364-7.537-.044-.245.012.124"
      fill="#cb3b46"
    />
    <path
      d="M146.94 147.554l.678.053-28.907 2.495-84.227.015.016-5.012h84.215l28.904 2.502-.68-.053"
      fill="#ed1c24"
    />
    <path
      d="M146.94 147.554l-.01.125.678.05.01-.124-.01-.125-28.902 2.496-84.1.015.016-4.76h84.087l28.897 2.5.02-.25-.68-.052-.02.25.01-.126-.01.125.68.052.02-.25-28.91-2.503H34.374l-.016 5.263 84.36-.016 28.912-2.495-.002-.25-.68-.054-.02.25.01-.126"
      fill="#ed1c24"
    />
    <path
      d="M147.618 147.65l-28.69-2.586-84.355-14.86.887-4.933 84.34 14.87 27.818 7.51"
      fill="#f46f1b"
    />
    <path
      d="M147.618 147.65l.01-.123-28.683-2.587-84.227-14.836.842-4.688 84.213 14.848 27.812 7.508.032-.12.012-.125-.014.124.033-.12-27.823-7.51-84.47-14.893-.93 5.18 84.485 14.88 28.693 2.59.044-.245-.034.12"
      fill="#f46f1b"
    />
    <path
      d="M147.618 147.57l-29.505-8.08-83.487-30.374 1.73-4.705 83.47 30.383 27.792 12.78"
      fill="#cb3b46"
    />
    <path
      d="M147.618 147.57l.033-.12-29.5-8.08-83.362-30.33 1.644-4.47 83.35 30.34 27.785 12.775.052-.114.033-.12-.033.12.053-.112-27.795-12.78-83.592-30.426-1.818 4.94 83.61 30.42 29.51 8.08.085-.233-.052.113"
      fill="#cb3b46"
    />
    <path
      d="M147.618 147.612l-27.088-12.758-75.305-43.458 2.525-4.334 75.283 43.465 24.584 17.085"
      fill="#f46f1b"
    />
    <path
      d="M147.618 147.612l.053-.113-27.08-12.76L45.4 91.35l2.396-4.117 75.17 43.398 24.58 17.084.073-.103.052-.112-.052.112.07-.102-24.588-17.09L47.706 86.89l-2.65 4.55 75.42 43.523 27.09 12.76.125-.215-.07.102"
      fill="#f46f1b"
    />
    <path
      d="M147.586 147.65l-23.748-16.67-64.533-54.127 3.235-3.83 64.514 54.133 20.532 20.495"
      fill="#ed1c24"
    />
    <path
      d="M147.586 147.65l.07-.1-23.742-16.668L59.48 76.84l3.076-3.64 64.415 54.05 20.528 20.492.09-.09.07-.1-.07.1.087-.088-20.535-20.498-64.616-54.218-3.396 4.023 64.634 54.21 23.752 16.675.16-.192-.088.09"
      fill="#ed1c24"
    />
    <path
      d="M147.615 147.615l-20.492-20.54-54.156-64.51 3.852-3.214 54.132 64.518 16.662 23.748"
      fill="#f46f1b"
    />
    <path
      d="M147.615 147.615l.09-.09-20.49-20.534-54.072-64.41 3.66-3.053 54.05 64.418 16.66 23.742.102-.07.09-.09-.09.09.102-.074-16.665-23.75-54.217-64.617-4.044 3.373 54.24 64.61 20.497 20.544.19-.16-.1.072"
      fill="#f46f1b"
    />
    <path
      d="M147.618 147.612l-17.055-24.548-43.416-75.157 4.352-2.495 43.39 75.16 12.727 27.04"
      fill="#ed1c24"
    />
    <path
      d="M147.618 147.612l.113-.078-17.05-24.544-43.345-75.03 4.115-2.36 43.32 75.035 12.724 27.036.124-.057.113-.078-.11.078.124-.058-12.73-27.047L91.55 45.225l-4.59 2.632 43.486 75.28 17.06 24.554.237-.135-.125.058"
      fill="#ed1c24"
    />
    <path
      d="M147.615 147.574l-12.76-27.76-30.362-83.364 4.72-1.7 30.338 83.36 8.066 29.464"
      fill="#f46f1b"
    />
    <path
      d="M147.615 147.574l.136-.064-12.754-27.753-30.31-83.217 4.44-1.598 30.284 83.214 8.06 29.456.145-.038.136-.064-.134.064.145-.04-8.064-29.47-30.39-83.505-5.005 1.8 30.42 83.51 12.76 27.765.28-.102-.144.04"
      fill="#f46f1b"
    />
    <path
      d="M147.615 147.625l-7.534-28.358-14.81-83.888 4.944-.857L145 118.403l2.615 29.22"
      fill="#273540"
    />
    <path
      d="M147.615 147.625l.03-.01-7.534-28.354-14.804-83.855 4.883-.844 14.78 83.848 2.615 29.22.03-.002.03-.01-.03.01.032-.004-2.615-29.22-14.79-83.912-5.007.865 14.818 83.922 7.535 28.358.06-.012-.03.005"
      fill="#273540"
    />
</svg>