  <svg
    viewBox="0 0 323.14999 323.14999"
    height="80"
    width="80"
    version="1.1"
    type="logo"
    a11ytitle="Atlas"
  >
    <path d="M0 323.15h323.147V0H0v323.15z" fill="#fff" />
    <path
      d="M73.557 162.622c.723 4.78 1.71 9.458 2.997 13.992-.913-.272-1.735-.59-2.457-.938-.7-1.384-1.374-2.776-2.01-4.196l.035-.022c-.885-1.714-.633-4.688 1.435-8.836zM62.615 127.44c0-26.464 9.652-50.72 25.6-69.444-.428 6.018-.006 12.893 1.272 20.513-2.098 3.824-4.06 7.8-5.844 11.91-8.125 18.775-11.762 38.146-11.408 56.48-2.346 2.865-4.337 5.66-5.945 8.38-2.386-8.88-3.675-18.213-3.675-27.84zm39.542-7.643c-9.19 6.78-17.303 13.653-23.802 20.316.57-15.474 4.097-31.588 10.89-47.27.7-1.627 1.435-3.23 2.2-4.813 2.417 10.046 6.037 20.766 10.712 31.768zm1.36-76.538c2.54-2.013 5.18-3.903 7.896-5.675 2.96.102 6.263.867 9.817 2.25C112.68 46.88 104.82 55.3 97.978 64.93c-.365-10.135 1.526-17.653 5.54-21.67zm48.18-21.49c-8.58 3.34-16.922 7.932-24.777 13.655-2.473-1.143-4.88-2.065-7.196-2.74 9.855-5.23 20.6-8.97 31.972-10.915zm34.4-.308c19.095 2.915 36.552 10.9 50.948 22.52 4.06 4.265 7.67 9.055 10.794 14.327-24.22-.185-62.53 13.68-96.625 31.304-14.356 7.43-28.326 15.728-40.79 24.3-4.976-12-8.614-23.574-10.66-34.17-.347-1.785-.632-3.514-.873-5.21 7.958-12.654 17.69-23.407 28.477-31.85 11.29 6.066 24.516 17.33 37.85 32.695 2.006-.924 4.005-1.83 5.99-2.71-13.38-15.663-26.496-27.224-38.254-34.086 16.506-11.365 35.026-17.49 53.14-17.122zM78.784 183.476c.15.41.288.816.437 1.22-.267-.424-.535-.85-.797-1.28.12.02.238.044.36.06zm182.78-110.832l.29-.154c.954 1.592 1.87 3.214 2.737 4.856-.17 1.028-.484 2.126-.947 3.3-.1-.382-.184-.766-.294-1.144-.75-2.705-1.618-5.33-2.548-7.903.303.33.567.67.762 1.044zM89.374 192.65c-1.437-2.78-2.758-5.658-3.918-8.634.354.013.71.024 1.08.024 10.32 0 23.812-2.477 39.824-7.434-1.25-1.782-2.477-3.59-3.697-5.405-17.53 5.273-30.675 7.023-39.453 6.47-2.287-7.265-3.81-14.962-4.5-22.94 2.82-3.592 6.59-7.686 11.522-12.276 4.74-4.408 10.15-8.894 16.096-13.376 4.385 9.293 9.46 18.707 15.163 28.01 7.94 12.98 16.61 25.002 25.566 35.563h13.24c-10.153-11.05-20.546-24.71-30.352-40.734-5.864-9.58-11.05-19.255-15.453-28.76 12.215-8.544 26.24-16.97 41.274-24.747 46.872-24.238 81.69-31.974 97.26-29.904 1.73 4.01 3.232 8.215 4.456 12.62.66 2.41 1.21 4.845 1.716 7.306-8.27 11.534-25.473 26.678-49.648 42.012-3.535-6.922-7.427-13.887-11.653-20.803-3.82-6.225-7.846-12.304-11.987-18.106-1.932.825-3.904 1.673-5.907 2.57 4.323 6 8.54 12.332 12.51 18.836 4.245 6.93 8.14 13.91 11.655 20.84-7.397 4.51-15.376 9.012-23.91 13.427-11.78 6.087-23.56 11.453-35.05 15.972 1.25 1.792 2.503 3.53 3.744 5.23 11.223-4.475 22.698-9.73 34.176-15.66 8.074-4.176 16.093-8.683 23.8-13.38 7.883 16.396 13.56 32.37 16.438 46.567.47 2.322.842 4.554 1.147 6.714h6.37c-.344-2.555-.776-5.2-1.337-7.96-3.01-14.87-8.965-31.568-17.224-48.66 20.126-12.734 37.704-26.628 48.258-39.186 2.63 21.415-.823 44.267-10.16 65.827-4.805 11.105-10.91 21.15-17.928 29.98h7.66c6.134-8.293 11.516-17.504 15.865-27.56 10.664-24.616 14.004-50.898 9.705-75.126 1.035-1.602 1.93-3.17 2.67-4.7 5.565 12.953 8.655 27.21 8.655 42.175 0 24.52-8.286 47.132-22.19 65.21h12.218c12.536-18.65 19.882-41.083 19.882-65.21 0-64.58-52.54-117.123-117.124-117.123-25.937 0-49.93 8.482-69.364 22.813l-.018-.03c-1.315.794-2.506 1.746-3.61 2.82-26.878 21.475-44.13 54.522-44.13 91.52 0 24.12 7.332 46.56 19.872 65.21h16.795M24.425 312.67H9.45v-26.64h14.975v3.675H13.78v7.25h9.98v3.648h-9.98v8.364h10.645v3.702M59.247 312.67h-4.983l-6.625-10.902-6.686 10.9h-4.64l8.788-13.818-8.217-12.82h4.81l6.12 10.076 6.125-10.076h4.672l-8.275 12.9 8.91 13.74M76.07 299.04h2.303c2.223 0 3.856-.393 4.89-1.17 1.036-.778 1.557-1.99 1.557-3.646 0-1.53-.465-2.666-1.395-3.423-.928-.757-2.38-1.132-4.346-1.132h-3.01v9.372zm13.205-4.957c0 2.782-.908 4.908-2.72 6.39-1.808 1.485-4.382 2.224-7.734 2.224h-2.75v9.972h-4.33v-26.64h7.632c3.302 0 5.786.674 7.43 2.04 1.65 1.36 2.473 3.36 2.473 6.013M117.56 312.67h-14.974v-26.64h14.975v3.675h-10.643v7.25h9.982v3.648h-9.983v8.364h10.644v3.702M135.93 298.415h3.007c2.02 0 3.483-.372 4.384-1.13.906-.75 1.362-1.872 1.362-3.354 0-1.506-.492-2.585-1.467-3.244-.975-.65-2.455-.98-4.42-.98h-2.864v8.71zm0 3.61v10.644h-4.326v-26.64h7.485c3.41 0 5.94.643 7.58 1.93 1.643 1.288 2.465 3.23 2.465 5.83 0 3.315-1.715 5.68-5.14 7.08l7.48 11.8h-4.924l-6.344-10.643h-4.275M164.08 312.67h4.333v-26.64h-4.332v26.64zM195.18 312.67l-7.68-22.252h-.15c.207 3.303.313 6.4.313 9.292v12.96h-3.93v-26.64h6.1l7.352 21.186h.114l7.57-21.186h6.125v26.64h-4.17v-13.175c0-1.33.037-3.05.1-5.176.066-2.132.125-3.416.17-3.866h-.14l-7.95 22.215h-3.825M241.308 312.67h-14.983v-26.64h14.983v3.675h-10.654v7.25h9.985v3.648h-9.986v8.364h10.654v3.702M277.41 312.67h-5.31l-13.02-21.23h-.145l.083 1.177c.178 2.265.258 4.33.258 6.197v13.855h-3.932v-26.64h5.254l12.99 21.12h.108c-.027-.283-.08-1.3-.152-3.06-.063-1.754-.1-3.12-.1-4.11v-13.95h3.965v26.64M302.216 312.67h-4.33v-22.906h-7.79v-3.734h19.913v3.734h-7.794v22.905M53.976 244.985c-4.935-15.886-7.715-24.873-8.334-26.947-.625-2.085-1.06-3.73-1.337-4.942-1.105 4.3-4.277 14.93-9.514 31.89h19.186zm9.07 30.618L57.7 258.076H30.86l-5.34 17.527H8.694l25.994-73.94h19.084l26.094 73.94h-16.82M105.675 275.603H90.06v-60.64H70.07v-12.998h55.6v13h-19.995v60.638M135.215 275.603v-73.638h15.617v60.74H180.7v12.898h-45.485M229.91 244.985c-4.933-15.886-7.71-24.873-8.334-26.947-.625-2.085-1.064-3.73-1.335-4.942-1.11 4.3-4.276 14.93-9.518 31.89h19.19zm9.07 30.618l-5.34-17.527h-26.844l-5.34 17.527h-16.82l25.986-73.94h19.09l26.088 73.94h-16.82M309.94 255.156c0 6.648-2.385 11.885-7.172 15.713-4.788 3.827-11.445 5.74-19.965 5.74-7.867 0-14.81-1.476-20.858-4.43v-14.506c4.966 2.216 9.175 3.773 12.618 4.682 3.442.905 6.588 1.36 9.443 1.36 3.423 0 6.054-.655 7.88-1.966 1.832-1.306 2.748-3.254 2.748-5.84 0-1.448-.4-2.73-1.21-3.852-.808-1.125-1.986-2.21-3.55-3.252-1.564-1.042-4.745-2.702-9.545-4.982-4.497-2.12-7.877-4.152-10.122-6.096-2.252-1.944-4.054-4.213-5.392-6.8-1.342-2.586-2.008-5.603-2.008-9.068 0-6.516 2.198-11.632 6.62-15.354 4.417-3.73 10.518-5.593 18.31-5.593 3.825 0 7.47.454 10.953 1.355 3.473.91 7.105 2.19 10.9 3.833l-5.035 12.137c-3.93-1.61-7.18-2.737-9.746-3.376-2.567-.636-5.096-.956-7.576-.956-2.958 0-5.225.693-6.803 2.065-1.58 1.38-2.37 3.173-2.37 5.39 0 1.374.32 2.575.965 3.6.63 1.023 1.65 2.015 3.04 2.973 1.394.956 4.695 2.677 9.9 5.16 6.885 3.293 11.6 6.595 14.153 9.898 2.546 3.31 3.823 7.36 3.823 12.166"
      fill="#3a7dc8"
    />
  </svg>