
<svg version="1.1" id="layer" xmlns="http://www.w3.org/2000/svg" xmlns:xlink="http://www.w3.org/1999/xlink" x="0px" y="0px"
	 viewBox="0 0 652 652" style="enable-background:new 0 0 652 652;" xml:space="preserve">
<style type="text/css">
	.st0{clip-path:url(#SVGID_2_);fill:#0052A3;}
</style>
<g>
	<defs>
		<rect id="SVGID_1_" x="70.8" y="71.9" width="500" height="500"/>
	</defs>
	<clipPath id="SVGID_2_">
		<use xlink:href="#SVGID_1_"  style="overflow:visible;"/>
	</clipPath>
	<path class="st0" d="M440.4,285.8c0.8,44.1-19.4,74-25.8,84.4c-5.5,9-18.8,26.5-44.3,53.6c-32.2,34.2-132.7,141-139.4,148.1h272.6
		l-62.9-286.2L440.4,285.8z M465.5,431.8l2.3,10.2c-27,29.2-68.3,51-116.4,51c-10.3,0-21.1-1-33-3.5c2.4-2.6,4.8-5.1,6.9-7.4
		c7.7,1.4,16.5,2.3,25.6,2.3C397.6,484.5,438.5,463.4,465.5,431.8 M70.8,71.9v500h149.2l147.6-157l-0.2-0.2
		c-23.7,16.7-53.9,25.8-86.3,25.8c-60.2,0-113.2-35.7-136.2-80.1l-0.2,0.2L176,466.3h-8.5c0,0-15.5-53.5-28.8-100.2
		c-10-35.3-16.2-61.5-16.1-84.7c0.3-79.9,63.1-153.1,146.6-158.5c2.3-0.2,9.4-0.9,20-0.9c64.3,0,262.6,1.5,281.7,1.6V71.9H70.8z
		 M246.4,443.7c12,10.4,30.9,23.4,54.4,31.8c-2,2.1-4.1,4.4-6.4,6.8c-23.4-9.3-46.3-23.7-64.2-43C235.3,441,240.8,442.5,246.4,443.7
		 M326.8,129.7c24.6,6.9,47.8,19.6,66.2,36.7c-5.3-1.4-10.7-2.6-16.2-3.4c-25.8-20.4-59.5-32.6-94.6-32.6c-83,0-151,67.7-151,150.9
		c0,83.2,67.7,150.9,150.9,150.9c83.2,0,150.9-67.7,150.9-150.9c0-32.2-12.1-64.4-28.8-87.1c4,1.2,8.8,3.2,14.4,6.5
		c11.3,17.1,21.7,45,30.7,87.8c9.4,44.9,57.7,260,63,283.3h58.5V131l-244-1.5V129.7z M158.8,277.8c0-20.2,15.3-33.6,36-33.6
		c8.1,0,17.3,2.5,22.5,4.7c-1.1,2.4-2,5.5-2.3,7.5l-0.6,0.2c-4-4.4-10.4-8.2-19.9-8.2c-12,0-25.9,9.8-25.9,29.2
		c0,18.9,14.1,29,26.8,29c11.3,0,16.8-5.3,21.7-9.4l0.4,0.4l-1.4,7.4c-2.2,1.7-10,6.5-21.7,6.5C173.2,311.4,158.8,298.1,158.8,277.8
		 M208.4,403.5c-11.2-22.8-16.3-45.9-16.9-67.9c2.8,0,6.1,0.1,9,0.1c1,21.1,5.8,47.4,22.3,76C216.8,409.5,212.3,406.6,208.4,403.5
		 M268.5,310.2L268.5,310.2c-3.4-0.2-8.1-0.3-12.5-0.4c-2.6,0-5-0.1-7-0.1h-0.8c-5.7,0-14.5,0.2-20.2,0.5c0.4-8.2,0.8-16.3,0.8-24.4
		v-16.1c0-8.1-0.4-16.2-0.8-24.2c5.6,0.3,14.3,0.5,20,0.5s16.1-0.2,19.4-0.5c-0.1,0.9-0.2,1.9-0.2,3.2c0,1.3,0.1,2.6,0.2,3.2
		c-6.2-0.5-17.2-1.2-29.4-1.2c-0.1,4-0.3,21.1-0.3,23.5c11.1,0,18.2-0.5,23.7-0.9c-0.2,0.9-0.3,2.6-0.3,3.6c0,0.9,0.1,2.3,0.3,3.3
		c-6.5-0.7-21-0.8-23.7-0.8c-0.2,3.1,0,23.4,0.1,25.2c6.9-0.1,24.4-0.6,30.8-1.2c-0.1,0.7-0.2,2.2-0.2,3.6S268.3,309.2,268.5,310.2
		 M323.6,309.9c-0.9,0-4.1,0-5.9,0.3c-3.7-5.6-15.6-23.5-23.7-31.8c-0.2,0-4.8,0-4.8,0v7.5c0,8.1,0.4,16.2,0.8,24.3
		c-1.6-0.3-4.5-0.3-5.1-0.3c-0.6,0-3.5,0-5.1,0.3c0.4-8.1,0.8-16.2,0.8-24.3v-16.1c0-8.1-0.4-16.2-0.8-24.3
		c3.6,0.3,8.1,0.5,11.7,0.5c3.6,0,7.1-0.5,10.7-0.5c10.6,0,20.3,3.1,20.3,14.9c0,12.5-12.4,17-19.6,17.9
		c4.6,5.7,21.1,25.8,26.5,31.9C327.6,309.9,324.4,309.9,323.6,309.9 M394.6,311.1l-3.1,0c-3.8-5.1-43.1-46.2-46.6-49.8
		c-0.1,3.5-0.1,10.7-0.1,17.7c0,9.3,0.7,23.6,1.1,31.2c-1-0.2-2.4-0.3-4-0.3c-1.7,0-3,0.2-4.1,0.3c0.8-9.9,1-26,1-41.2
		c0-11.8-0.2-18.3-0.3-24.3l3.1,0c4,4.3,43.1,44.9,46.6,48.5c0.1-3.5,0.1-9.6,0.1-16.6c0-9.3-0.7-23.6-1.1-31.2c1,0.2,2.4,0.3,4,0.3
		c1.7,0,3-0.1,4.1-0.3c-0.8,9.9-1,26-1,41.2C394.3,298.4,394.5,305.1,394.6,311.1 M475.4,227.9c17.4,21.4,31.6,55.2,33.6,83.6h0.3
		l14.5-150.1l8.2,0c0,0-9.3,97-14.7,145.3c-6.8,60.4-15.4,85.5-31.9,111.8l-2.5-11.5c12.8-22.6,16.5-42.2,18.2-52.6
		c5.2-32.3-2.2-76.4-24.7-110.8c-25.2-38.5-70.3-66.9-125.6-66.9c-45.4,0-84.9,20-112.5,51.1l-6.7-5.3
		c29.2-33.1,71.6-54.2,119.2-54.2C400.7,168.4,445.1,190.8,475.4,227.9 M313.5,261.7c0-9.3-8.2-12.3-14.5-12.3
		c-4.3,0-7.1,0.3-9.1,0.5c-0.3,6.9-0.6,13.2-0.6,19.9v5.2c0.9,0.1,5.3,0.1,6.3,0.1C303.3,274.8,313.5,272.4,313.5,261.7"/>
</g>
</svg>
