  <svg
    viewBox="0 0 491.625 491.95001"
    height="80"
    width="80"
    version="1.1"
    type="logo"
    a11ytitle="Atlas"
  >
    <path
      d="M490.634 1.777l.23 487.867H2.298L2.07 1.777h488.564"
      fill="#fcf9f0"
    />
    <path
      d="M1.996 489.88l488.248-.314c-1.56 0-.188.008-.865-10.13C463.617 88.99 144.35 3.62 2.79 2.687c-.525-.005-.796.04-.796.04v487.153"
      fill="#84d5f6"
    />
    <path
      d="M1.996 489.88l488.248-.314c-1.56 0-.188.008-.865-10.13C463.617 88.99 144.35 3.62 2.79 2.687c-.525-.005-.796.04-.796.04v487.153z"
      fill="none"
      stroke="#474445"
      strokeWidth=".624875"
    />
    <path
      d="M2.437 206.315s2.593.3 5.042.386c107.5 3.746 270.605 81.855 277.487 277.44.204 5.953.382 5.824.382 5.824-283.05-.32-283.1-.04-283.1-.04l.187-283.61"
      fill="#fcd882"
    />
    <path
      d="M2.437 206.315s2.593.3 5.042.386c107.5 3.746 270.605 81.855 277.487 277.44.204 5.953.382 5.824.382 5.824-283.05-.32-283.1-.04-283.1-.04l.187-283.61z"
      fill="none"
      stroke="#474445"
      strokeWidth=".624875"
    />
    <path
      d="M2.216 300.86s1.644.4 4.68.476c36.83.966 175.573 28.462 183.075 187.178.188 3.975-.084 1.45-.084 1.45-188 .1-187.636-.04-187.636-.04L2.216 300.86"
      fill="#dfe5e9"
    />
    <path
      d="M2.216 300.86s1.644.4 4.68.476c36.83.966 175.573 28.462 183.075 187.178.188 3.975-.084 1.45-.084 1.45-188 .1-187.636-.04-187.636-.04L2.216 300.86z"
      fill="none"
      stroke="#474445"
      strokeWidth=".624875"
    />
    <path
      d="M2.225 377.275s103.642-5.73 113.483 110.443l.204 2.346c-114.027 0-113.687.07-113.687.07v-112.86"
      fill="#b49dd3"
    />
    <path
      d="M2.225 377.275s103.642-5.73 113.483 110.443l.204 2.346c-114.027 0-113.687.07-113.687.07v-112.86z"
      fill="none"
      stroke="#959394"
      strokeWidth=".624875"
    />
    <path
      d="M126.956 159.89c-9.604 6.404-22.106 8.693-33.702 8.693-33.55 0-53.673-21.193-53.673-54.582 0-34.302 25.32-53.817 57.496-53.817 11.13 0 22.565 2.588 32.78 7.013-1.527 3.81-2.442 7.772-3.205 11.738l-1.066.154c-2.137-2.743-13.427-13.113-29.126-13.113-28.05 0-41.925 22.72-41.925 48.636 0 29.275 16.766 48.028 40.865 48.028 16.46 0 29.27-9.76 32.322-12.35l-.764 9.603"
      fill="#26316b"
    />
    <path
      d="M126.956 159.89c-9.604 6.404-22.106 8.693-33.702 8.693-33.55 0-53.673-21.193-53.673-54.582 0-34.302 25.32-53.817 57.496-53.817 11.13 0 22.565 2.588 32.78 7.013-1.527 3.81-2.442 7.772-3.205 11.738l-1.066.154c-2.137-2.743-13.427-13.113-29.126-13.113-28.05 0-41.925 22.72-41.925 48.636 0 29.275 16.766 48.028 40.865 48.028 16.46 0 29.27-9.76 32.322-12.35l-.764 9.603z"
      fill="none"
      stroke="#fff"
      strokeWidth="1.301875"
    />
    <path
      d="M251.086 62.47c3.966 37.657 8.24 75.165 12.35 104.286-2.755-.157-4.88-.462-7.18-.462-2.422 0-4.863.305-7.152.462-2.595-30.65-5.646-63.577-7.783-78.672-17.68 31.557-30.802 55.95-39.95 76.99h-1.67l-8.39-17.227c-9.765-20.12-20.436-39.94-30.804-59.763-3.356 29.73-7.467 59.916-7.467 78.672-1.994-.157-3.664-.462-5.342-.462-1.975 0-3.653.305-5.493.462 3.976-24.55 13.114-88.28 14.648-104.285h3.958c12.208 24.24 26.838 52.904 43.164 79.89 14.48-26.07 28.507-52.6 43.907-79.89h3.206"
      fill="#26316b"
    />
    <path
      d="M251.086 62.47c3.966 37.657 8.24 75.165 12.35 104.286-2.755-.157-4.88-.462-7.18-.462-2.422 0-4.863.305-7.152.462-2.595-30.65-5.646-63.577-7.783-78.672-17.68 31.557-30.802 55.95-39.95 76.99h-1.67l-8.39-17.227c-9.765-20.12-20.436-39.94-30.804-59.763-3.356 29.73-7.467 59.916-7.467 78.672-1.994-.157-3.664-.462-5.342-.462-1.975 0-3.653.305-5.493.462 3.976-24.55 13.114-88.28 14.648-104.285h3.958c12.208 24.24 26.838 52.904 43.164 79.89 14.48-26.07 28.507-52.6 43.907-79.89h3.206z"
      fill="none"
      stroke="#fff"
      strokeWidth="1.301875"
    />
    <path
      d="M282.33 146.17c5.95 9.755 12.81 15.858 24.71 15.858 12.35 0 21.182-10.214 21.182-22.262 0-28.354-47.713-15.857-47.713-50.31 0-19.67 15.545-29.274 33.846-29.274 7.324 0 16.173 2.29 21.8 7.32-1.83 3.962-2.89 8.233-4.11 12.5h-1.517c-3.215-8.23-9.918-13.265-18.923-13.265-10.518 0-19.206 7.014-19.206 17.842 0 28.047 48.03 16.767 48.03 49.24 0 21.804-16.92 34.762-37.66 34.762-7.47 0-19.676-3.203-24.855-8.84 1.517-4.423 2.28-9 2.89-13.573h1.525"
      fill="#26316b"
    />
    <path
      d="M282.33 146.17c5.95 9.755 12.81 15.858 24.71 15.858 12.35 0 21.182-10.214 21.182-22.262 0-28.354-47.713-15.857-47.713-50.31 0-19.67 15.545-29.274 33.846-29.274 7.324 0 16.173 2.29 21.8 7.32-1.83 3.962-2.89 8.233-4.11 12.5h-1.517c-3.215-8.23-9.918-13.265-18.923-13.265-10.518 0-19.206 7.014-19.206 17.842 0 28.047 48.03 16.767 48.03 49.24 0 21.804-16.92 34.762-37.66 34.762-7.47 0-19.676-3.203-24.855-8.84 1.517-4.423 2.28-9 2.89-13.573h1.525z"
      fill="none"
      stroke="#fff"
      strokeWidth="1.301875"
    />
    <path
      d="M2.208 382.92s98.462-5.44 107.813 104.924l.188 2.22c-108.323 0-108 .07-108 .07V382.92"
      fill="#85d05e"
    />
    <path
      d="M2.208 382.92s98.462-5.44 107.813 104.924l.188 2.22c-108.323 0-108 .07-108 .07V382.92z"
      fill="none"
      stroke="#474445"
      strokeWidth=".624875"
    />
    <path
      d="M2.182 433.705s51.808-2.864 56.742 55.224l.093 1.17c-57.132-.036-56.835.034-56.835.034v-56.43"
      fill="#85d05e"
    />
    <path
      d="M2.182 433.705s51.808-2.864 56.742 55.224l.093 1.17c-57.132-.036-56.835.034-56.835.034v-56.43z"
      fill="none"
      stroke="#474445"
      strokeWidth=".624875"
    />
    <path
      d="M2.182 460.706s27.023-1.49 29.583 28.8l.05.61c-29.93-.052-29.633.018-29.633.018v-29.428"
      fill="#9fda7d"
    />
    <path
      d="M2.182 460.706s27.023-1.49 29.583 28.8l.05.61c-29.93-.052-29.633.018-29.633.018v-29.428z"
      fill="none"
      stroke="#959394"
      strokeWidth=".624875"
    />
    <path
      d="M6.276 485.557S64.45 359.63 223.284 322.645c91.487-21.29 178.974-70.45 218.974-117.106"
      fill="none"
      stroke="#fff"
      strokeWidth="11.310375"
      strokeLinecap="round"
      strokeLinejoin="round"
    />
    <path
      d="M434.99 87.97S337.497 202.11 185.7 289.657C32.12 378.225 6.275 485.558 6.275 485.558"
      fill="none"
      stroke="#fff"
      strokeWidth="11.310375"
      strokeLinecap="round"
      strokeLinejoin="round"
    />
    <path
      d="M6.276 485.557S70.113 377.14 199.54 384.444c102.033 5.747 193.986-34.037 222.74-93.482"
      fill="none"
      stroke="#fff"
      strokeWidth="11.310375"
      strokeLinecap="round"
      strokeLinejoin="round"
    />
    <path
      d="M6.276 485.557s50.63-87.44 208.3-51.936c142.704 32.12 151.74-9.916 174.235-34.07"
      fill="none"
      stroke="#fff"
      strokeWidth="11.310375"
      strokeLinecap="round"
      strokeLinejoin="round"
    />
    <path
      d="M6.415 485.557S64.59 359.63 223.422 322.645c91.487-21.29 178.974-70.45 218.974-117.106"
      fill="none"
      stroke="#ee2c26"
      strokeWidth="7.54025"
      strokeLinecap="round"
      strokeLinejoin="round"
    />
    <path
      d="M435.13 87.97S337.637 202.11 185.84 289.657c-153.58 88.568-179.423 195.9-179.423 195.9"
      fill="none"
      stroke="#ee2c26"
      strokeWidth="7.54025"
      strokeLinecap="round"
      strokeLinejoin="round"
    />
    <path
      d="M6.415 485.557S70.252 377.14 199.68 384.444c102.03 5.747 193.985-34.037 222.738-93.482"
      fill="none"
      stroke="#ee2c26"
      strokeWidth="7.54025"
      strokeLinecap="round"
      strokeLinejoin="round"
    />
    <path
      d="M6.415 485.557s50.63-87.44 208.3-51.936c142.704 32.12 151.74-9.916 174.235-34.07"
      fill="none"
      stroke="#ee2c26"
      strokeWidth="7.54025"
      strokeLinecap="round"
      strokeLinejoin="round"
    />
    <path
      d="M1.885 490.064h487.85V1.88H1.885v488.184z"
      fill="none"
      stroke="#231f20"
      strokeWidth="3.770125"
      strokeLinejoin="round"
    />
    <path
      d="M469.526 295.646c-2.832.608-3.35 2.968-3.35 4.52 0 2.923 2.16 5.285 6.41 5.285 3.8 0 6.724-1.347 6.724-5.35 0-1.418-.675-3.87-4.43-4.61v-2.115c6.093.9 6.363 5.848 6.363 7.06 0 3.667-2.384 7.265-8.592 7.265-4.966 0-8.407-2.834-8.407-7.534 0-4.16 2.586-6.317 5.283-6.632v2.112M479.42 286.195c0-2.834-2.923-3.42-4.496-3.42-1.574 0-4.498.586-4.498 3.42 0 2.833 2.924 3.417 4.498 3.417 1.574 0 4.497-.585 4.497-3.417zm-10.703 0c0-3.755 3.17-5.464 6.207-5.464 3.035 0 6.207 1.71 6.207 5.465s-3.17 5.464-6.206 5.464c-3.036 0-6.206-1.71-6.206-5.465M469.054 278.477v-1.867h1.664v-.044c-.63-.427-2-1.44-2-3.554 0-2.115 1.28-2.79 1.91-3.126-1.102-.99-1.91-1.776-1.91-3.6 0-1.257.65-3.64 3.957-3.64h8.14v1.98h-7.6c-1.62 0-2.72.492-2.72 2.18 0 1.664 1.574 2.765 3.146 2.765h7.176v1.98h-8.14c-.99 0-2.182.383-2.182 1.845 0 1.124.72 3.103 3.913 3.103h6.41v1.98h-11.763M479.444 254.792c0-2.16-1.955-3.17-4.543-3.17-1.506 0-4.406.157-4.406 3.215 0 2.857 3.08 3.172 4.992 3.172 3.125 0 3.958-1.96 3.958-3.217zm-10.39 5.105v-1.867h1.664v-.045c-.674-.473-2-1.37-2-3.508 0-3.126 2.563-4.902 5.868-4.902 2.81 0 6.566 1.17 6.566 5.172 0 1.574-.742 2.608-1.574 3.125v.047h5.892v1.977h-16.416M474.81 240.057c.25.315.43.81.744 3.262.135.965.426 2.517 1.91 2.517 1.282 0 2.048-.652 2.048-2.136 0-1.844-1.192-3.643-2.766-3.643h-1.935zm-2.18 7.242c-2.81-.09-3.913-1.958-3.913-4.858 0-.945.27-4.362 3.283-4.362h6.77c.492 0 .696-.25.696-.653 0-.18-.045-.427-.09-.652h1.44c.09.337.224.63.224 1.08 0 1.752-.9 2.024-1.8 2.09.834.765 1.913 1.958 1.913 4.25 0 2.16-1.373 3.69-3.397 3.69-.988 0-3.282-.294-3.687-3.577l-.405-3.26c-.045-.473-.225-1.035-1.394-1.035-1.237 0-1.91.9-1.91 2.766 0 2.248 1.37 2.563 2.27 2.698v1.82M473.012 227.37c-1.573.247-2.518 1.125-2.518 2.79 0 2.45 2.338 3.236 4.43 3.236 2.024 0 4.52-.495 4.52-3.215 0-1.326-.99-2.473-2.79-2.81v-1.91c1.867.2 4.498 1.348 4.498 4.79 0 3.304-2.496 5.26-5.89 5.26-3.645 0-6.545-1.754-6.545-5.644 0-3.08 2.25-4.25 4.295-4.407v1.91M470.696 221.045h7.646c.92 0 .92-.787.92-1.192v-.697h1.554c.067.72.157 1.282.157 1.484 0 1.956-1.102 2.384-2.518 2.384h-7.76v1.596h-1.64v-1.596h-3.284v-1.98h3.284v-1.888h1.642v1.89M480.816 197.434h-9.535c-.47 0-2.517-.045-4.024-.045v.044l13.56 4.542v2.158l-13.537 4.543v.044c1.483 0 3.53-.043 4-.043h9.536v2.114H464.67v-3.125l13.65-4.61v-.044l-13.65-4.586v-3.104h16.146v2.114M480.816 184.566h-1.71l-.045.044c1.373.832 2.093 1.845 2.093 3.732 0 1.733-.833 3.824-3.643 3.824h-8.456v-1.98h7.805c1.93 0 2.584-.99 2.584-2.27 0-2.495-2.205-3.237-3.914-3.237h-6.476v-1.98h11.762v1.866M479.42 174.936c0-2.834-2.923-3.417-4.496-3.417-1.574 0-4.498.582-4.498 3.416s2.924 3.418 4.498 3.418c1.574 0 4.497-.584 4.497-3.418zm-10.703 0c0-3.756 3.17-5.465 6.207-5.465 3.035 0 6.207 1.71 6.207 5.466 0 3.756-3.17 5.465-6.206 5.465-3.036 0-6.206-1.708-6.206-5.464M480.816 157.637v1.98h-7.24c-2.047 0-3.082.584-3.082 2.52 0 1.123.72 3.102 3.914 3.102h6.408v1.977h-11.762v-1.865h1.664v-.046c-.63-.427-2-1.53-2-3.552 0-1.822.74-4.117 4.092-4.117h8.006M469.392 138.475c-2.497.112-3.283 2.18-3.283 4 0 1.374.38 3.69 2.832 3.69 1.37 0 1.822-.966 2.047-1.91l1.055-4.61c.495-2.093 1.754-3.668 4.317-3.668 3.824 0 4.88 3.555 4.88 6.32 0 2.992-.898 4.162-1.552 4.88-1.235 1.372-2.585 1.642-4.09 1.642v-2.047c2.92 0 3.775-2.385 3.775-4.453 0-1.575-.404-4.23-2.72-4.23-1.686 0-2.226.79-2.856 3.443l-.765 3.306c-.248 1.055-.99 3.44-3.8 3.44-2.52 0-4.993-1.644-4.993-5.556 0-5.643 3.373-6.205 5.15-6.296v2.047M479.42 128.66c0-2.83-2.923-3.416-4.496-3.416-1.574 0-4.498.585-4.498 3.417 0 2.835 2.924 3.42 4.498 3.42 1.574 0 4.497-.585 4.497-3.42zm-10.703 0c0-3.755 3.17-5.464 6.207-5.464 3.035 0 6.207 1.71 6.207 5.465 0 3.757-3.17 5.466-6.206 5.466-3.036 0-6.206-1.71-6.206-5.465M464.67 120.9h16.146v-1.98H464.67v1.98zM474 107.855c-1.82.112-3.506.876-3.506 3.284 0 1.82 1.686 3.26 3.507 3.26v-6.545zm3.126-1.89c.564.07 2.228.607 3.218 2.092.36.54.81 1.304.81 3.194-.002 3.306-2.498 5.262-5.893 5.262-3.643 0-6.543-1.753-6.543-5.645 0-3.395 2.7-5.058 6.86-5.058v8.59c2.45 0 3.867-1.15 3.867-3.42 0-1.865-1.44-2.968-2.318-3.035v-1.98M480.816 93.863v1.98h-7.24c-2.047 0-3.082.583-3.082 2.517 0 1.125.72 3.104 3.914 3.104h6.408v1.98h-11.762v-1.87h1.664v-.043c-.63-.426-2-1.527-2-3.55 0-1.824.74-4.117 4.092-4.117h8.006M479.42 86.145c0-2.834-2.923-3.42-4.496-3.42-1.574 0-4.498.586-4.498 3.42 0 2.832 2.924 3.417 4.498 3.417 1.574 0 4.497-.585 4.497-3.417zm-10.703 0c0-3.755 3.17-5.465 6.207-5.465 3.035 0 6.207 1.71 6.207 5.465s-3.17 5.464-6.206 5.464c-3.036 0-6.206-1.71-6.206-5.465M466.918 78.38h-2.248v-1.978h2.248v1.98zm13.898-1.978v1.98h-11.762V76.4h11.762M479.444 68.89c0-1.26-.833-3.215-3.958-3.215-1.91 0-4.992.315-4.992 3.17 0 3.06 2.9 3.216 4.407 3.216 2.59 0 4.544-1.01 4.544-3.17zm1.372-5.216v1.866h-1.618v.045c1.596.854 1.955 2.204 1.955 3.35 0 4.004-3.755 5.174-6.567 5.174-3.305 0-5.87-1.78-5.87-4.904.002-2.137 1.328-3.036 2.002-3.51l-.157-.044h-5.89v-1.978h16.146"
      fill="#26316b"
    />
  </svg>