<svg width="100%" height="100%" viewBox="0 0 512 512" fill="none" xmlns="http://www.w3.org/2000/svg">
<g clip-path="url(#clip0)">
<path d="M504.503 486.074H500.496C497.439 477.273 491.392 457.714 491.392 440.737C491.392 423.76 497.44 404.2 500.496 395.4H504.503C508.644 395.4 512 392.043 512 387.903C512 383.763 508.644 380.406 504.503 380.406H447.93C452.071 380.406 455.427 377.049 455.427 372.909C455.427 368.769 452.071 365.412 447.93 365.412H447.118C439.722 357.544 433.468 348.729 428.531 339.147C426.634 335.467 422.112 334.021 418.432 335.917C414.752 337.814 413.305 342.335 415.202 346.016C418.721 352.845 422.844 359.321 427.492 365.412H80.223C59.72 365.412 43.04 348.732 43.04 328.229V244.37C43.04 223.867 59.72 207.187 80.223 207.187H299.841V234.263C299.841 238.714 302.532 242.603 306.697 244.172C309.605 245.426 314.922 244.966 318.385 241.253L326.568 231.942L334.75 241.252C337.688 244.596 342.279 245.742 346.439 244.172C350.603 242.603 353.295 238.713 353.295 234.263V207.187H427.459C410.154 229.82 400.773 257.356 400.773 286.298C400.773 293.977 401.446 301.675 402.772 309.177C403.415 312.813 406.578 315.37 410.146 315.37C410.579 315.37 411.019 315.332 411.461 315.254C415.538 314.533 418.258 310.643 417.538 306.566C416.363 299.923 415.767 293.105 415.767 286.298C415.767 256.667 426.87 228.697 447.096 207.187H447.93C452.071 207.187 455.427 203.83 455.427 199.69C455.427 195.549 452.071 192.193 447.93 192.193H501.934C506.075 192.193 509.431 188.836 509.431 184.696C509.431 180.555 506.075 177.199 501.934 177.199H498.799C495.997 169.057 490.743 151.794 490.743 136.787C490.743 121.781 495.997 104.517 498.799 96.3763H501.934C506.075 96.3763 509.431 93.0192 509.431 88.8792C509.431 84.7392 506.075 81.3823 501.934 81.3823H493.422C493.412 81.3823 493.402 81.3823 493.392 81.3823H446.925C449.977 81.3823 452.724 79.5333 453.872 76.7053C455.02 73.8783 454.34 70.6373 452.152 68.5103C446.057 62.5823 442.699 54.6433 442.699 46.1583C442.699 37.6733 446.056 29.7343 452.152 23.8063C456.501 19.8153 454.11 10.7933 446.924 10.9343H108.679C104.538 10.9343 101.182 14.2913 101.182 18.4313C101.182 22.5713 104.539 25.9283 108.679 25.9283H432.349C429.311 32.1453 427.704 39.0193 427.704 46.1573C427.704 53.2953 429.306 60.1703 432.344 66.3863H35.576C24.421 66.3863 15.347 57.3113 15.347 46.1573C15.347 35.0033 24.422 25.9283 35.576 25.9283H70.568C74.709 25.9283 78.065 22.5713 78.065 18.4313C78.065 14.2913 74.708 10.9343 70.568 10.9343H35.576C16.153 10.9343 0.352 26.7353 0.352 46.1583C0.352 65.5813 16.153 81.3823 35.576 81.3823H105.517C74.966 81.3823 50.111 106.237 50.111 136.788C50.111 167.339 74.966 192.194 105.517 192.194H80.223C51.452 192.194 28.046 215.6 28.046 244.371V328.228C28.046 356.999 51.452 380.405 80.223 380.405H60.332C27.065 380.405 0 407.47 0 440.737C0 474.004 27.065 501.069 60.332 501.069H375.769C379.91 501.069 383.266 497.712 383.266 493.572C383.266 489.432 379.91 486.075 375.769 486.075H60.332C35.333 486.075 14.995 465.737 14.995 440.738C14.995 415.739 35.333 395.401 60.332 395.401H484.674C481.17 406.322 476.397 424.226 476.397 440.738C476.397 457.25 481.171 475.155 484.674 486.075H414.192C410.051 486.075 406.695 489.432 406.695 493.572C406.695 497.712 410.051 501.069 414.192 501.069H504.503C508.644 501.069 512 497.712 512 493.572C512 489.432 508.644 486.074 504.503 486.074V486.074ZM333.693 217.335C331.892 215.286 329.295 214.112 326.568 214.112C323.841 214.112 321.244 215.286 319.442 217.336L314.836 222.577V131.851H338.3V222.577L333.693 217.335ZM65.106 136.787C65.106 114.504 83.235 96.3763 105.517 96.3763H482.997C479.838 106.393 475.747 122.184 475.747 136.787C475.747 151.391 479.838 167.182 482.997 177.199H353.294V131.852H421.237C425.378 131.852 428.734 128.495 428.734 124.355C428.734 120.215 425.378 116.858 421.237 116.858H297.266C293.125 116.858 289.769 120.215 289.769 124.355C289.769 128.495 293.125 131.852 297.266 131.852H299.841V177.199H105.518C83.235 177.199 65.106 159.07 65.106 136.787V136.787Z" fill="white"/>
<path d="M220.561 290.267H385.354C389.495 290.267 392.851 286.91 392.851 282.77C392.851 278.629 389.495 275.273 385.354 275.273H220.561C216.42 275.273 213.064 278.63 213.064 282.77C213.064 286.91 216.42 290.267 220.561 290.267V290.267Z" fill="white"/>
<path d="M297.266 443.246C293.125 443.246 289.769 446.603 289.769 450.743C289.769 454.883 293.125 458.24 297.266 458.24H330.948C335.089 458.24 338.445 454.883 338.445 450.743C338.445 446.603 335.089 443.246 330.948 443.246H297.266Z" fill="white"/>
<path d="M137.052 443.246C132.911 443.246 129.555 446.603 129.555 450.743C129.555 454.883 132.912 458.24 137.052 458.24H264.435C268.576 458.24 271.932 454.883 271.932 450.743C271.932 446.603 268.576 443.246 264.435 443.246H137.052Z" fill="white"/>
<path d="M246.735 131.851H266.002C270.143 131.851 273.499 128.494 273.499 124.354C273.499 120.214 270.143 116.857 266.002 116.857H246.735C242.594 116.857 239.238 120.214 239.238 124.354C239.238 128.494 242.594 131.851 246.735 131.851Z" fill="white"/>
<path d="M114.259 337.306C118.132 339.272 122.714 338.9 126.219 336.337L149.874 319.037L173.529 336.337C179.304 341.301 191.859 337.112 191.766 327.08V259.892H213.811C217.952 259.892 221.308 256.535 221.308 252.395C221.308 248.255 217.951 244.898 213.811 244.898H89.8417C85.7007 244.898 82.3447 248.255 82.3447 252.395C82.3447 256.535 85.7017 259.892 89.8417 259.892H107.982V327.08C107.982 331.421 110.388 335.34 114.259 337.306V337.306ZM176.774 320.131L154.301 303.696C152.983 302.732 151.429 302.25 149.875 302.25C148.321 302.25 146.767 302.732 145.449 303.696L122.976 320.131V259.891H176.773V320.131H176.774Z" fill="white"/>
</g>
<defs>
<clipPath id="clip0">
<rect width="512" height="512" fill="white"/>
</clipPath>
</defs>
</svg>
