<?xml version="1.0" encoding="UTF-8" standalone="no"?>
<!-- Generator: Adobe Illustrator 19.1.0, SVG Export Plug-In . SVG Version: 6.00 Build 0)  -->

<svg
   xmlns:dc="http://purl.org/dc/elements/1.1/"
   xmlns:cc="http://creativecommons.org/ns#"
   xmlns:rdf="http://www.w3.org/1999/02/22-rdf-syntax-ns#"
   xmlns:svg="http://www.w3.org/2000/svg"
   xmlns="http://www.w3.org/2000/svg"
   xmlns:sodipodi="http://sodipodi.sourceforge.net/DTD/sodipodi-0.dtd"
   xmlns:inkscape="http://www.inkscape.org/namespaces/inkscape"
   version="1.1"
   id="Layer_1"
   x="0px"
   y="0px"
   viewBox="0 0 292.63257 141.7072"
   xml:space="preserve"
   sodipodi:docname="cap_logo_docs_lrg.svg"
   inkscape:version="0.92.0 r"
   inkscape:export-filename="/home/sonea/projekte/cap-docs/cap_logo_docs.svg.png"
   inkscape:export-xdpi="96"
   inkscape:export-ydpi="96"
   width="292.63257"
   height="141.7072"><metadata
     id="metadata51"><rdf:RDF><cc:Work
         rdf:about=""><dc:format>image/svg+xml</dc:format><dc:type
           rdf:resource="http://purl.org/dc/dcmitype/StillImage" /><dc:title></dc:title></cc:Work></rdf:RDF></metadata><defs
     id="defs49" /><sodipodi:namedview
     pagecolor="#ffffff"
     bordercolor="#666666"
     borderopacity="1"
     objecttolerance="10"
     gridtolerance="10"
     guidetolerance="10"
     inkscape:pageopacity="0"
     inkscape:pageshadow="2"
     inkscape:window-width="1280"
     inkscape:window-height="752"
     id="namedview47"
     showgrid="false"
     inkscape:zoom="0.67289193"
     inkscape:cx="252.41185"
     inkscape:cy="196.31784"
     inkscape:window-x="0"
     inkscape:window-y="0"
     inkscape:window-maximized="1"
     inkscape:current-layer="Layer_1"
     showguides="false"
     fit-margin-top="0"
     fit-margin-left="0"
     fit-margin-right="0"
     fit-margin-bottom="10" /><path
     style="fill:#ffffff;stroke:#5f6f83;stroke-width:2;stroke-linecap:butt;stroke-linejoin:miter;stroke-miterlimit:4;stroke-dasharray:none;stroke-opacity:1"
     d="M 1.8470997,1.8009771 C 9.3983617,13.223165 12.63871,27.462883 9.0955427,42.053887 3.1113687,67.543351 2.1523917,79.201597 4.6239047,84.086951 L 77.415861,83.492114 C 73.744377,77.417534 77.149578,60.952213 80.192667,44.034501 83.629152,27.828946 81.301795,14.077163 77.415861,1.0078594 Z"
     id="path4697"
     inkscape:connector-curvature="0"
     sodipodi:nodetypes="ccccccc" /><g
     id="g4805"
     transform="matrix(1.5099678,0,0,1.5094823,-4.7238203,-4.5439653)"
     style="stroke-width:0.66237229"><path
       inkscape:connector-curvature="0"
       id="path3725"
       d="M 11.031789,8.5382787 50.998424,8.2752882"
       style="fill:none;stroke:#5f6f83;stroke-width:0.66237229;stroke-linecap:butt;stroke-linejoin:miter;stroke-miterlimit:4;stroke-dasharray:none;stroke-opacity:1" /><path
       inkscape:connector-curvature="0"
       id="path3727"
       d="M 12.677261,13.541089 52.091096,13.278127"
       style="fill:none;stroke:#5f6f83;stroke-width:0.66237229;stroke-linecap:butt;stroke-linejoin:miter;stroke-miterlimit:4;stroke-dasharray:none;stroke-opacity:1" /><path
       inkscape:connector-curvature="0"
       id="path3729"
       d="m 13.651519,18.543832 39.045318,-0.13147"
       style="fill:none;stroke:#5f6f83;stroke-width:0.66237229;stroke-linecap:butt;stroke-linejoin:miter;stroke-miterlimit:4;stroke-dasharray:none;stroke-opacity:1" /><path
       inkscape:connector-curvature="0"
       id="path3731"
       d="M 14.072034,23.546601 H 52.797447"
       style="fill:none;stroke:#5f6f83;stroke-width:0.66237229;stroke-linecap:butt;stroke-linejoin:miter;stroke-miterlimit:4;stroke-dasharray:none;stroke-opacity:1" /><path
       inkscape:connector-curvature="0"
       id="path3733"
       d="M 13.809322,28.549422 H 32.199153"
       style="fill:none;stroke:#5f6f83;stroke-width:0.66237229px;stroke-linecap:butt;stroke-linejoin:miter;stroke-opacity:1" /><path
       inkscape:connector-curvature="0"
       id="path3735"
       d="M 13.415617,33.420848 51.737979,33.5523"
       style="fill:none;stroke:#5f6f83;stroke-width:0.66237229;stroke-linecap:butt;stroke-linejoin:miter;stroke-miterlimit:4;stroke-dasharray:none;stroke-opacity:1" /><path
       inkscape:connector-curvature="0"
       id="path3737"
       d="m 11.839157,38.423699 39.143031,0.131399"
       style="fill:none;stroke:#5f6f83;stroke-width:0.66237229;stroke-linecap:butt;stroke-linejoin:miter;stroke-miterlimit:4;stroke-dasharray:none;stroke-opacity:1" /><path
       inkscape:connector-curvature="0"
       id="path3739"
       d="m 11.049454,43.295209 27.192072,0.262712"
       style="fill:none;stroke:#5f6f83;stroke-width:0.66237229;stroke-linecap:butt;stroke-linejoin:miter;stroke-miterlimit:4;stroke-dasharray:none;stroke-opacity:1" /><path
       inkscape:connector-curvature="0"
       id="path3741"
       d="m 10.357009,48.429478 39.346161,0.13114"
       style="fill:none;stroke:#5f6f83;stroke-width:0.66237229;stroke-linecap:butt;stroke-linejoin:miter;stroke-miterlimit:4;stroke-dasharray:none;stroke-opacity:1" /><path
       inkscape:connector-curvature="0"
       id="path3743"
       d="M 9.9773723,53.563525 49.453362,53.300881"
       style="fill:none;stroke:#5f6f83;stroke-width:0.66237229;stroke-linecap:butt;stroke-linejoin:miter;stroke-miterlimit:4;stroke-dasharray:none;stroke-opacity:1" /></g><g
     id="g4748"
     transform="matrix(1.5099678,0,0,1.5094823,-4.7238203,-4.5439653)"
     style="stroke-width:0.66237229"><path
       inkscape:connector-curvature="0"
       id="path4609"
       d="m 13.792373,22.199153 -1.707627,9.851694 -0.262712,8.144068 1.576271,7.75 1.576271,2.889831 5.254238,2.233051 7.75,1.182203 h 7.881356 l 7.224576,-1.838983 4.334746,-2.364407 2.101694,-5.648305 0.65678,-6.961864 L 49.783898,31.394068 48.733051,25.351695 46.5,20.097458 44.055,16.358 44.266949,10.63983 37.961864,8.0127118 30.34322,7.75 24.694915,8.4067796 20.228814,10.114407 18.254999,11.3 18.367,15.757 Z"
       style="fill:#ffffff;stroke:none;stroke-width:0.66237229px;stroke-linecap:butt;stroke-linejoin:miter;stroke-opacity:1" /><g
       id="g6"
       style="stroke-width:0.66237229"><path
         style="fill:#2c3e50;stroke-width:0.66237229"
         d="m 38.963,41.7 c 1.203,-1.203 -0.718,-5.701 -5.496,-10.479 -0.396,-0.395 -0.788,-0.764 -1.178,-1.12 0.216,-0.121 0.434,-0.234 0.657,-0.332 0.342,0.315 0.681,0.635 1.01,0.964 4.167,4.167 7.361,9.591 5.496,11.457 -1.709,1.708 -6.399,-0.831 -10.378,-4.47 0.334,0 0.662,0 1.025,0 4.143,3.653 7.797,5.046 8.864,3.98 z"
         id="path2"
         inkscape:connector-curvature="0" /><path
         style="fill:#2c3e50;stroke-width:0.66237229"
         d="M 28.905,37.903 28.43,37.469 h 1.763 l 0.071,0.062 c 4.106,3.623 7.619,4.893 8.521,3.992 v 0 c 0.51,-0.51 0.298,-1.894 -0.552,-3.611 -0.994,-2.006 -2.749,-4.319 -4.943,-6.514 -0.393,-0.393 -0.783,-0.76 -1.17,-1.113 l -0.256,-0.234 0.303,-0.169 c 0.223,-0.124 0.448,-0.24 0.678,-0.342 l 0.15,-0.066 0.121,0.111 c 0.345,0.317 0.686,0.64 1.017,0.971 4.194,4.194 7.546,9.76 5.496,11.811 -0.424,0.424 -0.997,0.613 -1.675,0.613 -2.39,-10e-4 -6.073,-2.355 -9.049,-5.077 z m 3.812,-7.748 c 0.307,0.284 0.616,0.579 0.927,0.89 2.232,2.231 4.021,4.592 5.038,6.646 0.992,2.003 1.154,3.489 0.458,4.187 v 0 0 c -1.27,1.269 -5.104,-0.374 -9.134,-3.908 h -0.277 c 3.671,3.227 8.003,5.587 9.547,4.044 1.731,-1.732 -1.505,-7.112 -5.496,-11.104 -0.287,-0.287 -0.582,-0.567 -0.88,-0.844 -0.063,0.027 -0.123,0.058 -0.183,0.089 z"
         id="path4"
         inkscape:connector-curvature="0" /></g><g
       id="g12"
       style="stroke-width:0.66237229"><path
         style="fill:#2c3e50;stroke-width:0.66237229"
         d="M 42.279,33.13 C 40.622,31.738 36.089,30.804 31,30.804 c -5.892,0 -11.987,1.34 -11.987,3.584 0,0.44 0.238,0.863 0.708,1.257 1.657,1.392 6.19,2.327 11.28,2.327 5.892,10e-4 11.987,-1.34 11.987,-3.584 -10e-4,-0.44 -0.239,-0.863 -0.709,-1.258 z M 31,37.391 c -4.841,0 -9.278,-0.887 -10.791,-2.157 -0.335,-0.282 -0.505,-0.566 -0.505,-0.847 10e-4,-1.451 4.54,-3.004 11.296,-3.004 4.841,0 9.278,0.886 10.79,2.157 0.336,0.282 0.506,0.567 0.506,0.847 0,1.452 -4.54,3.005 -11.296,3.004 z"
         id="path8"
         inkscape:connector-curvature="0" /><path
         style="fill:#2c3e50;stroke-width:0.66237229"
         d="m 31,38.222 c -5.144,0 -9.741,-0.959 -11.44,-2.386 -0.529,-0.444 -0.797,-0.932 -0.797,-1.448 0,-2.491 6.305,-3.835 12.237,-3.835 5.144,0 9.742,0.959 11.44,2.386 v 0 c 0.529,0.443 0.797,0.932 0.797,1.449 0,2.49 -6.305,3.834 -12.237,3.834 z m 0,-7.169 c -6.472,0 -11.737,1.496 -11.737,3.335 0,0.362 0.208,0.721 0.619,1.065 1.616,1.357 6.084,2.269 11.119,2.269 6.472,0 11.737,-1.496 11.737,-3.334 0,-0.363 -0.208,-0.722 -0.619,-1.066 v 0 C 40.504,31.965 36.036,31.053 31,31.053 Z m 0,6.588 c -4.895,0 -9.398,-0.911 -10.951,-2.215 -0.395,-0.332 -0.595,-0.682 -0.595,-1.038 0,-1.824 5.072,-3.254 11.546,-3.254 4.895,0 9.399,0.911 10.951,2.215 0.395,0.332 0.595,0.682 0.595,1.039 -10e-4,1.824 -5.072,3.253 -11.546,3.253 z m 0,-6.007 c -6.843,0 -11.045,1.605 -11.046,2.754 0,0.202 0.14,0.423 0.417,0.655 1.471,1.235 5.842,2.098 10.629,2.098 6.843,0 11.045,-1.604 11.045,-2.753 0,-0.203 -0.14,-0.424 -0.417,-0.656 C 40.159,32.497 35.788,31.634 31,31.634 Z"
         id="path10"
         inkscape:connector-curvature="0" /></g><g
       id="g18"
       style="stroke-width:0.66237229"><path
         style="fill:#2c3e50;stroke-width:0.66237229"
         d="m 24.75,24.762 c 2.234,0.396 5.397,2.432 8.196,5.006 -0.223,0.099 -0.442,0.211 -0.657,0.332 -4.197,-3.834 -7.967,-5.382 -9.191,-4.456 -0.104,-0.2 -0.237,-0.389 -0.399,-0.553 0.508,-0.377 1.207,-0.479 2.051,-0.329 z"
         id="path14"
         inkscape:connector-curvature="0" /><path
         style="fill:#2c3e50;stroke-width:0.66237229"
         d="m 32.12,30.285 c -4.179,-3.817 -7.792,-5.252 -8.872,-4.441 l -0.236,0.179 -0.136,-0.263 c -0.098,-0.188 -0.217,-0.353 -0.355,-0.492 l -0.204,-0.204 0.232,-0.172 c 0.558,-0.416 1.313,-0.541 2.245,-0.376 v 0 c 2.18,0.386 5.29,2.28 8.321,5.068 l 0.28,0.258 -0.349,0.154 c -0.216,0.096 -0.428,0.205 -0.637,0.322 l -0.157,0.087 z m -7.413,-5.277 v 0 c -0.661,-0.117 -1.208,-0.069 -1.627,0.142 0.038,0.049 0.073,0.1 0.107,0.151 1.605,-0.759 5.339,1.061 9.139,4.494 0.059,-0.031 0.118,-0.062 0.178,-0.093 -2.839,-2.552 -5.803,-4.34 -7.797,-4.694 z"
         id="path16"
         inkscape:connector-curvature="0" /></g><path
       style="fill:#3b97d3;stroke-width:0.66237229"
       d="m 26.978,35.091 v 0 c -0.67,0 -1.219,-0.548 -1.219,-1.219 v -3.151 c 0,-0.67 0.548,-1.219 1.219,-1.219 v 0 c 0.67,0 1.219,0.548 1.219,1.219 v 3.151 c -10e-4,0.671 -0.549,1.219 -1.219,1.219 z"
       id="path20"
       inkscape:connector-curvature="0" /><path
       style="fill:#3b97d3;stroke-width:0.66237229"
       d="m 30.921,35.091 v 0 c -0.67,0 -1.219,-0.548 -1.219,-1.219 v -6.989 c 0,-0.67 0.548,-1.219 1.219,-1.219 v 0 c 0.67,0 1.218,0.548 1.218,1.219 v 6.989 c 10e-4,0.671 -0.547,1.219 -1.218,1.219 z"
       id="path22"
       inkscape:connector-curvature="0" /><path
       style="fill:#3b97d3;stroke-width:0.66237229"
       d="m 34.863,35.091 v 0 c -0.67,0 -1.219,-0.548 -1.219,-1.219 V 23.531 c 0,-0.67 0.548,-1.219 1.219,-1.219 v 0 c 0.67,0 1.219,0.548 1.219,1.219 v 10.341 c 0,0.671 -0.549,1.219 -1.219,1.219 z"
       id="path24"
       inkscape:connector-curvature="0" /><path
       style="opacity:0.3;fill:#bdc3c7;stroke-width:0.66237229"
       d="m 47.7,23.246 c -0.715,-1.692 -2.577,-5.163 -3.651,-6.651 l -1.041,0.751 c -0.062,-0.086 -0.13,-0.185 -0.187,-0.264 l -0.548,0.395 c -0.236,-0.354 -0.461,-0.689 -0.655,-0.968 l -1.643,1.141 c 1.214,1.747 3.192,4.866 3.789,6.333 2.507,6.155 3.588,20.943 0.094,26.193 -0.674,1.013 -0.378,1.59 -0.012,1.896 0.221,0.184 0.47,0.252 0.711,0.252 0.014,0 0.026,-0.005 0.04,-0.005 l 0.026,0.044 c 0.032,-0.019 0.058,-0.039 0.089,-0.059 0.181,-0.021 0.356,-0.066 0.504,-0.131 l 0.007,0.012 c 0.061,-0.037 0.105,-0.064 0.137,-0.083 0.122,-0.066 0.218,-0.137 0.274,-0.191 l 0.005,-0.065 c 0.092,-0.022 0.183,-0.044 0.279,-0.063 0.476,-0.093 1.127,-0.221 1.527,-0.872 3.646,-5.952 2.819,-21.601 0.255,-27.665 z"
       id="path26"
       inkscape:connector-curvature="0" /><path
       style="clip-rule:evenodd;fill:none;fill-rule:evenodd;stroke:#2c3e50;stroke-width:1.09523261;stroke-miterlimit:10"
       d="m 18.367,15.757 c 0,0 -3.477,4.726 -4.426,7.019 -2.552,6.161 -3.155,20.798 0,26.672 3.515,6.545 30.403,6.005 34.008,0 3.432,-5.717 2.552,-20.511 0,-26.672 -0.677,-1.634 -2.824,-4.903 -3.894,-6.417"
       id="path28"
       inkscape:connector-curvature="0" /><ellipse
       style="clip-rule:evenodd;fill:none;fill-rule:evenodd;stroke:#2c3e50;stroke-width:1.09523261;stroke-miterlimit:10"
       cx="31.476999"
       cy="11.369"
       rx="13.221"
       ry="3.5239999"
       id="ellipse30" /><line
       style="fill:none;stroke:#2c3e50;stroke-width:1.09523261;stroke-linecap:round;stroke-linejoin:round;stroke-miterlimit:10"
       x1="18.254999"
       y1="11.3"
       x2="18.254999"
       y2="15.65"
       id="line32" /><path
       style="clip-rule:evenodd;fill:none;fill-rule:evenodd;stroke:#2c3e50;stroke-width:1.09523261;stroke-linecap:round;stroke-miterlimit:10"
       d="m 44.055,16.358 c -1.898,1.201 -6.702,2.584 -12.578,2.584 -7.302,0 -13.221,-1.674 -13.221,-3.74"
       id="path34"
       inkscape:connector-curvature="0" /><ellipse
       style="clip-rule:evenodd;fill:#ecf0f1;fill-rule:evenodd;stroke-width:0.66237229"
       cx="31.098"
       cy="48.299"
       rx="6.1040001"
       ry="0.977"
       id="ellipse36" /><g
       id="g42"
       style="stroke-width:0.66237229"><path
         style="fill:#2c3e50;stroke-width:0.66237229"
         d="m 22.698,25.092 c 0.162,0.164 0.295,0.352 0.399,0.553 -0.036,0.027 -0.078,0.049 -0.109,0.08 -1.203,1.203 0.718,5.7 5.495,10.478 0.545,0.544 1.083,1.046 1.615,1.515 -0.363,0 -0.691,0 -1.025,0 -0.366,-0.335 -0.728,-0.675 -1.079,-1.026 -4.167,-4.167 -7.362,-9.591 -5.496,-11.456 0.06,-0.058 0.135,-0.095 0.2,-0.144 z"
         id="path38"
         inkscape:connector-curvature="0" /><path
         style="fill:#2c3e50;stroke-width:0.66237229"
         d="m 28.905,37.903 c -0.368,-0.338 -0.733,-0.68 -1.086,-1.033 -4.195,-4.194 -7.546,-9.76 -5.496,-11.81 0.057,-0.057 0.118,-0.097 0.167,-0.128 l 0.233,-0.168 0.152,0.153 c 0.174,0.175 0.323,0.381 0.444,0.613 l 0.097,0.186 -0.25,0.187 c -0.51,0.51 -0.298,1.893 0.552,3.611 0.994,2.006 2.749,4.319 4.943,6.514 0.512,0.512 1.052,1.018 1.604,1.504 l 0.496,0.438 H 28.977 Z M 28.307,36.38 c -2.231,-2.232 -4.021,-4.592 -5.038,-6.645 -0.974,-1.967 -1.149,-3.437 -0.494,-4.149 -0.036,-0.056 -0.074,-0.108 -0.114,-0.159 -1.698,1.748 1.531,7.109 5.511,11.089 0.325,0.325 0.661,0.641 0.999,0.952 h 0.275 c -0.389,-0.356 -0.771,-0.72 -1.139,-1.088 z"
         id="path40"
         inkscape:connector-curvature="0" /></g></g><path
     style="fill:#3b97d3;stroke-width:1"
     d="m 130.23237,7.1641392 -5.19467,5.6119458 c -2.31994,-2.577087 -5.74678,-4.1877662 -8.87632,-4.1877662 -5.59549,0 -9.83192,4.0472862 -9.83192,9.3419402 0,5.38427 4.23643,9.477576 9.83192,9.477576 2.97558,0 6.40508,-1.472622 8.87632,-3.773592 l 5.2451,5.062135 c -3.78253,3.543494 -9.37801,5.890484 -14.57267,5.890484 -10.63885,0 -18.556943,-7.133008 -18.556943,-16.564565 0,-9.29592 8.119823,-16.29087 18.859543,-16.29087 5.2451,0 10.69193,2.1168928 14.21964,5.4327122 z"
     id="path4-3"
     inkscape:connector-curvature="0" /><path
     style="fill:#3b97d3;stroke-width:1"
     d="m 158.97782,8.4502606 v 6.3966974 h 16.84219 v 6.442717 h -16.84219 v 6.488737 h 19.21258 v 6.440295 H 150.00063 V 2.0099655 h 27.635 v 6.4402951 z"
     id="path6"
     inkscape:connector-curvature="0" /><path
     style="fill:#3b97d3;stroke-width:1"
     d="m 219.75479,25.152884 h -0.25218 -6.8059 v 9.063401 h -8.97719 V 2.0099655 h 15.78309 c 9.33022,0 14.67354,4.0497079 14.67354,11.2263135 0,4.924077 -2.26953,8.467571 -6.40508,10.351945 l 7.41109,10.630483 h -10.18494 z m -0.25218,-6.442718 c 3.88339,0 6.1529,-1.792334 6.1529,-5.197771 0,-3.359416 -2.26951,-5.0621344 -6.1529,-5.0621344 h -6.8059 V 18.710166 Z"
     id="path8-6"
     inkscape:connector-curvature="0" /><path
     style="fill:#3b97d3;stroke-width:1"
     d="m 284.61951,34.218707 -16.237,-19.831943 v 19.831943 h -8.42242 V 2.0099655 h 7.9181 L 284.1656,21.887928 V 2.0099655 h 8.37199 V 34.218707 Z"
     id="path10-7"
     inkscape:connector-curvature="0" /><g
     id="g147"
     transform="matrix(2.4220741,0,0,2.4220741,-59.954341,-1.3098626)"
     style="stroke-width:0.41286927"><path
       inkscape:connector-curvature="0"
       id="path12"
       d="m 69.310874,33.016661 -0.969,2.45 h -3.477 l 5.737,-13.298 h 3.477 l 5.604,13.298 h -3.609 l -0.95,-2.45 z m 2.925,-7.485 -1.938,4.92 h 3.837 z"
       style="fill:#2c3e50;stroke-width:0.41286927" /><path
       inkscape:connector-curvature="0"
       id="path14-5"
       d="m 91.348874,29.007661 v 6.459 h -3.268 v -5.547 c 0,-1.197 -0.703,-1.938 -1.805,-1.938 -1.197,0 -1.956,0.855 -2.09,2.071 v 5.414 h -3.286 v -10.239 h 3.286 v 1.672 c 0.722,-1.197 1.9,-1.805 3.419,-1.824 2.262,0 3.744,1.539 3.744,3.932 z"
       style="fill:#2c3e50;stroke-width:0.41286927" /><path
       inkscape:connector-curvature="0"
       id="path16-3"
       d="m 102.74887,28.779661 v 6.688 h -3.209996 v -1.178 c -0.665,0.874 -1.748,1.33 -3.135,1.33 -2.185,0 -3.515,-1.33 -3.515,-3.211 0,-1.938 1.387,-3.077 3.933,-3.097 h 2.698 v -0.151 c 0,-1.007 -0.665,-1.615 -1.995,-1.615 -0.855,0 -1.976,0.304 -3.059,0.854 l -0.931,-2.165 c 1.596,-0.741 3.04,-1.159 4.75,-1.159 2.810996,0 4.444996,1.386 4.463996,3.704 z m -3.228996,3.211 v -0.912 h -2.071 c -0.988,0 -1.482,0.342 -1.482,1.103 0,0.74 0.532,1.216 1.444,1.216 1.026,-10e-4 1.9,-0.571 2.109,-1.407 z"
       style="fill:#2c3e50;stroke-width:0.41286927" /><path
       inkscape:connector-curvature="0"
       id="path18"
       d="m 105.18187,35.466661 v -14.095 h 3.287 v 14.096 h -3.287 z"
       style="fill:#2c3e50;stroke-width:0.41286927" /><path
       inkscape:connector-curvature="0"
       id="path20-5"
       d="m 116.60087,36.530661 c -0.76,1.862 -2.052,2.774 -3.952,2.774 -1.14,0 -2.07,-0.343 -2.982,-1.045 l 1.368,-2.242 c 0.475,0.38 0.874,0.551 1.349,0.551 0.589,0 1.007,-0.266 1.272,-0.816 l 0.247,-0.513 -4.255,-10.012 h 3.381 l 2.508,6.801 2.223,-6.801 h 3.268 z"
       style="fill:#2c3e50;stroke-width:0.41286927" /><path
       inkscape:connector-curvature="0"
       id="path22-6"
       d="m 129.95687,26.234661 -1.121,2.128 c -1.235,-0.665 -2.375,-1.026 -3.229,-1.026 -0.589,0 -1.007,0.229 -1.007,0.703 0,1.405 5.395,0.722 5.377,4.293 0,2.109 -1.843,3.268 -4.312,3.268 -1.71,0 -3.363,-0.494 -4.598,-1.443 l 1.045,-2.09 c 1.159,0.816 2.489,1.272 3.629,1.272 0.646,0 1.121,-0.228 1.121,-0.703 0,-1.5 -5.3,-0.722 -5.281,-4.312 0,-2.109 1.786,-3.249 4.16,-3.249 1.48,0 2.962,0.418 4.216,1.159 z"
       style="fill:#2c3e50;stroke-width:0.41286927" /><path
       inkscape:connector-curvature="0"
       id="path24-2"
       d="m 135.20087,22.283661 c 0,1.025 -0.722,1.747 -1.729,1.747 -1.007,0 -1.729,-0.722 -1.729,-1.747 0,-1.007 0.722,-1.729 1.729,-1.729 1.007,-10e-4 1.729,0.722 1.729,1.729 z m -3.381,13.183 v -10.239 h 3.267 v 10.239 z"
       style="fill:#2c3e50;stroke-width:0.41286927" /><path
       inkscape:connector-curvature="0"
       id="path26-9"
       d="m 145.61287,26.234661 -1.121,2.128 c -1.235,-0.665 -2.375,-1.026 -3.23,-1.026 -0.589,0 -1.007,0.229 -1.007,0.703 0,1.405 5.395,0.722 5.376,4.293 0,2.109 -1.843,3.268 -4.312,3.268 -1.71,0 -3.363,-0.494 -4.598,-1.443 l 1.045,-2.09 c 1.159,0.816 2.489,1.272 3.628,1.272 0.646,0 1.121,-0.228 1.121,-0.703 0,-1.5 -5.3,-0.722 -5.281,-4.312 0,-2.109 1.786,-3.249 4.16,-3.249 1.483,0 2.965,0.418 4.219,1.159 z"
       style="fill:#2c3e50;stroke-width:0.41286927" /></g><g
     id="g131"
     transform="matrix(2.4220741,0,0,2.4220741,-157.10753,-1.3074457)"
     style="stroke-width:0.41286927"><path
       inkscape:connector-curvature="0"
       id="path28-1"
       d="m 70.659874,41.466661 c 3.4,0 5.357,1.672 5.357,4.635 0,3.116 -1.956,4.921 -5.357,4.921 h -2.413 v 3.742 h -3.382 v -13.298 z m -2.413,6.896 h 2.242 c 1.481,0 2.336,-0.74 2.336,-2.146 0,-1.387 -0.855,-2.09 -2.336,-2.09 h -2.242 z"
       style="fill:#2c3e50;stroke-width:0.41286927" /><path
       inkscape:connector-curvature="0"
       id="path30"
       d="m 81.052874,46.254661 c 0.703,-1.197 1.862,-1.861 3.325,-1.881 v 2.964 c -1.9,-0.171 -3.154,0.722 -3.325,2.165 v 5.263 h -3.286 v -10.24 h 3.286 z"
       style="fill:#2c3e50;stroke-width:0.41286927" /><path
       inkscape:connector-curvature="0"
       id="path32"
       d="m 95.529874,50.528661 h -7.2 c 0.323,1.216 1.197,1.899 2.413,1.899 0.893,0 1.767,-0.36 2.45,-1.045 l 1.729,1.691 c -1.045,1.14 -2.584,1.805 -4.464,1.805 -3.344,0 -5.433,-2.09 -5.433,-5.205 0,-3.173 2.166,-5.263 5.338,-5.263 3.61,0.001 5.395,2.376 5.167,6.118 z m -3.154,-1.767 c 0,-1.254 -0.798,-2.071 -1.976,-2.071 -1.14,0 -1.918,0.836 -2.127,2.071 z"
       style="fill:#2c3e50;stroke-width:0.41286927" /><path
       inkscape:connector-curvature="0"
       id="path34-2"
       d="m 105.20187,45.532661 -1.122,2.128 c -1.235,-0.665 -2.375,-1.026 -3.23,-1.026 -0.589,0 -1.006996,0.229 -1.006996,0.703 0,1.405 5.394996,0.722 5.375996,4.293 0,2.109 -1.843,3.268 -4.312,3.268 -1.709996,0 -3.362996,-0.494 -4.597996,-1.443 l 1.045,-2.09 c 1.159,0.816 2.489,1.272 3.627996,1.272 0.646,0 1.121,-0.228 1.121,-0.703 0,-1.5 -5.299996,-0.722 -5.280996,-4.312 0,-2.109 1.786,-3.249 4.159996,-3.249 1.484,0 2.966,0.418 4.22,1.159 z"
       style="fill:#2c3e50;stroke-width:0.41286927" /><path
       inkscape:connector-curvature="0"
       id="path36"
       d="m 116.71487,50.528661 h -7.2 c 0.323,1.216 1.197,1.899 2.413,1.899 0.892,0 1.767,-0.36 2.45,-1.045 l 1.729,1.691 c -1.045,1.14 -2.584,1.805 -4.464,1.805 -3.344,0 -5.433,-2.09 -5.433,-5.205 0,-3.173 2.165,-5.263 5.338,-5.263 3.609,0.001 5.395,2.376 5.167,6.118 z m -3.154,-1.767 c 0,-1.254 -0.798,-2.071 -1.976,-2.071 -1.14,0 -1.919,0.836 -2.128,2.071 z"
       style="fill:#2c3e50;stroke-width:0.41286927" /><path
       inkscape:connector-curvature="0"
       id="path38-7"
       d="m 121.78787,46.254661 c 0.703,-1.197 1.862,-1.861 3.325,-1.881 v 2.964 c -1.9,-0.171 -3.154,0.722 -3.325,2.165 v 5.263 h -3.286 v -10.24 h 3.286 z"
       style="fill:#2c3e50;stroke-width:0.41286927" /><path
       inkscape:connector-curvature="0"
       id="path40-0"
       d="m 129.48287,54.764661 -3.856,-10.239 h 3.382 l 2.204,7.237 2.223,-7.237 h 3.268 l -3.856,10.239 z"
       style="fill:#2c3e50;stroke-width:0.41286927" /><path
       inkscape:connector-curvature="0"
       id="path42"
       d="m 146.61987,48.077661 v 6.688 h -3.21 v -1.178 c -0.665,0.874 -1.748,1.33 -3.135,1.33 -2.184,0 -3.515,-1.33 -3.515,-3.211 0,-1.938 1.387,-3.077 3.933,-3.097 h 2.698 v -0.151 c 0,-1.007 -0.665,-1.615 -1.995,-1.615 -0.855,0 -1.976,0.304 -3.059,0.854 l -0.931,-2.165 c 1.596,-0.741 3.04,-1.159 4.75,-1.159 2.812,0 4.445,1.386 4.464,3.704 z m -3.229,3.211 v -0.912 h -2.071 c -0.988,0 -1.482,0.342 -1.482,1.103 0,0.74 0.532,1.216 1.444,1.216 1.026,-10e-4 1.9,-0.571 2.109,-1.407 z"
       style="fill:#2c3e50;stroke-width:0.41286927" /><path
       inkscape:connector-curvature="0"
       id="path44"
       d="m 155.56987,54.214661 c -0.741,0.437 -1.748,0.703 -2.736,0.703 -1.976,0 -3.4,-1.121 -3.4,-3.249 v -4.521 h -1.425 v -2.147 h 1.425 v -2.85 h 3.268 v 2.831 h 2.679 v 2.165 h -2.679 v 4.009 c 0,0.798 0.342,1.14 0.95,1.121 0.342,0 0.779,-0.134 1.273,-0.343 z"
       style="fill:#2c3e50;stroke-width:0.41286927" /><path
       inkscape:connector-curvature="0"
       id="path46"
       d="m 160.60487,41.581661 c 0,1.025 -0.722,1.747 -1.729,1.747 -1.007,0 -1.729,-0.722 -1.729,-1.747 0,-1.007 0.722,-1.729 1.729,-1.729 1.007,-10e-4 1.729,0.722 1.729,1.729 z m -3.381,13.183 v -10.239 h 3.267 v 10.239 z"
       style="fill:#2c3e50;stroke-width:0.41286927" /><path
       inkscape:connector-curvature="0"
       id="path48"
       d="m 173.46687,49.635661 c 0,3.153 -2.242,5.243 -5.585,5.243 -3.362,0 -5.604,-2.09 -5.604,-5.243 0,-3.154 2.242,-5.225 5.604,-5.225 3.343,0.001 5.585,2.071 5.585,5.225 z m -7.884,0.039 c 0,1.596 0.931,2.659 2.299,2.659 1.349,0 2.28,-1.063 2.28,-2.659 0,-1.577 -0.931,-2.66 -2.28,-2.66 -1.368,-10e-4 -2.299,1.082 -2.299,2.66 z"
       style="fill:#2c3e50;stroke-width:0.41286927" /><path
       inkscape:connector-curvature="0"
       id="path50"
       d="m 185.68387,48.305661 v 6.459 h -3.268 v -5.547 c 0,-1.197 -0.703,-1.938 -1.805,-1.938 -1.197,0 -1.957,0.855 -2.09,2.071 v 5.414 h -3.286 v -10.239 h 3.286 v 1.672 c 0.722,-1.197 1.9,-1.805 3.419,-1.824 2.262,0 3.744,1.539 3.744,3.932 z"
       style="fill:#2c3e50;stroke-width:0.41286927" /></g></svg>