<?xml version="1.0" encoding="iso-8859-1"?>
<!-- Generator: Adobe Illustrator 19.1.0, SVG Export Plug-In . SVG Version: 6.00 Build 0)  -->
<svg version="1.1" id="Layer_1" xmlns="http://www.w3.org/2000/svg" xmlns:xlink="http://www.w3.org/1999/xlink" x="0px" y="0px"
	 viewBox="0 0 273 62" style="enable-background:new 0 0 273 62;" xml:space="preserve">
<ellipse style="fill-rule:evenodd;clip-rule:evenodd;fill:#ECF0F1;" cx="29.167" cy="47.677" rx="6.104" ry="0.977"/>
<g>
	<g>
		<path style="fill:#3B97D3;" d="M69.662,16.075l-1.957,2.317c-0.874-1.064-2.165-1.729-3.344-1.729
			c-2.108,0-3.704,1.671-3.704,3.857c0,2.223,1.596,3.913,3.704,3.913c1.121,0,2.413-0.608,3.344-1.558l1.976,2.09
			c-1.425,1.463-3.533,2.432-5.49,2.432c-4.008,0-6.991-2.945-6.991-6.839c0-3.838,3.059-6.726,7.105-6.726
			C66.281,13.832,68.333,14.706,69.662,16.075z"/>
		<path style="fill:#3B97D3;" d="M74.604,16.606v2.641h6.345v2.66h-6.345v2.679h7.238v2.659h-10.62V13.947h10.411v2.659H74.604z"/>
		<path style="fill:#3B97D3;" d="M90.069,23.502h-0.095H87.41v3.742h-3.382V13.947h5.946c3.515,0,5.528,1.672,5.528,4.635
			c0,2.033-0.855,3.496-2.413,4.274l2.792,4.389h-3.837L90.069,23.502z M89.974,20.842c1.463,0,2.318-0.74,2.318-2.146
			c0-1.387-0.855-2.09-2.318-2.09H87.41v4.236H89.974z"/>
		<path style="fill:#3B97D3;" d="M107.074,27.245l-6.117-8.188v8.188h-3.173V13.947h2.983l6.136,8.207v-8.207h3.154v13.298H107.074z
			"/>
		<path style="fill:#2C3E50;" d="M61.095,43.594l-0.969,2.45h-3.477l5.737-13.298h3.477l5.604,13.298h-3.609l-0.95-2.45H61.095z
			 M64.02,36.109l-1.938,4.92h3.837L64.02,36.109z"/>
		<path style="fill:#2C3E50;" d="M83.133,39.585v6.459h-3.268v-5.547c0-1.197-0.703-1.938-1.805-1.938
			c-1.197,0-1.956,0.855-2.09,2.071v5.414h-3.286V35.805h3.286v1.672c0.722-1.197,1.9-1.805,3.419-1.824
			C81.651,35.653,83.133,37.192,83.133,39.585z"/>
		<path style="fill:#2C3E50;" d="M94.533,39.357v6.688h-3.21v-1.178c-0.665,0.874-1.748,1.33-3.135,1.33
			c-2.185,0-3.515-1.33-3.515-3.211c0-1.938,1.387-3.077,3.933-3.097h2.698v-0.151c0-1.007-0.665-1.615-1.995-1.615
			c-0.855,0-1.976,0.304-3.059,0.854l-0.931-2.165c1.596-0.741,3.04-1.159,4.75-1.159C92.88,35.653,94.514,37.039,94.533,39.357z
			 M91.304,42.568v-0.912h-2.071c-0.988,0-1.482,0.342-1.482,1.103c0,0.74,0.532,1.216,1.444,1.216
			C90.221,43.974,91.095,43.404,91.304,42.568z"/>
		<path style="fill:#2C3E50;" d="M96.966,46.044V31.949h3.287v14.096H96.966z"/>
		<path style="fill:#2C3E50;" d="M108.385,47.108c-0.76,1.862-2.052,2.774-3.952,2.774c-1.14,0-2.07-0.343-2.982-1.045l1.368-2.242
			c0.475,0.38,0.874,0.551,1.349,0.551c0.589,0,1.007-0.266,1.272-0.816l0.247-0.513l-4.255-10.012h3.381l2.508,6.801l2.223-6.801
			h3.268L108.385,47.108z"/>
		<path style="fill:#2C3E50;" d="M121.741,36.812l-1.121,2.128c-1.235-0.665-2.375-1.026-3.229-1.026
			c-0.589,0-1.007,0.229-1.007,0.703c0,1.405,5.395,0.722,5.377,4.293c0,2.109-1.843,3.268-4.312,3.268
			c-1.71,0-3.363-0.494-4.598-1.443l1.045-2.09c1.159,0.816,2.489,1.272,3.629,1.272c0.646,0,1.121-0.228,1.121-0.703
			c0-1.5-5.3-0.722-5.281-4.312c0-2.109,1.786-3.249,4.16-3.249C119.005,35.653,120.487,36.071,121.741,36.812z"/>
		<path style="fill:#2C3E50;" d="M126.985,32.861c0,1.025-0.722,1.747-1.729,1.747c-1.007,0-1.729-0.722-1.729-1.747
			c0-1.007,0.722-1.729,1.729-1.729C126.263,31.131,126.985,31.854,126.985,32.861z M123.604,46.044V35.805h3.267v10.239H123.604z"
			/>
		<path style="fill:#2C3E50;" d="M137.397,36.812l-1.121,2.128c-1.235-0.665-2.375-1.026-3.23-1.026
			c-0.589,0-1.007,0.229-1.007,0.703c0,1.405,5.395,0.722,5.376,4.293c0,2.109-1.843,3.268-4.312,3.268
			c-1.71,0-3.363-0.494-4.598-1.443l1.045-2.09c1.159,0.816,2.489,1.272,3.628,1.272c0.646,0,1.121-0.228,1.121-0.703
			c0-1.5-5.3-0.722-5.281-4.312c0-2.109,1.786-3.249,4.16-3.249C134.661,35.653,136.143,36.071,137.397,36.812z"/>
		<path style="fill:#2C3E50;" d="M149.48,32.746c3.4,0,5.357,1.672,5.357,4.635c0,3.116-1.956,4.921-5.357,4.921h-2.413v3.742
			h-3.382V32.746H149.48z M147.067,39.642h2.242c1.481,0,2.336-0.74,2.336-2.146c0-1.387-0.855-2.09-2.336-2.09h-2.242V39.642z"/>
		<path style="fill:#2C3E50;" d="M159.873,37.534c0.703-1.197,1.862-1.861,3.325-1.881v2.964c-1.9-0.171-3.154,0.722-3.325,2.165
			v5.263h-3.286V35.805h3.286V37.534z"/>
		<path style="fill:#2C3E50;" d="M174.35,41.808h-7.2c0.323,1.216,1.197,1.899,2.413,1.899c0.893,0,1.767-0.36,2.45-1.045
			l1.729,1.691c-1.045,1.14-2.584,1.805-4.464,1.805c-3.344,0-5.433-2.09-5.433-5.205c0-3.173,2.166-5.263,5.338-5.263
			C172.793,35.691,174.578,38.066,174.35,41.808z M171.196,40.041c0-1.254-0.798-2.071-1.976-2.071c-1.14,0-1.918,0.836-2.127,2.071
			H171.196z"/>
		<path style="fill:#2C3E50;" d="M184.022,36.812L182.9,38.94c-1.235-0.665-2.375-1.026-3.23-1.026
			c-0.589,0-1.007,0.229-1.007,0.703c0,1.405,5.395,0.722,5.376,4.293c0,2.109-1.843,3.268-4.312,3.268
			c-1.71,0-3.363-0.494-4.598-1.443l1.045-2.09c1.159,0.816,2.489,1.272,3.628,1.272c0.646,0,1.121-0.228,1.121-0.703
			c0-1.5-5.3-0.722-5.281-4.312c0-2.109,1.786-3.249,4.16-3.249C181.286,35.653,182.768,36.071,184.022,36.812z"/>
		<path style="fill:#2C3E50;" d="M195.535,41.808h-7.2c0.323,1.216,1.197,1.899,2.413,1.899c0.892,0,1.767-0.36,2.45-1.045
			l1.729,1.691c-1.045,1.14-2.584,1.805-4.464,1.805c-3.344,0-5.433-2.09-5.433-5.205c0-3.173,2.165-5.263,5.338-5.263
			C193.977,35.691,195.763,38.066,195.535,41.808z M192.381,40.041c0-1.254-0.798-2.071-1.976-2.071
			c-1.14,0-1.919,0.836-2.128,2.071H192.381z"/>
		<path style="fill:#2C3E50;" d="M200.608,37.534c0.703-1.197,1.862-1.861,3.325-1.881v2.964c-1.9-0.171-3.154,0.722-3.325,2.165
			v5.263h-3.286V35.805h3.286V37.534z"/>
		<path style="fill:#2C3E50;" d="M208.303,46.044l-3.856-10.239h3.382l2.204,7.237l2.223-7.237h3.268l-3.856,10.239H208.303z"/>
		<path style="fill:#2C3E50;" d="M225.44,39.357v6.688h-3.21v-1.178c-0.665,0.874-1.748,1.33-3.135,1.33
			c-2.184,0-3.515-1.33-3.515-3.211c0-1.938,1.387-3.077,3.933-3.097h2.698v-0.151c0-1.007-0.665-1.615-1.995-1.615
			c-0.855,0-1.976,0.304-3.059,0.854l-0.931-2.165c1.596-0.741,3.04-1.159,4.75-1.159C223.788,35.653,225.421,37.039,225.44,39.357z
			 M222.211,42.568v-0.912h-2.071c-0.988,0-1.482,0.342-1.482,1.103c0,0.74,0.532,1.216,1.444,1.216
			C221.128,43.974,222.002,43.404,222.211,42.568z"/>
		<path style="fill:#2C3E50;" d="M234.39,45.494c-0.741,0.437-1.748,0.703-2.736,0.703c-1.976,0-3.4-1.121-3.4-3.249v-4.521h-1.425
			V36.28h1.425v-2.85h3.268v2.831h2.679v2.165h-2.679v4.009c0,0.798,0.342,1.14,0.95,1.121c0.342,0,0.779-0.134,1.273-0.343
			L234.39,45.494z"/>
		<path style="fill:#2C3E50;" d="M239.425,32.861c0,1.025-0.722,1.747-1.729,1.747c-1.007,0-1.729-0.722-1.729-1.747
			c0-1.007,0.722-1.729,1.729-1.729C238.703,31.131,239.425,31.854,239.425,32.861z M236.044,46.044V35.805h3.267v10.239H236.044z"
			/>
		<path style="fill:#2C3E50;" d="M252.287,40.915c0,3.153-2.242,5.243-5.585,5.243c-3.362,0-5.604-2.09-5.604-5.243
			c0-3.154,2.242-5.225,5.604-5.225C250.045,35.691,252.287,37.761,252.287,40.915z M244.403,40.954
			c0,1.596,0.931,2.659,2.299,2.659c1.349,0,2.28-1.063,2.28-2.659c0-1.577-0.931-2.66-2.28-2.66
			C245.334,38.293,244.403,39.376,244.403,40.954z"/>
		<path style="fill:#2C3E50;" d="M264.504,39.585v6.459h-3.268v-5.547c0-1.197-0.703-1.938-1.805-1.938
			c-1.197,0-1.957,0.855-2.09,2.071v5.414h-3.286V35.805h3.286v1.672c0.722-1.197,1.9-1.805,3.419-1.824
			C263.022,35.653,264.504,37.192,264.504,39.585z"/>
	</g>
	<g>
		<path style="fill:#2C3E50;" d="M35.663,41.7c1.203-1.203-0.718-5.701-5.496-10.479c-0.396-0.395-0.788-0.764-1.178-1.12
			c0.216-0.121,0.434-0.234,0.657-0.332c0.342,0.315,0.681,0.635,1.01,0.964c4.167,4.167,7.361,9.591,5.496,11.457
			c-1.709,1.708-6.399-0.831-10.378-4.47c0.334,0,0.662,0,1.025,0C30.943,41.373,34.597,42.766,35.663,41.7z"/>
		<path style="fill:#2C3E50;" d="M25.606,37.903l-0.475-0.434h1.763l0.071,0.062c4.106,3.623,7.619,4.893,8.521,3.992l0,0
			c0.51-0.51,0.298-1.894-0.552-3.611c-0.994-2.006-2.749-4.319-4.943-6.514c-0.393-0.393-0.783-0.76-1.17-1.113l-0.256-0.234
			l0.303-0.169c0.223-0.124,0.448-0.24,0.678-0.342l0.15-0.066l0.121,0.111c0.345,0.317,0.686,0.64,1.017,0.971
			c4.194,4.194,7.546,9.76,5.496,11.811c-0.424,0.424-0.997,0.613-1.675,0.613C32.265,42.979,28.582,40.625,25.606,37.903z
			 M29.418,30.155c0.307,0.284,0.616,0.579,0.927,0.89c2.232,2.231,4.021,4.592,5.038,6.646c0.992,2.003,1.154,3.489,0.458,4.187
			l0,0l0,0c-1.27,1.269-5.104-0.374-9.134-3.908h-0.277c3.671,3.227,8.003,5.587,9.547,4.044c1.731-1.732-1.505-7.112-5.496-11.104
			c-0.287-0.287-0.582-0.567-0.88-0.844C29.538,30.093,29.478,30.124,29.418,30.155z"/>
	</g>
	<g>
		<path style="fill:#2C3E50;" d="M38.98,33.13c-1.657-1.392-6.19-2.326-11.279-2.326c-5.892,0-11.987,1.34-11.987,3.584
			c0,0.44,0.238,0.863,0.708,1.257c1.657,1.392,6.19,2.327,11.279,2.327c5.892,0.001,11.987-1.34,11.987-3.584
			C39.688,33.948,39.45,33.525,38.98,33.13z M27.701,37.391c-4.841,0-9.278-0.887-10.791-2.157
			c-0.335-0.282-0.505-0.566-0.505-0.847c0.001-1.451,4.54-3.004,11.296-3.004c4.841,0,9.278,0.886,10.79,2.157
			c0.335,0.282,0.506,0.567,0.506,0.847C38.996,35.839,34.457,37.392,27.701,37.391z"/>
		<path style="fill:#2C3E50;" d="M27.701,38.222c-5.144,0-9.741-0.959-11.44-2.386c-0.529-0.444-0.797-0.932-0.797-1.448
			c0-2.491,6.305-3.835,12.237-3.835c5.145,0,9.742,0.959,11.44,2.386l0,0c0.529,0.443,0.797,0.932,0.797,1.449
			C39.938,36.878,33.633,38.222,27.701,38.222z M27.701,31.053c-6.472,0-11.737,1.496-11.737,3.335c0,0.362,0.208,0.721,0.619,1.065
			c1.616,1.357,6.084,2.269,11.119,2.269c6.472,0,11.737-1.496,11.737-3.334c0-0.363-0.208-0.722-0.619-1.066l0,0
			C37.205,31.965,32.736,31.053,27.701,31.053z M27.701,37.641c-4.895,0-9.398-0.911-10.951-2.215
			c-0.395-0.332-0.595-0.682-0.595-1.038c0-1.824,5.072-3.254,11.546-3.254c4.896,0,9.399,0.911,10.951,2.215
			c0.395,0.332,0.595,0.682,0.595,1.039C39.246,36.212,34.175,37.641,27.701,37.641z M27.701,31.634
			c-6.843,0-11.045,1.605-11.046,2.754c0,0.202,0.14,0.423,0.417,0.655c1.471,1.235,5.842,2.098,10.629,2.098
			c6.843,0,11.045-1.604,11.045-2.753c0-0.203-0.14-0.424-0.417-0.656C36.86,32.497,32.489,31.634,27.701,31.634z"/>
	</g>
	<g>
		<path style="fill:#2C3E50;" d="M21.451,24.762c2.233,0.396,5.397,2.432,8.196,5.006c-0.223,0.099-0.442,0.211-0.657,0.332
			c-4.197-3.834-7.967-5.382-9.191-4.456c-0.104-0.2-0.237-0.389-0.399-0.553C19.908,24.714,20.607,24.612,21.451,24.762z"/>
		<path style="fill:#2C3E50;" d="M28.821,30.285c-4.179-3.817-7.792-5.252-8.872-4.441l-0.236,0.179l-0.136-0.263
			c-0.098-0.188-0.217-0.353-0.355-0.492l-0.204-0.204l0.232-0.172c0.558-0.416,1.313-0.541,2.245-0.376l0,0
			c2.18,0.386,5.291,2.28,8.321,5.068l0.28,0.258l-0.349,0.154c-0.216,0.096-0.428,0.205-0.637,0.322l-0.157,0.087L28.821,30.285z
			 M21.407,25.008L21.407,25.008c-0.661-0.117-1.208-0.069-1.627,0.142c0.038,0.049,0.073,0.1,0.107,0.151
			c1.605-0.759,5.339,1.061,9.139,4.494c0.059-0.031,0.118-0.062,0.178-0.093C26.366,27.15,23.401,25.362,21.407,25.008z"/>
	</g>
	<path style="fill:#3B97D3;" d="M23.678,35.091L23.678,35.091c-0.67,0-1.219-0.548-1.219-1.219v-3.151
		c0-0.67,0.548-1.219,1.219-1.219l0,0c0.67,0,1.219,0.548,1.219,1.219v3.151C24.897,34.543,24.349,35.091,23.678,35.091z"/>
	<path style="fill:#3B97D3;" d="M27.622,35.091L27.622,35.091c-0.67,0-1.219-0.548-1.219-1.219v-6.989
		c0-0.67,0.548-1.219,1.219-1.219l0,0c0.67,0,1.219,0.548,1.219,1.219v6.989C28.841,34.543,28.292,35.091,27.622,35.091z"/>
	<path style="fill:#3B97D3;" d="M31.564,35.091L31.564,35.091c-0.67,0-1.219-0.548-1.219-1.219V23.531
		c0-0.67,0.548-1.219,1.219-1.219l0,0c0.67,0,1.219,0.548,1.219,1.219v10.341C32.782,34.543,32.234,35.091,31.564,35.091z"/>
	<path style="opacity:0.3;fill:#BDC3C7;" d="M44.4,23.246c-0.715-1.692-2.577-5.163-3.651-6.651l-1.041,0.751
		c-0.062-0.086-0.13-0.185-0.187-0.264l-0.548,0.395c-0.236-0.354-0.461-0.689-0.655-0.968l-1.643,1.141
		c1.214,1.747,3.192,4.866,3.789,6.333c2.507,6.155,3.588,20.943,0.094,26.193c-0.674,1.013-0.378,1.59-0.012,1.896
		c0.221,0.184,0.47,0.252,0.711,0.252c0.014,0,0.026-0.005,0.04-0.005l0.026,0.044c0.032-0.019,0.058-0.039,0.089-0.059
		c0.181-0.021,0.356-0.066,0.504-0.131l0.007,0.012c0.061-0.037,0.105-0.064,0.137-0.083c0.122-0.066,0.218-0.137,0.275-0.191
		l0.005-0.065c0.092-0.022,0.183-0.044,0.279-0.063c0.476-0.093,1.127-0.221,1.527-0.872C47.792,44.959,46.965,29.31,44.4,23.246z"
		/>
	<path style="fill-rule:evenodd;clip-rule:evenodd;fill:none;stroke:#2C3E50;stroke-width:1.6535;stroke-miterlimit:10;" d="
		M15.068,15.757c0,0-3.477,4.726-4.426,7.019c-2.552,6.161-3.155,20.798,0,26.672c3.515,6.545,30.403,6.005,34.008,0
		c3.432-5.717,2.552-20.511,0-26.672c-0.677-1.634-2.824-4.903-3.894-6.417"/>
	
		<ellipse style="fill-rule:evenodd;clip-rule:evenodd;fill:none;stroke:#2C3E50;stroke-width:1.6535;stroke-miterlimit:10;" cx="28.177" cy="11.369" rx="13.221" ry="3.524"/>
	
		<line style="fill:none;stroke:#2C3E50;stroke-width:1.6535;stroke-linecap:round;stroke-linejoin:round;stroke-miterlimit:10;" x1="14.956" y1="11.3" x2="14.956" y2="15.65"/>
	
		<path style="fill-rule:evenodd;clip-rule:evenodd;fill:none;stroke:#2C3E50;stroke-width:1.6535;stroke-linecap:round;stroke-miterlimit:10;" d="
		M40.756,16.358c-1.898,1.201-6.702,2.584-12.578,2.584c-7.302,0-13.221-1.674-13.221-3.74"/>
	<g>
		<path style="fill:#2C3E50;" d="M19.399,25.092c0.162,0.164,0.295,0.352,0.399,0.553c-0.036,0.027-0.078,0.049-0.109,0.08
			c-1.203,1.203,0.718,5.7,5.495,10.478c0.545,0.544,1.083,1.046,1.615,1.515c-0.363,0-0.691,0-1.025,0
			c-0.366-0.335-0.728-0.675-1.079-1.026c-4.167-4.167-7.362-9.591-5.496-11.456C19.259,25.178,19.333,25.141,19.399,25.092z"/>
		<path style="fill:#2C3E50;" d="M25.606,37.903c-0.368-0.338-0.733-0.68-1.086-1.033c-4.195-4.194-7.546-9.76-5.496-11.81
			c0.057-0.057,0.118-0.097,0.167-0.128l0.233-0.168l0.152,0.153c0.174,0.175,0.323,0.381,0.444,0.613l0.097,0.186l-0.25,0.187
			c-0.51,0.51-0.298,1.893,0.552,3.611c0.994,2.006,2.749,4.319,4.943,6.514c0.512,0.512,1.052,1.018,1.604,1.504l0.496,0.438
			h-1.784L25.606,37.903z M25.008,36.38c-2.232-2.232-4.021-4.592-5.038-6.645c-0.974-1.967-1.149-3.437-0.494-4.149
			c-0.036-0.056-0.074-0.108-0.114-0.159c-1.698,1.748,1.531,7.109,5.511,11.089c0.325,0.325,0.661,0.641,0.999,0.952h0.275
			C25.757,37.112,25.376,36.748,25.008,36.38z"/>
	</g>
</g>
</svg>
