<?xml version="1.0" encoding="UTF-8" standalone="no"?>
<!-- Created with Inkscape (http://www.inkscape.org/) -->

<svg
   xmlns:dc="http://purl.org/dc/elements/1.1/"
   xmlns:cc="http://creativecommons.org/ns#"
   xmlns:rdf="http://www.w3.org/1999/02/22-rdf-syntax-ns#"
   xmlns:svg="http://www.w3.org/2000/svg"
   xmlns="http://www.w3.org/2000/svg"
   xmlns:sodipodi="http://sodipodi.sourceforge.net/DTD/sodipodi-0.dtd"
   xmlns:inkscape="http://www.inkscape.org/namespaces/inkscape"
   width="206.02222mm"
   height="130.38672mm"
   viewBox="0 0 729.99998 462.00018"
   id="svg4987"
   version="1.1"
   inkscape:version="0.91 r13725"
   sodipodi:docname="experiments.svg">
  <defs
     id="defs4989" />
  <sodipodi:namedview
     id="base"
     pagecolor="#ffffff"
     bordercolor="#666666"
     borderopacity="1.0"
     inkscape:pageopacity="0.0"
     inkscape:pageshadow="2"
     inkscape:zoom="0.35"
     inkscape:cx="-489.36523"
     inkscape:cy="-67.2194"
     inkscape:document-units="px"
     inkscape:current-layer="layer1"
     showgrid="false"
     inkscape:window-width="1920"
     inkscape:window-height="1181"
     inkscape:window-x="1920"
     inkscape:window-y="0"
     inkscape:window-maximized="1"
     fit-margin-top="0"
     fit-margin-left="0"
     fit-margin-right="0"
     fit-margin-bottom="0" />
  <metadata
     id="metadata4992">
    <rdf:RDF>
      <cc:Work
         rdf:about="">
        <dc:format>image/svg+xml</dc:format>
        <dc:type
           rdf:resource="http://purl.org/dc/dcmitype/StillImage" />
        <dc:title></dc:title>
      </cc:Work>
    </rdf:RDF>
  </metadata>
  <g
     inkscape:label="Layer 1"
     inkscape:groupmode="layer"
     id="layer1"
     transform="translate(-7.222375,-8.8569216)">
    <g
       transform="matrix(2.5301963,0,0,3.5734512,-278.14728,-556.93678)"
       id="g275-9-1">
      <path
         inkscape:connector-curvature="0"
         style="fill:#ecf0f1"
         d="m 192.602,286.934 c -12.818,0 -25.793,-2.826 -25.793,-8.227 0,-5.401 12.976,-8.227 25.793,-8.227 12.817,0 25.793,2.826 25.793,8.227 0,5.401 -12.975,8.227 -25.793,8.227 z m 0,-13.88 c -14.174,0 -23.219,3.348 -23.219,5.653 0,2.305 9.045,5.653 23.219,5.653 14.174,0 23.219,-3.348 23.219,-5.653 0,-2.305 -9.045,-5.653 -23.219,-5.653 z"
         id="path277-9-5" />
    </g>
    <g
       transform="matrix(1.2733293,0,0,1.7983507,-125.33211,-45.150869)"
       id="g275-3-7-4">
      <path
         inkscape:connector-curvature="0"
         style="fill:#ecf0f1"
         d="m 192.602,286.934 c -12.818,0 -25.793,-2.826 -25.793,-8.227 0,-5.401 12.976,-8.227 25.793,-8.227 12.817,0 25.793,2.826 25.793,8.227 0,5.401 -12.975,8.227 -25.793,8.227 z m 0,-13.88 c -14.174,0 -23.219,3.348 -23.219,5.653 0,2.305 9.045,5.653 23.219,5.653 14.174,0 23.219,-3.348 23.219,-5.653 0,-2.305 -9.045,-5.653 -23.219,-5.653 z"
         id="path277-6-8-1" />
    </g>
    <path
       style="fill:none;fill-opacity:1;fill-rule:evenodd;stroke:#ecf0f1;stroke-width:6.25594568;stroke-linecap:butt;stroke-linejoin:miter;stroke-miterlimit:4;stroke-dasharray:none;stroke-opacity:1"
       d="M 149.2936,431.46795 207.7933,330.71652"
       id="path3844-2-5"
       inkscape:connector-curvature="0"
       sodipodi:nodetypes="cc" />
    <g
       transform="matrix(2.5301963,0,0,3.5734512,-49.174956,-584.48793)"
       id="g279-2-5">
      <path
         inkscape:connector-curvature="0"
         style="fill:#ecf0f1"
         d="m 162.708,265.182 c -69.141,0 -123.302,-16.558 -123.302,-37.695 0,-21.137 54.161,-37.696 123.302,-37.696 69.141,0 123.302,16.558 123.302,37.696 0,21.138 -54.16,37.695 -123.302,37.695 z m 0,-72.817 c -32.47,0 -62.98,3.768 -85.909,10.61 -22.128,6.603 -34.818,15.537 -34.818,24.512 0,8.975 12.69,17.909 34.818,24.511 22.929,6.842 53.439,10.61 85.909,10.61 32.47,0 62.98,-3.768 85.91,-10.61 22.128,-6.603 34.818,-15.537 34.818,-24.511 0,-8.974 -12.69,-17.909 -34.818,-24.512 -22.929,-6.842 -53.439,-10.61 -85.91,-10.61 z"
         id="path281-2-4" />
    </g>
    <g
       id="g3659-9-9"
       transform="matrix(0.26751096,0,0,0.26734354,296.75135,8.858275)">
      <path
         id="path3591-75-8"
         d="m 490.634,1.777 0.23,487.867 -488.566,0 L 2.07,1.777 l 488.564,0"
         inkscape:connector-curvature="0"
         style="fill:#fcf9f0" />
      <path
         id="path3593-3-3"
         d="m 1.996,489.88 488.248,-0.314 c -1.56,0 -0.188,0.008 -0.865,-10.13 C 463.617,88.99 144.35,3.62 2.79,2.687 2.265,2.682 1.994,2.727 1.994,2.727 l 0,487.153"
         inkscape:connector-curvature="0"
         style="fill:#84d5f6" />
      <path
         id="path3595-8-8"
         d="m 1.996,489.88 488.248,-0.314 c -1.56,0 -0.188,0.008 -0.865,-10.13 C 463.617,88.99 144.35,3.62 2.79,2.687 2.265,2.682 1.994,2.727 1.994,2.727 l 0,487.153 z"
         inkscape:connector-curvature="0"
         style="fill:none;stroke:#474445;stroke-width:0.62487501" />
      <path
         id="path3597-8-5"
         d="m 2.437,206.315 c 0,0 2.593,0.3 5.042,0.386 107.5,3.746 270.605,81.855 277.487,277.44 0.204,5.953 0.382,5.824 0.382,5.824 -283.05,-0.32 -283.1,-0.04 -283.1,-0.04 l 0.187,-283.61"
         inkscape:connector-curvature="0"
         style="fill:#fcd882" />
      <path
         id="path3599-3-2"
         d="m 2.437,206.315 c 0,0 2.593,0.3 5.042,0.386 107.5,3.746 270.605,81.855 277.487,277.44 0.204,5.953 0.382,5.824 0.382,5.824 -283.05,-0.32 -283.1,-0.04 -283.1,-0.04 l 0.187,-283.61 z"
         inkscape:connector-curvature="0"
         style="fill:none;stroke:#474445;stroke-width:0.62487501" />
      <path
         id="path3601-1-2"
         d="m 2.216,300.86 c 0,0 1.644,0.4 4.68,0.476 36.83,0.966 175.573,28.462 183.075,187.178 0.188,3.975 -0.084,1.45 -0.084,1.45 -188,0.1 -187.636,-0.04 -187.636,-0.04 L 2.216,300.86"
         inkscape:connector-curvature="0"
         style="fill:#dfe5e9" />
      <path
         id="path3603-8-2"
         d="m 2.216,300.86 c 0,0 1.644,0.4 4.68,0.476 36.83,0.966 175.573,28.462 183.075,187.178 0.188,3.975 -0.084,1.45 -0.084,1.45 -188,0.1 -187.636,-0.04 -187.636,-0.04 L 2.216,300.86 Z"
         inkscape:connector-curvature="0"
         style="fill:none;stroke:#474445;stroke-width:0.62487501" />
      <path
         id="path3605-9-7"
         d="m 2.225,377.275 c 0,0 103.642,-5.73 113.483,110.443 l 0.204,2.346 c -114.027,0 -113.687,0.07 -113.687,0.07 l 0,-112.86"
         inkscape:connector-curvature="0"
         style="fill:#b49dd3" />
      <path
         id="path3607-6-0"
         d="m 2.225,377.275 c 0,0 103.642,-5.73 113.483,110.443 l 0.204,2.346 c -114.027,0 -113.687,0.07 -113.687,0.07 l 0,-112.86 z"
         inkscape:connector-curvature="0"
         style="fill:none;stroke:#959394;stroke-width:0.62487501" />
      <path
         id="path3609-4-3"
         d="m 126.956,159.89 c -9.604,6.404 -22.106,8.693 -33.702,8.693 -33.55,0 -53.673,-21.193 -53.673,-54.582 0,-34.302 25.32,-53.817 57.496,-53.817 11.13,0 22.565,2.588 32.78,7.013 -1.527,3.81 -2.442,7.772 -3.205,11.738 l -1.066,0.154 C 123.449,76.346 112.159,65.976 96.46,65.976 c -28.05,0 -41.925,22.72 -41.925,48.636 0,29.275 16.766,48.028 40.865,48.028 16.46,0 29.27,-9.76 32.322,-12.35 l -0.764,9.603"
         inkscape:connector-curvature="0"
         style="fill:#26316b" />
      <path
         id="path3611-33-4"
         d="m 126.956,159.89 c -9.604,6.404 -22.106,8.693 -33.702,8.693 -33.55,0 -53.673,-21.193 -53.673,-54.582 0,-34.302 25.32,-53.817 57.496,-53.817 11.13,0 22.565,2.588 32.78,7.013 -1.527,3.81 -2.442,7.772 -3.205,11.738 l -1.066,0.154 C 123.449,76.346 112.159,65.976 96.46,65.976 c -28.05,0 -41.925,22.72 -41.925,48.636 0,29.275 16.766,48.028 40.865,48.028 16.46,0 29.27,-9.76 32.322,-12.35 l -0.764,9.603 z"
         inkscape:connector-curvature="0"
         style="fill:none;stroke:#ffffff;stroke-width:1.301875" />
      <path
         id="path3613-3-6"
         d="m 251.086,62.47 c 3.966,37.657 8.24,75.165 12.35,104.286 -2.755,-0.157 -4.88,-0.462 -7.18,-0.462 -2.422,0 -4.863,0.305 -7.152,0.462 -2.595,-30.65 -5.646,-63.577 -7.783,-78.672 -17.68,31.557 -30.802,55.95 -39.95,76.99 l -1.67,0 -8.39,-17.227 c -9.765,-20.12 -20.436,-39.94 -30.804,-59.763 -3.356,29.73 -7.467,59.916 -7.467,78.672 -1.994,-0.157 -3.664,-0.462 -5.342,-0.462 -1.975,0 -3.653,0.305 -5.493,0.462 3.976,-24.55 13.114,-88.28 14.648,-104.285 l 3.958,0 c 12.208,24.24 26.838,52.904 43.164,79.89 14.48,-26.07 28.507,-52.6 43.907,-79.89 l 3.206,0"
         inkscape:connector-curvature="0"
         style="fill:#26316b" />
      <path
         id="path3615-8-3"
         d="m 251.086,62.47 c 3.966,37.657 8.24,75.165 12.35,104.286 -2.755,-0.157 -4.88,-0.462 -7.18,-0.462 -2.422,0 -4.863,0.305 -7.152,0.462 -2.595,-30.65 -5.646,-63.577 -7.783,-78.672 -17.68,31.557 -30.802,55.95 -39.95,76.99 l -1.67,0 -8.39,-17.227 c -9.765,-20.12 -20.436,-39.94 -30.804,-59.763 -3.356,29.73 -7.467,59.916 -7.467,78.672 -1.994,-0.157 -3.664,-0.462 -5.342,-0.462 -1.975,0 -3.653,0.305 -5.493,0.462 3.976,-24.55 13.114,-88.28 14.648,-104.285 l 3.958,0 c 12.208,24.24 26.838,52.904 43.164,79.89 14.48,-26.07 28.507,-52.6 43.907,-79.89 l 3.206,0 z"
         inkscape:connector-curvature="0"
         style="fill:none;stroke:#ffffff;stroke-width:1.301875" />
      <path
         id="path3617-60-6"
         d="m 282.33,146.17 c 5.95,9.755 12.81,15.858 24.71,15.858 12.35,0 21.182,-10.214 21.182,-22.262 0,-28.354 -47.713,-15.857 -47.713,-50.31 0,-19.67 15.545,-29.274 33.846,-29.274 7.324,0 16.173,2.29 21.8,7.32 -1.83,3.962 -2.89,8.233 -4.11,12.5 l -1.517,0 c -3.215,-8.23 -9.918,-13.265 -18.923,-13.265 -10.518,0 -19.206,7.014 -19.206,17.842 0,28.047 48.03,16.767 48.03,49.24 0,21.804 -16.92,34.762 -37.66,34.762 -7.47,0 -19.676,-3.203 -24.855,-8.84 1.517,-4.423 2.28,-9 2.89,-13.573 l 1.525,0"
         inkscape:connector-curvature="0"
         style="fill:#26316b" />
      <path
         id="path3619-4-3"
         d="m 282.33,146.17 c 5.95,9.755 12.81,15.858 24.71,15.858 12.35,0 21.182,-10.214 21.182,-22.262 0,-28.354 -47.713,-15.857 -47.713,-50.31 0,-19.67 15.545,-29.274 33.846,-29.274 7.324,0 16.173,2.29 21.8,7.32 -1.83,3.962 -2.89,8.233 -4.11,12.5 l -1.517,0 c -3.215,-8.23 -9.918,-13.265 -18.923,-13.265 -10.518,0 -19.206,7.014 -19.206,17.842 0,28.047 48.03,16.767 48.03,49.24 0,21.804 -16.92,34.762 -37.66,34.762 -7.47,0 -19.676,-3.203 -24.855,-8.84 1.517,-4.423 2.28,-9 2.89,-13.573 l 1.525,0 z"
         inkscape:connector-curvature="0"
         style="fill:none;stroke:#ffffff;stroke-width:1.301875" />
      <path
         id="path3621-8-3"
         d="m 2.208,382.92 c 0,0 98.462,-5.44 107.813,104.924 l 0.188,2.22 c -108.323,0 -108,0.07 -108,0.07 l 0,-107.214"
         inkscape:connector-curvature="0"
         style="fill:#85d05e" />
      <path
         id="path3623-8-4"
         d="m 2.208,382.92 c 0,0 98.462,-5.44 107.813,104.924 l 0.188,2.22 c -108.323,0 -108,0.07 -108,0.07 l 0,-107.214 z"
         inkscape:connector-curvature="0"
         style="fill:none;stroke:#474445;stroke-width:0.62487501" />
      <path
         id="path3625-8-4"
         d="m 2.182,433.705 c 0,0 51.808,-2.864 56.742,55.224 l 0.093,1.17 C 1.885,490.063 2.182,490.133 2.182,490.133 l 0,-56.43"
         inkscape:connector-curvature="0"
         style="fill:#85d05e" />
      <path
         id="path3627-9-3"
         d="m 2.182,433.705 c 0,0 51.808,-2.864 56.742,55.224 l 0.093,1.17 C 1.885,490.063 2.182,490.133 2.182,490.133 l 0,-56.43 z"
         inkscape:connector-curvature="0"
         style="fill:none;stroke:#474445;stroke-width:0.62487501" />
      <path
         id="path3629-7-9"
         d="m 2.182,460.706 c 0,0 27.023,-1.49 29.583,28.8 l 0.05,0.61 c -29.93,-0.052 -29.633,0.018 -29.633,0.018 l 0,-29.428"
         inkscape:connector-curvature="0"
         style="fill:#9fda7d" />
      <path
         id="path3631-7-7"
         d="m 2.182,460.706 c 0,0 27.023,-1.49 29.583,28.8 l 0.05,0.61 c -29.93,-0.052 -29.633,0.018 -29.633,0.018 l 0,-29.428 z"
         inkscape:connector-curvature="0"
         style="fill:none;stroke:#959394;stroke-width:0.62487501" />
      <path
         id="path3633-64-2"
         d="m 6.276,485.557 c 0,0 58.174,-125.927 217.008,-162.912 91.487,-21.29 178.974,-70.45 218.974,-117.106"
         inkscape:connector-curvature="0"
         style="fill:none;stroke:#ffffff;stroke-width:11.31037521;stroke-linecap:round;stroke-linejoin:round" />
      <path
         id="path3635-3-5"
         d="m 434.99,87.97 c 0,0 -97.493,114.14 -249.29,201.687 C 32.12,378.225 6.275,485.558 6.275,485.558"
         inkscape:connector-curvature="0"
         style="fill:none;stroke:#ffffff;stroke-width:11.31037521;stroke-linecap:round;stroke-linejoin:round" />
      <path
         id="path3637-0-8"
         d="m 6.276,485.557 c 0,0 63.837,-108.417 193.264,-101.113 102.033,5.747 193.986,-34.037 222.74,-93.482"
         inkscape:connector-curvature="0"
         style="fill:none;stroke:#ffffff;stroke-width:11.31037521;stroke-linecap:round;stroke-linejoin:round" />
      <path
         id="path3639-3-9"
         d="m 6.276,485.557 c 0,0 50.63,-87.44 208.3,-51.936 142.704,32.12 151.74,-9.916 174.235,-34.07"
         inkscape:connector-curvature="0"
         style="fill:none;stroke:#ffffff;stroke-width:11.31037521;stroke-linecap:round;stroke-linejoin:round" />
      <path
         id="path3641-0-0"
         d="m 6.415,485.557 c 0,0 58.175,-125.927 217.007,-162.912 91.487,-21.29 178.974,-70.45 218.974,-117.106"
         inkscape:connector-curvature="0"
         style="fill:none;stroke:#ee2c26;stroke-width:7.54024982;stroke-linecap:round;stroke-linejoin:round" />
      <path
         id="path3643-9-2"
         d="m 435.13,87.97 c 0,0 -97.493,114.14 -249.29,201.687 C 32.26,378.225 6.417,485.557 6.417,485.557"
         inkscape:connector-curvature="0"
         style="fill:none;stroke:#ee2c26;stroke-width:7.54024982;stroke-linecap:round;stroke-linejoin:round" />
      <path
         id="path3645-25-4"
         d="m 6.415,485.557 c 0,0 63.837,-108.417 193.265,-101.113 102.03,5.747 193.985,-34.037 222.738,-93.482"
         inkscape:connector-curvature="0"
         style="fill:none;stroke:#ee2c26;stroke-width:7.54024982;stroke-linecap:round;stroke-linejoin:round" />
      <path
         id="path3647-4-7"
         d="m 6.415,485.557 c 0,0 50.63,-87.44 208.3,-51.936 142.704,32.12 151.74,-9.916 174.235,-34.07"
         inkscape:connector-curvature="0"
         style="fill:none;stroke:#ee2c26;stroke-width:7.54024982;stroke-linecap:round;stroke-linejoin:round" />
      <path
         id="path3649-0-6"
         d="m 1.885,490.064 487.85,0 0,-488.184 -487.85,0 0,488.184 z"
         inkscape:connector-curvature="0"
         style="fill:none;stroke:#231f20;stroke-width:3.77012491;stroke-linejoin:round" />
      <path
         id="path3651-5-5"
         d="m 469.526,295.646 c -2.832,0.608 -3.35,2.968 -3.35,4.52 0,2.923 2.16,5.285 6.41,5.285 3.8,0 6.724,-1.347 6.724,-5.35 0,-1.418 -0.675,-3.87 -4.43,-4.61 l 0,-2.115 c 6.093,0.9 6.363,5.848 6.363,7.06 0,3.667 -2.384,7.265 -8.592,7.265 -4.966,0 -8.407,-2.834 -8.407,-7.534 0,-4.16 2.586,-6.317 5.283,-6.632 l 0,2.112 m 9.893,-9.452 c 0,-2.834 -2.923,-3.42 -4.496,-3.42 -1.574,0 -4.498,0.586 -4.498,3.42 0,2.833 2.924,3.417 4.498,3.417 1.574,0 4.497,-0.585 4.497,-3.417 z m -10.703,0 c 0,-3.755 3.17,-5.464 6.207,-5.464 3.035,0 6.207,1.71 6.207,5.465 0,3.755 -3.17,5.464 -6.206,5.464 -3.036,0 -6.206,-1.71 -6.206,-5.465 m 0.335,-7.718 0,-1.867 1.664,0 0,-0.044 c -0.63,-0.427 -2,-1.44 -2,-3.554 0,-2.115 1.28,-2.79 1.91,-3.126 -1.102,-0.99 -1.91,-1.776 -1.91,-3.6 0,-1.257 0.65,-3.64 3.957,-3.64 l 8.14,0 0,1.98 -7.6,0 c -1.62,0 -2.72,0.492 -2.72,2.18 0,1.664 1.574,2.765 3.146,2.765 l 7.176,0 0,1.98 -8.14,0 c -0.99,0 -2.182,0.383 -2.182,1.845 0,1.124 0.72,3.103 3.913,3.103 l 6.41,0 0,1.98 -11.763,0 m 10.389,-23.687 c 0,-2.16 -1.955,-3.17 -4.543,-3.17 -1.506,0 -4.406,0.157 -4.406,3.215 0,2.857 3.08,3.172 4.992,3.172 3.125,0 3.958,-1.96 3.958,-3.217 z m -10.39,5.105 0,-1.867 1.664,0 0,-0.045 c -0.674,-0.473 -2,-1.37 -2,-3.508 0,-3.126 2.563,-4.902 5.868,-4.902 2.81,0 6.566,1.17 6.566,5.172 0,1.574 -0.742,2.608 -1.574,3.125 l 0,0.047 5.892,0 0,1.977 -16.416,0 m 5.756,-19.839 c 0.25,0.315 0.43,0.81 0.744,3.262 0.135,0.965 0.426,2.517 1.91,2.517 1.282,0 2.048,-0.652 2.048,-2.136 0,-1.844 -1.192,-3.643 -2.766,-3.643 l -1.935,0 z m -2.18,7.242 c -2.81,-0.09 -3.913,-1.958 -3.913,-4.858 0,-0.945 0.27,-4.362 3.283,-4.362 l 6.77,0 c 0.492,0 0.696,-0.25 0.696,-0.653 0,-0.18 -0.045,-0.427 -0.09,-0.652 l 1.44,0 c 0.09,0.337 0.224,0.63 0.224,1.08 0,1.752 -0.9,2.024 -1.8,2.09 0.834,0.765 1.913,1.958 1.913,4.25 0,2.16 -1.373,3.69 -3.397,3.69 -0.988,0 -3.282,-0.294 -3.687,-3.577 l -0.405,-3.26 c -0.045,-0.473 -0.225,-1.035 -1.394,-1.035 -1.237,0 -1.91,0.9 -1.91,2.766 0,2.248 1.37,2.563 2.27,2.698 l 0,1.82 m 0.382,-19.926 c -1.573,0.247 -2.518,1.125 -2.518,2.79 0,2.45 2.338,3.236 4.43,3.236 2.024,0 4.52,-0.495 4.52,-3.215 0,-1.326 -0.99,-2.473 -2.79,-2.81 l 0,-1.91 c 1.867,0.2 4.498,1.348 4.498,4.79 0,3.304 -2.496,5.26 -5.89,5.26 -3.645,0 -6.545,-1.754 -6.545,-5.644 0,-3.08 2.25,-4.25 4.295,-4.407 l 0,1.91 m -2.316,-6.325 7.646,0 c 0.92,0 0.92,-0.787 0.92,-1.192 l 0,-0.697 1.554,0 c 0.067,0.72 0.157,1.282 0.157,1.484 0,1.956 -1.102,2.384 -2.518,2.384 l -7.76,0 0,1.596 -1.64,0 0,-1.596 -3.284,0 0,-1.98 3.284,0 0,-1.888 1.642,0 0,1.89 m 10.119,-23.612 -9.535,0 c -0.47,0 -2.517,-0.045 -4.024,-0.045 l 0,0.044 13.56,4.542 0,2.158 -13.537,4.543 0,0.044 c 1.483,0 3.53,-0.043 4,-0.043 l 9.536,0 0,2.114 -16.146,0 0,-3.125 13.65,-4.61 0,-0.044 -13.65,-4.586 0,-3.104 16.146,0 0,2.114 m 0,-12.87 -1.71,0 -0.045,0.044 c 1.373,0.832 2.093,1.845 2.093,3.732 0,1.733 -0.833,3.824 -3.643,3.824 l -8.456,0 0,-1.98 7.805,0 c 1.93,0 2.584,-0.99 2.584,-2.27 0,-2.495 -2.205,-3.237 -3.914,-3.237 l -6.476,0 0,-1.98 11.762,0 0,1.866 m -1.396,-9.629 c 0,-2.834 -2.923,-3.417 -4.496,-3.417 -1.574,0 -4.498,0.582 -4.498,3.416 0,2.834 2.924,3.418 4.498,3.418 1.574,0 4.497,-0.584 4.497,-3.418 z m -10.703,0 c 0,-3.756 3.17,-5.465 6.207,-5.465 3.035,0 6.207,1.71 6.207,5.466 0,3.756 -3.17,5.465 -6.206,5.465 -3.036,0 -6.206,-1.708 -6.206,-5.464 m 12.097,-17.301 0,1.98 -7.24,0 c -2.047,0 -3.082,0.584 -3.082,2.52 0,1.123 0.72,3.102 3.914,3.102 l 6.408,0 0,1.977 -11.762,0 0,-1.865 1.664,0 0,-0.046 c -0.63,-0.427 -2,-1.53 -2,-3.552 0,-1.822 0.74,-4.117 4.092,-4.117 l 8.006,0 m -11.424,-19.161 c -2.497,0.112 -3.283,2.18 -3.283,4 0,1.374 0.38,3.69 2.832,3.69 1.37,0 1.822,-0.966 2.047,-1.91 l 1.055,-4.61 c 0.495,-2.093 1.754,-3.668 4.317,-3.668 3.824,0 4.88,3.555 4.88,6.32 0,2.992 -0.898,4.162 -1.552,4.88 -1.235,1.372 -2.585,1.642 -4.09,1.642 l 0,-2.047 c 2.92,0 3.775,-2.385 3.775,-4.453 0,-1.575 -0.404,-4.23 -2.72,-4.23 -1.686,0 -2.226,0.79 -2.856,3.443 l -0.765,3.306 c -0.248,1.055 -0.99,3.44 -3.8,3.44 -2.52,0 -4.993,-1.644 -4.993,-5.556 0,-5.643 3.373,-6.205 5.15,-6.296 l 0,2.047 m 10.031,-9.813 c 0,-2.83 -2.923,-3.416 -4.496,-3.416 -1.574,0 -4.498,0.585 -4.498,3.417 0,2.835 2.924,3.42 4.498,3.42 1.574,0 4.497,-0.585 4.497,-3.42 z m -10.703,0 c 0,-3.755 3.17,-5.464 6.207,-5.464 3.035,0 6.207,1.71 6.207,5.465 0,3.757 -3.17,5.466 -6.206,5.466 -3.036,0 -6.206,-1.71 -6.206,-5.465 m -4.049,-7.762 16.146,0 0,-1.98 -16.146,0 0,1.98 z M 474,107.855 c -1.82,0.112 -3.506,0.876 -3.506,3.284 0,1.82 1.686,3.26 3.507,3.26 l 0,-6.545 z m 3.126,-1.89 c 0.564,0.07 2.228,0.607 3.218,2.092 0.36,0.54 0.81,1.304 0.81,3.194 -0.002,3.306 -2.498,5.262 -5.893,5.262 -3.643,0 -6.543,-1.753 -6.543,-5.645 0,-3.395 2.7,-5.058 6.86,-5.058 l 0,8.59 c 2.45,0 3.867,-1.15 3.867,-3.42 0,-1.865 -1.44,-2.968 -2.318,-3.035 l 0,-1.98 m 3.689,-12.102 0,1.98 -7.24,0 c -2.047,0 -3.082,0.583 -3.082,2.517 0,1.125 0.72,3.104 3.914,3.104 l 6.408,0 0,1.98 -11.762,0 0,-1.87 1.664,0 0,-0.043 c -0.63,-0.426 -2,-1.527 -2,-3.55 0,-1.824 0.74,-4.117 4.092,-4.117 l 8.006,0 m -1.396,-7.719 c 0,-2.834 -2.923,-3.42 -4.496,-3.42 -1.574,0 -4.498,0.586 -4.498,3.42 0,2.832 2.924,3.417 4.498,3.417 1.574,0 4.497,-0.585 4.497,-3.417 z m -10.703,0 c 0,-3.755 3.17,-5.465 6.207,-5.465 3.035,0 6.207,1.71 6.207,5.465 0,3.755 -3.17,5.464 -6.206,5.464 -3.036,0 -6.206,-1.71 -6.206,-5.465 m -1.801,-7.764 -2.248,0 0,-1.978 2.248,0 0,1.98 z m 13.898,-1.978 0,1.98 -11.762,0 0,-1.982 11.762,0 m -1.372,-7.51 c 0,-1.26 -0.833,-3.215 -3.958,-3.215 -1.91,0 -4.992,0.315 -4.992,3.17 0,3.06 2.9,3.216 4.407,3.216 2.59,0 4.544,-1.01 4.544,-3.17 z m 1.372,-5.216 0,1.866 -1.618,0 0,0.045 c 1.596,0.854 1.955,2.204 1.955,3.35 0,4.004 -3.755,5.174 -6.567,5.174 -3.305,0 -5.87,-1.78 -5.87,-4.904 0.002,-2.137 1.328,-3.036 2.002,-3.51 l -0.157,-0.044 -5.89,0 0,-1.978 16.146,0"
         inkscape:connector-curvature="0"
         style="fill:#26316b" />
    </g>
    <g
       id="g3496-7-3"
       transform="matrix(0.32749314,0,0,0.32728817,7.222375,154.82493)">
      <path
         id="path3340-7-3"
         d="m 40.928,348.78 c 0,-12.01 -6.128,-17.77 -13.604,-17.77 -7.477,0 -13.606,5.76 -13.606,17.77 l 0,10.91 27.21,0 0,-10.91 z m -27.21,51.722 -13.605,0 0,-51.722 c 0,-20.223 12.257,-31.376 27.21,-31.376 15.076,0 27.333,11.153 27.333,31.376 l 0,51.722 -13.728,0 0,-27.21 -27.21,0 0,27.21 M 85.66,386.9 l 23.166,0 0,13.603 -36.77,0 0,-81.753 13.604,0 0,68.15 m 54.416,-54.544 -13.606,0 0,-13.606 40.816,0 0,13.606 -13.606,0 0,54.542 13.606,0 0,13.604 -40.816,0 0,-13.602 13.606,0 0,-54.542 M 213,317.404 c 10.05,0 20.592,6.25 26.352,15.688 l -8.578,7.6 c -5.516,-6.743 -11.033,-9.683 -17.16,-9.683 -10.786,0 -20.1,10.905 -20.1,28.68 0,17.646 9.314,28.555 20.1,28.555 6.127,0 11.644,-2.82 17.16,-9.682 l 8.58,7.6 C 233.594,395.6 223.05,401.85 213,401.85 c -20.59,0 -34.44,-18.996 -34.44,-42.16 0,-23.166 13.85,-42.286 34.44,-42.286 m 41.303,1.346 40.813,0 0,13.606 -27.208,0 0,16.424 27.208,0 0,13.605 -27.208,0 0,24.515 27.208,0 0,13.603 -40.813,0 0,-81.753"
         inkscape:connector-curvature="0"
         style="fill:#273540" />
      <path
         id="path3342-5-8"
         d="M 96.142,271.85 23.4,199.08 23.4,96.17 96.142,23.4 l 102.864,0 72.746,72.77 0,102.91 -72.747,72.77 -102.863,0"
         inkscape:connector-curvature="0"
         style="fill:#ffffff" />
      <path
         id="path3344-4-5"
         d="m 208.7,295.25 -117.405,0 0,-11.7 8.275,-8.27 -8.276,8.27 0,11.7 -4.847,0 L 0,208.77 0,86.48 86.447,0 208.7,0 l 86.453,86.48 0,122.29 -86.453,86.48 M 96.143,23.4 23.4,96.17 l 0,102.91 72.742,72.77 102.863,0 72.747,-72.77 0,-102.91 -72.746,-72.77 -102.864,0"
         inkscape:connector-curvature="0"
         style="fill:#ed1c24" />
      <path
         id="path3346-81-1"
         d="m 147.586,147.602 -2.5,-28.906 0,-84.22 5,0 0,84.22 -2.5,28.906"
         inkscape:connector-curvature="0"
         style="fill:#ed1c24" />
      <path
         id="path3348-2-0"
         d="m 147.586,147.602 0.124,-0.01 -2.5,-28.9 0,-84.092 4.75,0 0,84.09 -2.5,28.9 0.126,0.01 0.124,-0.01 -0.124,0.01 0.124,0.012 2.5,-28.913 0,-84.347 -5.25,0 0,84.35 2.5,28.912 0.25,0 -0.124,-0.012"
         inkscape:connector-curvature="0"
         style="fill:#ed1c24" />
      <path
         id="path3350-8-8"
         d="m 147.615,147.602 2.612,-29.223 14.79,-83.884 4.928,0.87 -14.792,83.882 -7.538,28.352"
         inkscape:connector-curvature="0"
         style="fill:#cb3b46" />
      <path
         id="path3352-9-7"
         d="m 147.615,147.602 0.125,0.012 2.61,-29.22 14.77,-83.753 4.68,0.828 -14.77,83.754 -7.535,28.35 0.12,0.032 0.125,0.012 -0.125,-0.012 0.12,0.033 7.54,-28.36 14.814,-84.01 -5.175,-0.913 -14.812,84.01 -2.613,29.23 0.246,0.043 -0.12,-0.033"
         inkscape:connector-curvature="0"
         style="fill:#cb3b46" />
      <path
         id="path3354-3-6"
         d="m 147.618,147.615 8.086,-29.516 30.392,-83.516 4.7,1.71 -30.396,83.517 -12.783,27.805"
         inkscape:connector-curvature="0"
         style="fill:#f46f1b" />
      <path
         id="path3356-6-3"
         d="m 147.618,147.615 0.132,0.036 8.085,-29.51 30.344,-83.38 4.44,1.62 -30.347,83.378 -12.78,27.8 0.124,0.058 0.132,0.036 -0.134,-0.035 0.126,0.057 12.786,-27.81 30.443,-83.647 -4.957,-1.806 -30.442,83.647 -8.087,29.523 0.257,0.092 -0.125,-0.057"
         inkscape:connector-curvature="0"
         style="fill:#f46f1b" />
      <path
         id="path3358-8-5"
         d="m 147.618,147.582 12.7,-26.993 43.306,-75.01 4.33,2.5 -43.308,75.01 -17.028,24.49"
         inkscape:connector-curvature="0"
         style="fill:#f46f1b" />
      <path
         id="path3360-0-0"
         d="m 147.618,147.582 0.113,0.054 12.7,-26.99 43.24,-74.897 4.115,2.375 -43.243,74.895 -17.025,24.49 0.103,0.072 0.113,0.054 -0.112,-0.054 0.103,0.073 17.032,-24.5 43.373,-75.12 -4.548,-2.628 -43.37,75.123 -12.702,27 0.215,0.125 -0.102,-0.073"
         inkscape:connector-curvature="0"
         style="fill:#f46f1b" />
      <path
         id="path3362-2-8"
         d="m 147.618,147.612 16.665,-23.75 54.133,-64.516 3.83,3.218 -54.135,64.513 -20.49,20.535"
         inkscape:connector-curvature="0"
         style="fill:#273540" />
      <path
         id="path3364-1-0"
         d="m 147.618,147.612 0.102,0.072 16.663,-23.745 54.047,-64.42 3.64,3.057 -54.05,64.414 -20.49,20.53 0.087,0.09 0.103,0.07 -0.103,-0.07 0.09,0.09 20.497,-20.54 54.218,-64.616 -4.02,-3.377 -54.218,64.616 -16.67,23.754 0.192,0.16 -0.09,-0.088"
         inkscape:connector-curvature="0"
         style="fill:#273540" />
      <path
         id="path3366-0-4"
         d="m 147.615,147.612 20.535,-20.496 64.514,-54.137 3.214,3.833 -64.518,54.133 -23.745,16.665"
         inkscape:connector-curvature="0"
         style="fill:#cb3b46" />
      <path
         id="path3368-5-1"
         d="m 147.615,147.612 0.09,0.09 20.53,-20.493 64.414,-54.056 3.05,3.644 -64.417,54.047 -23.74,16.663 0.07,0.102 0.09,0.09 -0.09,-0.09 0.073,0.103 23.75,-16.67 64.615,-54.212 -3.372,-4.028 -64.615,54.222 -20.538,20.5 0.16,0.19 -0.072,-0.102"
         inkscape:connector-curvature="0"
         style="fill:#cb3b46" />
      <path
         id="path3370-11-1"
         d="m 147.618,147.585 24.52,-17.043 75.085,-43.352 2.495,4.334 -75.083,43.348 -27.017,12.713"
         inkscape:connector-curvature="0"
         style="fill:#cb3b46" />
      <path
         id="path3372-0-3"
         d="m 147.618,147.585 0.07,0.102 24.518,-17.04 74.97,-43.286 2.37,4.118 -74.97,43.285 -27.01,12.71 0.052,0.113 0.07,0.102 -0.07,-0.102 0.053,0.114 27.024,-12.716 75.195,-43.415 -2.62,-4.55 -75.196,43.416 -24.527,17.047 0.125,0.216 -0.052,-0.116"
         inkscape:connector-curvature="0"
         style="fill:#cb3b46" />
      <path
         id="path3374-8-5"
         d="m 147.66,147.566 -0.043,-0.015 27.777,-12.77 83.417,-30.363 1.707,4.703 -83.42,30.357 -29.478,8.074 0.042,0.017"
         inkscape:connector-curvature="0"
         style="fill:#ed1c24" />
      <path
         id="path3376-5-9"
         d="m 147.66,147.566 0.05,-0.142 -0.045,-0.015 -0.047,0.14 0.062,0.136 27.77,-12.768 83.27,-30.31 1.604,4.42 -83.27,30.305 -29.953,8.202 0.515,0.172 0.095,-0.286 -0.05,0.143 0.05,-0.142 -0.045,-0.014 -0.048,0.14 0.04,0.146 29.487,-8.075 83.563,-30.41 -1.806,-4.986 -83.563,30.418 -28.126,12.934 0.405,0.135 0.095,-0.286 -0.05,0.143"
         inkscape:connector-curvature="0"
         style="fill:#ed1c24" />
      <path
         id="path3378-0-3"
         d="m 147.618,147.623 28.342,-7.538 83.845,-14.787 0.863,4.927 -83.844,14.783 -29.206,2.615"
         inkscape:connector-curvature="0"
         style="fill:#273540" />
      <path
         id="path3380-6-4"
         d="m 147.618,147.623 0.036,0.132 28.336,-7.535 83.704,-14.762 0.814,4.654 -83.702,14.76 -29.2,2.613 0.012,0.137 0.036,0.133 -0.036,-0.133 0.012,0.137 29.212,-2.617 83.984,-14.808 -0.91,-5.197 -83.986,14.81 -28.348,7.54 0.048,0.27 -0.012,-0.138"
         inkscape:connector-curvature="0"
         style="fill:#273540" />
      <path
         id="path3382-4-1"
         d="m 147.586,147.602 -0.04,-0.015 28.905,-2.5 84.224,-0.005 -0.008,5.003 -84.22,0 -28.9,-2.498 0.04,0.015"
         inkscape:connector-curvature="0"
         style="fill:#f46f1b" />
      <path
         id="path3384-6-5"
         d="m 147.586,147.602 0.02,-0.058 -0.04,-0.015 -0.02,0.056 0.004,0.063 28.904,-2.5 84.156,-0.006 -0.007,4.877 -84.153,0 -28.9,-2.495 -0.026,0.12 0.04,0.015 0.042,-0.116 -0.02,0.058 0.02,-0.058 -0.04,-0.015 -0.02,0.056 -0.007,0.063 28.9,2.496 84.286,0 0.008,-5.127 -84.286,0.004 -28.91,2.5 -0.016,0.12 0.04,0.016 0.042,-0.116 -0.02,0.058"
         inkscape:connector-curvature="0"
         style="fill:#f46f1b" />
      <path
         id="path3386-2-0"
         d="m 147.615,147.602 -0.07,0.008 29.148,2.602 83.657,14.744 -0.876,4.926 -83.655,-14.748 -28.276,-7.524 0.07,-0.008"
         inkscape:connector-curvature="0"
         style="fill:#ed1c24" />
      <path
         id="path3388-5-8"
         d="m 147.615,147.602 -0.013,-0.123 -0.07,0.004 0.002,0.25 29.142,2.6 83.53,14.722 -0.833,4.68 -83.528,-14.725 -28.27,-7.522 -0.03,0.12 0.013,0.124 0.07,-0.007 -0.025,-0.248 0.012,0.122 -0.013,-0.124 -0.07,0.005 -0.02,0.247 28.28,7.526 83.783,14.77 0.92,-5.17 -83.786,-14.767 -29.155,-2.605 -0.01,0.126 0.012,0.124 0.07,-0.007 -0.025,-0.248 0.012,0.122"
         inkscape:connector-curvature="0"
         style="fill:#ed1c24" />
      <path
         id="path3390-8-3"
         d="m 147.615,147.602 29.517,8.087 83.518,30.385 -1.72,4.7 -83.513,-30.392 -27.802,-12.782"
         inkscape:connector-curvature="0"
         style="fill:#273540" />
      <path
         id="path3392-6-5"
         d="m 147.615,147.602 -0.033,0.12 29.512,8.085 83.396,30.344 -1.634,4.467 -83.39,-30.35 -27.8,-12.777 -0.05,0.112 -0.034,0.12 0.033,-0.12 -0.05,0.114 27.805,12.783 83.636,30.436 1.804,-4.934 -83.64,-30.433 -29.52,-8.088 -0.086,0.233 0.05,-0.114"
         inkscape:connector-curvature="0"
         style="fill:#273540" />
      <path
         id="path3394-2-6"
         d="m 147.618,147.585 26.967,12.684 74.946,43.26 -2.51,4.33 -74.935,-43.264 -24.466,-17.012"
         inkscape:connector-curvature="0"
         style="fill:#273540" />
      <path
         id="path3396-8-5"
         d="m 147.618,147.585 -0.053,0.114 26.962,12.68 74.834,43.195 -2.385,4.113 -74.824,-43.2 -24.46,-17.008 -0.072,0.103 -0.052,0.114 0.052,-0.115 -0.07,0.102 24.47,17.015 75.048,43.327 2.638,-4.545 -75.06,-43.328 -26.972,-12.685 -0.124,0.214 0.07,-0.102"
         inkscape:connector-curvature="0"
         style="fill:#273540" />
      <path
         id="path3398-4-9"
         d="m 147.618,147.585 23.75,16.665 64.523,54.134 -3.223,3.828 -64.516,-54.133 -20.53,-20.496"
         inkscape:connector-curvature="0"
         style="fill:#cb3b46" />
      <path
         id="path3400-7-9"
         d="m 147.618,147.585 -0.072,0.102 23.745,16.663 64.426,54.05 -3.064,3.636 -64.415,-54.05 -20.53,-20.49 -0.088,0.09 -0.07,0.1 0.07,-0.1 -0.088,0.088 20.535,20.497 64.616,54.218 3.387,-4.018 -64.623,-54.22 -23.754,-16.666 -0.16,0.19 0.087,-0.09"
         inkscape:connector-curvature="0"
         style="fill:#cb3b46" />
      <path
         id="path3402-2-0"
         d="m 147.618,147.582 20.493,20.538 54.147,64.516 -3.842,3.21 -54.136,-64.516 -16.66,-23.748"
         inkscape:connector-curvature="0"
         style="fill:#f46f1b" />
      <path
         id="path3404-4-7"
         d="m 147.618,147.582 -0.09,0.09 20.49,20.533 54.062,64.416 -3.65,3.05 -54.053,-64.415 -16.657,-23.743 -0.102,0.072 -0.09,0.09 0.09,-0.09 -0.103,0.073 16.664,23.75 54.217,64.615 4.035,-3.368 -54.23,-64.617 -20.497,-20.54 -0.19,0.16 0.102,-0.073"
         inkscape:connector-curvature="0"
         style="fill:#f46f1b" />
      <path
         id="path3406-0-6"
         d="m 147.618,147.582 16.967,24.393 43.142,74.71 -4.34,2.492 -43.132,-74.707 -12.637,-26.888"
         inkscape:connector-curvature="0"
         style="fill:#cb3b46" />
      <path
         id="path3408-6-3"
         d="m 147.618,147.582 -0.113,0.08 16.964,24.387 43.07,74.583 -4.104,2.356 -43.06,-74.585 -12.635,-26.88 -0.123,0.056 -0.113,0.08 0.113,-0.08 -0.124,0.06 12.64,26.893 43.202,74.83 4.58,-2.63 -43.215,-74.832 -16.97,-24.395 -0.236,0.136 0.124,-0.057"
         inkscape:connector-curvature="0"
         style="fill:#cb3b46" />
      <path
         id="path3410-2-7"
         d="m 147.615,147.582 12.78,27.804 30.394,83.494 -4.708,1.7 -30.387,-83.487 -8.08,-29.51"
         inkscape:connector-curvature="0"
         style="fill:#cb3b46" />
      <path
         id="path3412-9-6"
         d="m 147.615,147.582 -0.125,0.058 12.776,27.797 30.347,83.36 -4.448,1.608 -30.337,-83.355 -8.08,-29.504 -0.133,0.037 -0.125,0.057 0.125,-0.057 -0.133,0.036 8.083,29.513 30.435,83.626 4.965,-1.797 -30.444,-83.625 -12.78,-27.81 -0.256,0.095 0.132,-0.037"
         inkscape:connector-curvature="0"
         style="fill:#cb3b46" />
      <path
         id="path3414-9-1"
         d="m 147.61,147.582 7.537,28.358 14.8,83.886 -4.932,0.858 -14.79,-83.88 -2.615,-29.22"
         inkscape:connector-curvature="0"
         style="fill:#ed1c24" />
      <path
         id="path3416-0-5"
         d="m 147.61,147.582 -0.12,0.033 7.535,28.352 14.777,83.758 -4.686,0.814 -14.767,-83.754 -2.616,-29.215 -0.125,0.01 -0.12,0.034 0.12,-0.033 -0.125,0.013 2.615,29.227 14.814,84.007 5.177,-0.898 -14.82,-84.02 -7.54,-28.36 -0.243,0.043 0.124,-0.012"
         inkscape:connector-curvature="0"
         style="fill:#ed1c24" />
      <path
         id="path3418-8-0"
         d="m 147.61,147.607 2.5,28.91 0.007,84.225 -5.007,-0.015 0,-84.217 2.5,-28.903"
         inkscape:connector-curvature="0"
         style="fill:#273540" />
      <path
         id="path3420-1-6"
         d="m 147.61,147.607 -0.124,0.012 2.5,28.9 0.007,84.095 -4.758,-0.014 0,-84.085 2.5,-28.897 -0.125,-0.013 -0.124,0.012 0.124,-0.013 -0.124,-0.01 -2.5,28.91 0,84.345 5.257,0.014 -0.008,-84.356 -2.5,-28.914 -0.25,0 0.125,0.01"
         inkscape:connector-curvature="0"
         style="fill:#273540" />
      <path
         id="path3422-3-5"
         d="m 147.607,147.615 -2.61,29.214 -14.782,83.85 -4.93,-0.89 14.786,-83.836 7.538,-28.34"
         inkscape:connector-curvature="0"
         style="fill:#f46f1b" />
      <path
         id="path3424-1-0"
         d="m 147.607,147.615 -0.123,-0.01 -2.613,29.207 -14.755,83.722 -4.683,-0.843 14.764,-83.71 7.535,-28.33 -0.122,-0.034 -0.123,-0.01 0.123,0.01 -0.12,-0.033 -7.538,28.345 -14.81,83.967 5.176,0.93 14.804,-83.98 2.612,-29.218 -0.245,-0.044 0.12,0.033"
         inkscape:connector-curvature="0"
         style="fill:#f46f1b" />
      <path
         id="path3426-1-8"
         d="m 147.618,147.65 -8.06,29.453 -30.314,83.312 -4.702,-1.73 30.32,-83.3 12.756,-27.734"
         inkscape:connector-curvature="0"
         style="fill:#ed1c24" />
      <path
         id="path3428-0-1"
         d="m 147.618,147.65 -0.12,-0.03 -8.058,29.444 -30.27,83.19 -4.468,-1.642 30.276,-83.18 12.753,-27.728 -0.11,-0.053 -0.12,-0.03 0.12,0.03 -0.115,-0.05 -12.758,27.737 -30.365,83.425 4.938,1.816 30.36,-83.436 8.06,-29.455 -0.234,-0.086 0.114,0.05"
         inkscape:connector-curvature="0"
         style="fill:#ed1c24" />
      <path
         id="path3430-3-2"
         d="m 147.618,147.65 -12.7,27 -43.304,75.017 -4.33,-2.516 43.307,-75.005 17.03,-24.493"
         inkscape:connector-curvature="0"
         style="fill:#273540" />
      <path
         id="path3432-4-2"
         d="m 147.618,147.65 -0.113,-0.05 -12.7,26.992 -43.236,74.905 -4.117,-2.392 43.244,-74.894 17.022,-24.487 -0.103,-0.07 -0.113,-0.053 0.113,0.05 -0.103,-0.07 -17.03,24.496 -43.372,75.12 4.547,2.643 43.37,-75.13 12.7,-27.006 -0.216,-0.125 0.102,0.07"
         inkscape:connector-curvature="0"
         style="fill:#273540" />
      <path
         id="path3434-0-6"
         d="m 147.618,147.612 -16.67,23.753 -54.13,64.526 -3.83,-3.23 54.137,-64.514 20.492,-20.533"
         inkscape:connector-curvature="0"
         style="fill:#cb3b46" />
      <path
         id="path3436-3-9"
         d="m 147.618,147.612 -0.103,-0.072 -16.666,23.75 -54.05,64.424 -3.637,-3.07 54.05,-64.416 20.49,-20.53 -0.087,-0.088 -0.103,-0.072 0.103,0.072 -0.09,-0.088 -20.495,20.536 -54.22,64.614 4.02,3.393 54.216,-64.626 16.672,-23.757 -0.19,-0.16 0.088,0.09"
         inkscape:connector-curvature="0"
         style="fill:#cb3b46" />
      <path
         id="path3438-9-1"
         d="m 147.618,147.65 -20.542,20.497 -64.512,54.148 -3.208,-3.847 64.514,-54.134 23.748,-16.663"
         inkscape:connector-curvature="0"
         style="fill:#f46f1b" />
      <path
         id="path3440-1-0"
         d="m 147.618,147.65 -0.088,-0.088 -20.54,20.493 -64.41,54.064 -3.048,-3.658 64.415,-54.05 23.743,-16.66 -0.072,-0.102 -0.088,-0.087 0.087,0.088 -0.07,-0.1 -23.753,16.666 -64.614,54.214 3.368,4.04 64.612,-54.23 20.546,-20.5 -0.16,-0.19 0.072,0.1"
         inkscape:connector-curvature="0"
         style="fill:#f46f1b" />
      <path
         id="path3442-9-4"
         d="m 147.618,147.585 -24.466,17.01 -74.91,43.26 -2.492,-4.344 74.91,-43.25 26.958,-12.674"
         inkscape:connector-curvature="0"
         style="fill:#f46f1b" />
      <path
         id="path3444-6-2"
         d="m 147.618,147.585 -0.072,-0.103 -24.46,17.007 -74.797,43.194 -2.37,-4.13 74.797,-43.183 26.953,-12.67 -0.052,-0.115 -0.072,-0.103 0.072,0.103 -0.053,-0.113 -26.963,12.678 -75.022,43.315 2.617,4.562 75.024,-43.327 24.47,-17.013 -0.125,-0.215 0.052,0.113"
         inkscape:connector-curvature="0"
         style="fill:#f46f1b" />
      <path
         id="path3446-93-7"
         d="m 147.618,147.582 -27.788,12.772 -83.44,30.38 -1.697,-4.714 83.433,-30.366 29.49,-8.072"
         inkscape:connector-curvature="0"
         style="fill:#273540" />
      <path
         id="path3448-38-4"
         d="m 147.618,147.582 -0.053,-0.112 -27.782,12.77 -83.317,30.335 -1.613,-4.48 83.31,-30.32 29.488,-8.07 -0.032,-0.122 -0.052,-0.113 0.052,0.113 -0.032,-0.12 -29.497,8.072 -83.556,30.41 1.783,4.95 83.56,-30.425 27.794,-12.774 -0.084,-0.234 0.033,0.12"
         inkscape:connector-curvature="0"
         style="fill:#273540" />
      <path
         id="path3450-0-0"
         d="m 147.618,147.574 -28.36,7.533 -83.89,14.805 -0.854,-4.938 83.88,-14.79 29.224,-2.61"
         inkscape:connector-curvature="0"
         style="fill:#cb3b46" />
      <path
         id="path3452-5-3"
         d="m 147.618,147.574 -0.032,-0.122 -28.355,7.533 -83.76,14.782 -0.81,-4.692 83.752,-14.768 29.22,-2.61 -0.012,-0.123 -0.032,-0.122 0.032,0.122 -0.012,-0.125 -29.228,2.61 -84.01,14.81 0.898,5.186 84.02,-14.827 28.364,-7.537 -0.044,-0.245 0.012,0.124"
         inkscape:connector-curvature="0"
         style="fill:#cb3b46" />
      <path
         id="path3454-6-2"
         d="m 146.94,147.554 0.678,0.053 -28.907,2.495 -84.227,0.015 0.016,-5.012 84.215,0 28.904,2.502 -0.68,-0.053"
         inkscape:connector-curvature="0"
         style="fill:#ed1c24" />
      <path
         id="path3456-6-8"
         d="m 146.94,147.554 -0.01,0.125 0.678,0.05 0.01,-0.124 -0.01,-0.125 -28.902,2.496 -84.1,0.015 0.016,-4.76 84.087,0 28.897,2.5 0.02,-0.25 -0.68,-0.052 -0.02,0.25 0.01,-0.126 -0.01,0.125 0.68,0.052 0.02,-0.25 -28.91,-2.503 -84.342,0 -0.016,5.263 84.36,-0.016 28.912,-2.495 -0.002,-0.25 -0.68,-0.054 -0.02,0.25 0.01,-0.126"
         inkscape:connector-curvature="0"
         style="fill:#ed1c24" />
      <path
         id="path3458-4-0"
         d="m 147.618,147.65 -28.69,-2.586 -84.355,-14.86 0.887,-4.933 84.34,14.87 27.818,7.51"
         inkscape:connector-curvature="0"
         style="fill:#f46f1b" />
      <path
         id="path3460-00-3"
         d="m 147.618,147.65 0.01,-0.123 -28.683,-2.587 -84.227,-14.836 0.842,-4.688 84.213,14.848 27.812,7.508 0.032,-0.12 0.012,-0.125 -0.014,0.124 0.033,-0.12 -27.823,-7.51 -84.47,-14.893 -0.93,5.18 84.485,14.88 28.693,2.59 0.044,-0.245 -0.034,0.12"
         inkscape:connector-curvature="0"
         style="fill:#f46f1b" />
      <path
         id="path3462-4-7"
         d="m 147.618,147.57 -29.505,-8.08 -83.487,-30.374 1.73,-4.705 83.47,30.383 27.792,12.78"
         inkscape:connector-curvature="0"
         style="fill:#cb3b46" />
      <path
         id="path3464-62-0"
         d="m 147.618,147.57 0.033,-0.12 -29.5,-8.08 -83.362,-30.33 1.644,-4.47 83.35,30.34 27.785,12.775 0.052,-0.114 0.033,-0.12 -0.033,0.12 0.053,-0.112 -27.795,-12.78 -83.592,-30.426 -1.818,4.94 83.61,30.42 29.51,8.08 0.085,-0.233 -0.052,0.113"
         inkscape:connector-curvature="0"
         style="fill:#cb3b46" />
      <path
         id="path3466-6-0"
         d="M 147.618,147.612 120.53,134.854 45.225,91.396 l 2.525,-4.334 75.283,43.465 24.584,17.085"
         inkscape:connector-curvature="0"
         style="fill:#f46f1b" />
      <path
         id="path3468-7-3"
         d="m 147.618,147.612 0.053,-0.113 -27.08,-12.76 L 45.4,91.35 l 2.396,-4.117 75.17,43.398 24.58,17.084 0.073,-0.103 0.052,-0.112 -0.052,0.112 0.07,-0.102 -24.588,-17.09 -75.395,-43.53 -2.65,4.55 75.42,43.523 27.09,12.76 0.125,-0.215 -0.07,0.102"
         inkscape:connector-curvature="0"
         style="fill:#f46f1b" />
      <path
         id="path3470-56-4"
         d="m 147.586,147.65 -23.748,-16.67 -64.533,-54.127 3.235,-3.83 64.514,54.133 20.532,20.495"
         inkscape:connector-curvature="0"
         style="fill:#ed1c24" />
      <path
         id="path3472-9-9"
         d="m 147.586,147.65 0.07,-0.1 -23.742,-16.668 -64.434,-54.042 3.076,-3.64 64.415,54.05 20.528,20.492 0.09,-0.09 0.07,-0.1 -0.07,0.1 0.087,-0.088 -20.535,-20.498 -64.616,-54.218 -3.396,4.023 64.634,54.21 23.752,16.675 0.16,-0.192 -0.088,0.09"
         inkscape:connector-curvature="0"
         style="fill:#ed1c24" />
      <path
         id="path3474-8-2"
         d="m 147.615,147.615 -20.492,-20.54 -54.156,-64.51 3.852,-3.214 54.132,64.518 16.662,23.748"
         inkscape:connector-curvature="0"
         style="fill:#f46f1b" />
      <path
         id="path3476-7-7"
         d="m 147.615,147.615 0.09,-0.09 -20.49,-20.534 -54.072,-64.41 3.66,-3.053 54.05,64.418 16.66,23.742 0.102,-0.07 0.09,-0.09 -0.09,0.09 0.102,-0.074 -16.665,-23.75 -54.217,-64.617 -4.044,3.373 54.24,64.61 20.497,20.544 0.19,-0.16 -0.1,0.072"
         inkscape:connector-curvature="0"
         style="fill:#f46f1b" />
      <path
         id="path3478-2-4"
         d="m 147.618,147.612 -17.055,-24.548 -43.416,-75.157 4.352,-2.495 43.39,75.16 12.727,27.04"
         inkscape:connector-curvature="0"
         style="fill:#ed1c24" />
      <path
         id="path3480-8-2"
         d="m 147.618,147.612 0.113,-0.078 -17.05,-24.544 -43.345,-75.03 4.115,-2.36 43.32,75.035 12.724,27.036 0.124,-0.057 0.113,-0.078 -0.11,0.078 0.124,-0.058 -12.73,-27.047 -43.466,-75.284 -4.59,2.632 43.486,75.28 17.06,24.554 0.237,-0.135 -0.125,0.058"
         inkscape:connector-curvature="0"
         style="fill:#ed1c24" />
      <path
         id="path3482-2-5"
         d="m 147.615,147.574 -12.76,-27.76 -30.362,-83.364 4.72,-1.7 30.338,83.36 8.066,29.464"
         inkscape:connector-curvature="0"
         style="fill:#f46f1b" />
      <path
         id="path3484-9-2"
         d="m 147.615,147.574 0.136,-0.064 -12.754,-27.753 -30.31,-83.217 4.44,-1.598 30.284,83.214 8.06,29.456 0.145,-0.038 0.136,-0.064 -0.134,0.064 0.145,-0.04 -8.064,-29.47 -30.39,-83.505 -5.005,1.8 30.42,83.51 12.76,27.765 0.28,-0.102 -0.144,0.04"
         inkscape:connector-curvature="0"
         style="fill:#f46f1b" />
      <path
         id="path3486-9-4"
         d="m 147.615,147.625 -7.534,-28.358 -14.81,-83.888 4.944,-0.857 14.785,83.881 2.615,29.22"
         inkscape:connector-curvature="0"
         style="fill:#273540" />
      <path
         id="path3488-6-4"
         d="m 147.615,147.625 0.03,-0.01 -7.534,-28.354 -14.804,-83.855 4.883,-0.844 14.78,83.848 2.615,29.22 0.03,-0.002 0.03,-0.01 -0.03,0.01 0.032,-0.004 -2.615,-29.22 -14.79,-83.912 -5.007,0.865 14.818,83.922 7.535,28.358 0.06,-0.012 -0.03,0.005"
         inkscape:connector-curvature="0"
         style="fill:#273540" />
    </g>
    <g
       id="g3712-0-3"
       transform="matrix(0.0742828,0,0,0.07423632,605.61926,181.12935)">
      <path
         id="path3694-2-8"
         d="m 0,1062.987 1771.65,0 0,-531.497 -1771.65,0 0,531.497 z"
         inkscape:connector-curvature="0"
         style="fill:#2154ac" />
      <path
         id="path3696-76-6"
         d="m 0,531.49 1771.65,0 0,-531.494 L 0,-0.004 0,531.49 Z"
         inkscape:connector-curvature="0"
         style="fill:#d6f2fb" />
      <path
         id="path3698-1-0"
         d="m 378.175,529.944 -303.898,0 0,-10.187 c 23.63,-2.517 35.176,-6.292 43.964,-30.203 l 67.596,-188.358 c 0,0 5.494,-18.04 5.494,-23.495 0,-13.425 -4.944,-13.848 -40.11,-17.626 l 0,-10.187 174.2,0 0,10.187 c -30.78,1.262 -46.71,5.037 -55.51,30.212 l -70.89,200.548 c -2.736,7.972 -2.736,11.326 -2.736,13.426 0,3.776 0,12.59 35.715,12.59 65.935,0 127.498,-17.63 165.41,-70.073 l 13.194,2.102 -32.43,81.064 m 407.719,0 -174.47,0 0,-10.187 c 41.826,-1.262 48.977,-11.792 55.59,-30.32 l 35.215,-97.703 -131.535,0 -27.525,76.225 c -3.855,10.946 -9.35,23.16 -9.35,33.69 0,15.58 11.557,16.422 40.17,18.107 l 0,10.187 -162.913,0 0,-10.187 c 20.374,-2.526 34.676,-4.213 44.044,-30.32 l 67.136,-188.323 c 1.657,-4.19 6.052,-18.01 6.052,-22.614 0,-13.82 -6.052,-14.655 -40.17,-18.426 l 0,-10.187 174.472,0 0,10.187 c -30.832,0.842 -46.792,5.03 -55.6,30.152 l -29.713,83.323 131.544,0 25.868,-72.436 c 0,0 5.502,-18.01 5.502,-23.448 0,-13.4 -4.955,-13.82 -40.18,-17.592 l 0,-10.187 164.024,0 0,10.187 c -22.023,2.517 -35.235,4.192 -44.594,30.152 l -59.994,166.36 c -3.845,11.373 -13.752,35.375 -13.752,45.48 0,15.583 19.265,17.27 40.178,17.69 l 0,10.188 m 413.242,-195.727 -17.4,-2.516 c 1.11,-4.563 1.668,-9.535 1.668,-14.096 0,-40.214 -25.408,-65.923 -73.457,-65.923 -88.91,0 -153.528,107.677 -153.528,181.84 0,75.007 71.8,75.007 79.532,75.007 43.624,0 78.97,-10.897 119.277,-49.445 l 16.57,9.217 c -28.166,32.264 -78.42,62.64 -150.21,62.64 -71.75,0 -149.662,-32.47 -149.662,-108.31 0,-93.005 91.124,-185.494 225.317,-185.494 47.5,0 78.42,12.054 91.584,12.054 11.964,0 16.36,-5.4 21.863,-12.054 l 16.507,0 -28.063,97.08 m 348.768,-6.468 c 0,53.734 -80.162,188.712 -195.762,188.712 -39.663,0 -39.663,-16.634 -39.663,-21.114 0,-67.166 81,-221.977 173.813,-221.977 53.162,0 61.612,34.544 61.612,54.377 z M 1313.325,112.02 c 48.938,0.647 54.85,3.857 54.85,18.612 0,8.985 -7.6,25.027 -13.512,42.987 l -114.77,321.09 0,2.557 c 0,14.075 64.982,33.743 109.707,33.743 129.1,0 269.55,-110.508 269.55,-211.576 0,-46.714 -41.075,-77.8 -99.95,-77.8 -75.938,0 -129.1,59.887 -156.938,93.15 l -1.687,-0.64 c 28.687,-72.43 67.5,-191.55 86.062,-243.944 l -4.225,-3.2 c -43.875,6.514 -86.9,10.996 -129.087,14.836 l 0,10.183"
         inkscape:connector-curvature="0"
         style="fill:#2154ac" />
      <path
         id="path3700-32-8"
         d="m 409.495,616.047 -13.182,2.095 C 358.38,565.7 296.837,548.08 230.9,548.08 c -35.735,0 -35.735,8.81 -35.735,12.586 0,2.095 0,5.454 2.756,13.426 l 70.893,200.548 c 8.788,25.174 24.728,28.95 55.508,30.212 l 0,10.182 -174.212,0 0,-10.182 c 35.167,-3.78 40.12,-4.202 40.12,-17.623 0,-5.456 -5.492,-23.5 -5.492,-23.5 L 117.142,575.37 C 108.344,551.46 96.809,547.683 73.178,545.165 l 0,-10.182 303.898,0 32.42,81.062 M 785.893,543.23 c -20.914,0.42 -40.18,2.105 -40.18,17.69 0,10.102 9.908,34.105 13.753,45.476 l 59.994,166.367 c 9.36,25.96 22.57,27.63 44.594,30.146 l 0,10.185 -164.024,0 0,-10.184 c 35.225,-3.77 40.18,-4.187 40.18,-17.59 0,-5.44 -5.503,-23.445 -5.503,-23.445 l -25.867,-72.435 -131.546,0 29.712,83.323 c 8.81,25.122 24.77,29.308 55.6,30.146 l 0,10.185 -174.47,0 0,-10.184 c 34.117,-3.77 40.17,-4.605 40.17,-18.426 0,-4.604 -4.396,-18.423 -6.053,-22.61 L 455.117,573.55 c -9.367,-26.108 -23.67,-27.792 -44.043,-30.318 l 0,-10.185 162.916,0 0,10.185 c -28.615,1.684 -40.17,2.526 -40.17,18.106 0,10.528 5.492,22.74 9.347,33.69 l 27.525,76.23 131.535,0 -35.215,-97.708 c -6.612,-18.527 -13.763,-29.054 -55.59,-30.318 l 0,-10.185 174.47,0 0,10.185 m 441.305,282.618 -16.508,0 c -5.505,-6.65 -9.9,-12.058 -21.864,-12.058 -13.163,0 -44.085,12.06 -91.583,12.06 -134.194,0 -225.318,-92.493 -225.318,-185.495 0,-75.842 77.913,-108.31 149.663,-108.31 71.788,0 122.043,30.377 150.21,62.638 l -16.57,9.215 c -40.31,-38.544 -75.654,-49.44 -119.28,-49.44 -7.73,0 -79.53,0 -79.53,75 0,74.168 64.618,181.84 153.527,181.84 48.05,0 73.458,-25.704 73.458,-65.917 0,-4.56 -0.56,-9.538 -1.668,-14.1 l 17.4,-2.514 28.063,97.08 m 259.09,-36.234 c -92.812,0 -173.812,-154.81 -173.812,-221.98 0,-4.48 0,-21.106 39.663,-21.106 115.6,0 195.762,134.97 195.762,188.71 0,19.83 -8.45,54.375 -61.613,54.375 z m -172.962,171.53 c 42.188,3.843 85.213,8.324 129.088,14.84 l 4.225,-3.2 c -18.563,-52.392 -57.375,-171.51 -86.063,-243.942 l 1.688,-0.64 c 27.837,33.263 81,93.15 156.937,93.15 58.875,0 99.95,-31.09 99.95,-77.798 0,-101.075 -140.45,-211.577 -269.55,-211.577 -44.725,0 -109.707,19.667 -109.707,33.737 l 0,2.56 114.77,321.09 c 5.912,17.964 13.512,34.004 13.512,42.99 0,14.755 -5.912,17.964 -54.85,18.61 l 0,10.18"
         inkscape:connector-curvature="0"
         style="fill:#d6f2fb" />
      <path
         id="path3702-15-9"
         d="m 1615.862,535.827 -51.175,-1.817 -690.932,281.642 60.21,1.818 681.897,-281.643"
         inkscape:connector-curvature="0"
         style="fill:#dc2825" />
      <path
         id="path3704-9-2"
         stroke-miterlimit="10"
         d="m 1615.862,535.827 -51.175,-1.817 -690.932,281.642 60.21,1.818 681.897,-281.643 z"
         inkscape:connector-curvature="0"
         style="fill:none;stroke:#dc2825;stroke-width:3.75;stroke-linejoin:round;stroke-miterlimit:10" />
    </g>
    <g
       transform="matrix(2.5301963,0,0,3.5734512,-141.93949,-590.12712)"
       id="g269-8-9">
      <path
         inkscape:connector-curvature="0"
         style="fill:#ecf0f1"
         d="m 199.371,281.705 c -32.174,0 -65.454,-7.22 -65.454,-19.301 0,-12.082 33.28,-19.302 65.454,-19.302 32.174,0 65.454,7.22 65.454,19.302 0,12.081 -33.28,19.301 -65.454,19.301 z m 0,-36.029 c -37.613,0 -62.88,8.649 -62.88,16.728 0,8.079 25.267,16.727 62.88,16.727 37.613,0 62.879,-8.649 62.879,-16.727 0,-8.078 -25.266,-16.728 -62.879,-16.728 z"
         id="path271-1-4" />
    </g>
    <g
       id="g3585-9-7"
       transform="matrix(0.40725086,0,0,0.40699599,296.70725,268.1289)">
      <path
         id="path3575-4-1"
         d="m 0,323.15 323.147,0 L 323.147,0 0,0 0,323.15 Z"
         inkscape:connector-curvature="0"
         style="fill:#ffffff" />
      <path
         id="path3577-6-3"
         d="m 73.557,162.622 c 0.723,4.78 1.71,9.458 2.997,13.992 -0.913,-0.272 -1.735,-0.59 -2.457,-0.938 -0.7,-1.384 -1.374,-2.776 -2.01,-4.196 l 0.035,-0.022 c -0.885,-1.714 -0.633,-4.688 1.435,-8.836 z M 62.615,127.44 c 0,-26.464 9.652,-50.72 25.6,-69.444 -0.428,6.018 -0.006,12.893 1.272,20.513 -2.098,3.824 -4.06,7.8 -5.844,11.91 -8.125,18.775 -11.762,38.146 -11.408,56.48 -2.346,2.865 -4.337,5.66 -5.945,8.38 -2.386,-8.88 -3.675,-18.213 -3.675,-27.84 z m 39.542,-7.643 c -9.19,6.78 -17.303,13.653 -23.802,20.316 0.57,-15.474 4.097,-31.588 10.89,-47.27 0.7,-1.627 1.435,-3.23 2.2,-4.813 2.417,10.046 6.037,20.766 10.712,31.768 z m 1.36,-76.538 c 2.54,-2.013 5.18,-3.903 7.896,-5.675 2.96,0.102 6.263,0.867 9.817,2.25 -8.55,7.046 -16.41,15.466 -23.252,25.096 -0.365,-10.135 1.526,-17.653 5.54,-21.67 z m 48.18,-21.49 c -8.58,3.34 -16.922,7.932 -24.777,13.655 -2.473,-1.143 -4.88,-2.065 -7.196,-2.74 9.855,-5.23 20.6,-8.97 31.972,-10.915 z m 34.4,-0.308 c 19.095,2.915 36.552,10.9 50.948,22.52 4.06,4.265 7.67,9.055 10.794,14.327 -24.22,-0.185 -62.53,13.68 -96.625,31.304 -14.356,7.43 -28.326,15.728 -40.79,24.3 -4.976,-12 -8.614,-23.574 -10.66,-34.17 -0.347,-1.785 -0.632,-3.514 -0.873,-5.21 7.958,-12.654 17.69,-23.407 28.477,-31.85 11.29,6.066 24.516,17.33 37.85,32.695 2.006,-0.924 4.005,-1.83 5.99,-2.71 C 157.828,57.004 144.712,45.443 132.954,38.581 149.46,27.216 167.98,21.091 186.094,21.459 Z M 78.784,183.476 c 0.15,0.41 0.288,0.816 0.437,1.22 -0.267,-0.424 -0.535,-0.85 -0.797,-1.28 0.12,0.02 0.238,0.044 0.36,0.06 z m 182.78,-110.832 0.29,-0.154 c 0.954,1.592 1.87,3.214 2.737,4.856 -0.17,1.028 -0.484,2.126 -0.947,3.3 -0.1,-0.382 -0.184,-0.766 -0.294,-1.144 -0.75,-2.705 -1.618,-5.33 -2.548,-7.903 0.303,0.33 0.567,0.67 0.762,1.044 z M 89.374,192.65 c -1.437,-2.78 -2.758,-5.658 -3.918,-8.634 0.354,0.013 0.71,0.024 1.08,0.024 10.32,0 23.812,-2.477 39.824,-7.434 -1.25,-1.782 -2.477,-3.59 -3.697,-5.405 -17.53,5.273 -30.675,7.023 -39.453,6.47 -2.287,-7.265 -3.81,-14.962 -4.5,-22.94 2.82,-3.592 6.59,-7.686 11.522,-12.276 4.74,-4.408 10.15,-8.894 16.096,-13.376 4.385,9.293 9.46,18.707 15.163,28.01 7.94,12.98 16.61,25.002 25.566,35.563 l 13.24,0 c -10.153,-11.05 -20.546,-24.71 -30.352,-40.734 -5.864,-9.58 -11.05,-19.255 -15.453,-28.76 12.215,-8.544 26.24,-16.97 41.274,-24.747 46.872,-24.238 81.69,-31.974 97.26,-29.904 1.73,4.01 3.232,8.215 4.456,12.62 0.66,2.41 1.21,4.845 1.716,7.306 -8.27,11.534 -25.473,26.678 -49.648,42.012 -3.535,-6.922 -7.427,-13.887 -11.653,-20.803 -3.82,-6.225 -7.846,-12.304 -11.987,-18.106 -1.932,0.825 -3.904,1.673 -5.907,2.57 4.323,6 8.54,12.332 12.51,18.836 4.245,6.93 8.14,13.91 11.655,20.84 -7.397,4.51 -15.376,9.012 -23.91,13.427 -11.78,6.087 -23.56,11.453 -35.05,15.972 1.25,1.792 2.503,3.53 3.744,5.23 11.223,-4.475 22.698,-9.73 34.176,-15.66 8.074,-4.176 16.093,-8.683 23.8,-13.38 7.883,16.396 13.56,32.37 16.438,46.567 0.47,2.322 0.842,4.554 1.147,6.714 l 6.37,0 c -0.344,-2.555 -0.776,-5.2 -1.337,-7.96 -3.01,-14.87 -8.965,-31.568 -17.224,-48.66 20.126,-12.734 37.704,-26.628 48.258,-39.186 2.63,21.415 -0.823,44.267 -10.16,65.827 -4.805,11.105 -10.91,21.15 -17.928,29.98 l 7.66,0 c 6.134,-8.293 11.516,-17.504 15.865,-27.56 10.664,-24.616 14.004,-50.898 9.705,-75.126 1.035,-1.602 1.93,-3.17 2.67,-4.7 5.565,12.953 8.655,27.21 8.655,42.175 0,24.52 -8.286,47.132 -22.19,65.21 l 12.218,0 c 12.536,-18.65 19.882,-41.083 19.882,-65.21 0,-64.58 -52.54,-117.123 -117.124,-117.123 -25.937,0 -49.93,8.482 -69.364,22.813 l -0.018,-0.03 c -1.315,0.794 -2.506,1.746 -3.61,2.82 -26.878,21.475 -44.13,54.522 -44.13,91.52 0,24.12 7.332,46.56 19.872,65.21 l 16.795,0 m -64.953,120.018 -14.975,0 0,-26.64 14.975,0 0,3.675 -10.645,0 0,7.25 9.98,0 0,3.648 -9.98,0 0,8.364 10.645,0 0,3.702 m 34.822,0.001 -4.983,0 -6.625,-10.902 -6.686,10.9 -4.64,0 8.788,-13.818 -8.217,-12.82 4.81,0 6.12,10.076 6.125,-10.076 4.672,0 -8.275,12.9 8.91,13.74 m 16.824,-13.63 2.303,0 c 2.223,0 3.856,-0.393 4.89,-1.17 1.036,-0.778 1.557,-1.99 1.557,-3.646 0,-1.53 -0.465,-2.666 -1.395,-3.423 -0.928,-0.757 -2.38,-1.132 -4.346,-1.132 l -3.01,0 0,9.372 z m 13.205,-4.957 c 0,2.782 -0.908,4.908 -2.72,6.39 -1.808,1.485 -4.382,2.224 -7.734,2.224 l -2.75,0 0,9.972 -4.33,0 0,-26.64 7.632,0 c 3.302,0 5.786,0.674 7.43,2.04 1.65,1.36 2.473,3.36 2.473,6.013 m 28.284,18.588 -14.974,0 0,-26.64 14.975,0 0,3.675 -10.643,0 0,7.25 9.982,0 0,3.648 -9.983,0 0,8.364 10.644,0 0,3.702 m 18.369,-14.254 3.007,0 c 2.02,0 3.483,-0.372 4.384,-1.13 0.906,-0.75 1.362,-1.872 1.362,-3.354 0,-1.506 -0.492,-2.585 -1.467,-3.244 -0.975,-0.65 -2.455,-0.98 -4.42,-0.98 l -2.864,0 0,8.71 z m 0,3.61 0,10.644 -4.326,0 0,-26.64 7.485,0 c 3.41,0 5.94,0.643 7.58,1.93 1.643,1.288 2.465,3.23 2.465,5.83 0,3.315 -1.715,5.68 -5.14,7.08 l 7.48,11.8 -4.924,0 -6.344,-10.643 -4.275,0 m 28.149,10.644 4.333,0 0,-26.64 -4.332,0 0,26.64 z m 31.1,0 -7.68,-22.252 -0.15,0 c 0.207,3.303 0.313,6.4 0.313,9.292 l 0,12.96 -3.93,0 0,-26.64 6.1,0 7.352,21.186 0.114,0 7.57,-21.186 6.125,0 0,26.64 -4.17,0 0,-13.175 c 0,-1.33 0.037,-3.05 0.1,-5.176 0.066,-2.132 0.125,-3.416 0.17,-3.866 l -0.14,0 -7.95,22.215 -3.825,0 m 46.129,0.002 -14.983,0 0,-26.64 14.983,0 0,3.675 -10.654,0 0,7.25 9.985,0 0,3.648 -9.986,0 0,8.364 10.654,0 0,3.702 m 36.103,0.001 -5.31,0 -13.02,-21.23 -0.145,0 0.083,1.177 c 0.178,2.265 0.258,4.33 0.258,6.197 l 0,13.855 -3.932,0 0,-26.64 5.254,0 12.99,21.12 0.108,0 c -0.027,-0.283 -0.08,-1.3 -0.152,-3.06 -0.063,-1.754 -0.1,-3.12 -0.1,-4.11 l 0,-13.95 3.965,0 0,26.64 m 24.807,0.001 -4.33,0 0,-22.906 -7.79,0 0,-3.734 19.913,0 0,3.734 -7.794,0 0,22.905 M 53.976,244.985 c -4.935,-15.886 -7.715,-24.873 -8.334,-26.947 -0.625,-2.085 -1.06,-3.73 -1.337,-4.942 -1.105,4.3 -4.277,14.93 -9.514,31.89 l 19.186,0 z m 9.07,30.618 -5.346,-17.527 -26.84,0 -5.34,17.527 -16.826,0 25.994,-73.94 19.084,0 26.094,73.94 -16.82,0 m 42.629,0 -15.615,0 0,-60.64 -19.99,0 0,-12.998 55.6,0 0,13 -19.995,0 0,60.638 m 29.54,0 0,-73.638 15.617,0 0,60.74 29.868,0 0,12.898 -45.485,0 m 94.695,-30.618 c -4.933,-15.886 -7.71,-24.873 -8.334,-26.947 -0.625,-2.085 -1.064,-3.73 -1.335,-4.942 -1.11,4.3 -4.276,14.93 -9.518,31.89 l 19.19,0 z m 9.07,30.618 -5.34,-17.527 -26.844,0 -5.34,17.527 -16.82,0 25.986,-73.94 19.09,0 26.088,73.94 -16.82,0 m 70.96,-20.447 c 0,6.648 -2.385,11.885 -7.172,15.713 -4.788,3.827 -11.445,5.74 -19.965,5.74 -7.867,0 -14.81,-1.476 -20.858,-4.43 l 0,-14.506 c 4.966,2.216 9.175,3.773 12.618,4.682 3.442,0.905 6.588,1.36 9.443,1.36 3.423,0 6.054,-0.655 7.88,-1.966 1.832,-1.306 2.748,-3.254 2.748,-5.84 0,-1.448 -0.4,-2.73 -1.21,-3.852 -0.808,-1.125 -1.986,-2.21 -3.55,-3.252 -1.564,-1.042 -4.745,-2.702 -9.545,-4.982 -4.497,-2.12 -7.877,-4.152 -10.122,-6.096 -2.252,-1.944 -4.054,-4.213 -5.392,-6.8 -1.342,-2.586 -2.008,-5.603 -2.008,-9.068 0,-6.516 2.198,-11.632 6.62,-15.354 4.417,-3.73 10.518,-5.593 18.31,-5.593 3.825,0 7.47,0.454 10.953,1.355 3.473,0.91 7.105,2.19 10.9,3.833 l -5.035,12.137 c -3.93,-1.61 -7.18,-2.737 -9.746,-3.376 -2.567,-0.636 -5.096,-0.956 -7.576,-0.956 -2.958,0 -5.225,0.693 -6.803,2.065 -1.58,1.38 -2.37,3.173 -2.37,5.39 0,1.374 0.32,2.575 0.965,3.6 0.63,1.023 1.65,2.015 3.04,2.973 1.394,0.956 4.695,2.677 9.9,5.16 6.885,3.293 11.6,6.595 14.153,9.898 2.546,3.31 3.823,7.36 3.823,12.166"
         inkscape:connector-curvature="0"
         style="fill:#3a7dc8" />
    </g>
  </g>
</svg>
