<?xml version="1.0" encoding="UTF-8" standalone="no"?>
<!-- Created with Inkscape (http://www.inkscape.org/) -->

<svg
   xmlns:dc="http://purl.org/dc/elements/1.1/"
   xmlns:cc="http://creativecommons.org/ns#"
   xmlns:rdf="http://www.w3.org/1999/02/22-rdf-syntax-ns#"
   xmlns:svg="http://www.w3.org/2000/svg"
   xmlns="http://www.w3.org/2000/svg"
   xmlns:sodipodi="http://sodipodi.sourceforge.net/DTD/sodipodi-0.dtd"
   xmlns:inkscape="http://www.inkscape.org/namespaces/inkscape"
   width="206.02222mm"
   height="130.38672mm"
   viewBox="0 0 729.99998 462.00018"
   id="svg4987"
   version="1.1"
   inkscape:version="0.91 r13725"
   sodipodi:docname="lhc.svg">
  <defs
     id="defs4989" />
  <sodipodi:namedview
     id="base"
     pagecolor="#ffffff"
     bordercolor="#666666"
     borderopacity="1.0"
     inkscape:pageopacity="0.0"
     inkscape:pageshadow="2"
     inkscape:zoom="1.4"
     inkscape:cx="174.20074"
     inkscape:cy="164.90815"
     inkscape:document-units="px"
     inkscape:current-layer="layer1"
     showgrid="false"
     inkscape:window-width="1920"
     inkscape:window-height="1181"
     inkscape:window-x="1920"
     inkscape:window-y="0"
     inkscape:window-maximized="1"
     fit-margin-top="0"
     fit-margin-left="0"
     fit-margin-right="0"
     fit-margin-bottom="0" />
  <metadata
     id="metadata4992">
    <rdf:RDF>
      <cc:Work
         rdf:about="">
        <dc:format>image/svg+xml</dc:format>
        <dc:type
           rdf:resource="http://purl.org/dc/dcmitype/StillImage" />
        <dc:title></dc:title>
      </cc:Work>
    </rdf:RDF>
  </metadata>
  <g
     inkscape:label="Layer 1"
     inkscape:groupmode="layer"
     id="layer1"
     transform="translate(-7.222375,-8.8569216)">
    <g
       transform="matrix(2.5301963,0,0,3.5734512,-278.14728,-556.93678)"
       id="g275-9-1">
      <path
         inkscape:connector-curvature="0"
         style="fill:#ecf0f1"
         d="m 192.602,286.934 c -12.818,0 -25.793,-2.826 -25.793,-8.227 0,-5.401 12.976,-8.227 25.793,-8.227 12.817,0 25.793,2.826 25.793,8.227 0,5.401 -12.975,8.227 -25.793,8.227 z m 0,-13.88 c -14.174,0 -23.219,3.348 -23.219,5.653 0,2.305 9.045,5.653 23.219,5.653 14.174,0 23.219,-3.348 23.219,-5.653 0,-2.305 -9.045,-5.653 -23.219,-5.653 z"
         id="path277-9-5" />
    </g>
    <g
       transform="matrix(1.2733293,0,0,1.7983507,-125.33211,-45.150869)"
       id="g275-3-7-4">
      <path
         inkscape:connector-curvature="0"
         style="fill:#ecf0f1"
         d="m 192.602,286.934 c -12.818,0 -25.793,-2.826 -25.793,-8.227 0,-5.401 12.976,-8.227 25.793,-8.227 12.817,0 25.793,2.826 25.793,8.227 0,5.401 -12.975,8.227 -25.793,8.227 z m 0,-13.88 c -14.174,0 -23.219,3.348 -23.219,5.653 0,2.305 9.045,5.653 23.219,5.653 14.174,0 23.219,-3.348 23.219,-5.653 0,-2.305 -9.045,-5.653 -23.219,-5.653 z"
         id="path277-6-8-1" />
    </g>
    <path
       style="fill:none;fill-opacity:1;fill-rule:evenodd;stroke:#ecf0f1;stroke-width:6.25594568;stroke-linecap:butt;stroke-linejoin:miter;stroke-miterlimit:4;stroke-dasharray:none;stroke-opacity:1"
       d="M 149.2936,431.46795 207.7933,330.71652"
       id="path3844-2-5"
       inkscape:connector-curvature="0"
       sodipodi:nodetypes="cc" />
    <g
       transform="matrix(2.5301963,0,0,3.5734512,-49.174956,-584.48793)"
       id="g279-2-5">
      <path
         inkscape:connector-curvature="0"
         style="fill:#ecf0f1"
         d="m 162.708,265.182 c -69.141,0 -123.302,-16.558 -123.302,-37.695 0,-21.137 54.161,-37.696 123.302,-37.696 69.141,0 123.302,16.558 123.302,37.696 0,21.138 -54.16,37.695 -123.302,37.695 z m 0,-72.817 c -32.47,0 -62.98,3.768 -85.909,10.61 -22.128,6.603 -34.818,15.537 -34.818,24.512 0,8.975 12.69,17.909 34.818,24.511 22.929,6.842 53.439,10.61 85.909,10.61 32.47,0 62.98,-3.768 85.91,-10.61 22.128,-6.603 34.818,-15.537 34.818,-24.511 0,-8.974 -12.69,-17.909 -34.818,-24.512 -22.929,-6.842 -53.439,-10.61 -85.91,-10.61 z"
         id="path281-2-4" />
    </g>
    <g
       transform="matrix(2.5301963,0,0,3.5734512,-141.93949,-590.12712)"
       id="g269-8-9">
      <path
         inkscape:connector-curvature="0"
         style="fill:#ecf0f1"
         d="m 199.371,281.705 c -32.174,0 -65.454,-7.22 -65.454,-19.301 0,-12.082 33.28,-19.302 65.454,-19.302 32.174,0 65.454,7.22 65.454,19.302 0,12.081 -33.28,19.301 -65.454,19.301 z m 0,-36.029 c -37.613,0 -62.88,8.649 -62.88,16.728 0,8.079 25.267,16.727 62.88,16.727 37.613,0 62.879,-8.649 62.879,-16.727 0,-8.078 -25.266,-16.728 -62.879,-16.728 z"
         id="path271-1-4" />
    </g>
  </g>
</svg>
