<svg width="100%" height="100%" viewBox="0 0 290 53" fill="none" xmlns="http://www.w3.org/2000/svg">
<path d="M29.3776 40.1053C30.5899 38.893 28.6541 34.3602 23.8391 29.5453C23.44 29.1472 23.045 28.7754 22.652 28.4166C22.8697 28.2947 23.0893 28.1808 23.3141 28.082C23.6587 28.3995 24.0003 28.7219 24.3319 29.0535C28.5311 33.2527 31.7498 38.7187 29.8704 40.5991C28.1482 42.3203 23.4219 39.7617 19.4121 36.0945C19.7487 36.0945 20.0792 36.0945 20.445 36.0945C24.6201 39.7758 28.3024 41.1796 29.3776 40.1053Z" fill="#2C3E50"/>
<path d="M19.2428 36.2755L18.7642 35.8381H20.5408L20.6123 35.9006C24.7501 39.5516 28.2903 40.8314 29.1993 39.9235C29.7132 39.4095 29.4996 38.0148 28.643 36.2845C27.6413 34.263 25.8727 31.9321 23.6618 29.7201C23.2657 29.3241 22.8727 28.9543 22.4827 28.5985L22.2247 28.3627L22.5301 28.1924C22.7548 28.0674 22.9815 27.9505 23.2133 27.8478L23.3645 27.7812L23.4864 27.8931C23.8341 28.2126 24.1777 28.5381 24.5113 28.8716C28.7377 33.0981 32.1157 38.7071 30.0498 40.774C29.6225 41.2013 29.0451 41.3917 28.3618 41.3917C25.9533 41.3907 22.2419 39.0185 19.2428 36.2755ZM23.0843 28.4675C23.3937 28.7537 23.7051 29.051 24.0185 29.3644C26.2678 31.6127 28.0706 33.9919 29.0955 36.0618C30.0951 38.0803 30.2584 39.5778 29.557 40.2812C28.2772 41.56 24.4135 39.9043 20.3524 36.343H20.0732C23.7726 39.5949 28.1381 41.9732 29.6941 40.4183C31.4385 38.6729 28.1774 33.2512 24.1555 29.2284C23.8663 28.9391 23.569 28.657 23.2687 28.3778C23.2053 28.405 23.1448 28.4363 23.0843 28.4675Z" fill="#2C3E50"/>
<path d="M32.7204 31.4788C31.0506 30.076 26.4825 29.1348 21.3542 29.1348C15.4166 29.1348 9.27441 30.4851 9.27441 32.7465C9.27441 33.1899 9.51426 33.6162 9.98789 34.0132C11.6577 35.416 16.2258 36.3582 21.3552 36.3582C27.2928 36.3592 33.4349 35.0079 33.4349 32.7465C33.4339 32.3031 33.1941 31.8768 32.7204 31.4788ZM21.3542 35.7727C16.4757 35.7727 12.0044 34.8789 10.4797 33.599C10.1421 33.3149 9.97076 33.0287 9.97076 32.7455C9.97177 31.2833 14.5459 29.7182 21.3542 29.7182C26.2326 29.7182 30.704 30.6111 32.2277 31.8919C32.5663 32.1761 32.7376 32.4633 32.7376 32.7455C32.7376 34.2087 28.1624 35.7737 21.3542 35.7727Z" fill="#2C3E50"/>
<path d="M21.3536 36.6248C16.1698 36.6248 11.5373 35.6584 9.82514 34.2204C9.29205 33.7729 9.02197 33.2812 9.02197 32.7612C9.02197 30.2509 15.3758 28.8965 21.3536 28.8965C26.5374 28.8965 31.171 29.8629 32.8822 31.3009C33.4152 31.7474 33.6853 32.2402 33.6853 32.7612C33.6853 35.2704 27.3315 36.6248 21.3536 36.6248ZM21.3536 29.4004C14.8316 29.4004 9.52584 30.9079 9.52584 32.7612C9.52584 33.126 9.73545 33.4877 10.1496 33.8344C11.7781 35.2019 16.2807 36.121 21.3547 36.121C27.8767 36.121 33.1825 34.6134 33.1825 32.7612C33.1825 32.3954 32.9728 32.0336 32.5587 31.6869C30.9312 30.3194 26.4286 29.4004 21.3536 29.4004ZM21.3536 36.0393C16.4208 36.0393 11.8829 35.1213 10.3179 33.8072C9.91987 33.4726 9.71832 33.1199 9.71832 32.7612C9.71832 30.923 14.8296 29.482 21.3536 29.482C26.2865 29.482 30.8254 30.4 32.3894 31.7141C32.7874 32.0487 32.989 32.4014 32.989 32.7612C32.988 34.5993 27.8777 36.0393 21.3536 36.0393ZM21.3536 29.9859C14.4577 29.9859 10.2232 31.6033 10.2222 32.7612C10.2222 32.9647 10.3633 33.1874 10.6424 33.4212C12.1248 34.6658 16.5296 35.5355 21.3536 35.5355C28.2496 35.5355 32.4841 33.9191 32.4841 32.7612C32.4841 32.5566 32.343 32.3339 32.0639 32.1001C30.5835 30.8555 26.1787 29.9859 21.3536 29.9859Z" fill="#2C3E50"/>
<path d="M15.0551 23.0688C17.3064 23.4679 20.4939 25.5197 23.3145 28.1136C23.0898 28.2133 22.8691 28.3262 22.6525 28.4481C18.423 24.5845 14.6238 23.0245 13.3904 23.9577C13.2856 23.7561 13.1515 23.5657 12.9883 23.4004C13.5002 23.0205 14.2046 22.9177 15.0551 23.0688Z" fill="#2C3E50"/>
<path d="M22.4819 28.5994C18.2705 24.7529 14.6296 23.3068 13.5412 24.1241L13.3034 24.3044L13.1664 24.0394C13.0676 23.8499 12.9477 23.6837 12.8086 23.5436L12.603 23.338L12.8368 23.1647C13.3991 22.7455 14.16 22.6195 15.0992 22.7858C17.2961 23.1748 20.4301 25.0834 23.4846 27.893L23.7667 28.153L23.415 28.3082C23.1974 28.4049 22.9837 28.5148 22.7731 28.6327L22.6149 28.7203L22.4819 28.5994ZM15.0115 23.2816C14.3454 23.1637 13.7942 23.212 13.3719 23.4247C13.4102 23.4741 13.4455 23.5255 13.4798 23.5768C15.0972 22.812 18.8601 24.6461 22.6895 28.1056C22.7489 28.0744 22.8084 28.0431 22.8688 28.0119C20.0079 25.4402 17.0209 23.6383 15.0115 23.2816Z" fill="#2C3E50"/>
<path d="M17.2997 33.4721C16.6245 33.4721 16.0713 32.9198 16.0713 32.2437V29.0683C16.0713 28.3931 16.6235 27.8398 17.2997 27.8398C17.9749 27.8398 18.5282 28.3921 18.5282 29.0683V32.2437C18.5271 32.9198 17.9749 33.4721 17.2997 33.4721Z" fill="#3B97D3"/>
<path d="M21.2734 33.4785C20.5982 33.4785 20.0449 32.9262 20.0449 32.25V25.2069C20.0449 24.5318 20.5972 23.9785 21.2734 23.9785C21.9485 23.9785 22.5008 24.5308 22.5008 25.2069V32.25C22.5018 32.9262 21.9495 33.4785 21.2734 33.4785Z" fill="#3B97D3"/>
<path d="M25.247 33.4638C24.5718 33.4638 24.0186 32.9116 24.0186 32.2354V21.8144C24.0186 21.1392 24.5708 20.5859 25.247 20.5859C25.9222 20.5859 26.4754 21.1382 26.4754 21.8144V32.2354C26.4754 32.9116 25.9222 33.4638 25.247 33.4638Z" fill="#3B97D3"/>
<path opacity="0.3" d="M38.1827 19.4962C37.4622 17.7911 35.5858 14.2932 34.5035 12.7937L33.4544 13.5505C33.3919 13.4638 33.3234 13.3641 33.266 13.2845L32.7137 13.6825C32.4759 13.3258 32.2492 12.9882 32.0537 12.707L30.3979 13.8569C31.6213 15.6174 33.6146 18.7605 34.2163 20.2389C36.7427 26.4415 37.832 41.3439 34.311 46.6345C33.6318 47.6553 33.9301 48.2368 34.2989 48.5452C34.5216 48.7306 34.7725 48.7991 35.0154 48.7991C35.0295 48.7991 35.0416 48.7941 35.0557 48.7941L35.0819 48.8384C35.1142 48.8193 35.1404 48.7991 35.1716 48.779C35.354 48.7578 35.5304 48.7124 35.6795 48.6469L35.6865 48.659C35.748 48.6218 35.7924 48.5945 35.8246 48.5754C35.9476 48.5089 36.0443 48.4373 36.1007 48.3829L36.1058 48.3174C36.1985 48.2952 36.2902 48.2731 36.3869 48.2539C36.8666 48.1602 37.5226 48.0312 37.9257 47.3752C41.5999 41.3771 40.7665 25.6071 38.1827 19.4962Z" fill="#BDC3C7"/>
<path d="M8.62293 11.9492C8.62293 11.9492 5.11902 16.7118 4.16267 19.0225C1.59092 25.2312 0.983257 39.9814 4.16267 45.9008C7.70488 52.4965 34.801 51.9523 38.4339 45.9008C41.8924 40.1396 41.0056 25.2312 38.4339 19.0225C37.7516 17.3759 35.588 14.0816 34.5097 12.5559" stroke="#2C3E50" stroke-width="4" stroke-miterlimit="10"/>
<path d="M21.8345 9.10253C29.1928 9.10253 35.1578 7.51257 35.1578 5.55126C35.1578 3.58996 29.1928 2 21.8345 2C14.4763 2 8.51123 3.58996 8.51123 5.55126C8.51123 7.51257 14.4763 9.10253 21.8345 9.10253Z" stroke="#2C3E50" stroke-width="4" stroke-miterlimit="10"/>
<path d="M8.51074 7.47852V11.8622" stroke="#2C3E50" stroke-width="3" stroke-miterlimit="10" stroke-linecap="round" stroke-linejoin="round"/>
<path d="M34.5098 12.5751C32.5971 13.7854 27.756 15.1791 21.8345 15.1791C14.476 15.1791 8.51123 13.4921 8.51123 11.4102" stroke="#2C3E50" stroke-width="4" stroke-miterlimit="10" stroke-linecap="round"/>
<path d="M21.452 45.7406C24.8492 45.7406 27.6032 45.2998 27.6032 44.756C27.6032 44.2123 24.8492 43.7715 21.452 43.7715C18.0548 43.7715 15.3008 44.2123 15.3008 44.756C15.3008 45.2998 18.0548 45.7406 21.452 45.7406Z" fill="#ECF0F1"/>
<path d="M12.9876 23.3848C13.1508 23.55 13.2849 23.7395 13.3897 23.942C13.3534 23.9693 13.3111 23.9914 13.2798 24.0227C12.0675 25.235 14.0034 29.7668 18.8173 34.5817C19.3666 35.1299 19.9087 35.6358 20.4448 36.1084C20.079 36.1084 19.7485 36.1084 19.4119 36.1084C19.0431 35.7708 18.6783 35.4282 18.3246 35.0745C14.1253 30.8753 10.9056 25.4093 12.786 23.5299C12.8465 23.4714 12.9221 23.4341 12.9876 23.3848Z" fill="#2C3E50"/>
<path d="M19.2432 36.3129C18.8724 35.9723 18.5046 35.6277 18.1488 35.2719C13.9214 31.0455 10.5445 25.4364 12.6103 23.3706C12.6678 23.3131 12.7292 23.2728 12.7786 23.2416L13.0134 23.0723L13.1666 23.2264C13.3419 23.4028 13.4921 23.6104 13.614 23.8442L13.7118 24.0316L13.4598 24.2201C12.9459 24.734 13.1595 26.1277 14.0161 27.859C15.0178 29.8805 16.7864 32.2114 18.9974 34.4234C19.5133 34.9394 20.0575 35.4493 20.6138 35.9391L21.1136 36.3804H19.3158L19.2432 36.3129ZM18.6406 34.7781C16.3924 32.5289 14.5885 30.1506 13.5636 28.0817C12.5821 26.0995 12.4057 24.6181 13.0658 23.9006C13.0295 23.8442 12.9912 23.7918 12.9509 23.7404C11.2398 25.5019 14.4938 30.9044 18.5046 34.9152C18.8321 35.2427 19.1707 35.5611 19.5113 35.8746H19.7884C19.3964 35.5158 19.0115 35.149 18.6406 34.7781Z" fill="#2C3E50"/>
<path d="M54.812 14.404C54.812 13.0787 55.0173 11.8747 55.428 10.792C55.8573 9.69067 56.4453 8.75733 57.192 7.992C57.9573 7.208 58.8627 6.60133 59.908 6.172C60.9533 5.74267 62.1013 5.528 63.352 5.528C64.304 5.528 65.144 5.64933 65.872 5.892C66.6187 6.116 67.272 6.44267 67.832 6.872V10.484C66.544 9.364 65.1067 8.804 63.52 8.804C62.7547 8.804 62.0547 8.93467 61.42 9.196C60.804 9.45733 60.272 9.84 59.824 10.344C59.376 10.8293 59.0307 11.4173 58.788 12.108C58.5453 12.7987 58.424 13.564 58.424 14.404C58.424 15.244 58.5453 16.0093 58.788 16.7C59.0307 17.372 59.376 17.96 59.824 18.464C60.272 18.9493 60.804 19.3227 61.42 19.584C62.0547 19.8453 62.7547 19.976 63.52 19.976C64.3413 19.976 65.0973 19.8453 65.788 19.584C66.4973 19.3227 67.1787 18.9027 67.832 18.324V21.936C67.272 22.3653 66.6187 22.7013 65.872 22.944C65.144 23.168 64.304 23.28 63.352 23.28C62.1013 23.28 60.9533 23.0653 59.908 22.636C58.8627 22.2067 57.9573 21.6093 57.192 20.844C56.4453 20.06 55.8573 19.1267 55.428 18.044C55.0173 16.9427 54.812 15.7293 54.812 14.404ZM82.3944 5.808V8.944H74.2464V12.696H81.6384V15.748H74.2464V19.836H82.3944V23H70.7184V5.808H82.3944ZM88.7119 16.588V23H85.1559V5.808H92.2399C94.0506 5.808 95.5066 6.27467 96.6079 7.208C97.7092 8.14133 98.2599 9.49467 98.2599 11.268C98.2599 12.6493 97.9052 13.7693 97.1959 14.628C96.5052 15.468 95.5532 16.0373 94.3399 16.336L98.8759 23H94.8439L90.5879 16.588H88.7119ZM88.7119 13.648H92.0159C92.9119 13.648 93.5839 13.4333 94.0319 13.004C94.4986 12.556 94.7319 11.9773 94.7319 11.268C94.7319 10.54 94.4986 9.96133 94.0319 9.532C93.5839 9.084 92.9119 8.86 92.0159 8.86H88.7119V13.648ZM115.325 23H112.497L104.377 11.548V23H100.933V5.808H104.293L111.881 16.672V5.808H115.325V23ZM62.316 33.552L59.516 40.888H65.144L62.316 33.552ZM67.86 48L65.872 42.82H58.788L56.828 48H54.588L61.308 30.808H63.38L70.1 48H67.86ZM72.5557 48V35.568H74.6557V37.136C75.0104 36.6507 75.505 36.2307 76.1397 35.876C76.793 35.5027 77.521 35.316 78.3237 35.316C79.7237 35.316 80.797 35.736 81.5437 36.576C82.309 37.416 82.6917 38.508 82.6917 39.852V48H80.5637V40.188C80.5637 39.3293 80.3397 38.6293 79.8917 38.088C79.4437 37.528 78.753 37.248 77.8197 37.248C77.0917 37.248 76.4384 37.472 75.8597 37.92C75.281 38.3493 74.8797 38.9 74.6557 39.572V48H72.5557ZM93.1709 44.92V43.632C93.0029 43.1653 92.6389 42.792 92.0789 42.512C91.5376 42.232 90.9402 42.092 90.2869 42.092C89.5402 42.092 88.8589 42.2693 88.2429 42.624C87.6269 42.96 87.3189 43.5013 87.3189 44.248C87.3189 44.9947 87.6269 45.5547 88.2429 45.928C88.8589 46.2827 89.5402 46.46 90.2869 46.46C90.9402 46.46 91.5376 46.32 92.0789 46.04C92.6389 45.76 93.0029 45.3867 93.1709 44.92ZM93.1709 41.364V39.74C93.1709 38.9747 92.9002 38.368 92.3589 37.92C91.8362 37.472 91.1176 37.248 90.2029 37.248C89.5122 37.248 88.8776 37.3507 88.2989 37.556C87.7389 37.7427 87.1976 38.004 86.6749 38.34V36.352C87.0856 36.0533 87.6362 35.8107 88.3269 35.624C89.0362 35.4187 89.7736 35.316 90.5389 35.316C91.9949 35.316 93.1336 35.6987 93.9549 36.464C94.7949 37.2293 95.2149 38.2653 95.2149 39.572V48H93.1709V47.076C92.9282 47.3187 92.5082 47.5707 91.9109 47.832C91.3322 48.0933 90.6789 48.224 89.9509 48.224C88.6816 48.224 87.5896 47.8693 86.6749 47.16C85.7789 46.4507 85.3309 45.48 85.3309 44.248C85.3309 43.0907 85.7882 42.1573 86.7029 41.448C87.6176 40.72 88.7376 40.356 90.0629 40.356C90.6976 40.356 91.3042 40.468 91.8829 40.692C92.4802 40.8973 92.9096 41.1213 93.1709 41.364ZM100.906 29.8V48H98.8057V29.8H100.906ZM108.325 52.76H106.253L108.129 48.084L103.285 35.568H105.553L109.221 45.368L112.833 35.568H115.017L108.325 52.76ZM116.589 47.02V44.78C117.168 45.3027 117.803 45.7133 118.493 46.012C119.203 46.3107 119.931 46.46 120.677 46.46C121.368 46.46 121.965 46.3293 122.469 46.068C122.992 45.788 123.253 45.34 123.253 44.724C123.253 44.2573 123.085 43.8933 122.749 43.632C122.432 43.352 122.003 43.1187 121.461 42.932L119.753 42.344C118.82 42.0453 118.064 41.6347 117.485 41.112C116.907 40.5893 116.617 39.824 116.617 38.816C116.617 37.7333 117.037 36.884 117.877 36.268C118.736 35.6333 119.781 35.316 121.013 35.316C121.704 35.316 122.367 35.4093 123.001 35.596C123.636 35.7827 124.205 36.0533 124.709 36.408V38.592C124.187 38.1627 123.627 37.808 123.029 37.528C122.432 37.248 121.76 37.108 121.013 37.108C120.379 37.108 119.828 37.248 119.361 37.528C118.895 37.808 118.661 38.2093 118.661 38.732C118.661 39.236 118.82 39.6093 119.137 39.852C119.473 40.076 119.931 40.2907 120.509 40.496L122.413 41.14C123.347 41.4573 124.065 41.9053 124.569 42.484C125.073 43.044 125.325 43.7627 125.325 44.64C125.325 45.7787 124.868 46.6653 123.953 47.3C123.057 47.9347 121.965 48.252 120.677 48.252C119.875 48.252 119.109 48.14 118.381 47.916C117.653 47.6733 117.056 47.3747 116.589 47.02ZM130.718 31.816C130.718 32.1707 130.578 32.488 130.298 32.768C130.036 33.0293 129.719 33.16 129.346 33.16C128.991 33.16 128.674 33.0293 128.394 32.768C128.132 32.488 128.002 32.1707 128.002 31.816C128.002 31.4427 128.132 31.1253 128.394 30.864C128.674 30.6027 128.991 30.472 129.346 30.472C129.719 30.472 130.036 30.6027 130.298 30.864C130.578 31.1253 130.718 31.4427 130.718 31.816ZM130.41 35.568V48H128.31V35.568H130.41ZM133.433 47.02V44.78C134.012 45.3027 134.646 45.7133 135.337 46.012C136.046 46.3107 136.774 46.46 137.521 46.46C138.212 46.46 138.809 46.3293 139.313 46.068C139.836 45.788 140.097 45.34 140.097 44.724C140.097 44.2573 139.929 43.8933 139.593 43.632C139.276 43.352 138.846 43.1187 138.305 42.932L136.597 42.344C135.664 42.0453 134.908 41.6347 134.329 41.112C133.75 40.5893 133.461 39.824 133.461 38.816C133.461 37.7333 133.881 36.884 134.721 36.268C135.58 35.6333 136.625 35.316 137.857 35.316C138.548 35.316 139.21 35.4093 139.845 35.596C140.48 35.7827 141.049 36.0533 141.553 36.408V38.592C141.03 38.1627 140.47 37.808 139.873 37.528C139.276 37.248 138.604 37.108 137.857 37.108C137.222 37.108 136.672 37.248 136.205 37.528C135.738 37.808 135.505 38.2093 135.505 38.732C135.505 39.236 135.664 39.6093 135.981 39.852C136.317 40.076 136.774 40.2907 137.353 40.496L139.257 41.14C140.19 41.4573 140.909 41.9053 141.413 42.484C141.917 43.044 142.169 43.7627 142.169 44.64C142.169 45.7787 141.712 46.6653 140.797 47.3C139.901 47.9347 138.809 48.252 137.521 48.252C136.718 48.252 135.953 48.14 135.225 47.916C134.497 47.6733 133.9 47.3747 133.433 47.02ZM157.857 41.112H153.713V48H151.501V30.808H157.857C159.593 30.808 160.984 31.2467 162.029 32.124C163.074 33.0013 163.597 34.28 163.597 35.96C163.597 37.64 163.074 38.9187 162.029 39.796C160.984 40.6733 159.593 41.112 157.857 41.112ZM157.829 39.152C158.986 39.152 159.873 38.8627 160.489 38.284C161.105 37.6867 161.413 36.912 161.413 35.96C161.413 34.9893 161.105 34.2147 160.489 33.636C159.873 33.0387 158.986 32.74 157.829 32.74H153.713V39.152H157.829ZM172.674 35.512V37.668C172.506 37.556 172.291 37.472 172.03 37.416C171.787 37.36 171.535 37.332 171.274 37.332C170.621 37.332 170.023 37.5373 169.482 37.948C168.959 38.3587 168.595 38.928 168.39 39.656V48H166.29V35.568H168.39V37.192C168.651 36.6693 169.053 36.2307 169.594 35.876C170.154 35.5027 170.779 35.316 171.47 35.316C171.731 35.316 171.965 35.3347 172.17 35.372C172.394 35.4093 172.562 35.456 172.674 35.512ZM179.607 37.108C178.804 37.108 178.085 37.388 177.451 37.948C176.816 38.508 176.405 39.3573 176.219 40.496H182.631C182.593 39.5813 182.332 38.788 181.847 38.116C181.361 37.444 180.615 37.108 179.607 37.108ZM183.807 47.16C183.303 47.552 182.733 47.832 182.099 48C181.464 48.168 180.773 48.252 180.027 48.252C178.235 48.252 176.788 47.6827 175.687 46.544C174.585 45.3867 174.035 43.8373 174.035 41.896C174.035 39.9733 174.548 38.396 175.575 37.164C176.601 35.932 177.936 35.316 179.579 35.316C181.259 35.316 182.528 35.876 183.387 36.996C184.245 38.116 184.675 39.5813 184.675 41.392V42.148H176.107C176.163 43.5853 176.592 44.6587 177.395 45.368C178.197 46.0587 179.159 46.404 180.279 46.404C180.969 46.404 181.585 46.3107 182.127 46.124C182.687 45.9373 183.247 45.6387 183.807 45.228V47.16ZM186.918 47.02V44.78C187.496 45.3027 188.131 45.7133 188.822 46.012C189.531 46.3107 190.259 46.46 191.006 46.46C191.696 46.46 192.294 46.3293 192.798 46.068C193.32 45.788 193.582 45.34 193.582 44.724C193.582 44.2573 193.414 43.8933 193.078 43.632C192.76 43.352 192.331 43.1187 191.79 42.932L190.082 42.344C189.148 42.0453 188.392 41.6347 187.814 41.112C187.235 40.5893 186.946 39.824 186.946 38.816C186.946 37.7333 187.366 36.884 188.206 36.268C189.064 35.6333 190.11 35.316 191.342 35.316C192.032 35.316 192.695 35.4093 193.33 35.596C193.964 35.7827 194.534 36.0533 195.038 36.408V38.592C194.515 38.1627 193.955 37.808 193.358 37.528C192.76 37.248 192.088 37.108 191.342 37.108C190.707 37.108 190.156 37.248 189.69 37.528C189.223 37.808 188.99 38.2093 188.99 38.732C188.99 39.236 189.148 39.6093 189.466 39.852C189.802 40.076 190.259 40.2907 190.838 40.496L192.742 41.14C193.675 41.4573 194.394 41.9053 194.898 42.484C195.402 43.044 195.654 43.7627 195.654 44.64C195.654 45.7787 195.196 46.6653 194.282 47.3C193.386 47.9347 192.294 48.252 191.006 48.252C190.203 48.252 189.438 48.14 188.71 47.916C187.982 47.6733 187.384 47.3747 186.918 47.02ZM203.314 37.108C202.511 37.108 201.792 37.388 201.158 37.948C200.523 38.508 200.112 39.3573 199.926 40.496H206.338C206.3 39.5813 206.039 38.788 205.554 38.116C205.068 37.444 204.322 37.108 203.314 37.108ZM207.514 47.16C207.01 47.552 206.44 47.832 205.806 48C205.171 48.168 204.48 48.252 203.734 48.252C201.942 48.252 200.495 47.6827 199.394 46.544C198.292 45.3867 197.742 43.8373 197.742 41.896C197.742 39.9733 198.255 38.396 199.282 37.164C200.308 35.932 201.643 35.316 203.286 35.316C204.966 35.316 206.235 35.876 207.094 36.996C207.952 38.116 208.382 39.5813 208.382 41.392V42.148H199.814C199.87 43.5853 200.299 44.6587 201.102 45.368C201.904 46.0587 202.866 46.404 203.986 46.404C204.676 46.404 205.292 46.3107 205.834 46.124C206.394 45.9373 206.954 45.6387 207.514 45.228V47.16ZM217.627 35.512V37.668C217.459 37.556 217.245 37.472 216.983 37.416C216.741 37.36 216.489 37.332 216.227 37.332C215.574 37.332 214.977 37.5373 214.435 37.948C213.913 38.3587 213.549 38.928 213.343 39.656V48H211.243V35.568H213.343V37.192C213.605 36.6693 214.006 36.2307 214.547 35.876C215.107 35.5027 215.733 35.316 216.423 35.316C216.685 35.316 216.918 35.3347 217.123 35.372C217.347 35.4093 217.515 35.456 217.627 35.512ZM225.755 48H223.683L218.867 35.568H221.135L224.775 45.34L228.387 35.568H230.599L225.755 48ZM239.679 44.92V43.632C239.511 43.1653 239.147 42.792 238.587 42.512C238.045 42.232 237.448 42.092 236.795 42.092C236.048 42.092 235.367 42.2693 234.751 42.624C234.135 42.96 233.827 43.5013 233.827 44.248C233.827 44.9947 234.135 45.5547 234.751 45.928C235.367 46.2827 236.048 46.46 236.795 46.46C237.448 46.46 238.045 46.32 238.587 46.04C239.147 45.76 239.511 45.3867 239.679 44.92ZM239.679 41.364V39.74C239.679 38.9747 239.408 38.368 238.867 37.92C238.344 37.472 237.625 37.248 236.711 37.248C236.02 37.248 235.385 37.3507 234.807 37.556C234.247 37.7427 233.705 38.004 233.183 38.34V36.352C233.593 36.0533 234.144 35.8107 234.835 35.624C235.544 35.4187 236.281 35.316 237.047 35.316C238.503 35.316 239.641 35.6987 240.463 36.464C241.303 37.2293 241.723 38.2653 241.723 39.572V48H239.679V47.076C239.436 47.3187 239.016 47.5707 238.419 47.832C237.84 48.0933 237.187 48.224 236.459 48.224C235.189 48.224 234.097 47.8693 233.183 47.16C232.287 46.4507 231.839 45.48 231.839 44.248C231.839 43.0907 232.296 42.1573 233.211 41.448C234.125 40.72 235.245 40.356 236.571 40.356C237.205 40.356 237.812 40.468 238.391 40.692C238.988 40.8973 239.417 41.1213 239.679 41.364ZM248.703 37.36V48H246.603V37.36H243.999V35.568H246.603V32.292H248.703V35.568H251.587V37.36H248.703ZM256.554 31.816C256.554 32.1707 256.414 32.488 256.134 32.768C255.872 33.0293 255.555 33.16 255.182 33.16C254.827 33.16 254.51 33.0293 254.23 32.768C253.968 32.488 253.838 32.1707 253.838 31.816C253.838 31.4427 253.968 31.1253 254.23 30.864C254.51 30.6027 254.827 30.472 255.182 30.472C255.555 30.472 255.872 30.6027 256.134 30.864C256.414 31.1253 256.554 31.4427 256.554 31.816ZM256.246 35.568V48H254.146V35.568H256.246ZM270.525 41.784C270.525 43.6693 269.993 45.2187 268.929 46.432C267.865 47.6453 266.493 48.252 264.813 48.252C263.114 48.252 261.733 47.6453 260.669 46.432C259.624 45.2187 259.101 43.6693 259.101 41.784C259.101 39.8987 259.624 38.3493 260.669 37.136C261.733 35.9227 263.114 35.316 264.813 35.316C266.493 35.316 267.865 35.9227 268.929 37.136C269.993 38.3493 270.525 39.8987 270.525 41.784ZM268.397 41.784C268.397 40.44 268.08 39.3387 267.445 38.48C266.81 37.6027 265.933 37.164 264.813 37.164C263.693 37.164 262.816 37.6027 262.181 38.48C261.546 39.3387 261.229 40.44 261.229 41.784C261.229 43.128 261.546 44.2387 262.181 45.116C262.816 45.9747 263.693 46.404 264.813 46.404C265.933 46.404 266.81 45.9747 267.445 45.116C268.08 44.2387 268.397 43.128 268.397 41.784ZM273.368 48V35.568H275.468V37.136C275.823 36.6507 276.318 36.2307 276.952 35.876C277.606 35.5027 278.334 35.316 279.136 35.316C280.536 35.316 281.61 35.736 282.356 36.576C283.122 37.416 283.504 38.508 283.504 39.852V48H281.376V40.188C281.376 39.3293 281.152 38.6293 280.704 38.088C280.256 37.528 279.566 37.248 278.632 37.248C277.904 37.248 277.251 37.472 276.672 37.92C276.094 38.3493 275.692 38.9 275.468 39.572V48H273.368Z" fill="#2C3E50"/>
</svg>
