<?xml version="1.0" encoding="iso-8859-1"?>
<!-- Generator: Adobe Illustrator 19.1.0, SVG Export Plug-In . SVG Version: 6.00 Build 0)  -->
<svg version="1.1" id="Layer_1" xmlns="http://www.w3.org/2000/svg" xmlns:xlink="http://www.w3.org/1999/xlink" x="0px" y="0px"
	 viewBox="0 0 60 57.5" style="enable-background:new 0 0 60 57.5;" xml:space="preserve">
<g>
	<path style="fill:#2C3E50;" d="M32.265,52.262c-0.83,0-1.605-0.008-2.281-0.02c-3.594,0.061-10.059,0.03-12.603-0.869
		c-1.687-0.596-3.949-3.158-4.651-4.593c-3.014-6.169-2.562-20.411-0.024-26.538c0.95-2.293,4.247-6.787,4.387-6.977l1.513,1.113
		c-0.033,0.045-3.302,4.5-4.165,6.583c-2.319,5.599-2.723,19.472-0.024,24.995c0.581,1.188,2.535,3.275,3.589,3.648
		c1.631,0.576,6.107,0.86,11.978,0.761c5.902,0.099,10.378-0.185,12.009-0.761c1.055-0.373,3.009-2.46,3.59-3.648
		c2.699-5.524,2.295-19.396-0.024-24.995c-0.449-1.084-1.718-3.137-3.482-5.633l1.534-1.084c1.321,1.87,3.033,4.429,3.683,5.998
		c2.538,6.127,2.991,20.369-0.024,26.538c-0.702,1.436-2.964,3.998-4.651,4.593C40.55,52.105,35.886,52.262,32.265,52.262z"/>
</g>
<ellipse style="fill-rule:evenodd;clip-rule:evenodd;fill:#ECF0F1;" cx="30.051" cy="46.419" rx="5.095" ry="0.895"/>
<g>
	<g>
		<path style="fill:#2C3E50;" d="M29.973,43.191c-2.485,0-3.97-5.717-3.97-11.243c0-5.527,1.485-11.244,3.97-11.244
			s3.97,5.717,3.97,11.244C33.943,37.474,32.458,43.191,29.973,43.191z M29.973,21.404c-1.547,0-3.27,4.33-3.27,10.543
			s1.723,10.543,3.27,10.543s3.27-4.33,3.27-10.543S31.52,21.404,29.973,21.404z"/>
	</g>
	<g>
		<path style="fill:#2C3E50;" d="M23.418,40.404c-0.6,0-1.1-0.165-1.462-0.527c-1.779-1.78,1.199-6.885,5.107-10.793
			c3.908-3.907,9.012-6.888,10.793-5.107c1.778,1.78-1.201,6.886-5.108,10.793l0,0l0,0C29.636,37.88,25.765,40.404,23.418,40.404z
			 M36.394,24.153c-1.793,0-5.284,1.873-8.836,5.425c-4.393,4.393-6.217,8.692-5.107,9.803c1.11,1.111,5.409-0.714,9.802-5.107l0,0
			c4.394-4.393,6.218-8.692,5.108-9.803C37.148,24.258,36.819,24.153,36.394,24.153z"/>
	</g>
	<g>
		<path style="fill:#2C3E50;" d="M36.549,40.336c-2.322,0-6.189-2.633-9.284-5.727c-2.083-2.083-3.781-4.307-4.783-6.262
			c-1.076-2.101-1.227-3.628-0.436-4.419c0.791-0.792,2.32-0.639,4.418,0.436c1.956,1.002,4.179,2.701,6.262,4.784l0,0l0,0
			c3.854,3.854,6.993,8.907,5.219,10.68C37.596,40.177,37.119,40.336,36.549,40.336z M23.425,24.135
			c-0.389,0-0.69,0.095-0.883,0.289c-0.532,0.531-0.321,1.878,0.564,3.604c0.969,1.892,2.623,4.053,4.655,6.086
			c4.393,4.391,8.634,6.278,9.69,5.219c1.058-1.057-0.826-5.297-5.219-9.69l0,0c-2.032-2.033-4.193-3.686-6.086-4.656
			C25.048,24.425,24.104,24.135,23.425,24.135z"/>
	</g>
	<circle style="fill:#2980BA;" cx="27.974" cy="41.255" r="0.75"/>
	<circle style="fill:#2980BA;" cx="24.916" cy="24.106" r="0.751"/>
	<circle style="fill:#2980BA;" cx="36.513" cy="29.441" r="0.751"/>
	<g>
		<path style="fill:#2980BA;" d="M28.359,34.191L28.359,34.191c-0.274,0-0.499-0.224-0.499-0.499v-1.025
			c0-0.274,0.225-0.499,0.499-0.499l0,0c0.274,0,0.499,0.224,0.499,0.499v1.026C28.857,33.967,28.633,34.191,28.359,34.191z"/>
		<path style="fill:#2980BA;" d="M29.973,34.191L29.973,34.191c-0.274,0-0.499-0.224-0.499-0.499v-2.415
			c0-0.274,0.225-0.499,0.499-0.499l0,0c0.274,0,0.499,0.224,0.499,0.499v2.415C30.472,33.967,30.247,34.191,29.973,34.191z"/>
		<path style="fill:#2980BA;" d="M31.587,34.191L31.587,34.191c-0.274,0-0.499-0.224-0.499-0.499v-3.629
			c0-0.274,0.225-0.499,0.499-0.499l0,0c0.274,0,0.499,0.225,0.499,0.499v3.629C32.085,33.967,31.861,34.191,31.587,34.191z"/>
	</g>
</g>
<g>
	<path style="fill:#2C3E50;" d="M30.513,13.925c-6.604,0-13.711-1.359-13.711-4.343c0-2.984,7.107-4.344,13.711-4.344
		s13.711,1.359,13.711,4.344C44.225,12.566,37.117,13.925,30.513,13.925z M30.513,7.116c-7.62,0-11.748,1.729-11.833,2.467
		c0.087,0.736,4.217,2.464,11.833,2.464c7.613,0,11.743-1.727,11.834-2.465C42.258,8.844,38.13,7.116,30.513,7.116z"/>
</g>
<g>
	<path style="fill:#2C3E50;" d="M17.741,14.657c-0.519,0-0.939-0.42-0.939-0.939V9.515c0-0.519,0.42-0.939,0.939-0.939
		c0.519,0,0.939,0.42,0.939,0.939v4.203C18.68,14.237,18.26,14.657,17.741,14.657z"/>
</g>
<g>
	<path style="fill:#2C3E50;" d="M30.513,17.837c-6.604,0-13.711-1.425-13.711-4.552c0-0.519,0.42-0.939,0.939-0.939
		c0.519,0,0.939,0.42,0.939,0.939c0,0.8,4.026,2.674,11.833,2.674c5.866,0,10.243-1.14,11.534-2.266
		c0.392-0.34,0.984-0.3,1.325,0.091c0.341,0.391,0.3,0.984-0.091,1.325C41.381,16.767,36.369,17.837,30.513,17.837z"/>
</g>
</svg>
