<?xml version="1.0" encoding="iso-8859-1"?>
<!-- Generator: Adobe Illustrator 19.1.0, SVG Export Plug-In . SVG Version: 6.00 Build 0)  -->
<svg version="1.1" id="Layer_1" xmlns="http://www.w3.org/2000/svg" xmlns:xlink="http://www.w3.org/1999/xlink" x="0px" y="0px"
	 viewBox="0 0 221 57.5" style="enable-background:new 0 0 221 57.5;" xml:space="preserve">
<g>
	<path style="fill:#2C3E50;" d="M24.1,47.377c-0.662,0-1.279-0.007-1.819-0.016c-2.865,0.049-8.02,0.024-10.048-0.693
		c-1.345-0.475-3.148-2.517-3.708-3.662C6.123,38.089,6.484,26.735,8.507,21.85c0.757-1.828,3.386-5.411,3.497-5.562l1.206,0.887
		c-0.026,0.036-2.632,3.587-3.32,5.248C8.041,26.887,7.719,37.946,9.871,42.35c0.463,0.947,2.021,2.611,2.861,2.908
		c1.3,0.459,4.869,0.686,9.549,0.607c4.705,0.079,8.274-0.148,9.574-0.607c0.841-0.297,2.399-1.961,2.862-2.908
		c2.152-4.404,1.83-15.463-0.019-19.926c-0.358-0.864-1.369-2.501-2.776-4.491l1.223-0.864c1.054,1.491,2.418,3.531,2.936,4.782
		c2.023,4.884,2.384,16.238-0.019,21.156c-0.559,1.145-2.363,3.187-3.708,3.662C30.704,47.252,26.986,47.377,24.1,47.377z"/>
</g>
<ellipse style="fill-rule:evenodd;clip-rule:evenodd;fill:#BDC3C7;" cx="22.334" cy="42.72" rx="4.062" ry="0.714"/>
<g>
	<g>
		<path style="fill:#2C3E50;" d="M22.272,40.067c-1.73,0-3.086-3.902-3.086-8.884s1.355-8.885,3.086-8.885s3.086,3.903,3.086,8.885
			S24.002,40.067,22.272,40.067z M22.272,22.698c-1.297,0-2.686,3.409-2.686,8.484s1.389,8.484,2.686,8.484
			c1.297,0,2.686-3.409,2.686-8.484S23.569,22.698,22.272,22.698z"/>
	</g>
	<g>
		<path style="fill:#2C3E50;" d="M17.051,37.84c-0.468,0-0.848-0.126-1.114-0.392c-1.239-1.24,0.549-4.97,4.071-8.493
			c3.522-3.521,7.252-5.31,8.493-4.072c1.239,1.24-0.55,4.971-4.072,8.493C21.661,36.143,18.766,37.84,17.051,37.84z M27.381,24.888
			c-1.463,0-4.219,1.479-7.09,4.35c-3.588,3.588-5.002,6.996-4.071,7.927c0.927,0.93,4.336-0.483,7.926-4.072
			c3.589-3.588,5.003-6.996,4.072-7.927C28.032,24.98,27.747,24.888,27.381,24.888z"/>
	</g>
	<g>
		<path style="fill:#2C3E50;" d="M27.54,37.771c-1.673,0-4.575-1.728-7.371-4.523c-3.522-3.523-5.35-7.214-4.161-8.403
			c0.596-0.595,1.814-0.466,3.431,0.362c1.552,0.795,3.318,2.145,4.972,3.799l0,0c1.654,1.654,3.003,3.42,3.799,4.972
			c0.829,1.617,0.958,2.836,0.362,3.431C28.327,37.654,27.975,37.771,27.54,37.771z M17.055,24.872
			c-0.333,0-0.592,0.084-0.763,0.256c-0.888,0.887,0.572,4.249,4.161,7.837c3.588,3.588,6.95,5.049,7.837,4.161
			c0.456-0.456,0.297-1.537-0.436-2.965c-0.776-1.516-2.1-3.246-3.726-4.871l0,0c-1.625-1.626-3.355-2.95-4.871-3.727
			C18.365,25.106,17.608,24.872,17.055,24.872z"/>
	</g>
	<circle style="fill:#2980BA;" cx="20.679" cy="38.603" r="0.598"/>
	<circle style="fill:#2980BA;" cx="18.241" cy="24.931" r="0.599"/>
	<circle style="fill:#2980BA;" cx="27.486" cy="29.184" r="0.599"/>
	<g>
		<path style="fill:#2980BA;" d="M20.985,32.971L20.985,32.971c-0.219,0-0.398-0.179-0.398-0.398v-0.818
			c0-0.219,0.179-0.398,0.398-0.398l0,0c0.219,0,0.398,0.179,0.398,0.398v0.818C21.383,32.792,21.204,32.971,20.985,32.971z"/>
		<path style="fill:#2980BA;" d="M22.272,32.971L22.272,32.971c-0.219,0-0.398-0.179-0.398-0.398v-1.926
			c0-0.219,0.179-0.398,0.398-0.398l0,0c0.219,0,0.398,0.179,0.398,0.398v1.926C22.67,32.792,22.491,32.971,22.272,32.971z"/>
		<path style="fill:#2980BA;" d="M23.559,32.971L23.559,32.971c-0.219,0-0.398-0.179-0.398-0.398v-2.893
			c0-0.219,0.179-0.398,0.398-0.398l0,0c0.219,0,0.398,0.179,0.398,0.398v2.893C23.956,32.792,23.778,32.971,23.559,32.971z"/>
	</g>
</g>
<g>
	<path style="fill:#2C3E50;" d="M22.703,16.815c-5.265,0-10.931-1.084-10.931-3.463c0-2.379,5.666-3.463,10.931-3.463
		c5.265,0,10.931,1.084,10.931,3.463C33.634,15.731,27.968,16.815,22.703,16.815z M22.703,11.386c-6.075,0-9.366,1.379-9.434,1.967
		c0.069,0.586,3.362,1.965,9.434,1.965c6.069,0,9.362-1.377,9.434-1.966C32.067,12.763,28.775,11.386,22.703,11.386z"/>
</g>
<g>
	<path style="fill:#2C3E50;" d="M12.521,17.398c-0.413,0-0.748-0.335-0.748-0.748v-3.351c0-0.413,0.335-0.748,0.748-0.748
		c0.413,0,0.748,0.335,0.748,0.748v3.351C13.269,17.063,12.934,17.398,12.521,17.398z"/>
</g>
<g>
	<path style="fill:#2C3E50;" d="M22.703,19.933c-5.265,0-10.931-1.136-10.931-3.629c0-0.414,0.335-0.749,0.748-0.749
		c0.413,0,0.748,0.335,0.748,0.749c0,0.638,3.21,2.132,9.434,2.132c4.677,0,8.166-0.909,9.195-1.806
		c0.312-0.271,0.784-0.239,1.056,0.072c0.272,0.312,0.239,0.785-0.072,1.056C31.367,19.08,27.371,19.933,22.703,19.933z"/>
</g>
<g>
	<path style="fill:#2980BA;" d="M57.784,17.601l-0.96,1.22c-1.08-1.1-2.601-1.76-4.141-1.76c-3.161,0-5.701,2.44-5.701,5.521
		c0,3.061,2.541,5.521,5.701,5.521c1.54,0,3.041-0.64,4.141-1.68l0.98,1.1c-1.38,1.3-3.261,2.161-5.201,2.161
		c-4.041,0-7.241-3.141-7.241-7.102c0-3.921,3.241-7.021,7.301-7.021C54.583,15.561,56.444,16.341,57.784,17.601z"/>
	<path style="fill:#2980BA;" d="M62.282,17.141v4.601h7.062v1.541h-7.062v4.801h8.162v1.52h-9.762V15.601h9.502v1.54H62.282z"/>
	<path style="fill:#2980BA;" d="M79.963,25.143c-0.3,0.02-0.62,0.04-0.94,0.04h-3.721v4.421h-1.6V15.601h5.321
		c3.501,0,5.521,1.72,5.521,4.701c0,2.32-1.12,3.88-3.141,4.541l3.281,4.761h-1.821L79.963,25.143z M79.022,23.642
		c2.541,0,3.981-1.12,3.981-3.301c0-2.12-1.44-3.201-3.981-3.201h-3.721v6.501H79.022z"/>
	<path style="fill:#2980BA;" d="M98.164,29.604l-8.402-11.242v11.242h-1.6V15.601h1.66l8.402,11.262V15.601h1.58v14.003H98.164z"/>
	<path style="fill:#2C3E50;" d="M46.732,39.903l-1.014,2.301h-1.105l4.083-9.1h1.079l4.069,9.1h-1.131l-1.014-2.301H46.732z
		 M49.203,34.286l-2.028,4.615h4.082L49.203,34.286z"/>
	<path style="fill:#2C3E50;" d="M61.774,42.204l-5.46-7.306v7.306h-1.04v-9.1h1.079l5.46,7.319v-7.319h1.027v9.1H61.774z"/>
	<path style="fill:#2C3E50;" d="M66.401,39.903l-1.014,2.301h-1.105l4.083-9.1h1.079l4.069,9.1h-1.131l-1.014-2.301H66.401z
		 M68.872,34.286l-2.028,4.615h4.082L68.872,34.286z"/>
	<path style="fill:#2C3E50;" d="M79.974,41.216v0.988h-5.031v-9.1h1.04v8.112H79.974z"/>
	<path style="fill:#2C3E50;" d="M84.888,42.204h-1.027v-3.081l-3.523-6.019h1.079l2.951,4.745l2.912-4.745h1.066l-3.458,5.98V42.204
		z"/>
	<path style="fill:#2C3E50;" d="M95.379,33.91l-0.442,0.975c-0.819-0.546-1.781-0.767-2.509-0.767c-1.17,0-1.937,0.442-1.937,1.209
		c0,2.34,5.122,1.118,5.109,4.42c0,1.521-1.339,2.496-3.289,2.496c-1.326,0-2.626-0.572-3.484-1.391l0.468-0.936
		c0.845,0.819,2.002,1.287,3.029,1.287c1.313,0,2.132-0.533,2.132-1.404c0.013-2.392-5.109-1.118-5.109-4.381
		c0-1.43,1.261-2.353,3.146-2.353C93.546,33.065,94.625,33.403,95.379,33.91z"/>
	<path style="fill:#2C3E50;" d="M97.731,42.204v-9.1h1.04v9.1H97.731z"/>
	<path style="fill:#2C3E50;" d="M107.118,33.91l-0.442,0.975c-0.819-0.546-1.781-0.767-2.509-0.767c-1.17,0-1.937,0.442-1.937,1.209
		c0,2.34,5.122,1.118,5.109,4.42c0,1.521-1.339,2.496-3.289,2.496c-1.326,0-2.626-0.572-3.484-1.391l0.468-0.936
		c0.845,0.819,2.002,1.287,3.029,1.287c1.313,0,2.132-0.533,2.132-1.404c0.013-2.392-5.109-1.118-5.109-4.381
		c0-1.43,1.261-2.353,3.146-2.353C105.285,33.065,106.364,33.403,107.118,33.91z"/>
	<path style="fill:#2C3E50;" d="M116.452,33.104c2.249,0,3.549,1.118,3.549,3.055c0,2.015-1.3,3.172-3.549,3.172h-2.379v2.873h-1.04
		v-9.1H116.452z M114.072,38.33h2.34c1.638,0,2.587-0.728,2.587-2.145c0-1.379-0.949-2.08-2.587-2.08h-2.34V38.33z"/>
	<path style="fill:#2C3E50;" d="M125.798,39.305c-0.195,0.013-0.403,0.026-0.611,0.026h-2.418v2.873h-1.04v-9.1h3.459
		c2.275,0,3.588,1.118,3.588,3.055c0,1.508-0.728,2.522-2.041,2.951l2.132,3.094h-1.183L125.798,39.305z M125.188,38.33
		c1.651,0,2.587-0.728,2.587-2.145c0-1.379-0.936-2.08-2.587-2.08h-2.418v4.225H125.188z"/>
	<path style="fill:#2C3E50;" d="M132.168,34.105v2.99h4.589v1.001h-4.589v3.12h5.304v0.988h-6.344v-9.1h6.175v1.001H132.168z"/>
	<path style="fill:#2C3E50;" d="M145.181,33.91l-0.442,0.975c-0.819-0.546-1.781-0.767-2.509-0.767c-1.17,0-1.937,0.442-1.937,1.209
		c0,2.34,5.122,1.118,5.109,4.42c0,1.521-1.339,2.496-3.289,2.496c-1.326,0-2.626-0.572-3.484-1.391l0.468-0.936
		c0.845,0.819,2.002,1.287,3.029,1.287c1.313,0,2.132-0.533,2.132-1.404c0.013-2.392-5.109-1.118-5.109-4.381
		c0-1.43,1.261-2.353,3.146-2.353C143.348,33.065,144.427,33.403,145.181,33.91z"/>
	<path style="fill:#2C3E50;" d="M148.574,34.105v2.99h4.589v1.001h-4.589v3.12h5.304v0.988h-6.344v-9.1h6.175v1.001H148.574z"/>
	<path style="fill:#2C3E50;" d="M160.066,39.305c-0.195,0.013-0.403,0.026-0.611,0.026h-2.418v2.873h-1.04v-9.1h3.458
		c2.275,0,3.588,1.118,3.588,3.055c0,1.508-0.728,2.522-2.041,2.951l2.132,3.094h-1.183L160.066,39.305z M159.455,38.33
		c1.651,0,2.587-0.728,2.587-2.145c0-1.379-0.936-2.08-2.587-2.08h-2.418v4.225H159.455z"/>
	<path style="fill:#2C3E50;" d="M167.671,42.204l-3.692-9.1h1.118l3.133,7.891l3.146-7.891h1.092l-3.718,9.1H167.671z"/>
	<path style="fill:#2C3E50;" d="M174.119,39.903l-1.014,2.301H172l4.082-9.1h1.079l4.069,9.1h-1.131l-1.014-2.301H174.119z
		 M176.589,34.286l-2.028,4.615h4.082L176.589,34.286z"/>
	<path style="fill:#2C3E50;" d="M184.584,34.105v8.099h-1.04v-8.099h-2.964v-1.001h6.981v1.001H184.584z"/>
	<path style="fill:#2C3E50;" d="M189.069,42.204v-9.1h1.04v9.1H189.069z"/>
	<path style="fill:#2C3E50;" d="M201.536,37.654c0,2.561-2.106,4.603-4.758,4.603c-2.665,0-4.771-2.042-4.771-4.603
		c0-2.574,2.106-4.576,4.771-4.576C199.43,33.077,201.536,35.093,201.536,37.654z M193.06,37.654c0,2.002,1.69,3.601,3.718,3.601
		c2.028,0,3.692-1.599,3.692-3.601c0-2.002-1.664-3.588-3.692-3.588C194.75,34.066,193.06,35.652,193.06,37.654z"/>
	<path style="fill:#2C3E50;" d="M209.934,42.204l-5.46-7.306v7.306h-1.04v-9.1h1.079l5.461,7.319v-7.319H211v9.1H209.934z"/>
</g>
</svg>
