<?xml version="1.0" encoding="UTF-8" standalone="no"?>
<svg
   xmlns:dc="http://purl.org/dc/elements/1.1/"
   xmlns:cc="http://creativecommons.org/ns#"
   xmlns:rdf="http://www.w3.org/1999/02/22-rdf-syntax-ns#"
   xmlns:svg="http://www.w3.org/2000/svg"
   xmlns="http://www.w3.org/2000/svg"
   xmlns:sodipodi="http://sodipodi.sourceforge.net/DTD/sodipodi-0.dtd"
   xmlns:inkscape="http://www.inkscape.org/namespaces/inkscape"
   viewBox="0 0 674.47 473.4"
   id="svg2"
   version="1.1"
   inkscape:version="0.91 r13725"
   sodipodi:docname="403.svg">
  <metadata
     id="metadata1181">
    <rdf:RDF>
      <cc:Work
         rdf:about="">
        <dc:format>image/svg+xml</dc:format>
        <dc:type
           rdf:resource="http://purl.org/dc/dcmitype/StillImage" />
        <dc:title>cap-error</dc:title>
      </cc:Work>
    </rdf:RDF>
  </metadata>
  <sodipodi:namedview
     pagecolor="#ffffff"
     bordercolor="#666666"
     borderopacity="1"
     objecttolerance="10"
     gridtolerance="10"
     guidetolerance="10"
     inkscape:pageopacity="0"
     inkscape:pageshadow="2"
     inkscape:window-width="1920"
     inkscape:window-height="1181"
     id="namedview1179"
     showgrid="false"
     inkscape:zoom="5.6568543"
     inkscape:cx="525.61136"
     inkscape:cy="336.6233"
     inkscape:window-x="1920"
     inkscape:window-y="0"
     inkscape:window-maximized="1"
     inkscape:current-layer="svg2" />
  <defs
     id="defs4">
    <style
       id="style6">.cls-1,.cls-17,.cls-39{fill:#ecf0f1;}.cls-10,.cls-11,.cls-12,.cls-13,.cls-14,.cls-15,.cls-16,.cls-2,.cls-21,.cls-22,.cls-23,.cls-24,.cls-25,.cls-26,.cls-28,.cls-29,.cls-30,.cls-31,.cls-32,.cls-34,.cls-35,.cls-36,.cls-37,.cls-38,.cls-41,.cls-43,.cls-45,.cls-46,.cls-47,.cls-48,.cls-49,.cls-5,.cls-50,.cls-51,.cls-52,.cls-55,.cls-56,.cls-57,.cls-58,.cls-59,.cls-60,.cls-61,.cls-62,.cls-65,.cls-66,.cls-67,.cls-68,.cls-69,.cls-74,.cls-75,.cls-78,.cls-79,.cls-8,.cls-80,.cls-81,.cls-82,.cls-87,.cls-88,.cls-9{fill:none;}.cls-15,.cls-17,.cls-18,.cls-19,.cls-2,.cls-20,.cls-23,.cls-24,.cls-28,.cls-3,.cls-31,.cls-34,.cls-37,.cls-39,.cls-4,.cls-40,.cls-42,.cls-43,.cls-45,.cls-50,.cls-51,.cls-54,.cls-55,.cls-76,.cls-78,.cls-79,.cls-8,.cls-80,.cls-81,.cls-87,.cls-88,.cls-9{stroke:#2c3e50;}.cls-10,.cls-11,.cls-12,.cls-13,.cls-14,.cls-15,.cls-16,.cls-17,.cls-18,.cls-19,.cls-2,.cls-20,.cls-21,.cls-22,.cls-23,.cls-24,.cls-25,.cls-26,.cls-27,.cls-28,.cls-29,.cls-3,.cls-30,.cls-31,.cls-32,.cls-34,.cls-35,.cls-36,.cls-37,.cls-38,.cls-39,.cls-4,.cls-40,.cls-41,.cls-42,.cls-43,.cls-45,.cls-46,.cls-47,.cls-48,.cls-49,.cls-5,.cls-50,.cls-51,.cls-52,.cls-53,.cls-54,.cls-55,.cls-56,.cls-57,.cls-58,.cls-59,.cls-60,.cls-61,.cls-62,.cls-63,.cls-65,.cls-67,.cls-68,.cls-74,.cls-75,.cls-76,.cls-78,.cls-79,.cls-8,.cls-81,.cls-82,.cls-87,.cls-88,.cls-9{stroke-miterlimit:10;}.cls-17,.cls-2,.cls-20,.cls-82{stroke-width:1.18px;}.cls-19,.cls-27,.cls-3,.cls-53,.cls-54,.cls-63,.cls-7{fill:#2c3e50;}.cls-3,.cls-4{stroke-width:0.32px;}.cls-4{fill:#26b99a;}.cls-30,.cls-5{stroke:#7f8c8d;}.cls-5{stroke-width:0.82px;}.cls-6,.cls-76{fill:#3b97d3;}.cls-8{stroke-width:0.73px;}.cls-9{stroke-width:0.6px;}.cls-10,.cls-11,.cls-12,.cls-16,.cls-25,.cls-26,.cls-29,.cls-32,.cls-36,.cls-38,.cls-41,.cls-47,.cls-52,.cls-60,.cls-67,.cls-68,.cls-75,.cls-82{stroke:#3b97d3;}.cls-10{stroke-width:0.67px;}.cls-11{stroke-width:0.6px;}.cls-12{stroke-width:0.66px;}.cls-13,.cls-14,.cls-56,.cls-65,.cls-66,.cls-69{stroke:#ecf0f1;}.cls-13{stroke-width:0.92px;}.cls-14{stroke-width:0.73px;}.cls-15{stroke-width:1.1px;}.cls-16{stroke-width:0.91px;}.cls-18,.cls-33,.cls-77{fill:#bdc3c7;}.cls-18,.cls-76{stroke-width:1.18px;}.cls-19{stroke-width:1.23px;}.cls-20,.cls-40,.cls-42,.cls-70{fill:#fff;}.cls-21,.cls-22,.cls-48,.cls-49{stroke:#95a5a5;}.cls-21,.cls-23{stroke-width:0.37px;}.cls-22{stroke-width:1.1px;}.cls-24{stroke-width:0.74px;}.cls-25,.cls-28,.cls-30{stroke-width:0.25px;}.cls-26,.cls-31{stroke-width:0.82px;}.cls-27,.cls-53,.cls-58,.cls-59,.cls-61,.cls-63{stroke:#fff;}.cls-27{stroke-width:0.18px;}.cls-29{stroke-width:0.41px;}.cls-32{stroke-width:0.63px;}.cls-34,.cls-35,.cls-36{stroke-width:1.15px;}.cls-35,.cls-46,.cls-74{stroke:#bdc3c7;}.cls-37{stroke-width:0.66px;}.cls-38{stroke-width:0.54px;}.cls-39,.cls-40,.cls-54{stroke-width:1.44px;}.cls-41{stroke-width:0.71px;}.cls-42,.cls-43{stroke-width:1.33px;}.cls-44{fill:#955ba5;}.cls-45,.cls-46,.cls-47{stroke-width:1.29px;}.cls-48,.cls-50{stroke-width:0.82px;}.cls-49{stroke-width:2.46px;}.cls-51{stroke-width:1.64px;}.cls-52{stroke-width:0.56px;}.cls-53{stroke-width:0.41px;}.cls-55,.cls-74{stroke-width:1.67px;}.cls-56,.cls-58{stroke-width:0.8px;}.cls-57{stroke:#35495e;stroke-width:2.41px;}.cls-59{stroke-width:1.61px;}.cls-60,.cls-61,.cls-62{stroke-width:0.32px;}.cls-62{stroke:#955ba5;}.cls-63{stroke-width:0.4px;}.cls-64{fill:#35495e;}.cls-65,.cls-69{stroke-width:0.98px;}.cls-66,.cls-69,.cls-80,.cls-81{stroke-linecap:round;}.cls-66,.cls-69,.cls-80{stroke-linejoin:round;}.cls-66{stroke-width:1px;}.cls-67{stroke-width:0.64px;}.cls-68{stroke-width:0.45px;}.cls-71{fill:#c18141;}.cls-72{fill:#414042;}.cls-73{fill:#231f20;}.cls-75{stroke-width:1.07px;}.cls-77{opacity:0.3;}.cls-78,.cls-79,.cls-80,.cls-81{stroke-width:1.92px;}.cls-78,.cls-81{fill-rule:evenodd;}.cls-83{fill:#2980ba;}.cls-84{fill:#2e4155;}.cls-85{fill:#fab492;}.cls-86{fill:#95a5a5;}.cls-87{stroke-width:4.31px;}.cls-88{stroke-width:2.87px;}</style>
    <filter
       inkscape:label="Evanescent"
       inkscape:menu="Blurs"
       inkscape:menu-tooltip="Blur the contents of objects, preserving the outline and adding progressive transparency at edges"
       style="color-interpolation-filters:sRGB;"
       id="filter6250">
      <feGaussianBlur
         result="result6"
         stdDeviation="3"
         in="SourceGraphic"
         id="feGaussianBlur6252" />
      <feColorMatrix
         values="1 0 0 0 0 0 1 0 0 0 0 0 1 0 0 0 0 0 1 0 "
         result="result7"
         in="SourceGraphic"
         id="feColorMatrix6254" />
      <feComposite
         operator="in"
         in="result6"
         in2="result7"
         id="feComposite6256" />
    </filter>
    <filter
       inkscape:label="Evanescent"
       inkscape:menu="Blurs"
       inkscape:menu-tooltip="Blur the contents of objects, preserving the outline and adding progressive transparency at edges"
       style="color-interpolation-filters:sRGB;"
       id="filter6258">
      <feGaussianBlur
         result="result6"
         stdDeviation="3"
         in="SourceGraphic"
         id="feGaussianBlur6260" />
      <feColorMatrix
         values="1 0 0 0 0 0 1 0 0 0 0 0 1 0 0 0 0 0 1 0 "
         result="result7"
         in="SourceGraphic"
         id="feColorMatrix6262" />
      <feComposite
         operator="in"
         in="result6"
         in2="result7"
         id="feComposite6264" />
    </filter>
    <filter
       inkscape:label="Evanescent"
       inkscape:menu="Blurs"
       inkscape:menu-tooltip="Blur the contents of objects, preserving the outline and adding progressive transparency at edges"
       style="color-interpolation-filters:sRGB;"
       id="filter6266">
      <feGaussianBlur
         result="result6"
         stdDeviation="3"
         in="SourceGraphic"
         id="feGaussianBlur6268" />
      <feColorMatrix
         values="1 0 0 0 0 0 1 0 0 0 0 0 1 0 0 0 0 0 1 0 "
         result="result7"
         in="SourceGraphic"
         id="feColorMatrix6270" />
      <feComposite
         operator="in"
         in="result6"
         in2="result7"
         id="feComposite6272" />
    </filter>
    <filter
       inkscape:label="Evanescent"
       inkscape:menu="Blurs"
       inkscape:menu-tooltip="Blur the contents of objects, preserving the outline and adding progressive transparency at edges"
       style="color-interpolation-filters:sRGB;"
       id="filter6274">
      <feGaussianBlur
         result="result6"
         stdDeviation="3"
         in="SourceGraphic"
         id="feGaussianBlur6276" />
      <feColorMatrix
         values="1 0 0 0 0 0 1 0 0 0 0 0 1 0 0 0 0 0 1 0 "
         result="result7"
         in="SourceGraphic"
         id="feColorMatrix6278" />
      <feComposite
         operator="in"
         in="result6"
         in2="result7"
         id="feComposite6280" />
    </filter>
    <filter
       inkscape:label="Evanescent"
       inkscape:menu="Blurs"
       inkscape:menu-tooltip="Blur the contents of objects, preserving the outline and adding progressive transparency at edges"
       style="color-interpolation-filters:sRGB;"
       id="filter6282">
      <feGaussianBlur
         result="result6"
         stdDeviation="3"
         in="SourceGraphic"
         id="feGaussianBlur6284" />
      <feColorMatrix
         values="1 0 0 0 0 0 1 0 0 0 0 0 1 0 0 0 0 0 1 0 "
         result="result7"
         in="SourceGraphic"
         id="feColorMatrix6286" />
      <feComposite
         operator="in"
         in="result6"
         in2="result7"
         id="feComposite6288" />
    </filter>
  </defs>
  <title
     id="title8">cap-error</title>
  <rect
     style="fill:#ffffff;fill-opacity:1;stroke:#000000;stroke-width:1;stroke-miterlimit:4;stroke-dasharray:none"
     id="rect6568"
     width="360.08212"
     height="345.62628"
     x="127.55646"
     y="63.264473" />
  <rect
     ry="9.5277205"
     y="73.777817"
     x="239.2608"
     height="33.511295"
     width="136.67351"
     id="rect7726"
     style="fill:#f9f9f9;fill-opacity:1;stroke:#000000;stroke-width:1;stroke-miterlimit:4;stroke-dasharray:none" />
  <g
     id="g5986"
     transform="translate(-20.000003,0)"
     style="filter:url(#filter6282)">
    <g
       transform="matrix(0.66123987,0,0,0.6535013,249.46928,73.864779)"
       id="g6764">
      <path
         id="path6766"
         d="m 38.963,41.7 c 1.203,-1.203 -0.718,-5.701 -5.496,-10.479 -0.396,-0.395 -0.788,-0.764 -1.178,-1.12 0.216,-0.121 0.434,-0.234 0.657,-0.332 0.342,0.315 0.681,0.635 1.01,0.964 4.167,4.167 7.361,9.591 5.496,11.457 -1.709,1.708 -6.399,-0.831 -10.378,-4.47 0.334,0 0.662,0 1.025,0 4.143,3.653 7.797,5.046 8.864,3.98 z"
         style="fill:#2c3e50"
         inkscape:connector-curvature="0" />
      <path
         id="path6768"
         d="m 28.905,37.903 -0.475,-0.434 1.763,0 0.071,0.062 c 4.106,3.623 7.619,4.893 8.521,3.992 l 0,0 c 0.51,-0.51 0.298,-1.894 -0.552,-3.611 -0.994,-2.006 -2.749,-4.319 -4.943,-6.514 -0.393,-0.393 -0.783,-0.76 -1.17,-1.113 l -0.256,-0.234 0.303,-0.169 c 0.223,-0.124 0.448,-0.24 0.678,-0.342 l 0.15,-0.066 0.121,0.111 c 0.345,0.317 0.686,0.64 1.017,0.971 4.194,4.194 7.546,9.76 5.496,11.811 -0.424,0.424 -0.997,0.613 -1.675,0.613 -2.39,-10e-4 -6.073,-2.355 -9.049,-5.077 z m 3.812,-7.748 c 0.307,0.284 0.616,0.579 0.927,0.89 2.232,2.231 4.021,4.592 5.038,6.646 0.992,2.003 1.154,3.489 0.458,4.187 l 0,0 0,0 c -1.27,1.269 -5.104,-0.374 -9.134,-3.908 l -0.277,0 c 3.671,3.227 8.003,5.587 9.547,4.044 1.731,-1.732 -1.505,-7.112 -5.496,-11.104 -0.287,-0.287 -0.582,-0.567 -0.88,-0.844 -0.063,0.027 -0.123,0.058 -0.183,0.089 z"
         style="fill:#2c3e50"
         inkscape:connector-curvature="0" />
    </g>
    <g
       transform="matrix(0.66123987,0,0,0.6535013,249.46928,73.864779)"
       id="g6770">
      <path
         id="path6772"
         d="M 42.279,33.13 C 40.622,31.738 36.089,30.804 31,30.804 c -5.892,0 -11.987,1.34 -11.987,3.584 0,0.44 0.238,0.863 0.708,1.257 1.657,1.392 6.19,2.327 11.28,2.327 5.892,10e-4 11.987,-1.34 11.987,-3.584 -10e-4,-0.44 -0.239,-0.863 -0.709,-1.258 z M 31,37.391 c -4.841,0 -9.278,-0.887 -10.791,-2.157 -0.335,-0.282 -0.505,-0.566 -0.505,-0.847 10e-4,-1.451 4.54,-3.004 11.296,-3.004 4.841,0 9.278,0.886 10.79,2.157 0.336,0.282 0.506,0.567 0.506,0.847 0,1.452 -4.54,3.005 -11.296,3.004 z"
         style="fill:#2c3e50"
         inkscape:connector-curvature="0" />
      <path
         id="path6774"
         d="m 31,38.222 c -5.144,0 -9.741,-0.959 -11.44,-2.386 -0.529,-0.444 -0.797,-0.932 -0.797,-1.448 0,-2.491 6.305,-3.835 12.237,-3.835 5.144,0 9.742,0.959 11.44,2.386 l 0,0 c 0.529,0.443 0.797,0.932 0.797,1.449 0,2.49 -6.305,3.834 -12.237,3.834 z m 0,-7.169 c -6.472,0 -11.737,1.496 -11.737,3.335 0,0.362 0.208,0.721 0.619,1.065 1.616,1.357 6.084,2.269 11.119,2.269 6.472,0 11.737,-1.496 11.737,-3.334 0,-0.363 -0.208,-0.722 -0.619,-1.066 l 0,0 C 40.504,31.965 36.036,31.053 31,31.053 Z m 0,6.588 c -4.895,0 -9.398,-0.911 -10.951,-2.215 -0.395,-0.332 -0.595,-0.682 -0.595,-1.038 0,-1.824 5.072,-3.254 11.546,-3.254 4.895,0 9.399,0.911 10.951,2.215 0.395,0.332 0.595,0.682 0.595,1.039 -10e-4,1.824 -5.072,3.253 -11.546,3.253 z m 0,-6.007 c -6.843,0 -11.045,1.605 -11.046,2.754 0,0.202 0.14,0.423 0.417,0.655 1.471,1.235 5.842,2.098 10.629,2.098 6.843,0 11.045,-1.604 11.045,-2.753 0,-0.203 -0.14,-0.424 -0.417,-0.656 C 40.159,32.497 35.788,31.634 31,31.634 Z"
         style="fill:#2c3e50"
         inkscape:connector-curvature="0" />
    </g>
    <g
       transform="matrix(0.66123987,0,0,0.6535013,249.46928,73.864779)"
       id="g6776">
      <path
         id="path6778"
         d="m 24.75,24.762 c 2.234,0.396 5.397,2.432 8.196,5.006 -0.223,0.099 -0.442,0.211 -0.657,0.332 -4.197,-3.834 -7.967,-5.382 -9.191,-4.456 -0.104,-0.2 -0.237,-0.389 -0.399,-0.553 0.508,-0.377 1.207,-0.479 2.051,-0.329 z"
         style="fill:#2c3e50"
         inkscape:connector-curvature="0" />
      <path
         id="path6780"
         d="m 32.12,30.285 c -4.179,-3.817 -7.792,-5.252 -8.872,-4.441 l -0.236,0.179 -0.136,-0.263 c -0.098,-0.188 -0.217,-0.353 -0.355,-0.492 l -0.204,-0.204 0.232,-0.172 c 0.558,-0.416 1.313,-0.541 2.245,-0.376 l 0,0 c 2.18,0.386 5.29,2.28 8.321,5.068 l 0.28,0.258 -0.349,0.154 c -0.216,0.096 -0.428,0.205 -0.637,0.322 l -0.157,0.087 -0.132,-0.12 z m -7.413,-5.277 0,0 c -0.661,-0.117 -1.208,-0.069 -1.627,0.142 0.038,0.049 0.073,0.1 0.107,0.151 1.605,-0.759 5.339,1.061 9.139,4.494 0.059,-0.031 0.118,-0.062 0.178,-0.093 -2.839,-2.552 -5.803,-4.34 -7.797,-4.694 z"
         style="fill:#2c3e50"
         inkscape:connector-curvature="0" />
    </g>
    <path
       id="path6782"
       d="m 267.30821,96.796793 0,0 c -0.44303,0 -0.80605,-0.358119 -0.80605,-0.796618 l 0,-2.059183 c 0,-0.437845 0.36236,-0.796618 0.80605,-0.796618 l 0,0 c 0.44303,0 0.80605,0.358119 0.80605,0.796618 l 0,2.059183 c -6.6e-4,0.438499 -0.36302,0.796618 -0.80605,0.796618 z"
       style="fill:#3b97d3"
       inkscape:connector-curvature="0" />
    <path
       id="path6784"
       d="m 269.91548,96.796793 0,0 c -0.44303,0 -0.80605,-0.358119 -0.80605,-0.796618 l 0,-4.567321 c 0,-0.437845 0.36236,-0.796618 0.80605,-0.796618 l 0,0 c 0.44303,0 0.80539,0.358119 0.80539,0.796618 l 0,4.567321 c 6.6e-4,0.438499 -0.3617,0.796618 -0.80539,0.796618 z"
       style="fill:#3b97d3"
       inkscape:connector-curvature="0" />
    <path
       id="path6786"
       d="m 272.52209,96.796793 0,0 c -0.44304,0 -0.80606,-0.358119 -0.80606,-0.796618 l 0,-6.757857 c 0,-0.437846 0.36236,-0.796618 0.80606,-0.796618 l 0,0 c 0.44303,0 0.80605,0.358119 0.80605,0.796618 l 0,6.757857 c 0,0.438499 -0.36302,0.796618 -0.80605,0.796618 z"
       style="fill:#3b97d3"
       inkscape:connector-curvature="0" />
    <path
       sodipodi:nodetypes="ccccccccccscccccccccccc"
       id="path6788"
       d="m 281.01042,89.05607 c -0.47278,-1.105724 -1.70401,-3.374027 -2.41418,-4.346437 l -0.29822,-0.166304 c -0.041,-0.0562 -0.78415,-0.161966 -0.8218,-0.213593 l -0.8141,-0.23468 c -0.15605,-0.231339 0.0648,0.124687 -0.0635,-0.05764 l -2.01045,-0.383719 c 0.80275,1.141667 3.42485,4.925317 3.81961,5.884004 1.65773,4.0223 2.37253,13.686279 0.0622,17.117159 -0.44568,0.662 -0.24995,1.03907 -0.008,1.23904 0.14614,0.12024 0.31079,0.16468 0.47014,0.16468 0.009,0 0.0172,-0.003 0.0265,-0.003 l 0.0172,0.0288 c 0.0212,-0.0124 0.0383,-0.0255 0.0589,-0.0386 0.11968,-0.0137 0.2354,-0.0431 0.33326,-0.0856 l 0.005,0.008 c 0.0403,-0.0242 0.0694,-0.0418 0.0906,-0.0542 0.0807,-0.0431 0.14415,-0.0895 0.18118,-0.12482 l 0.003,-0.0425 c 0.0608,-0.0144 0.121,-0.0288 0.18448,-0.0412 0.31475,-0.0608 0.74522,-0.14443 1.00972,-0.56986 2.41088,-3.88964 1.86403,-14.116278 0.16861,-18.07911 z"
       style="opacity:0.3;fill:#bdc3c7"
       inkscape:connector-curvature="0" />
    <path
       sodipodi:nodetypes="cccccc"
       id="path6790"
       d="m 278.69108,84.59321 c 0,0 1.92952,2.657236 2.55703,4.155715 1.68749,4.026221 2.08622,13.591515 0,17.430185 -2.32425,4.27717 -20.10367,3.92428 -22.48744,0 -2.26938,-3.73607 -1.68748,-13.403964 0,-17.430185 0.44766,-1.067822 1.94948,-3.388922 2.65701,-4.378323"
       style="clip-rule:evenodd;fill:none;fill-rule:evenodd;stroke:#2c3e50;stroke-width:1;stroke-miterlimit:10;stroke-dasharray:none"
       inkscape:connector-curvature="0" />
    <path
       sodipodi:nodetypes="csc"
       id="path6796"
       d="m 278.71636,84.642405 c -1.25503,-0.784855 -4.43163,-1.686709 -8.31707,-1.688648 -4.832,-0.0024 -8.3689,1.032298 -9.44623,2.150179"
       style="clip-rule:evenodd;fill:none;fill-rule:evenodd;stroke:#2c3e50;stroke-width:1;stroke-linecap:round;stroke-miterlimit:10;stroke-dasharray:none"
       inkscape:connector-curvature="0" />
    <ellipse
       id="ellipse6798"
       ry="0.63847077"
       rx="4.0362082"
       cy="105.42824"
       cx="270.03253"
       style="clip-rule:evenodd;fill:#ecf0f1;fill-rule:evenodd" />
    <g
       transform="matrix(0.66123987,0,0,0.6535013,249.46928,73.864779)"
       id="g6800">
      <path
         id="path6802"
         d="m 22.698,25.092 c 0.162,0.164 0.295,0.352 0.399,0.553 -0.036,0.027 -0.078,0.049 -0.109,0.08 -1.203,1.203 0.718,5.7 5.495,10.478 0.545,0.544 1.083,1.046 1.615,1.515 -0.363,0 -0.691,0 -1.025,0 -0.366,-0.335 -0.728,-0.675 -1.079,-1.026 -4.167,-4.167 -7.362,-9.591 -5.496,-11.456 0.06,-0.058 0.135,-0.095 0.2,-0.144 z"
         style="fill:#2c3e50"
         inkscape:connector-curvature="0" />
      <path
         id="path6804"
         d="m 28.905,37.903 c -0.368,-0.338 -0.733,-0.68 -1.086,-1.033 -4.195,-4.194 -7.546,-9.76 -5.496,-11.81 0.057,-0.057 0.118,-0.097 0.167,-0.128 l 0.233,-0.168 0.152,0.153 c 0.174,0.175 0.323,0.381 0.444,0.613 l 0.097,0.186 -0.25,0.187 c -0.51,0.51 -0.298,1.893 0.552,3.611 0.994,2.006 2.749,4.319 4.943,6.514 0.512,0.512 1.052,1.018 1.604,1.504 l 0.496,0.438 -1.784,0 -0.072,-0.067 z M 28.307,36.38 c -2.231,-2.232 -4.021,-4.592 -5.038,-6.645 -0.974,-1.967 -1.149,-3.437 -0.494,-4.149 -0.036,-0.056 -0.074,-0.108 -0.114,-0.159 -1.698,1.748 1.531,7.109 5.511,11.089 0.325,0.325 0.661,0.641 0.999,0.952 l 0.275,0 c -0.389,-0.356 -0.771,-0.72 -1.139,-1.088 z"
         style="fill:#2c3e50"
         inkscape:connector-curvature="0" />
    </g>
    <path
       sodipodi:nodetypes="csc"
       inkscape:connector-curvature="0"
       style="clip-rule:evenodd;fill:none;fill-rule:evenodd;stroke:#2c3e50;stroke-width:1;stroke-linecap:round;stroke-miterlimit:10;stroke-dasharray:none"
       d="m 278.53937,81.783442 c -1.25503,-0.784855 -4.43163,-1.688648 -8.31707,-1.688648 -4.82838,0 -8.90197,1.108482 -8.90197,2.458615"
       id="path5904" />
    <line
       id="line6794"
       y2="84.257317"
       x2="261.31433"
       y1="82.5261"
       x1="261.31433"
       style="fill:none;stroke:#2c3e50;stroke-width:1;stroke-linecap:round;stroke-linejoin:round;stroke-miterlimit:10;stroke-dasharray:none" />
    <line
       id="line6794-3"
       y2="84.21138"
       x2="278.60297"
       y1="81.838188"
       x1="278.60297"
       style="fill:none;stroke:#2c3e50;stroke-width:1;stroke-linecap:round;stroke-linejoin:round;stroke-miterlimit:10;stroke-dasharray:none" />
  </g>
  <g
     id="g6010"
     transform="translate(11.999997,0)"
     style="filter:url(#filter6274)">
    <g
       id="g6012"
       transform="matrix(0.66123987,0,0,0.6535013,249.46928,73.864779)">
      <path
         inkscape:connector-curvature="0"
         style="fill:#2c3e50"
         d="m 38.963,41.7 c 1.203,-1.203 -0.718,-5.701 -5.496,-10.479 -0.396,-0.395 -0.788,-0.764 -1.178,-1.12 0.216,-0.121 0.434,-0.234 0.657,-0.332 0.342,0.315 0.681,0.635 1.01,0.964 4.167,4.167 7.361,9.591 5.496,11.457 -1.709,1.708 -6.399,-0.831 -10.378,-4.47 0.334,0 0.662,0 1.025,0 4.143,3.653 7.797,5.046 8.864,3.98 z"
         id="path6014" />
      <path
         inkscape:connector-curvature="0"
         style="fill:#2c3e50"
         d="m 28.905,37.903 -0.475,-0.434 1.763,0 0.071,0.062 c 4.106,3.623 7.619,4.893 8.521,3.992 l 0,0 c 0.51,-0.51 0.298,-1.894 -0.552,-3.611 -0.994,-2.006 -2.749,-4.319 -4.943,-6.514 -0.393,-0.393 -0.783,-0.76 -1.17,-1.113 l -0.256,-0.234 0.303,-0.169 c 0.223,-0.124 0.448,-0.24 0.678,-0.342 l 0.15,-0.066 0.121,0.111 c 0.345,0.317 0.686,0.64 1.017,0.971 4.194,4.194 7.546,9.76 5.496,11.811 -0.424,0.424 -0.997,0.613 -1.675,0.613 -2.39,-10e-4 -6.073,-2.355 -9.049,-5.077 z m 3.812,-7.748 c 0.307,0.284 0.616,0.579 0.927,0.89 2.232,2.231 4.021,4.592 5.038,6.646 0.992,2.003 1.154,3.489 0.458,4.187 l 0,0 0,0 c -1.27,1.269 -5.104,-0.374 -9.134,-3.908 l -0.277,0 c 3.671,3.227 8.003,5.587 9.547,4.044 1.731,-1.732 -1.505,-7.112 -5.496,-11.104 -0.287,-0.287 -0.582,-0.567 -0.88,-0.844 -0.063,0.027 -0.123,0.058 -0.183,0.089 z"
         id="path6016" />
    </g>
    <g
       id="g6018"
       transform="matrix(0.66123987,0,0,0.6535013,249.46928,73.864779)">
      <path
         inkscape:connector-curvature="0"
         style="fill:#2c3e50"
         d="M 42.279,33.13 C 40.622,31.738 36.089,30.804 31,30.804 c -5.892,0 -11.987,1.34 -11.987,3.584 0,0.44 0.238,0.863 0.708,1.257 1.657,1.392 6.19,2.327 11.28,2.327 5.892,10e-4 11.987,-1.34 11.987,-3.584 -10e-4,-0.44 -0.239,-0.863 -0.709,-1.258 z M 31,37.391 c -4.841,0 -9.278,-0.887 -10.791,-2.157 -0.335,-0.282 -0.505,-0.566 -0.505,-0.847 10e-4,-1.451 4.54,-3.004 11.296,-3.004 4.841,0 9.278,0.886 10.79,2.157 0.336,0.282 0.506,0.567 0.506,0.847 0,1.452 -4.54,3.005 -11.296,3.004 z"
         id="path6020" />
      <path
         inkscape:connector-curvature="0"
         style="fill:#2c3e50"
         d="m 31,38.222 c -5.144,0 -9.741,-0.959 -11.44,-2.386 -0.529,-0.444 -0.797,-0.932 -0.797,-1.448 0,-2.491 6.305,-3.835 12.237,-3.835 5.144,0 9.742,0.959 11.44,2.386 l 0,0 c 0.529,0.443 0.797,0.932 0.797,1.449 0,2.49 -6.305,3.834 -12.237,3.834 z m 0,-7.169 c -6.472,0 -11.737,1.496 -11.737,3.335 0,0.362 0.208,0.721 0.619,1.065 1.616,1.357 6.084,2.269 11.119,2.269 6.472,0 11.737,-1.496 11.737,-3.334 0,-0.363 -0.208,-0.722 -0.619,-1.066 l 0,0 C 40.504,31.965 36.036,31.053 31,31.053 Z m 0,6.588 c -4.895,0 -9.398,-0.911 -10.951,-2.215 -0.395,-0.332 -0.595,-0.682 -0.595,-1.038 0,-1.824 5.072,-3.254 11.546,-3.254 4.895,0 9.399,0.911 10.951,2.215 0.395,0.332 0.595,0.682 0.595,1.039 -10e-4,1.824 -5.072,3.253 -11.546,3.253 z m 0,-6.007 c -6.843,0 -11.045,1.605 -11.046,2.754 0,0.202 0.14,0.423 0.417,0.655 1.471,1.235 5.842,2.098 10.629,2.098 6.843,0 11.045,-1.604 11.045,-2.753 0,-0.203 -0.14,-0.424 -0.417,-0.656 C 40.159,32.497 35.788,31.634 31,31.634 Z"
         id="path6022" />
    </g>
    <g
       id="g6024"
       transform="matrix(0.66123987,0,0,0.6535013,249.46928,73.864779)">
      <path
         inkscape:connector-curvature="0"
         style="fill:#2c3e50"
         d="m 24.75,24.762 c 2.234,0.396 5.397,2.432 8.196,5.006 -0.223,0.099 -0.442,0.211 -0.657,0.332 -4.197,-3.834 -7.967,-5.382 -9.191,-4.456 -0.104,-0.2 -0.237,-0.389 -0.399,-0.553 0.508,-0.377 1.207,-0.479 2.051,-0.329 z"
         id="path6026" />
      <path
         inkscape:connector-curvature="0"
         style="fill:#2c3e50"
         d="m 32.12,30.285 c -4.179,-3.817 -7.792,-5.252 -8.872,-4.441 l -0.236,0.179 -0.136,-0.263 c -0.098,-0.188 -0.217,-0.353 -0.355,-0.492 l -0.204,-0.204 0.232,-0.172 c 0.558,-0.416 1.313,-0.541 2.245,-0.376 l 0,0 c 2.18,0.386 5.29,2.28 8.321,5.068 l 0.28,0.258 -0.349,0.154 c -0.216,0.096 -0.428,0.205 -0.637,0.322 l -0.157,0.087 -0.132,-0.12 z m -7.413,-5.277 0,0 c -0.661,-0.117 -1.208,-0.069 -1.627,0.142 0.038,0.049 0.073,0.1 0.107,0.151 1.605,-0.759 5.339,1.061 9.139,4.494 0.059,-0.031 0.118,-0.062 0.178,-0.093 -2.839,-2.552 -5.803,-4.34 -7.797,-4.694 z"
         id="path6028" />
    </g>
    <path
       inkscape:connector-curvature="0"
       style="fill:#3b97d3"
       d="m 267.30821,96.796793 0,0 c -0.44303,0 -0.80605,-0.358119 -0.80605,-0.796618 l 0,-2.059183 c 0,-0.437845 0.36236,-0.796618 0.80605,-0.796618 l 0,0 c 0.44303,0 0.80605,0.358119 0.80605,0.796618 l 0,2.059183 c -6.6e-4,0.438499 -0.36302,0.796618 -0.80605,0.796618 z"
       id="path6030" />
    <path
       inkscape:connector-curvature="0"
       style="fill:#3b97d3"
       d="m 269.91548,96.796793 0,0 c -0.44303,0 -0.80605,-0.358119 -0.80605,-0.796618 l 0,-4.567321 c 0,-0.437845 0.36236,-0.796618 0.80605,-0.796618 l 0,0 c 0.44303,0 0.80539,0.358119 0.80539,0.796618 l 0,4.567321 c 6.6e-4,0.438499 -0.3617,0.796618 -0.80539,0.796618 z"
       id="path6032" />
    <path
       inkscape:connector-curvature="0"
       style="fill:#3b97d3"
       d="m 272.52209,96.796793 0,0 c -0.44304,0 -0.80606,-0.358119 -0.80606,-0.796618 l 0,-6.757857 c 0,-0.437846 0.36236,-0.796618 0.80606,-0.796618 l 0,0 c 0.44303,0 0.80605,0.358119 0.80605,0.796618 l 0,6.757857 c 0,0.438499 -0.36302,0.796618 -0.80605,0.796618 z"
       id="path6034" />
    <path
       inkscape:connector-curvature="0"
       style="opacity:0.3;fill:#bdc3c7"
       d="m 281.01042,89.05607 c -0.47278,-1.105724 -1.70401,-3.374027 -2.41418,-4.346437 l -0.29822,-0.166304 c -0.041,-0.0562 -0.78415,-0.161966 -0.8218,-0.213593 l -0.8141,-0.23468 c -0.15605,-0.231339 0.0648,0.124687 -0.0635,-0.05764 l -2.01045,-0.383719 c 0.80275,1.141667 3.42485,4.925317 3.81961,5.884004 1.65773,4.0223 2.37253,13.686279 0.0622,17.117159 -0.44568,0.662 -0.24995,1.03907 -0.008,1.23904 0.14614,0.12024 0.31079,0.16468 0.47014,0.16468 0.009,0 0.0172,-0.003 0.0265,-0.003 l 0.0172,0.0288 c 0.0212,-0.0124 0.0383,-0.0255 0.0589,-0.0386 0.11968,-0.0137 0.2354,-0.0431 0.33326,-0.0856 l 0.005,0.008 c 0.0403,-0.0242 0.0694,-0.0418 0.0906,-0.0542 0.0807,-0.0431 0.14415,-0.0895 0.18118,-0.12482 l 0.003,-0.0425 c 0.0608,-0.0144 0.121,-0.0288 0.18448,-0.0412 0.31475,-0.0608 0.74522,-0.14443 1.00972,-0.56986 2.41088,-3.88964 1.86403,-14.116278 0.16861,-18.07911 z"
       id="path6036"
       sodipodi:nodetypes="ccccccccccscccccccccccc" />
    <path
       inkscape:connector-curvature="0"
       style="clip-rule:evenodd;fill:none;fill-rule:evenodd;stroke:#2c3e50;stroke-width:1;stroke-miterlimit:10;stroke-dasharray:none"
       d="m 278.69108,84.59321 c 0,0 1.92952,2.657236 2.55703,4.155715 1.68749,4.026221 2.08622,13.591515 0,17.430185 -2.32425,4.27717 -20.10367,3.92428 -22.48744,0 -2.26938,-3.73607 -1.68748,-13.403964 0,-17.430185 0.44766,-1.067822 1.94948,-3.388922 2.65701,-4.378323"
       id="path6038"
       sodipodi:nodetypes="cccccc" />
    <path
       inkscape:connector-curvature="0"
       style="clip-rule:evenodd;fill:none;fill-rule:evenodd;stroke:#2c3e50;stroke-width:1;stroke-linecap:round;stroke-miterlimit:10;stroke-dasharray:none"
       d="m 278.71636,84.642405 c -1.25503,-0.784855 -4.43163,-1.686709 -8.31707,-1.688648 -4.832,-0.0024 -8.3689,1.032298 -9.44623,2.150179"
       id="path6040"
       sodipodi:nodetypes="csc" />
    <ellipse
       style="clip-rule:evenodd;fill:#ecf0f1;fill-rule:evenodd"
       cx="270.03253"
       cy="105.42824"
       rx="4.0362082"
       ry="0.63847077"
       id="ellipse6042" />
    <g
       id="g6044"
       transform="matrix(0.66123987,0,0,0.6535013,249.46928,73.864779)">
      <path
         inkscape:connector-curvature="0"
         style="fill:#2c3e50"
         d="m 22.698,25.092 c 0.162,0.164 0.295,0.352 0.399,0.553 -0.036,0.027 -0.078,0.049 -0.109,0.08 -1.203,1.203 0.718,5.7 5.495,10.478 0.545,0.544 1.083,1.046 1.615,1.515 -0.363,0 -0.691,0 -1.025,0 -0.366,-0.335 -0.728,-0.675 -1.079,-1.026 -4.167,-4.167 -7.362,-9.591 -5.496,-11.456 0.06,-0.058 0.135,-0.095 0.2,-0.144 z"
         id="path6046" />
      <path
         inkscape:connector-curvature="0"
         style="fill:#2c3e50"
         d="m 28.905,37.903 c -0.368,-0.338 -0.733,-0.68 -1.086,-1.033 -4.195,-4.194 -7.546,-9.76 -5.496,-11.81 0.057,-0.057 0.118,-0.097 0.167,-0.128 l 0.233,-0.168 0.152,0.153 c 0.174,0.175 0.323,0.381 0.444,0.613 l 0.097,0.186 -0.25,0.187 c -0.51,0.51 -0.298,1.893 0.552,3.611 0.994,2.006 2.749,4.319 4.943,6.514 0.512,0.512 1.052,1.018 1.604,1.504 l 0.496,0.438 -1.784,0 -0.072,-0.067 z M 28.307,36.38 c -2.231,-2.232 -4.021,-4.592 -5.038,-6.645 -0.974,-1.967 -1.149,-3.437 -0.494,-4.149 -0.036,-0.056 -0.074,-0.108 -0.114,-0.159 -1.698,1.748 1.531,7.109 5.511,11.089 0.325,0.325 0.661,0.641 0.999,0.952 l 0.275,0 c -0.389,-0.356 -0.771,-0.72 -1.139,-1.088 z"
         id="path6048" />
    </g>
    <path
       id="path6050"
       d="m 278.53937,81.783442 c -1.25503,-0.784855 -4.43163,-1.688648 -8.31707,-1.688648 -4.82838,0 -8.90197,1.108482 -8.90197,2.458615"
       style="clip-rule:evenodd;fill:none;fill-rule:evenodd;stroke:#2c3e50;stroke-width:1;stroke-linecap:round;stroke-miterlimit:10;stroke-dasharray:none"
       inkscape:connector-curvature="0"
       sodipodi:nodetypes="csc" />
    <line
       style="fill:none;stroke:#2c3e50;stroke-width:1;stroke-linecap:round;stroke-linejoin:round;stroke-miterlimit:10;stroke-dasharray:none"
       x1="261.31433"
       y1="82.5261"
       x2="261.31433"
       y2="84.257317"
       id="line6052" />
    <line
       style="fill:none;stroke:#2c3e50;stroke-width:1;stroke-linecap:round;stroke-linejoin:round;stroke-miterlimit:10;stroke-dasharray:none"
       x1="278.60297"
       y1="81.838188"
       x2="278.60297"
       y2="84.21138"
       id="line6054" />
  </g>
  <g
     transform="translate(43.999997,0)"
     id="g6056"
     style="filter:url(#filter6266)">
    <g
       transform="matrix(0.66123987,0,0,0.6535013,249.46928,73.864779)"
       id="g6058">
      <path
         id="path6060"
         d="m 38.963,41.7 c 1.203,-1.203 -0.718,-5.701 -5.496,-10.479 -0.396,-0.395 -0.788,-0.764 -1.178,-1.12 0.216,-0.121 0.434,-0.234 0.657,-0.332 0.342,0.315 0.681,0.635 1.01,0.964 4.167,4.167 7.361,9.591 5.496,11.457 -1.709,1.708 -6.399,-0.831 -10.378,-4.47 0.334,0 0.662,0 1.025,0 4.143,3.653 7.797,5.046 8.864,3.98 z"
         style="fill:#2c3e50"
         inkscape:connector-curvature="0" />
      <path
         id="path6062"
         d="m 28.905,37.903 -0.475,-0.434 1.763,0 0.071,0.062 c 4.106,3.623 7.619,4.893 8.521,3.992 l 0,0 c 0.51,-0.51 0.298,-1.894 -0.552,-3.611 -0.994,-2.006 -2.749,-4.319 -4.943,-6.514 -0.393,-0.393 -0.783,-0.76 -1.17,-1.113 l -0.256,-0.234 0.303,-0.169 c 0.223,-0.124 0.448,-0.24 0.678,-0.342 l 0.15,-0.066 0.121,0.111 c 0.345,0.317 0.686,0.64 1.017,0.971 4.194,4.194 7.546,9.76 5.496,11.811 -0.424,0.424 -0.997,0.613 -1.675,0.613 -2.39,-10e-4 -6.073,-2.355 -9.049,-5.077 z m 3.812,-7.748 c 0.307,0.284 0.616,0.579 0.927,0.89 2.232,2.231 4.021,4.592 5.038,6.646 0.992,2.003 1.154,3.489 0.458,4.187 l 0,0 0,0 c -1.27,1.269 -5.104,-0.374 -9.134,-3.908 l -0.277,0 c 3.671,3.227 8.003,5.587 9.547,4.044 1.731,-1.732 -1.505,-7.112 -5.496,-11.104 -0.287,-0.287 -0.582,-0.567 -0.88,-0.844 -0.063,0.027 -0.123,0.058 -0.183,0.089 z"
         style="fill:#2c3e50"
         inkscape:connector-curvature="0" />
    </g>
    <g
       transform="matrix(0.66123987,0,0,0.6535013,249.46928,73.864779)"
       id="g6064">
      <path
         id="path6066"
         d="M 42.279,33.13 C 40.622,31.738 36.089,30.804 31,30.804 c -5.892,0 -11.987,1.34 -11.987,3.584 0,0.44 0.238,0.863 0.708,1.257 1.657,1.392 6.19,2.327 11.28,2.327 5.892,10e-4 11.987,-1.34 11.987,-3.584 -10e-4,-0.44 -0.239,-0.863 -0.709,-1.258 z M 31,37.391 c -4.841,0 -9.278,-0.887 -10.791,-2.157 -0.335,-0.282 -0.505,-0.566 -0.505,-0.847 10e-4,-1.451 4.54,-3.004 11.296,-3.004 4.841,0 9.278,0.886 10.79,2.157 0.336,0.282 0.506,0.567 0.506,0.847 0,1.452 -4.54,3.005 -11.296,3.004 z"
         style="fill:#2c3e50"
         inkscape:connector-curvature="0" />
      <path
         id="path6068"
         d="m 31,38.222 c -5.144,0 -9.741,-0.959 -11.44,-2.386 -0.529,-0.444 -0.797,-0.932 -0.797,-1.448 0,-2.491 6.305,-3.835 12.237,-3.835 5.144,0 9.742,0.959 11.44,2.386 l 0,0 c 0.529,0.443 0.797,0.932 0.797,1.449 0,2.49 -6.305,3.834 -12.237,3.834 z m 0,-7.169 c -6.472,0 -11.737,1.496 -11.737,3.335 0,0.362 0.208,0.721 0.619,1.065 1.616,1.357 6.084,2.269 11.119,2.269 6.472,0 11.737,-1.496 11.737,-3.334 0,-0.363 -0.208,-0.722 -0.619,-1.066 l 0,0 C 40.504,31.965 36.036,31.053 31,31.053 Z m 0,6.588 c -4.895,0 -9.398,-0.911 -10.951,-2.215 -0.395,-0.332 -0.595,-0.682 -0.595,-1.038 0,-1.824 5.072,-3.254 11.546,-3.254 4.895,0 9.399,0.911 10.951,2.215 0.395,0.332 0.595,0.682 0.595,1.039 -10e-4,1.824 -5.072,3.253 -11.546,3.253 z m 0,-6.007 c -6.843,0 -11.045,1.605 -11.046,2.754 0,0.202 0.14,0.423 0.417,0.655 1.471,1.235 5.842,2.098 10.629,2.098 6.843,0 11.045,-1.604 11.045,-2.753 0,-0.203 -0.14,-0.424 -0.417,-0.656 C 40.159,32.497 35.788,31.634 31,31.634 Z"
         style="fill:#2c3e50"
         inkscape:connector-curvature="0" />
    </g>
    <g
       transform="matrix(0.66123987,0,0,0.6535013,249.46928,73.864779)"
       id="g6070">
      <path
         id="path6072"
         d="m 24.75,24.762 c 2.234,0.396 5.397,2.432 8.196,5.006 -0.223,0.099 -0.442,0.211 -0.657,0.332 -4.197,-3.834 -7.967,-5.382 -9.191,-4.456 -0.104,-0.2 -0.237,-0.389 -0.399,-0.553 0.508,-0.377 1.207,-0.479 2.051,-0.329 z"
         style="fill:#2c3e50"
         inkscape:connector-curvature="0" />
      <path
         id="path6074"
         d="m 32.12,30.285 c -4.179,-3.817 -7.792,-5.252 -8.872,-4.441 l -0.236,0.179 -0.136,-0.263 c -0.098,-0.188 -0.217,-0.353 -0.355,-0.492 l -0.204,-0.204 0.232,-0.172 c 0.558,-0.416 1.313,-0.541 2.245,-0.376 l 0,0 c 2.18,0.386 5.29,2.28 8.321,5.068 l 0.28,0.258 -0.349,0.154 c -0.216,0.096 -0.428,0.205 -0.637,0.322 l -0.157,0.087 -0.132,-0.12 z m -7.413,-5.277 0,0 c -0.661,-0.117 -1.208,-0.069 -1.627,0.142 0.038,0.049 0.073,0.1 0.107,0.151 1.605,-0.759 5.339,1.061 9.139,4.494 0.059,-0.031 0.118,-0.062 0.178,-0.093 -2.839,-2.552 -5.803,-4.34 -7.797,-4.694 z"
         style="fill:#2c3e50"
         inkscape:connector-curvature="0" />
    </g>
    <path
       id="path6076"
       d="m 267.30821,96.796793 0,0 c -0.44303,0 -0.80605,-0.358119 -0.80605,-0.796618 l 0,-2.059183 c 0,-0.437845 0.36236,-0.796618 0.80605,-0.796618 l 0,0 c 0.44303,0 0.80605,0.358119 0.80605,0.796618 l 0,2.059183 c -6.6e-4,0.438499 -0.36302,0.796618 -0.80605,0.796618 z"
       style="fill:#3b97d3"
       inkscape:connector-curvature="0" />
    <path
       id="path6078"
       d="m 269.91548,96.796793 0,0 c -0.44303,0 -0.80605,-0.358119 -0.80605,-0.796618 l 0,-4.567321 c 0,-0.437845 0.36236,-0.796618 0.80605,-0.796618 l 0,0 c 0.44303,0 0.80539,0.358119 0.80539,0.796618 l 0,4.567321 c 6.6e-4,0.438499 -0.3617,0.796618 -0.80539,0.796618 z"
       style="fill:#3b97d3"
       inkscape:connector-curvature="0" />
    <path
       id="path6080"
       d="m 272.52209,96.796793 0,0 c -0.44304,0 -0.80606,-0.358119 -0.80606,-0.796618 l 0,-6.757857 c 0,-0.437846 0.36236,-0.796618 0.80606,-0.796618 l 0,0 c 0.44303,0 0.80605,0.358119 0.80605,0.796618 l 0,6.757857 c 0,0.438499 -0.36302,0.796618 -0.80605,0.796618 z"
       style="fill:#3b97d3"
       inkscape:connector-curvature="0" />
    <path
       sodipodi:nodetypes="ccccccccccscccccccccccc"
       id="path6082"
       d="m 281.01042,89.05607 c -0.47278,-1.105724 -1.70401,-3.374027 -2.41418,-4.346437 l -0.29822,-0.166304 c -0.041,-0.0562 -0.78415,-0.161966 -0.8218,-0.213593 l -0.8141,-0.23468 c -0.15605,-0.231339 0.0648,0.124687 -0.0635,-0.05764 l -2.01045,-0.383719 c 0.80275,1.141667 3.42485,4.925317 3.81961,5.884004 1.65773,4.0223 2.37253,13.686279 0.0622,17.117159 -0.44568,0.662 -0.24995,1.03907 -0.008,1.23904 0.14614,0.12024 0.31079,0.16468 0.47014,0.16468 0.009,0 0.0172,-0.003 0.0265,-0.003 l 0.0172,0.0288 c 0.0212,-0.0124 0.0383,-0.0255 0.0589,-0.0386 0.11968,-0.0137 0.2354,-0.0431 0.33326,-0.0856 l 0.005,0.008 c 0.0403,-0.0242 0.0694,-0.0418 0.0906,-0.0542 0.0807,-0.0431 0.14415,-0.0895 0.18118,-0.12482 l 0.003,-0.0425 c 0.0608,-0.0144 0.121,-0.0288 0.18448,-0.0412 0.31475,-0.0608 0.74522,-0.14443 1.00972,-0.56986 2.41088,-3.88964 1.86403,-14.116278 0.16861,-18.07911 z"
       style="opacity:0.3;fill:#bdc3c7"
       inkscape:connector-curvature="0" />
    <path
       sodipodi:nodetypes="cccccc"
       id="path6084"
       d="m 278.69108,84.59321 c 0,0 1.92952,2.657236 2.55703,4.155715 1.68749,4.026221 2.08622,13.591515 0,17.430185 -2.32425,4.27717 -20.10367,3.92428 -22.48744,0 -2.26938,-3.73607 -1.68748,-13.403964 0,-17.430185 0.44766,-1.067822 1.94948,-3.388922 2.65701,-4.378323"
       style="clip-rule:evenodd;fill:none;fill-rule:evenodd;stroke:#2c3e50;stroke-width:1;stroke-miterlimit:10;stroke-dasharray:none"
       inkscape:connector-curvature="0" />
    <path
       sodipodi:nodetypes="csc"
       id="path6086"
       d="m 278.71636,84.642405 c -1.25503,-0.784855 -4.43163,-1.686709 -8.31707,-1.688648 -4.832,-0.0024 -8.3689,1.032298 -9.44623,2.150179"
       style="clip-rule:evenodd;fill:none;fill-rule:evenodd;stroke:#2c3e50;stroke-width:1;stroke-linecap:round;stroke-miterlimit:10;stroke-dasharray:none"
       inkscape:connector-curvature="0" />
    <ellipse
       id="ellipse6088"
       ry="0.63847077"
       rx="4.0362082"
       cy="105.42824"
       cx="270.03253"
       style="clip-rule:evenodd;fill:#ecf0f1;fill-rule:evenodd" />
    <g
       transform="matrix(0.66123987,0,0,0.6535013,249.46928,73.864779)"
       id="g6090">
      <path
         id="path6092"
         d="m 22.698,25.092 c 0.162,0.164 0.295,0.352 0.399,0.553 -0.036,0.027 -0.078,0.049 -0.109,0.08 -1.203,1.203 0.718,5.7 5.495,10.478 0.545,0.544 1.083,1.046 1.615,1.515 -0.363,0 -0.691,0 -1.025,0 -0.366,-0.335 -0.728,-0.675 -1.079,-1.026 -4.167,-4.167 -7.362,-9.591 -5.496,-11.456 0.06,-0.058 0.135,-0.095 0.2,-0.144 z"
         style="fill:#2c3e50"
         inkscape:connector-curvature="0" />
      <path
         id="path6094"
         d="m 28.905,37.903 c -0.368,-0.338 -0.733,-0.68 -1.086,-1.033 -4.195,-4.194 -7.546,-9.76 -5.496,-11.81 0.057,-0.057 0.118,-0.097 0.167,-0.128 l 0.233,-0.168 0.152,0.153 c 0.174,0.175 0.323,0.381 0.444,0.613 l 0.097,0.186 -0.25,0.187 c -0.51,0.51 -0.298,1.893 0.552,3.611 0.994,2.006 2.749,4.319 4.943,6.514 0.512,0.512 1.052,1.018 1.604,1.504 l 0.496,0.438 -1.784,0 -0.072,-0.067 z M 28.307,36.38 c -2.231,-2.232 -4.021,-4.592 -5.038,-6.645 -0.974,-1.967 -1.149,-3.437 -0.494,-4.149 -0.036,-0.056 -0.074,-0.108 -0.114,-0.159 -1.698,1.748 1.531,7.109 5.511,11.089 0.325,0.325 0.661,0.641 0.999,0.952 l 0.275,0 c -0.389,-0.356 -0.771,-0.72 -1.139,-1.088 z"
         style="fill:#2c3e50"
         inkscape:connector-curvature="0" />
    </g>
    <path
       sodipodi:nodetypes="csc"
       inkscape:connector-curvature="0"
       style="clip-rule:evenodd;fill:none;fill-rule:evenodd;stroke:#2c3e50;stroke-width:1;stroke-linecap:round;stroke-miterlimit:10;stroke-dasharray:none"
       d="m 278.53937,81.783442 c -1.25503,-0.784855 -4.43163,-1.688648 -8.31707,-1.688648 -4.82838,0 -8.90197,1.108482 -8.90197,2.458615"
       id="path6096" />
    <line
       id="line6098"
       y2="84.257317"
       x2="261.31433"
       y1="82.5261"
       x1="261.31433"
       style="fill:none;stroke:#2c3e50;stroke-width:1;stroke-linecap:round;stroke-linejoin:round;stroke-miterlimit:10;stroke-dasharray:none" />
    <line
       id="line6100"
       y2="84.21138"
       x2="278.60297"
       y1="81.838188"
       x1="278.60297"
       style="fill:none;stroke:#2c3e50;stroke-width:1;stroke-linecap:round;stroke-linejoin:round;stroke-miterlimit:10;stroke-dasharray:none" />
  </g>
  <g
     id="g6102"
     transform="translate(75.999997,0)"
     style="filter:url(#filter6258)">
    <g
       id="g6104"
       transform="matrix(0.66123987,0,0,0.6535013,249.46928,73.864779)">
      <path
         inkscape:connector-curvature="0"
         style="fill:#2c3e50"
         d="m 38.963,41.7 c 1.203,-1.203 -0.718,-5.701 -5.496,-10.479 -0.396,-0.395 -0.788,-0.764 -1.178,-1.12 0.216,-0.121 0.434,-0.234 0.657,-0.332 0.342,0.315 0.681,0.635 1.01,0.964 4.167,4.167 7.361,9.591 5.496,11.457 -1.709,1.708 -6.399,-0.831 -10.378,-4.47 0.334,0 0.662,0 1.025,0 4.143,3.653 7.797,5.046 8.864,3.98 z"
         id="path6106" />
      <path
         inkscape:connector-curvature="0"
         style="fill:#2c3e50"
         d="m 28.905,37.903 -0.475,-0.434 1.763,0 0.071,0.062 c 4.106,3.623 7.619,4.893 8.521,3.992 l 0,0 c 0.51,-0.51 0.298,-1.894 -0.552,-3.611 -0.994,-2.006 -2.749,-4.319 -4.943,-6.514 -0.393,-0.393 -0.783,-0.76 -1.17,-1.113 l -0.256,-0.234 0.303,-0.169 c 0.223,-0.124 0.448,-0.24 0.678,-0.342 l 0.15,-0.066 0.121,0.111 c 0.345,0.317 0.686,0.64 1.017,0.971 4.194,4.194 7.546,9.76 5.496,11.811 -0.424,0.424 -0.997,0.613 -1.675,0.613 -2.39,-10e-4 -6.073,-2.355 -9.049,-5.077 z m 3.812,-7.748 c 0.307,0.284 0.616,0.579 0.927,0.89 2.232,2.231 4.021,4.592 5.038,6.646 0.992,2.003 1.154,3.489 0.458,4.187 l 0,0 0,0 c -1.27,1.269 -5.104,-0.374 -9.134,-3.908 l -0.277,0 c 3.671,3.227 8.003,5.587 9.547,4.044 1.731,-1.732 -1.505,-7.112 -5.496,-11.104 -0.287,-0.287 -0.582,-0.567 -0.88,-0.844 -0.063,0.027 -0.123,0.058 -0.183,0.089 z"
         id="path6108" />
    </g>
    <g
       id="g6110"
       transform="matrix(0.66123987,0,0,0.6535013,249.46928,73.864779)">
      <path
         inkscape:connector-curvature="0"
         style="fill:#2c3e50"
         d="M 42.279,33.13 C 40.622,31.738 36.089,30.804 31,30.804 c -5.892,0 -11.987,1.34 -11.987,3.584 0,0.44 0.238,0.863 0.708,1.257 1.657,1.392 6.19,2.327 11.28,2.327 5.892,10e-4 11.987,-1.34 11.987,-3.584 -10e-4,-0.44 -0.239,-0.863 -0.709,-1.258 z M 31,37.391 c -4.841,0 -9.278,-0.887 -10.791,-2.157 -0.335,-0.282 -0.505,-0.566 -0.505,-0.847 10e-4,-1.451 4.54,-3.004 11.296,-3.004 4.841,0 9.278,0.886 10.79,2.157 0.336,0.282 0.506,0.567 0.506,0.847 0,1.452 -4.54,3.005 -11.296,3.004 z"
         id="path6112" />
      <path
         inkscape:connector-curvature="0"
         style="fill:#2c3e50"
         d="m 31,38.222 c -5.144,0 -9.741,-0.959 -11.44,-2.386 -0.529,-0.444 -0.797,-0.932 -0.797,-1.448 0,-2.491 6.305,-3.835 12.237,-3.835 5.144,0 9.742,0.959 11.44,2.386 l 0,0 c 0.529,0.443 0.797,0.932 0.797,1.449 0,2.49 -6.305,3.834 -12.237,3.834 z m 0,-7.169 c -6.472,0 -11.737,1.496 -11.737,3.335 0,0.362 0.208,0.721 0.619,1.065 1.616,1.357 6.084,2.269 11.119,2.269 6.472,0 11.737,-1.496 11.737,-3.334 0,-0.363 -0.208,-0.722 -0.619,-1.066 l 0,0 C 40.504,31.965 36.036,31.053 31,31.053 Z m 0,6.588 c -4.895,0 -9.398,-0.911 -10.951,-2.215 -0.395,-0.332 -0.595,-0.682 -0.595,-1.038 0,-1.824 5.072,-3.254 11.546,-3.254 4.895,0 9.399,0.911 10.951,2.215 0.395,0.332 0.595,0.682 0.595,1.039 -10e-4,1.824 -5.072,3.253 -11.546,3.253 z m 0,-6.007 c -6.843,0 -11.045,1.605 -11.046,2.754 0,0.202 0.14,0.423 0.417,0.655 1.471,1.235 5.842,2.098 10.629,2.098 6.843,0 11.045,-1.604 11.045,-2.753 0,-0.203 -0.14,-0.424 -0.417,-0.656 C 40.159,32.497 35.788,31.634 31,31.634 Z"
         id="path6114" />
    </g>
    <g
       id="g6116"
       transform="matrix(0.66123987,0,0,0.6535013,249.46928,73.864779)">
      <path
         inkscape:connector-curvature="0"
         style="fill:#2c3e50"
         d="m 24.75,24.762 c 2.234,0.396 5.397,2.432 8.196,5.006 -0.223,0.099 -0.442,0.211 -0.657,0.332 -4.197,-3.834 -7.967,-5.382 -9.191,-4.456 -0.104,-0.2 -0.237,-0.389 -0.399,-0.553 0.508,-0.377 1.207,-0.479 2.051,-0.329 z"
         id="path6118" />
      <path
         inkscape:connector-curvature="0"
         style="fill:#2c3e50"
         d="m 32.12,30.285 c -4.179,-3.817 -7.792,-5.252 -8.872,-4.441 l -0.236,0.179 -0.136,-0.263 c -0.098,-0.188 -0.217,-0.353 -0.355,-0.492 l -0.204,-0.204 0.232,-0.172 c 0.558,-0.416 1.313,-0.541 2.245,-0.376 l 0,0 c 2.18,0.386 5.29,2.28 8.321,5.068 l 0.28,0.258 -0.349,0.154 c -0.216,0.096 -0.428,0.205 -0.637,0.322 l -0.157,0.087 -0.132,-0.12 z m -7.413,-5.277 0,0 c -0.661,-0.117 -1.208,-0.069 -1.627,0.142 0.038,0.049 0.073,0.1 0.107,0.151 1.605,-0.759 5.339,1.061 9.139,4.494 0.059,-0.031 0.118,-0.062 0.178,-0.093 -2.839,-2.552 -5.803,-4.34 -7.797,-4.694 z"
         id="path6120" />
    </g>
    <path
       inkscape:connector-curvature="0"
       style="fill:#3b97d3"
       d="m 267.30821,96.796793 0,0 c -0.44303,0 -0.80605,-0.358119 -0.80605,-0.796618 l 0,-2.059183 c 0,-0.437845 0.36236,-0.796618 0.80605,-0.796618 l 0,0 c 0.44303,0 0.80605,0.358119 0.80605,0.796618 l 0,2.059183 c -6.6e-4,0.438499 -0.36302,0.796618 -0.80605,0.796618 z"
       id="path6122" />
    <path
       inkscape:connector-curvature="0"
       style="fill:#3b97d3"
       d="m 269.91548,96.796793 0,0 c -0.44303,0 -0.80605,-0.358119 -0.80605,-0.796618 l 0,-4.567321 c 0,-0.437845 0.36236,-0.796618 0.80605,-0.796618 l 0,0 c 0.44303,0 0.80539,0.358119 0.80539,0.796618 l 0,4.567321 c 6.6e-4,0.438499 -0.3617,0.796618 -0.80539,0.796618 z"
       id="path6124" />
    <path
       inkscape:connector-curvature="0"
       style="fill:#3b97d3"
       d="m 272.52209,96.796793 0,0 c -0.44304,0 -0.80606,-0.358119 -0.80606,-0.796618 l 0,-6.757857 c 0,-0.437846 0.36236,-0.796618 0.80606,-0.796618 l 0,0 c 0.44303,0 0.80605,0.358119 0.80605,0.796618 l 0,6.757857 c 0,0.438499 -0.36302,0.796618 -0.80605,0.796618 z"
       id="path6126" />
    <path
       inkscape:connector-curvature="0"
       style="opacity:0.3;fill:#bdc3c7"
       d="m 281.01042,89.05607 c -0.47278,-1.105724 -1.70401,-3.374027 -2.41418,-4.346437 l -0.29822,-0.166304 c -0.041,-0.0562 -0.78415,-0.161966 -0.8218,-0.213593 l -0.8141,-0.23468 c -0.15605,-0.231339 0.0648,0.124687 -0.0635,-0.05764 l -2.01045,-0.383719 c 0.80275,1.141667 3.42485,4.925317 3.81961,5.884004 1.65773,4.0223 2.37253,13.686279 0.0622,17.117159 -0.44568,0.662 -0.24995,1.03907 -0.008,1.23904 0.14614,0.12024 0.31079,0.16468 0.47014,0.16468 0.009,0 0.0172,-0.003 0.0265,-0.003 l 0.0172,0.0288 c 0.0212,-0.0124 0.0383,-0.0255 0.0589,-0.0386 0.11968,-0.0137 0.2354,-0.0431 0.33326,-0.0856 l 0.005,0.008 c 0.0403,-0.0242 0.0694,-0.0418 0.0906,-0.0542 0.0807,-0.0431 0.14415,-0.0895 0.18118,-0.12482 l 0.003,-0.0425 c 0.0608,-0.0144 0.121,-0.0288 0.18448,-0.0412 0.31475,-0.0608 0.74522,-0.14443 1.00972,-0.56986 2.41088,-3.88964 1.86403,-14.116278 0.16861,-18.07911 z"
       id="path6128"
       sodipodi:nodetypes="ccccccccccscccccccccccc" />
    <path
       inkscape:connector-curvature="0"
       style="clip-rule:evenodd;fill:none;fill-rule:evenodd;stroke:#2c3e50;stroke-width:1;stroke-miterlimit:10;stroke-dasharray:none"
       d="m 278.69108,84.59321 c 0,0 1.92952,2.657236 2.55703,4.155715 1.68749,4.026221 2.08622,13.591515 0,17.430185 -2.32425,4.27717 -20.10367,3.92428 -22.48744,0 -2.26938,-3.73607 -1.68748,-13.403964 0,-17.430185 0.44766,-1.067822 1.94948,-3.388922 2.65701,-4.378323"
       id="path6130"
       sodipodi:nodetypes="cccccc" />
    <path
       inkscape:connector-curvature="0"
       style="clip-rule:evenodd;fill:none;fill-rule:evenodd;stroke:#2c3e50;stroke-width:1;stroke-linecap:round;stroke-miterlimit:10;stroke-dasharray:none"
       d="m 278.71636,84.642405 c -1.25503,-0.784855 -4.43163,-1.686709 -8.31707,-1.688648 -4.832,-0.0024 -8.3689,1.032298 -9.44623,2.150179"
       id="path6132"
       sodipodi:nodetypes="csc" />
    <ellipse
       style="clip-rule:evenodd;fill:#ecf0f1;fill-rule:evenodd"
       cx="270.03253"
       cy="105.42824"
       rx="4.0362082"
       ry="0.63847077"
       id="ellipse6134" />
    <g
       id="g6136"
       transform="matrix(0.66123987,0,0,0.6535013,249.46928,73.864779)">
      <path
         inkscape:connector-curvature="0"
         style="fill:#2c3e50"
         d="m 22.698,25.092 c 0.162,0.164 0.295,0.352 0.399,0.553 -0.036,0.027 -0.078,0.049 -0.109,0.08 -1.203,1.203 0.718,5.7 5.495,10.478 0.545,0.544 1.083,1.046 1.615,1.515 -0.363,0 -0.691,0 -1.025,0 -0.366,-0.335 -0.728,-0.675 -1.079,-1.026 -4.167,-4.167 -7.362,-9.591 -5.496,-11.456 0.06,-0.058 0.135,-0.095 0.2,-0.144 z"
         id="path6138" />
      <path
         inkscape:connector-curvature="0"
         style="fill:#2c3e50"
         d="m 28.905,37.903 c -0.368,-0.338 -0.733,-0.68 -1.086,-1.033 -4.195,-4.194 -7.546,-9.76 -5.496,-11.81 0.057,-0.057 0.118,-0.097 0.167,-0.128 l 0.233,-0.168 0.152,0.153 c 0.174,0.175 0.323,0.381 0.444,0.613 l 0.097,0.186 -0.25,0.187 c -0.51,0.51 -0.298,1.893 0.552,3.611 0.994,2.006 2.749,4.319 4.943,6.514 0.512,0.512 1.052,1.018 1.604,1.504 l 0.496,0.438 -1.784,0 -0.072,-0.067 z M 28.307,36.38 c -2.231,-2.232 -4.021,-4.592 -5.038,-6.645 -0.974,-1.967 -1.149,-3.437 -0.494,-4.149 -0.036,-0.056 -0.074,-0.108 -0.114,-0.159 -1.698,1.748 1.531,7.109 5.511,11.089 0.325,0.325 0.661,0.641 0.999,0.952 l 0.275,0 c -0.389,-0.356 -0.771,-0.72 -1.139,-1.088 z"
         id="path6140" />
    </g>
    <path
       id="path6142"
       d="m 278.53937,81.783442 c -1.25503,-0.784855 -4.43163,-1.688648 -8.31707,-1.688648 -4.82838,0 -8.90197,1.108482 -8.90197,2.458615"
       style="clip-rule:evenodd;fill:none;fill-rule:evenodd;stroke:#2c3e50;stroke-width:1;stroke-linecap:round;stroke-miterlimit:10;stroke-dasharray:none"
       inkscape:connector-curvature="0"
       sodipodi:nodetypes="csc" />
    <line
       style="fill:none;stroke:#2c3e50;stroke-width:1;stroke-linecap:round;stroke-linejoin:round;stroke-miterlimit:10;stroke-dasharray:none"
       x1="261.31433"
       y1="82.5261"
       x2="261.31433"
       y2="84.257317"
       id="line6144" />
    <line
       style="fill:none;stroke:#2c3e50;stroke-width:1;stroke-linecap:round;stroke-linejoin:round;stroke-miterlimit:10;stroke-dasharray:none"
       x1="278.60297"
       y1="81.838188"
       x2="278.60297"
       y2="84.21138"
       id="line6146" />
  </g>
  <g
     transform="translate(108,0)"
     id="g6148"
     style="filter:url(#filter6250)">
    <g
       transform="matrix(0.66123987,0,0,0.6535013,249.46928,73.864779)"
       id="g6150">
      <path
         id="path6152"
         d="m 38.963,41.7 c 1.203,-1.203 -0.718,-5.701 -5.496,-10.479 -0.396,-0.395 -0.788,-0.764 -1.178,-1.12 0.216,-0.121 0.434,-0.234 0.657,-0.332 0.342,0.315 0.681,0.635 1.01,0.964 4.167,4.167 7.361,9.591 5.496,11.457 -1.709,1.708 -6.399,-0.831 -10.378,-4.47 0.334,0 0.662,0 1.025,0 4.143,3.653 7.797,5.046 8.864,3.98 z"
         style="fill:#2c3e50"
         inkscape:connector-curvature="0" />
      <path
         id="path6154"
         d="m 28.905,37.903 -0.475,-0.434 1.763,0 0.071,0.062 c 4.106,3.623 7.619,4.893 8.521,3.992 l 0,0 c 0.51,-0.51 0.298,-1.894 -0.552,-3.611 -0.994,-2.006 -2.749,-4.319 -4.943,-6.514 -0.393,-0.393 -0.783,-0.76 -1.17,-1.113 l -0.256,-0.234 0.303,-0.169 c 0.223,-0.124 0.448,-0.24 0.678,-0.342 l 0.15,-0.066 0.121,0.111 c 0.345,0.317 0.686,0.64 1.017,0.971 4.194,4.194 7.546,9.76 5.496,11.811 -0.424,0.424 -0.997,0.613 -1.675,0.613 -2.39,-10e-4 -6.073,-2.355 -9.049,-5.077 z m 3.812,-7.748 c 0.307,0.284 0.616,0.579 0.927,0.89 2.232,2.231 4.021,4.592 5.038,6.646 0.992,2.003 1.154,3.489 0.458,4.187 l 0,0 0,0 c -1.27,1.269 -5.104,-0.374 -9.134,-3.908 l -0.277,0 c 3.671,3.227 8.003,5.587 9.547,4.044 1.731,-1.732 -1.505,-7.112 -5.496,-11.104 -0.287,-0.287 -0.582,-0.567 -0.88,-0.844 -0.063,0.027 -0.123,0.058 -0.183,0.089 z"
         style="fill:#2c3e50"
         inkscape:connector-curvature="0" />
    </g>
    <g
       transform="matrix(0.66123987,0,0,0.6535013,249.46928,73.864779)"
       id="g6156">
      <path
         id="path6158"
         d="M 42.279,33.13 C 40.622,31.738 36.089,30.804 31,30.804 c -5.892,0 -11.987,1.34 -11.987,3.584 0,0.44 0.238,0.863 0.708,1.257 1.657,1.392 6.19,2.327 11.28,2.327 5.892,10e-4 11.987,-1.34 11.987,-3.584 -10e-4,-0.44 -0.239,-0.863 -0.709,-1.258 z M 31,37.391 c -4.841,0 -9.278,-0.887 -10.791,-2.157 -0.335,-0.282 -0.505,-0.566 -0.505,-0.847 10e-4,-1.451 4.54,-3.004 11.296,-3.004 4.841,0 9.278,0.886 10.79,2.157 0.336,0.282 0.506,0.567 0.506,0.847 0,1.452 -4.54,3.005 -11.296,3.004 z"
         style="fill:#2c3e50"
         inkscape:connector-curvature="0" />
      <path
         id="path6160"
         d="m 31,38.222 c -5.144,0 -9.741,-0.959 -11.44,-2.386 -0.529,-0.444 -0.797,-0.932 -0.797,-1.448 0,-2.491 6.305,-3.835 12.237,-3.835 5.144,0 9.742,0.959 11.44,2.386 l 0,0 c 0.529,0.443 0.797,0.932 0.797,1.449 0,2.49 -6.305,3.834 -12.237,3.834 z m 0,-7.169 c -6.472,0 -11.737,1.496 -11.737,3.335 0,0.362 0.208,0.721 0.619,1.065 1.616,1.357 6.084,2.269 11.119,2.269 6.472,0 11.737,-1.496 11.737,-3.334 0,-0.363 -0.208,-0.722 -0.619,-1.066 l 0,0 C 40.504,31.965 36.036,31.053 31,31.053 Z m 0,6.588 c -4.895,0 -9.398,-0.911 -10.951,-2.215 -0.395,-0.332 -0.595,-0.682 -0.595,-1.038 0,-1.824 5.072,-3.254 11.546,-3.254 4.895,0 9.399,0.911 10.951,2.215 0.395,0.332 0.595,0.682 0.595,1.039 -10e-4,1.824 -5.072,3.253 -11.546,3.253 z m 0,-6.007 c -6.843,0 -11.045,1.605 -11.046,2.754 0,0.202 0.14,0.423 0.417,0.655 1.471,1.235 5.842,2.098 10.629,2.098 6.843,0 11.045,-1.604 11.045,-2.753 0,-0.203 -0.14,-0.424 -0.417,-0.656 C 40.159,32.497 35.788,31.634 31,31.634 Z"
         style="fill:#2c3e50"
         inkscape:connector-curvature="0" />
    </g>
    <g
       transform="matrix(0.66123987,0,0,0.6535013,249.46928,73.864779)"
       id="g6162">
      <path
         id="path6164"
         d="m 24.75,24.762 c 2.234,0.396 5.397,2.432 8.196,5.006 -0.223,0.099 -0.442,0.211 -0.657,0.332 -4.197,-3.834 -7.967,-5.382 -9.191,-4.456 -0.104,-0.2 -0.237,-0.389 -0.399,-0.553 0.508,-0.377 1.207,-0.479 2.051,-0.329 z"
         style="fill:#2c3e50"
         inkscape:connector-curvature="0" />
      <path
         id="path6166"
         d="m 32.12,30.285 c -4.179,-3.817 -7.792,-5.252 -8.872,-4.441 l -0.236,0.179 -0.136,-0.263 c -0.098,-0.188 -0.217,-0.353 -0.355,-0.492 l -0.204,-0.204 0.232,-0.172 c 0.558,-0.416 1.313,-0.541 2.245,-0.376 l 0,0 c 2.18,0.386 5.29,2.28 8.321,5.068 l 0.28,0.258 -0.349,0.154 c -0.216,0.096 -0.428,0.205 -0.637,0.322 l -0.157,0.087 -0.132,-0.12 z m -7.413,-5.277 0,0 c -0.661,-0.117 -1.208,-0.069 -1.627,0.142 0.038,0.049 0.073,0.1 0.107,0.151 1.605,-0.759 5.339,1.061 9.139,4.494 0.059,-0.031 0.118,-0.062 0.178,-0.093 -2.839,-2.552 -5.803,-4.34 -7.797,-4.694 z"
         style="fill:#2c3e50"
         inkscape:connector-curvature="0" />
    </g>
    <path
       id="path6168"
       d="m 267.30821,96.796793 0,0 c -0.44303,0 -0.80605,-0.358119 -0.80605,-0.796618 l 0,-2.059183 c 0,-0.437845 0.36236,-0.796618 0.80605,-0.796618 l 0,0 c 0.44303,0 0.80605,0.358119 0.80605,0.796618 l 0,2.059183 c -6.6e-4,0.438499 -0.36302,0.796618 -0.80605,0.796618 z"
       style="fill:#3b97d3"
       inkscape:connector-curvature="0" />
    <path
       id="path6170"
       d="m 269.91548,96.796793 0,0 c -0.44303,0 -0.80605,-0.358119 -0.80605,-0.796618 l 0,-4.567321 c 0,-0.437845 0.36236,-0.796618 0.80605,-0.796618 l 0,0 c 0.44303,0 0.80539,0.358119 0.80539,0.796618 l 0,4.567321 c 6.6e-4,0.438499 -0.3617,0.796618 -0.80539,0.796618 z"
       style="fill:#3b97d3"
       inkscape:connector-curvature="0" />
    <path
       id="path6172"
       d="m 272.52209,96.796793 0,0 c -0.44304,0 -0.80606,-0.358119 -0.80606,-0.796618 l 0,-6.757857 c 0,-0.437846 0.36236,-0.796618 0.80606,-0.796618 l 0,0 c 0.44303,0 0.80605,0.358119 0.80605,0.796618 l 0,6.757857 c 0,0.438499 -0.36302,0.796618 -0.80605,0.796618 z"
       style="fill:#3b97d3"
       inkscape:connector-curvature="0" />
    <path
       sodipodi:nodetypes="ccccccccccscccccccccccc"
       id="path6174"
       d="m 281.01042,89.05607 c -0.47278,-1.105724 -1.70401,-3.374027 -2.41418,-4.346437 l -0.29822,-0.166304 c -0.041,-0.0562 -0.78415,-0.161966 -0.8218,-0.213593 l -0.8141,-0.23468 c -0.15605,-0.231339 0.0648,0.124687 -0.0635,-0.05764 l -2.01045,-0.383719 c 0.80275,1.141667 3.42485,4.925317 3.81961,5.884004 1.65773,4.0223 2.37253,13.686279 0.0622,17.117159 -0.44568,0.662 -0.24995,1.03907 -0.008,1.23904 0.14614,0.12024 0.31079,0.16468 0.47014,0.16468 0.009,0 0.0172,-0.003 0.0265,-0.003 l 0.0172,0.0288 c 0.0212,-0.0124 0.0383,-0.0255 0.0589,-0.0386 0.11968,-0.0137 0.2354,-0.0431 0.33326,-0.0856 l 0.005,0.008 c 0.0403,-0.0242 0.0694,-0.0418 0.0906,-0.0542 0.0807,-0.0431 0.14415,-0.0895 0.18118,-0.12482 l 0.003,-0.0425 c 0.0608,-0.0144 0.121,-0.0288 0.18448,-0.0412 0.31475,-0.0608 0.74522,-0.14443 1.00972,-0.56986 2.41088,-3.88964 1.86403,-14.116278 0.16861,-18.07911 z"
       style="opacity:0.3;fill:#bdc3c7"
       inkscape:connector-curvature="0" />
    <path
       sodipodi:nodetypes="cccccc"
       id="path6176"
       d="m 278.69108,84.59321 c 0,0 1.92952,2.657236 2.55703,4.155715 1.68749,4.026221 2.08622,13.591515 0,17.430185 -2.32425,4.27717 -20.10367,3.92428 -22.48744,0 -2.26938,-3.73607 -1.68748,-13.403964 0,-17.430185 0.44766,-1.067822 1.94948,-3.388922 2.65701,-4.378323"
       style="clip-rule:evenodd;fill:none;fill-rule:evenodd;stroke:#2c3e50;stroke-width:1;stroke-miterlimit:10;stroke-dasharray:none"
       inkscape:connector-curvature="0" />
    <path
       sodipodi:nodetypes="csc"
       id="path6178"
       d="m 278.71636,84.642405 c -1.25503,-0.784855 -4.43163,-1.686709 -8.31707,-1.688648 -4.832,-0.0024 -8.3689,1.032298 -9.44623,2.150179"
       style="clip-rule:evenodd;fill:none;fill-rule:evenodd;stroke:#2c3e50;stroke-width:1;stroke-linecap:round;stroke-miterlimit:10;stroke-dasharray:none"
       inkscape:connector-curvature="0" />
    <ellipse
       id="ellipse6180"
       ry="0.63847077"
       rx="4.0362082"
       cy="105.42824"
       cx="270.03253"
       style="clip-rule:evenodd;fill:#ecf0f1;fill-rule:evenodd" />
    <g
       transform="matrix(0.66123987,0,0,0.6535013,249.46928,73.864779)"
       id="g6182">
      <path
         id="path6184"
         d="m 22.698,25.092 c 0.162,0.164 0.295,0.352 0.399,0.553 -0.036,0.027 -0.078,0.049 -0.109,0.08 -1.203,1.203 0.718,5.7 5.495,10.478 0.545,0.544 1.083,1.046 1.615,1.515 -0.363,0 -0.691,0 -1.025,0 -0.366,-0.335 -0.728,-0.675 -1.079,-1.026 -4.167,-4.167 -7.362,-9.591 -5.496,-11.456 0.06,-0.058 0.135,-0.095 0.2,-0.144 z"
         style="fill:#2c3e50"
         inkscape:connector-curvature="0" />
      <path
         id="path6186"
         d="m 28.905,37.903 c -0.368,-0.338 -0.733,-0.68 -1.086,-1.033 -4.195,-4.194 -7.546,-9.76 -5.496,-11.81 0.057,-0.057 0.118,-0.097 0.167,-0.128 l 0.233,-0.168 0.152,0.153 c 0.174,0.175 0.323,0.381 0.444,0.613 l 0.097,0.186 -0.25,0.187 c -0.51,0.51 -0.298,1.893 0.552,3.611 0.994,2.006 2.749,4.319 4.943,6.514 0.512,0.512 1.052,1.018 1.604,1.504 l 0.496,0.438 -1.784,0 -0.072,-0.067 z M 28.307,36.38 c -2.231,-2.232 -4.021,-4.592 -5.038,-6.645 -0.974,-1.967 -1.149,-3.437 -0.494,-4.149 -0.036,-0.056 -0.074,-0.108 -0.114,-0.159 -1.698,1.748 1.531,7.109 5.511,11.089 0.325,0.325 0.661,0.641 0.999,0.952 l 0.275,0 c -0.389,-0.356 -0.771,-0.72 -1.139,-1.088 z"
         style="fill:#2c3e50"
         inkscape:connector-curvature="0" />
    </g>
    <path
       sodipodi:nodetypes="csc"
       inkscape:connector-curvature="0"
       style="clip-rule:evenodd;fill:none;fill-rule:evenodd;stroke:#2c3e50;stroke-width:1;stroke-linecap:round;stroke-miterlimit:10;stroke-dasharray:none"
       d="m 278.53937,81.783442 c -1.25503,-0.784855 -4.43163,-1.688648 -8.31707,-1.688648 -4.82838,0 -8.90197,1.108482 -8.90197,2.458615"
       id="path6188" />
    <line
       id="line6190"
       y2="84.257317"
       x2="261.31433"
       y1="82.5261"
       x1="261.31433"
       style="fill:none;stroke:#2c3e50;stroke-width:1;stroke-linecap:round;stroke-linejoin:round;stroke-miterlimit:10;stroke-dasharray:none" />
    <line
       id="line6192"
       y2="84.21138"
       x2="278.60297"
       y1="81.838188"
       x1="278.60297"
       style="fill:none;stroke:#2c3e50;stroke-width:1;stroke-linecap:round;stroke-linejoin:round;stroke-miterlimit:10;stroke-dasharray:none" />
  </g>
  <path
     style="fill:#ffffff;fill-rule:evenodd;stroke:none;stroke-width:1px;stroke-linecap:butt;stroke-linejoin:miter;stroke-opacity:1"
     d="m 238.75198,83.261441 0.60158,18.129599 4.67105,4.81368 5.20372,1.19887 7.20175,0 29.81222,-0.0734 33.22382,-1e-5 47.67968,0.0821 3.9425,-0.94452 2.7515,-2.38193 1.4785,-2.54621 0.7803,-2.58726 0.041,-2.91582 0.082,-14.579056 -2.2999,-4.887059 22.2177,0.985623 -5.2567,42.012322 -54.4559,9.56879 -105.36937,-19.25182 z"
     id="path7580"
     inkscape:connector-curvature="0"
     sodipodi:nodetypes="cccccccccccccccccccc" />
  <rect
     style="fill:#ecf0f1;fill-opacity:1;stroke:#000000;stroke-width:1;stroke-miterlimit:4;stroke-dasharray:none"
     id="rect5666"
     width="120.36695"
     height="288.46561"
     x="247.41406"
     y="117.26973" />
  <path
     style="fill:#fab492"
     inkscape:connector-curvature="0"
     id="path1075-6-5"
     d="m 236.34617,336.24524 c 0,0 4.31054,4.1177 5.57435,4.10048 2.96057,-0.0441 5.48908,-5.19534 5.76866,-8.54068 0.13203,-1.7674 -3.35023,-5.9731 -3.35023,-5.9731 l -10.55832,0.4784 z"
     class="cls-85"
     sodipodi:nodetypes="cccccc" />
  <path
     style="fill:#c18141"
     inkscape:connector-curvature="0"
     id="path911-5"
     d="m 368.1784,331.01562 c 0,0 -0.36,4.48 0.58,5.49 2.19,2.37 10.11,4.32 12.69,2.37 1.36,-1 1.85,-6.55 1.85,-6.55 l -8,-8.23 z"
     class="cls-71" />
  <polygon
     transform="translate(-105.31154,4.175616)"
     style="fill:#414042"
     id="polygon913-4"
     points="497.99,455.74 513.14,446.89 530.97,446.89 530.97,446.89 531.1,455.74 "
     class="cls-72" />
  <polygon
     transform="translate(-105.31154,4.175616)"
     style="fill:#2c3e50"
     id="polygon915-7"
     points="510.87,446.89 506.62,388.61 528.83,388.61 528.83,388.61 528.7,446.89 "
     class="cls-7" />
  <polygon
     transform="translate(-105.31154,4.175616)"
     style="fill:#2c3e50"
     id="polygon917-4"
     points="535.15,446.89 530.9,388.61 553.11,388.61 553.11,388.61 552.99,446.89 "
     class="cls-7" />
  <path
     style="fill:#414042"
     inkscape:connector-curvature="0"
     id="path919-4"
     d="m 395.6184,189.95562 c -2.07,-6.72 10.83,-19.24 16.51,-19.91 7.2,-0.85 20.87,11.85 24.29,19.91 5.26,12.4 7.17,50.07 -2.92,56.16 -5.73,3.46 -6.87,-24.25 -6.87,-24.25 0,0 -3.73,-17.25 -7,-21.2 -4.65,-5.49 -21.7,-3.21 -24.01,-10.71 z"
     class="cls-72" />
  <path
     style="fill:#ecf0f1"
     inkscape:connector-curvature="0"
     id="path921-3"
     d="m 452.0884,281.93562 0.21,10.05 0.54,26.18 1.17,56.9 q 0.26,12.73 0.53,25.47 l -54.58,0 -1.27,-103.43 c 0,0 -2.23,11.35 -3.46,15 -2.47,7.34 -11.59,21 -11.59,21 l -8.5,-8.74 c 0,0 3.39,-9.69 5.09,-16.64 3.86,-15.86 8.23,-48.38 14.32,-61.34 3.6,-7.66 16.25,-12.76 16.25,-12.76 l 2.89,0 1.15,15.57 14.47,-15.57 c 1,-1.12 10.92,4.27 12.2,5 a 35.27,35.27 0 0 1 10,8.45 c 3.67,4.62 5.53,10.39 6.83,16.06 1.38,6 3.25,13 2.26,19.17 -1,6.45 -5.76,9.85 -11.62,11.81 -13.73,4.59 -28.65,3.63 -43,2 l 0.11,-14.93 c 9.75,6.05 19.82,11.8 30.79,15.14"
     class="cls-1" />
  <path
     style="fill:#c18141"
     inkscape:connector-curvature="0"
     id="path923-0"
     d="m 429.1084,238.68562 0,-17.3 c 0,0 6.47,-7.79 8,-10.77 2,-3.77 5.38,-16.15 5.38,-16.15 l -44.6,-15.77 -1.54,1.92 c 0,0 -2.93,27 0,35.38 1.22,3.48 5.6,10.84 9.23,11.54 1.75,0.33 6.85,0.74 6.85,0.74 l 2,21.56 z"
     class="cls-71" />
  <path
     style="fill:#231f20"
     inkscape:connector-curvature="0"
     id="path925-7"
     d="m 394.8284,185.44562 c -2.62,-6.72 13.7,-19.24 20.88,-19.91 9.11,-0.85 26.39,11.85 30.72,19.91 6.65,12.4 9.07,50.07 -3.7,56.16 -7.25,3.46 -8.68,-24.25 -8.68,-24.25 0,0 -4.71,-17.25 -8.89,-21.2 -5.85,-5.51 -27.41,-3.22 -30.33,-10.71 z"
     class="cls-73" />
  <line
     style="fill:none;stroke:#bdc3c7;stroke-width:1.66999996px;stroke-miterlimit:10"
     id="line927-8"
     y2="283.45563"
     x2="414.68848"
     y1="252.28561"
     x1="414.68848"
     class="cls-74" />
  <line
     style="fill:none;stroke:#bdc3c7;stroke-width:1.66999996px;stroke-miterlimit:10"
     id="line929-6"
     y2="299.17563"
     x2="414.68848"
     y1="400.52563"
     x1="414.68848"
     class="cls-74" />
  <polygon
     transform="translate(-105.31154,4.175616)"
     style="fill:#231f20"
     id="polygon931-8"
     points="520,455.74 535.15,446.89 552.99,446.89 552.99,446.89 553.11,455.74 "
     class="cls-73" />
  <path
     style="fill:#c18141"
     inkscape:connector-curvature="0"
     id="path933-8"
     d="m 409.0384,283.03562 c 0,0 -3.61,-4.12 -5.3,-4.16 -3.94,-0.1 -12.38,5.17 -12.86,9.08 -0.26,2.06 4.16,7.19 4.16,7.19 l 14,0 z"
     class="cls-71" />
  <path
     style="fill:#2980ba"
     inkscape:connector-curvature="0"
     id="path1053-8"
     d="m 176.2126,428.44307 -5.15971,16.9208 c 0,0 8.45013,14.39041 11.74604,3.58175 l 3.29591,-10.80865 z"
     class="cls-83" />
  <path
     style="fill:#2c3e50"
     inkscape:connector-curvature="0"
     id="path1055-7"
     d="m 169.06278,444.83664 c 0,0 -3.16,7.27 -3.46,9.83 -0.28,2.4 28.66,1.9 34,-1 3,-1.62 -2.07,-5.49 -5.19,-6.88 -7.16,-3.21 -25.35,-1.95 -25.35,-1.95 z"
     class="cls-7" />
  <path
     style="fill:#3b97d3"
     inkscape:connector-curvature="0"
     id="path1077-1"
     d="m 206.97347,434.34449 -1.8561,17.59236 c 0,0 11.02658,12.52609 12.21221,1.28846 l 1.18564,-11.23763 z"
     class="cls-6" />
  <path
     style="fill:#2c3e50"
     inkscape:connector-curvature="0"
     id="path1083-4"
     d="m 203.6104,449.16958 c 0,0 -3,7.27 -3.33,9.83 -0.27,2.4 27.57,1.9 32.71,-1 2.85,-1.62 -2,-5.49 -5,-6.88 -6.87,-3.22 -24.38,-1.95 -24.38,-1.95 z"
     class="cls-7" />
  <path
     style="fill:#2e4155"
     inkscape:connector-curvature="0"
     id="path1059-7"
     d="m 214.20389,276.50077 c 0,0 -26.05,13.74001 -38.79,13.00001 l 0.11,12.33 c 17.23,-2.8 38.75,-12.53 38.75,-12.53 z"
     class="cls-84" />
  <path
     style="fill:#fab492"
     inkscape:connector-curvature="0"
     id="path1061-2"
     d="m 194.30389,239.31077 0,-14.74 c 0,0 -5.51,-6.64 -6.84,-9.17 -1.67,-3.22 -4.58,-13.76 -4.58,-13.76 l 38,-13.43 1.31,1.64 c 0,0 2.49,23 0,30.14 -1,3 -4.77,9.24 -7.86,9.83 -1.49,0.28 -5.84,0.63 -5.84,0.63 l -1.7,18.37 z"
     class="cls-85" />
  <path
     style="fill:#35495e"
     inkscape:connector-curvature="0"
     id="path1057-1"
     d="m 194.75388,324.61372 c -4,2 -19.0947,-2.82763 -15.5647,-0.008 1.47589,15.49823 0.13771,53.84406 -0.6517,61.22111 0.17177,7.48823 -10.0547,52.86767 -10.0547,52.86767 l 18.78529,0.36235 c 0,0 14.88883,-21.17179 19.82058,-56.04826 1.16328,-10.89991 -2.08634,-6.55816 0.45086,-16.82686 4.22416,-17.09627 3.08071,-40.69717 -5.5221,-36.38015 z"
     class="cls-64"
     sodipodi:nodetypes="ccccccscc" />
  <path
     style="fill:#2c3e50"
     inkscape:connector-curvature="0"
     id="path1081-9"
     d="m 205.28034,324.61372 c -4.22,2 -28.82314,-1.48607 -25.10314,1.33393 6.15646,4.66371 11.96809,12.39497 16.72986,21.3846 5.76503,10.88363 9.99122,23.61174 11.42746,34.97381 -2.42099,42.65496 -4.94118,58.4641 -4.94118,58.4641 l 16.71,3.18 c 0,0 15.35,-54.64 7.35,-87.97 -2.41,-10.35 -7.643,-38.27644 -22.173,-31.36644 z"
     class="cls-7"
     sodipodi:nodetypes="ccsccccc" />
  <path
     style="fill:#3b97d3"
     inkscape:connector-curvature="0"
     id="path1063-7"
     d="m 206.46389,249.06077 -12.32,-13.26 c 0,0 -18.56,8.36 -23.05,13.27 -9.63,10.51 -20.64,36.82001 -16.21,47.64001 6.57,16.08 59.16,-7.71 59.16,-7.71 l -0.07,-12.72001 c 0,0 -34.12,18.00001 -43.36,11.59001 -1.72,-1.18 -0.66,-6.37 0,-8.35001 0.58,-1.75 4.42,-5.9 4.42,-5.9 l 0.49,53.07001 44.71,0 0,-36.85 c 0,0 1.9,9.67 2.95,12.78 2.1,6.25 10.81,24.08 10.81,24.08 l 10.81,0 c 0,0 -7.4,-21.84 -8.84,-27.77 -3.29,-13.51 -3.28,-38.47001 -8.47,-49.51001 -3.08,-6.53 -17.61,-13.62 -17.61,-13.62 l -2.43,0 z"
     class="cls-6" />
  <path
     style="fill:#2980ba"
     inkscape:connector-curvature="0"
     id="path1065-2"
     d="M 175.46389,245.68077"
     class="cls-83" />
  <path
     style="fill:#2980ba;fill-opacity:1"
     inkscape:connector-curvature="0"
     id="path1067-2"
     d="m 214.00389,278.04077 c 0,0 3.08,-3.51 4.51,-3.55 3.35,-0.09 10.55,4.41 11,7.74001 0.22,1.76 -3.55,6.12 -3.55,6.12 l -11.96,0 z"
     class="cls-86" />
  <path
     style="fill:#2980ba"
     inkscape:connector-curvature="0"
     id="path1069-6"
     d="m 214.01389,277.41077 c 0,0 -26.06,13.71001 -38.79,12.92001 l 0.11,12.33 c 17.23,-2.8 38.75,-12.53 38.75,-12.53 z"
     class="cls-83" />
  <path
     style="fill:#231f20"
     inkscape:connector-curvature="0"
     id="path1071-1"
     d="m 190.48389,220.31077 c -2.86,0.88 -5.94,-7.09 -6.55,-10 -0.81,-3.88 -1,-12 0,-15.85 1.17,-4.46 2.23,-14.78 22.27,-14.74 4.66,0 16.11,3.28 16.11,12.4 0,2.9 -6.71,3.91 -9.23,4.21 -3.13,0.38 -9.49,1 -12.45,2.06 -2.24,0.82 -6,6.14 -7.27,8.19 -2.21,3.64 1.21,12.47 -2.88,13.73 z"
     class="cls-73" />
  <ellipse
     style="fill:#fab492"
     id="ellipse1073-0"
     ry="4.2600002"
     rx="2.6199999"
     cy="208.52078"
     cx="192.71387"
     class="cls-85" />
  <path
     style="fill:#fab492"
     inkscape:connector-curvature="0"
     id="path1075-6"
     d="m 213.85158,277.50077 c 0,0 3.08,-3.51 4.51,-3.55 3.35,-0.09 10.55,4.41 11,7.74001 0.22,1.76 -3.55,6.12 -3.55,6.12 l -11.96,0 z"
     class="cls-85" />
  <path
     style="fill:#fab492"
     inkscape:connector-curvature="0"
     id="path1079-5"
     d="m 214.01389,276.50077 c 0,0 -26.06,13.74001 -38.8,13.00001 l 0.11,12.33 c 17.23,-2.8 38.75,-12.53 38.75,-12.53 z"
     class="cls-85" />
  <rect
     style="fill:#2980ba"
     id="rect1099-1"
     height="16.290001"
     width="8.3599997"
     y="287.88074"
     x="170.60388"
     class="cls-83" />
  <g
     id="g6573"
     transform="translate(-681.27923,-8)">
    <circle
       r="20"
       cy="203.35631"
       cx="988.87677"
       id="path5719"
       style="fill:#ff0000;fill-opacity:1;stroke:none;stroke-width:1;stroke-miterlimit:4;stroke-dasharray:none" />
    <circle
       r="17.5"
       cy="203.35631"
       cx="988.87677"
       id="path5719-7"
       style="fill:#ffffff;fill-opacity:1;stroke:none;stroke-width:1;stroke-miterlimit:4;stroke-dasharray:none" />
    <g
       transform="translate(143.4053,54.02327)"
       id="g6538">
      <ellipse
         style="fill:#000000;fill-opacity:1;stroke:none;stroke-width:1;stroke-miterlimit:4;stroke-dasharray:none"
         id="path5707"
         cx="-851.72876"
         cy="147.25775"
         rx="2.3033004"
         ry="9.8576384"
         transform="scale(-1,1)" />
      <ellipse
         style="fill:#000000;fill-opacity:1;stroke:none;stroke-width:1;stroke-miterlimit:4;stroke-dasharray:none"
         id="path5709"
         cx="-846.73303"
         cy="147.38745"
         rx="2.2527833"
         ry="10.765578"
         transform="scale(-1,1)" />
      <ellipse
         style="fill:#000000;fill-opacity:1;stroke:none;stroke-width:1;stroke-miterlimit:4;stroke-dasharray:none"
         id="path5711"
         cx="-842.22748"
         cy="146.93349"
         rx="1.8923379"
         ry="8.7551384"
         transform="scale(-1,1)" />
      <ellipse
         style="fill:#000000;fill-opacity:1;stroke:none;stroke-width:1;stroke-miterlimit:4;stroke-dasharray:none"
         id="path5713"
         cx="-838.5329"
         cy="148.74937"
         rx="1.622004"
         ry="7.5877872"
         transform="scale(-1,1)" />
      <path
         style="fill:#000000;fill-rule:evenodd;stroke:none;stroke-width:1px;stroke-linecap:butt;stroke-linejoin:miter;stroke-opacity:1"
         d="m 845.47271,148.3592 c 3.60619,-0.049 7.78267,0.0418 7.81418,5.41528 -0.0253,5.50755 -4.31,5.63485 -7.83938,5.61817 -3.72675,-0.001 -7.74484,-0.14631 -7.81229,-5.07942 -0.0198,-5.76626 4.01764,-5.86273 7.83749,-5.95403 z"
         id="path5680-9"
         inkscape:connector-curvature="0"
         sodipodi:nodetypes="ccccc" />
      <rect
         style="fill:#000000;fill-opacity:1;stroke:none;stroke-width:1;stroke-miterlimit:4;stroke-dasharray:none"
         id="rect5717"
         width="10.765578"
         height="4.0208788"
         x="840.20789"
         y="158.02333" />
    </g>
    <path
       inkscape:connector-curvature="0"
       id="path5736"
       d="m 976.73168,190.02419 24.29962,26.7927"
       style="fill:none;fill-rule:evenodd;stroke:#ff0000;stroke-width:3;stroke-linecap:butt;stroke-linejoin:miter;stroke-miterlimit:4;stroke-dasharray:none;stroke-opacity:1" />
  </g>
  <path
     style="fill:none;fill-rule:evenodd;stroke:#000000;stroke-width:1px;stroke-linecap:butt;stroke-linejoin:miter;stroke-opacity:1"
     d="M 127.61163,408.65723 81.84804,467.33018"
     id="path6585"
     inkscape:connector-curvature="0"
     sodipodi:nodetypes="cc" />
  <path
     style="fill:none;fill-rule:evenodd;stroke:#000000;stroke-width:1px;stroke-linecap:butt;stroke-linejoin:miter;stroke-opacity:1"
     d="m 487.5905,408.63026 45.7636,58.67295"
     id="path6585-7"
     inkscape:connector-curvature="0"
     sodipodi:nodetypes="cc" />
  <path
     style="fill:none;fill-rule:evenodd;stroke:#000000;stroke-width:1px;stroke-linecap:butt;stroke-linejoin:miter;stroke-opacity:1"
     d="M 487.7548,63.376571 533.5184,4.703613"
     id="path6585-7-6"
     inkscape:connector-curvature="0"
     sodipodi:nodetypes="cc" />
  <path
     style="fill:none;fill-rule:evenodd;stroke:#000000;stroke-width:1px;stroke-linecap:butt;stroke-linejoin:miter;stroke-opacity:1"
     d="M 127.60438,63.413651 81.84078,4.740691"
     id="path6585-7-6-7"
     inkscape:connector-curvature="0"
     sodipodi:nodetypes="cc" />
  <rect
     style="fill:#ecf0f1;fill-opacity:1;stroke:#000000;stroke-width:1;stroke-miterlimit:4;stroke-dasharray:none"
     id="rect6636"
     width="17.082531"
     height="12.727758"
     x="256.82629"
     y="259.18387"
     ry="6.3638792" />
  <rect
     style="fill:none;fill-opacity:1;stroke:#000000;stroke-width:1;stroke-miterlimit:4;stroke-dasharray:none"
     id="rect6689"
     width="136.67351"
     height="33.511295"
     x="239.2608"
     y="73.777817"
     ry="9.5277205" />
  <path
     style="fill:none;fill-rule:evenodd;stroke:#000000;stroke-width:1px;stroke-linecap:round;stroke-linejoin:miter;stroke-opacity:1"
     d="m 263.68114,103.74989 12.4846,-13.141685"
     id="path7740"
     inkscape:connector-curvature="0" />
  <path
     style="fill:none;fill-rule:evenodd;stroke:#000000;stroke-width:1px;stroke-linecap:round;stroke-linejoin:miter;stroke-opacity:1"
     d="M 278.13699,102.43572 291.27867,88.636955"
     id="path7742"
     inkscape:connector-curvature="0" />
  <path
     style="fill:none;fill-rule:evenodd;stroke:#000000;stroke-width:1px;stroke-linecap:round;stroke-linejoin:miter;stroke-opacity:1"
     d="m 276.19448,97.836125 7.22793,-7.88501"
     id="path7744"
     inkscape:connector-curvature="0" />
  <path
     style="fill:none;fill-rule:evenodd;stroke:#000000;stroke-width:1px;stroke-linecap:round;stroke-linejoin:miter;stroke-opacity:1"
     d="m 324.42995,96.243905 12.4846,-13.141681"
     id="path7740-5"
     inkscape:connector-curvature="0" />
  <path
     style="fill:none;fill-rule:evenodd;stroke:#000000;stroke-width:1px;stroke-linecap:round;stroke-linejoin:miter;stroke-opacity:1"
     d="m 338.8858,94.929734 13.14168,-13.79876"
     id="path7742-6"
     inkscape:connector-curvature="0" />
  <path
     style="fill:none;fill-rule:evenodd;stroke:#000000;stroke-width:1px;stroke-linecap:round;stroke-linejoin:miter;stroke-opacity:1"
     d="m 336.94329,90.330144 7.22793,-7.88501"
     id="path7744-2"
     inkscape:connector-curvature="0" />
  <path
     style="fill:#3b97d3"
     inkscape:connector-curvature="0"
     id="path754"
     d="m 420.49472,72.228483 222.9,0 c 0.7,0.1 1.2,0.7 1.1,1.4 l 0,77.600007 c 0.1,0.7 -0.5,1.3 -1.1,1.4 l -77.4,0 c -6.86549,-0.003 -13.73923,0.008 -20.6,0 l -55.00011,0.23231 -26.83231,25.08995 3.25241,-25.32226 -46.21999,0 c -0.7,-0.1 -1.2,-0.7 -1.1,-1.4 l 0,-77.700007 c -0.2,-0.6 0.3,-1.2 1,-1.3 z"
     class="st5"
     sodipodi:nodetypes="cccccccccccccc" />
  <text
     xml:space="preserve"
     style="font-style:normal;font-weight:normal;font-size:18.75px;line-height:125%;font-family:sans-serif;letter-spacing:0px;word-spacing:0px;fill:#ffffff;fill-opacity:1;stroke:none;stroke-width:1px;stroke-linecap:butt;stroke-linejoin:miter;stroke-opacity:1;"
     x="429.87927"
     y="94.921097"
     id="text6317"
     sodipodi:linespacing="125%"><tspan
       sodipodi:role="line"
       id="tspan6319"
       x="429.87927"
       y="94.921097">This is not the place</tspan><tspan
       sodipodi:role="line"
       x="429.87927"
       y="118.3586"
       id="tspan6321">you should be looking</tspan><tspan
       sodipodi:role="line"
       x="429.87927"
       y="141.7961"
       id="tspan6323">for...</tspan></text>
</svg>
