<svg xmlns="http://www.w3.org/2000/svg" viewBox="0 0 674.47 473.4"><defs><style>.cls-1,.cls-17,.cls-39{fill:#ecf0f1;}.cls-10,.cls-11,.cls-12,.cls-13,.cls-14,.cls-15,.cls-16,.cls-2,.cls-21,.cls-22,.cls-23,.cls-24,.cls-25,.cls-26,.cls-28,.cls-29,.cls-30,.cls-31,.cls-32,.cls-34,.cls-35,.cls-36,.cls-37,.cls-38,.cls-41,.cls-43,.cls-45,.cls-46,.cls-47,.cls-48,.cls-49,.cls-5,.cls-50,.cls-51,.cls-52,.cls-55,.cls-56,.cls-57,.cls-58,.cls-59,.cls-60,.cls-61,.cls-62,.cls-65,.cls-66,.cls-67,.cls-68,.cls-69,.cls-74,.cls-75,.cls-78,.cls-79,.cls-8,.cls-80,.cls-81,.cls-82,.cls-87,.cls-88,.cls-9{fill:none;}.cls-15,.cls-17,.cls-18,.cls-19,.cls-2,.cls-20,.cls-23,.cls-24,.cls-28,.cls-3,.cls-31,.cls-34,.cls-37,.cls-39,.cls-4,.cls-40,.cls-42,.cls-43,.cls-45,.cls-50,.cls-51,.cls-54,.cls-55,.cls-76,.cls-78,.cls-79,.cls-8,.cls-80,.cls-81,.cls-87,.cls-88,.cls-9{stroke:#2c3e50;}.cls-10,.cls-11,.cls-12,.cls-13,.cls-14,.cls-15,.cls-16,.cls-17,.cls-18,.cls-19,.cls-2,.cls-20,.cls-21,.cls-22,.cls-23,.cls-24,.cls-25,.cls-26,.cls-27,.cls-28,.cls-29,.cls-3,.cls-30,.cls-31,.cls-32,.cls-34,.cls-35,.cls-36,.cls-37,.cls-38,.cls-39,.cls-4,.cls-40,.cls-41,.cls-42,.cls-43,.cls-45,.cls-46,.cls-47,.cls-48,.cls-49,.cls-5,.cls-50,.cls-51,.cls-52,.cls-53,.cls-54,.cls-55,.cls-56,.cls-57,.cls-58,.cls-59,.cls-60,.cls-61,.cls-62,.cls-63,.cls-65,.cls-67,.cls-68,.cls-74,.cls-75,.cls-76,.cls-78,.cls-79,.cls-8,.cls-81,.cls-82,.cls-87,.cls-88,.cls-9{stroke-miterlimit:10;}.cls-17,.cls-2,.cls-20,.cls-82{stroke-width:1.18px;}.cls-19,.cls-27,.cls-3,.cls-53,.cls-54,.cls-63,.cls-7{fill:#2c3e50;}.cls-3,.cls-4{stroke-width:0.32px;}.cls-4{fill:#26b99a;}.cls-30,.cls-5{stroke:#7f8c8d;}.cls-5{stroke-width:0.82px;}.cls-6,.cls-76{fill:#3b97d3;}.cls-8{stroke-width:0.73px;}.cls-9{stroke-width:0.6px;}.cls-10,.cls-11,.cls-12,.cls-16,.cls-25,.cls-26,.cls-29,.cls-32,.cls-36,.cls-38,.cls-41,.cls-47,.cls-52,.cls-60,.cls-67,.cls-68,.cls-75,.cls-82{stroke:#3b97d3;}.cls-10{stroke-width:0.67px;}.cls-11{stroke-width:0.6px;}.cls-12{stroke-width:0.66px;}.cls-13,.cls-14,.cls-56,.cls-65,.cls-66,.cls-69{stroke:#ecf0f1;}.cls-13{stroke-width:0.92px;}.cls-14{stroke-width:0.73px;}.cls-15{stroke-width:1.1px;}.cls-16{stroke-width:0.91px;}.cls-18,.cls-33,.cls-77{fill:#bdc3c7;}.cls-18,.cls-76{stroke-width:1.18px;}.cls-19{stroke-width:1.23px;}.cls-20,.cls-40,.cls-42,.cls-70{fill:#fff;}.cls-21,.cls-22,.cls-48,.cls-49{stroke:#95a5a5;}.cls-21,.cls-23{stroke-width:0.37px;}.cls-22{stroke-width:1.1px;}.cls-24{stroke-width:0.74px;}.cls-25,.cls-28,.cls-30{stroke-width:0.25px;}.cls-26,.cls-31{stroke-width:0.82px;}.cls-27,.cls-53,.cls-58,.cls-59,.cls-61,.cls-63{stroke:#fff;}.cls-27{stroke-width:0.18px;}.cls-29{stroke-width:0.41px;}.cls-32{stroke-width:0.63px;}.cls-34,.cls-35,.cls-36{stroke-width:1.15px;}.cls-35,.cls-46,.cls-74{stroke:#bdc3c7;}.cls-37{stroke-width:0.66px;}.cls-38{stroke-width:0.54px;}.cls-39,.cls-40,.cls-54{stroke-width:1.44px;}.cls-41{stroke-width:0.71px;}.cls-42,.cls-43{stroke-width:1.33px;}.cls-44{fill:#955ba5;}.cls-45,.cls-46,.cls-47{stroke-width:1.29px;}.cls-48,.cls-50{stroke-width:0.82px;}.cls-49{stroke-width:2.46px;}.cls-51{stroke-width:1.64px;}.cls-52{stroke-width:0.56px;}.cls-53{stroke-width:0.41px;}.cls-55,.cls-74{stroke-width:1.67px;}.cls-56,.cls-58{stroke-width:0.8px;}.cls-57{stroke:#35495e;stroke-width:2.41px;}.cls-59{stroke-width:1.61px;}.cls-60,.cls-61,.cls-62{stroke-width:0.32px;}.cls-62{stroke:#955ba5;}.cls-63{stroke-width:0.4px;}.cls-64{fill:#35495e;}.cls-65,.cls-69{stroke-width:0.98px;}.cls-66,.cls-69,.cls-80,.cls-81{stroke-linecap:round;}.cls-66,.cls-69,.cls-80{stroke-linejoin:round;}.cls-66{stroke-width:1px;}.cls-67{stroke-width:0.64px;}.cls-68{stroke-width:0.45px;}.cls-71{fill:#c18141;}.cls-72{fill:#414042;}.cls-73{fill:#231f20;}.cls-75{stroke-width:1.07px;}.cls-77{opacity:0.3;}.cls-78,.cls-79,.cls-80,.cls-81{stroke-width:1.92px;}.cls-78,.cls-81{fill-rule:evenodd;}.cls-83{fill:#2980ba;}.cls-84{fill:#2e4155;}.cls-85{fill:#fab492;}.cls-86{fill:#95a5a5;}.cls-87{stroke-width:4.31px;}.cls-88{stroke-width:2.87px;}</style></defs><title>cap-error</title><g id="Upload-2"><rect class="cls-1" x="538.4" y="153.14" width="21.87" height="21.87" rx="1" ry="1"/><rect class="cls-1" x="538.39" y="128.93" width="21.87" height="21.87" rx="1" ry="1"/><rect class="cls-1" x="538.39" y="104.91" width="21.87" height="21.87" rx="1" ry="1"/><path class="cls-1" d="M565.34,101.34h82.14a0,0,0,0,1,0,0v74.12a0,0,0,0,1,0,0H565.34a1,1,0,0,1-1-1V102.34a1,1,0,0,1,1-1Z" transform="translate(1211.81 276.8) rotate(-180)"/><rect class="cls-2" x="532.08" y="101.34" width="115.4" height="74.12" rx="1" ry="1"/><path class="cls-3" d="M532.08,169.88h115.4a0,0,0,0,1,0,0v4.58a1,1,0,0,1-1,1H533.08a1,1,0,0,1-1-1v-4.58A0,0,0,0,1,532.08,169.88Z"/><circle class="cls-4" cx="642.77" cy="173.13" r="1.13"/><line class="cls-5" x1="574.18" y1="115.36" x2="574.18" y2="159"/><line class="cls-5" x1="589.56" y1="115.36" x2="589.56" y2="159"/><line class="cls-5" x1="604.95" y1="115.36" x2="604.95" y2="159"/><line class="cls-5" x1="620.33" y1="115.36" x2="620.33" y2="159"/><line class="cls-5" x1="635.71" y1="115.36" x2="635.71" y2="159"/><circle class="cls-6" cx="553.34" cy="113.29" r="0.7"/><circle class="cls-6" cx="551.16" cy="113.23" r="0.7"/><circle class="cls-7" cx="546.16" cy="117.31" r="0.7"/><circle class="cls-7" cx="543.83" cy="115.95" r="0.7"/><circle class="cls-7" cx="543.83" cy="118.38" r="0.7"/><circle class="cls-7" cx="546.16" cy="120.07" r="0.7"/><circle class="cls-7" cx="548.37" cy="119.04" r="0.7"/><circle class="cls-7" cx="543.83" cy="120.89" r="0.7"/><circle class="cls-6" cx="553.34" cy="111.44" r="0.7"/><circle class="cls-6" cx="555.48" cy="112.6" r="0.7"/><circle class="cls-7" cx="545.46" cy="122.1" r="0.7"/><circle class="cls-7" cx="540.81" cy="119.24" r="0.7"/><circle class="cls-6" cx="551.16" cy="109.94" r="0.7"/><circle class="cls-6" cx="547.24" cy="147.49" r="0.7"/><circle class="cls-6" cx="543.63" cy="143.77" r="0.7"/><circle class="cls-7" cx="552.95" cy="140.61" r="0.7"/><circle class="cls-7" cx="546.54" cy="137.54" r="0.7"/><circle class="cls-7" cx="541.14" cy="143.07" r="0.7"/><circle class="cls-7" cx="541.84" cy="139.17" r="0.7"/><circle class="cls-7" cx="546.54" cy="145.13" r="0.7"/><circle class="cls-7" cx="548.17" cy="139.91" r="0.7"/><circle class="cls-6" cx="551.5" cy="137.54" r="0.7"/><circle class="cls-6" cx="553.65" cy="138.69" r="0.7"/><circle class="cls-7" cx="543.63" cy="148.19" r="0.7"/><circle class="cls-7" cx="540.44" cy="147.49" r="0.7"/><circle class="cls-6" cx="549.33" cy="136.03" r="0.7"/><circle class="cls-6" cx="547.97" cy="167.99" r="0.7"/><circle class="cls-6" cx="551.58" cy="164.27" r="0.7"/><circle class="cls-7" cx="542.26" cy="161.11" r="0.7"/><circle class="cls-7" cx="548.67" cy="158.03" r="0.7"/><circle class="cls-7" cx="554.07" cy="163.57" r="0.7"/><circle class="cls-7" cx="553.38" cy="159.67" r="0.7"/><circle class="cls-7" cx="548.67" cy="165.63" r="0.7"/><circle class="cls-7" cx="547.05" cy="160.41" r="0.7"/><circle class="cls-6" cx="543.71" cy="158.03" r="0.7"/><circle class="cls-6" cx="541.56" cy="159.19" r="0.7"/><circle class="cls-7" cx="551.58" cy="168.69" r="0.7"/><circle class="cls-7" cx="554.77" cy="167.99" r="0.7"/><circle class="cls-6" cx="545.88" cy="156.53" r="0.7"/><polyline class="cls-8" points="574.18 152.91 589.56 144.78 604.95 139.17 620.33 136.03 635.71 143.07"/><polyline class="cls-9" points="574.18 155.06 589.56 149.63 604.95 145.89 620.33 143.79 635.71 148.49"/><polyline class="cls-10" points="574.18 136.67 589.56 129.95 604.95 125.32 620.33 122.73 635.71 128.54"/><polyline class="cls-11" points="574.18 159.78 589.56 154.31 604.95 150.54 620.33 148.44 635.71 153.17"/><polyline class="cls-12" points="574.18 143.12 589.56 149.66 604.95 154.17 620.33 156.69 635.71 151.03"/><line class="cls-13" x1="533.14" y1="24.2" x2="647.7" y2="24.2"/><line class="cls-13" x1="533.14" y1="32.53" x2="647.7" y2="32.53"/><line class="cls-14" x1="599.02" y1="17.72" x2="599.02" y2="90.75"/><line class="cls-14" x1="590.6" y1="17.72" x2="590.6" y2="90.75"/><line class="cls-14" x1="582.18" y1="17.72" x2="582.18" y2="90.75"/><line class="cls-14" x1="573.75" y1="17.72" x2="573.75" y2="90.75"/><line class="cls-14" x1="565.33" y1="17.72" x2="565.33" y2="90.75"/><line class="cls-14" x1="556.91" y1="17.72" x2="556.91" y2="90.75"/><line class="cls-14" x1="548.48" y1="17.72" x2="548.48" y2="90.75"/><line class="cls-14" x1="540.06" y1="17.72" x2="540.06" y2="90.75"/><line class="cls-14" x1="641.14" y1="17.72" x2="641.14" y2="90.75"/><line class="cls-14" x1="632.72" y1="17.72" x2="632.72" y2="90.75"/><line class="cls-14" x1="624.29" y1="17.72" x2="624.29" y2="90.75"/><line class="cls-14" x1="615.87" y1="17.72" x2="615.87" y2="90.75"/><line class="cls-14" x1="607.45" y1="17.72" x2="607.45" y2="90.75"/><line class="cls-13" x1="533.14" y1="40.87" x2="647.7" y2="40.87"/><line class="cls-13" x1="533.14" y1="49.2" x2="647.7" y2="49.2"/><line class="cls-13" x1="533.14" y1="57.53" x2="647.7" y2="57.53"/><line class="cls-13" x1="533.14" y1="65.87" x2="647.7" y2="65.87"/><line class="cls-13" x1="533.14" y1="74.2" x2="647.7" y2="74.2"/><line class="cls-13" x1="533.14" y1="82.53" x2="647.7" y2="82.53"/><polygon class="cls-15" points="539.62 89.26 574.04 65.89 574.04 83.25 606.53 59.68 606.53 70.5 638 50.88 638 89.26 539.62 89.26"/><polygon class="cls-16" points="539.62 90.1 574.94 70.03 574.94 84.94 608.28 64.71 608.28 74 640.57 57.15 640.57 90.1 539.62 90.1"/><circle class="cls-4" cx="643.6" cy="89.93" r="1.13"/><path class="cls-17" d="M532.9,17.72H648.3a0,0,0,0,1,0,0V40.79a1,1,0,0,1-1,1H533.9a1,1,0,0,1-1-1V17.72a0,0,0,0,1,0,0Z" transform="translate(1181.2 59.5) rotate(180)"/><path class="cls-18" d="M534.41,40.87s7.89-13.22,8.57-14,16.49-2.18,17.39-2.18,5,4,5.77,5.08,8.31,2.78,8.31,2.78,10.09-3.22,10.77-3.25,5.84-4.61,5.84-4.61l8.31,5.08,6.86,2.16,6.33-2.16h4.52l9.94-1,6.78,3.75,4,1.44,9.57,7Z"/><path class="cls-19" d="M533.14,41.34l14.86-2,3.77-3.1L556.17,35a3.61,3.61,0,0,1,.71-2.08c.67-.64,6,0,6,0s6.21-.64,7.1-1.4A13.57,13.57,0,0,1,573.52,30h7.12l4.86,4.64h9.77l8-1.71L608.15,30l4-.26s6,4.43,6.66,4.77,5.33,4.08,5.33,4.08l6.21-2.41,3.33-1.67,5.39,4.77,2.19,1.52h2.88"/><rect class="cls-2" x="532.9" y="17.33" width="115.4" height="74.12" rx="1" ry="1"/><path class="cls-3" d="M532.9,85.87H648.3a0,0,0,0,1,0,0v4.58a1,1,0,0,1-1,1H533.9a1,1,0,0,1-1-1V85.87A0,0,0,0,1,532.9,85.87Z"/><circle class="cls-4" cx="643.6" cy="89.12" r="1.13"/><path class="cls-1" d="M406,101.79h12a0,0,0,0,1,0,0v74.12a0,0,0,0,1,0,0H406a1,1,0,0,1-1-1V102.79a1,1,0,0,1,1-1Z"/><rect class="cls-2" x="404.97" y="101.79" width="115.4" height="74.12" rx="1" ry="1" transform="translate(925.33 277.7) rotate(-180)"/><path class="cls-3" d="M405,170.33h115.4a0,0,0,0,1,0,0v4.58a1,1,0,0,1-1,1H406a1,1,0,0,1-1-1v-4.58a0,0,0,0,1,0,0Z"/><circle class="cls-4" cx="515.66" cy="173.58" r="1.13"/><rect class="cls-6" x="430.49" y="111.77" width="15.38" height="4.61" rx="1" ry="1"/><rect class="cls-7" x="450.41" y="111.77" width="15.38" height="4.61" rx="1" ry="1"/><rect class="cls-6" x="471.11" y="111.77" width="15.38" height="4.61" rx="1" ry="1"/><rect class="cls-7" x="491.04" y="111.77" width="15.38" height="4.61" rx="1" ry="1"/><rect class="cls-6" x="430.49" y="120.47" width="15.38" height="4.61" rx="1" ry="1"/><rect class="cls-7" x="450.41" y="120.47" width="15.38" height="4.61" rx="1" ry="1"/><rect class="cls-6" x="491.04" y="129.18" width="15.38" height="4.61" rx="1" ry="1" transform="translate(997.46 262.96) rotate(180)"/><rect class="cls-7" x="471.11" y="129.18" width="15.38" height="4.61" rx="1" ry="1" transform="translate(957.61 262.96) rotate(180)"/><rect class="cls-6" x="450.41" y="129.18" width="15.38" height="4.61" rx="1" ry="1" transform="translate(916.21 262.96) rotate(180)"/><rect class="cls-7" x="430.49" y="129.18" width="15.38" height="4.61" rx="1" ry="1" transform="translate(876.36 262.96) rotate(180)"/><rect class="cls-6" x="491.04" y="120.47" width="15.38" height="4.61" rx="1" ry="1" transform="translate(997.46 245.55) rotate(180)"/><rect class="cls-7" x="471.11" y="120.47" width="15.38" height="4.61" rx="1" ry="1" transform="translate(957.61 245.55) rotate(180)"/><rect class="cls-6" x="491.04" y="138.4" width="15.38" height="4.61" rx="1" ry="1" transform="translate(997.46 281.41) rotate(-180)"/><rect class="cls-7" x="471.11" y="138.4" width="15.38" height="4.61" rx="1" ry="1" transform="translate(957.61 281.41) rotate(-180)"/><rect class="cls-6" x="450.41" y="138.4" width="15.38" height="4.61" rx="1" ry="1" transform="translate(916.21 281.41) rotate(-180)"/><rect class="cls-7" x="430.49" y="138.4" width="15.38" height="4.61" rx="1" ry="1" transform="translate(876.36 281.41) rotate(-180)"/><rect class="cls-6" x="491.04" y="147.1" width="15.38" height="4.61" rx="1" ry="1" transform="translate(997.46 298.81) rotate(-180)"/><rect class="cls-7" x="471.11" y="147.1" width="15.38" height="4.61" rx="1" ry="1" transform="translate(957.61 298.81) rotate(-180)"/><rect class="cls-6" x="430.49" y="155.8" width="15.38" height="4.61" rx="1" ry="1"/><rect class="cls-7" x="450.41" y="155.8" width="15.38" height="4.61" rx="1" ry="1"/><rect class="cls-6" x="471.11" y="155.8" width="15.38" height="4.61" rx="1" ry="1"/><rect class="cls-7" x="491.04" y="155.8" width="15.38" height="4.61" rx="1" ry="1"/><rect class="cls-6" x="430.49" y="147.1" width="15.38" height="4.61" rx="1" ry="1"/><rect class="cls-7" x="450.41" y="147.1" width="15.38" height="4.61" rx="1" ry="1"/><rect class="cls-20" x="405.21" y="17.64" width="115.4" height="74.12" rx="1" ry="1" transform="translate(925.82 109.41) rotate(-180)"/><circle class="cls-21" cx="494.31" cy="37.43" r="3.26"/><circle class="cls-22" cx="494.31" cy="37.43" r="5.06"/><polygon class="cls-23" points="485.93 39.68 488.17 43.57 492.06 45.81 496.55 45.81 500.44 43.57 502.69 39.68 502.69 35.19 500.44 31.3 496.55 29.05 492.06 29.05 488.17 31.3 485.93 35.19 485.93 39.68"/><polygon class="cls-24" points="483.6 40.3 486.47 45.27 491.44 48.14 497.18 48.14 502.14 45.27 505.01 40.3 505.01 34.56 502.14 29.59 497.18 26.72 491.44 26.72 486.47 29.59 483.6 34.56 483.6 40.3"/><polygon class="cls-24" points="481.57 40.84 484.99 46.75 490.89 50.16 497.72 50.16 503.63 46.75 507.04 40.84 507.04 34.02 503.63 28.11 497.72 24.7 490.89 24.7 484.99 28.11 481.57 34.02 481.57 40.84"/><path class="cls-25" d="M494.38,37.33A9.33,9.33,0,0,0,503.71,28"/><path class="cls-26" d="M494.53,37.33A9.49,9.49,0,0,0,485,46.82"/><path class="cls-25" d="M494.53,37.48c4.66,0,8.43-4.31,8.43-9.64"/><path class="cls-25" d="M494.76,37.41c5.29,0,9.57-3.7,9.57-8.28"/><path class="cls-26" d="M494.76,37.48c4.11,0,7.44-4.35,7.44-9.72"/><path class="cls-25" d="M494.53,37.48c-3.86,0-7,4.52-7,10.1"/><path class="cls-25" d="M494.45,37.33c-6.46,0-11.69,2.14-11.69,4.78"/><path class="cls-25" d="M494.45,37.33c3.19,0,5.77,4,5.77,8.88"/><path class="cls-25" d="M494.53,37.26c-1,0-1.9-4.72-1.9-10.55"/><path class="cls-25" d="M494.38,37.48c2.18,0,3.95-5.7,3.95-12.76"/><path class="cls-25" d="M494.53,37.48c.29,0,.53-2.31.53-5.16"/><path class="cls-25" d="M494.53,37.33c1.55,0,2.81,2,2.81,4.48"/><circle class="cls-27" cx="494.31" cy="37.43" r="0.6"/><path class="cls-3" d="M406.21,86.19h113.4a1,1,0,0,1,1,1v4.58a0,0,0,0,1,0,0H405.21a0,0,0,0,1,0,0V87.19A1,1,0,0,1,406.21,86.19Z" transform="translate(925.82 177.95) rotate(-180)"/><circle class="cls-4" cx="409.91" cy="89.43" r="1.13"/><circle class="cls-21" cx="463.26" cy="37.43" r="3.26"/><circle class="cls-22" cx="463.26" cy="37.43" r="5.06"/><polygon class="cls-23" points="465.51 45.81 469.4 43.57 471.64 39.68 471.64 35.19 469.4 31.3 465.51 29.05 461.02 29.05 457.13 31.3 454.88 35.19 454.88 39.68 457.13 43.57 461.02 45.81 465.51 45.81"/><polygon class="cls-24" points="466.13 48.14 471.1 45.27 473.97 40.3 473.97 34.56 471.1 29.59 466.13 26.72 460.39 26.72 455.43 29.59 452.56 34.56 452.56 40.3 455.43 45.27 460.39 48.14 466.13 48.14"/><polygon class="cls-24" points="466.68 50.16 472.58 46.75 476 40.84 476 34.02 472.58 28.11 466.68 24.7 459.85 24.7 453.94 28.11 450.53 34.02 450.53 40.84 453.94 46.75 459.85 50.16 466.68 50.16"/><path class="cls-25" d="M463.16,37.36A9.33,9.33,0,0,0,453.83,28"/><path class="cls-26" d="M463.16,37.21a9.49,9.49,0,0,0,9.49,9.49"/><path class="cls-25" d="M463.16,37.29c0,6.46,2.14,11.69,4.78,11.69"/><path class="cls-25" d="M463.16,37.29c0-3.19,4-5.77,8.88-5.77"/><path class="cls-25" d="M463.09,37.21c0,1-4.72,1.9-10.55,1.9"/><path class="cls-25" d="M463.32,37.36c0-2.18-5.7-3.95-12.76-3.95"/><path class="cls-25" d="M463.32,37.21c0-.29-2.31-.53-5.16-.53"/><path class="cls-25" d="M463.16,37.21c0-1.55,2-2.81,4.48-2.81"/><circle class="cls-27" cx="463.26" cy="37.43" r="0.6"/><circle class="cls-21" cx="432.22" cy="37.43" r="3.26"/><circle class="cls-22" cx="432.22" cy="37.43" r="5.06"/><polygon class="cls-23" points="434.47 45.81 438.36 43.57 440.6 39.68 440.6 35.19 438.36 31.3 434.47 29.05 429.98 29.05 426.09 31.3 423.84 35.19 423.84 39.68 426.09 43.57 429.98 45.81 434.47 45.81"/><polygon class="cls-24" points="435.09 48.14 440.06 45.27 442.93 40.3 442.93 34.56 440.06 29.59 435.09 26.72 429.35 26.72 424.38 29.59 421.51 34.56 421.51 40.3 424.38 45.27 429.35 48.14 435.09 48.14"/><polygon class="cls-24" points="435.63 50.16 441.54 46.75 444.96 40.84 444.96 34.02 441.54 28.11 435.63 24.7 428.81 24.7 422.9 28.11 419.49 34.02 419.49 40.84 422.9 46.75 428.81 50.16 435.63 50.16"/><path class="cls-25" d="M432.12,37.36A9.33,9.33,0,0,0,422.78,28"/><path class="cls-25" d="M432.12,37.29c0,6.46,2.14,11.69,4.78,11.69"/><path class="cls-28" d="M432.12,37.29c0-3.19,4-5.77,8.88-5.77"/><path class="cls-28" d="M432,37.21c0,1-4.72,1.9-10.55,1.9"/><path class="cls-28" d="M432.27,37.36c0-2.18-5.7-3.95-12.76-3.95"/><path class="cls-25" d="M432.27,37.21c0-.29-2.31-.53-5.16-.53"/><path class="cls-29" d="M432.12,37.21c0-1.55,2-2.81,4.48-2.81"/><circle class="cls-27" cx="432.22" cy="37.43" r="0.6"/><circle class="cls-21" cx="432.91" cy="66.18" r="3.26"/><circle class="cls-22" cx="432.91" cy="66.18" r="5.06"/><polygon class="cls-23" points="441.29 63.93 439.05 60.04 435.16 57.8 430.67 57.8 426.78 60.04 424.53 63.93 424.53 68.42 426.78 72.31 430.67 74.56 435.16 74.56 439.05 72.31 441.29 68.42 441.29 63.93"/><polygon class="cls-24" points="443.62 63.31 440.75 58.34 435.78 55.47 430.04 55.47 425.07 58.34 422.2 63.31 422.2 69.05 425.07 74.02 430.04 76.89 435.78 76.89 440.75 74.02 443.62 69.05 443.62 63.31"/><polygon class="cls-24" points="445.64 62.77 442.23 56.86 436.32 53.45 429.5 53.45 423.59 56.86 420.18 62.77 420.18 69.59 423.59 75.5 429.5 78.91 436.32 78.91 442.23 75.5 445.64 69.59 445.64 62.77"/><path class="cls-25" d="M432.84,66.28a9.33,9.33,0,0,0-9.34,9.34"/><path class="cls-28" d="M432.69,66.13c-4.66,0-8.43,4.31-8.43,9.64"/><path class="cls-28" d="M432.69,66.13c3.86,0,7-4.52,7-10.1"/><path class="cls-28" d="M432.77,66.28c6.46,0,11.69-2.14,11.69-4.78"/><path class="cls-28" d="M432.77,66.28c-3.19,0-5.77-4-5.77-8.88"/><path class="cls-25" d="M432.69,66.35c1,0,1.9,4.72,1.9,10.55"/><path class="cls-25" d="M432.84,66.13c-2.18,0-3.95,5.7-3.95,12.76"/><path class="cls-25" d="M432.69,66.13c-.29,0-.53,2.31-.53,5.16"/><path class="cls-25" d="M432.69,66.28c-1.55,0-2.81-2-2.81-4.48"/><circle class="cls-27" cx="432.91" cy="66.18" r="0.6"/><circle class="cls-21" cx="463.95" cy="66.18" r="3.26"/><circle class="cls-22" cx="463.95" cy="66.18" r="5.06"/><polygon class="cls-23" points="461.71 57.8 457.82 60.04 455.57 63.93 455.57 68.42 457.82 72.31 461.71 74.56 466.2 74.56 470.09 72.31 472.33 68.42 472.33 63.93 470.09 60.04 466.2 57.8 461.71 57.8"/><polygon class="cls-24" points="461.08 55.47 456.12 58.34 453.25 63.31 453.25 69.05 456.12 74.02 461.08 76.89 466.82 76.89 471.79 74.02 474.66 69.05 474.66 63.31 471.79 58.34 466.82 55.47 461.08 55.47"/><polygon class="cls-24" points="460.54 53.45 454.63 56.86 451.22 62.77 451.22 69.59 454.63 75.5 460.54 78.91 467.37 78.91 473.27 75.5 476.69 69.59 476.69 62.77 473.27 56.86 467.37 53.45 460.54 53.45"/><path class="cls-30" d="M464.05,66.25a9.33,9.33,0,0,0,9.34,9.34"/><path class="cls-31" d="M464.05,66.4a9.49,9.49,0,0,0-9.49-9.49"/><path class="cls-25" d="M464.05,66.32c0-6.46-2.14-11.69-4.78-11.69"/><path class="cls-30" d="M464.05,66.32c0,3.19-4,5.77-8.88,5.77"/><path class="cls-25" d="M464.13,66.4c0-1,4.72-1.9,10.55-1.9"/><path class="cls-25" d="M463.9,66.25c0,2.18,5.7,3.95,12.76,3.95"/><path class="cls-25" d="M463.9,66.4c0,.29,2.31.53,5.16.53"/><path class="cls-25" d="M464.05,66.4c0,1.55-2,2.81-4.48,2.81"/><circle class="cls-27" cx="463.95" cy="66.18" r="0.6"/><circle class="cls-21" cx="494.99" cy="66.18" r="3.26"/><circle class="cls-22" cx="494.99" cy="66.18" r="5.06"/><polygon class="cls-23" points="492.75 57.8 488.86 60.04 486.62 63.93 486.62 68.42 488.86 72.31 492.75 74.56 497.24 74.56 501.13 72.31 503.38 68.42 503.38 63.93 501.13 60.04 497.24 57.8 492.75 57.8"/><polygon class="cls-24" points="492.13 55.47 487.16 58.34 484.29 63.31 484.29 69.05 487.16 74.02 492.13 76.89 497.87 76.89 502.83 74.02 505.7 69.05 505.7 63.31 502.83 58.34 497.87 55.47 492.13 55.47"/><polygon class="cls-24" points="491.58 53.45 485.67 56.86 482.26 62.77 482.26 69.59 485.67 75.5 491.58 78.91 498.41 78.91 504.31 75.5 507.73 69.59 507.73 62.77 504.31 56.86 498.41 53.45 491.58 53.45"/><path class="cls-25" d="M495.09,66.25a9.33,9.33,0,0,0,9.34,9.34"/><path class="cls-25" d="M495.09,66.32c0-6.46-2.14-11.69-4.78-11.69"/><path class="cls-25" d="M495.09,66.32c0,3.19-4,5.77-8.88,5.77"/><path class="cls-25" d="M495.17,66.4c0-1,4.72-1.9,10.55-1.9"/><path class="cls-25" d="M494.94,66.25c0,2.18,5.7,3.95,12.76,3.95"/><path class="cls-25" d="M494.94,66.4c0,.29,2.31.53,5.16.53"/><path class="cls-25" d="M495.09,66.4c0,1.55-2,2.81-4.48,2.81"/><circle class="cls-27" cx="494.99" cy="66.18" r="0.6"/><rect class="cls-1" x="152.15" y="69.2" width="21.87" height="21.87" rx="1" ry="1"/><rect class="cls-1" x="152.14" y="44.99" width="21.87" height="21.87" rx="1" ry="1"/><rect class="cls-1" x="152.14" y="20.97" width="21.87" height="21.87" rx="1" ry="1"/><path class="cls-1" d="M179.09,17.4h82.14a0,0,0,0,1,0,0V91.52a0,0,0,0,1,0,0H179.09a1,1,0,0,1-1-1V18.4A1,1,0,0,1,179.09,17.4Z" transform="translate(439.31 108.92) rotate(-180)"/><path class="cls-1" d="M20,17.4H55.13a0,0,0,0,1,0,0V91.52a0,0,0,0,1,0,0H20a1,1,0,0,1-1-1V18.4a1,1,0,0,1,1-1Z"/><path class="cls-32" d="M24.54,36.75l4-6a11.91,11.91,0,0,0,3.05-3.4c.76-1.65,5.18-2.62,5.18-2.62l6.11-.87,3.47,1.61,1.77,1"/><rect class="cls-2" x="19.07" y="17.4" width="115.4" height="74.12" rx="1" ry="1"/><path class="cls-3" d="M19.07,85.94h115.4a0,0,0,0,1,0,0v4.58a1,1,0,0,1-1,1H20.07a1,1,0,0,1-1-1V85.94A0,0,0,0,1,19.07,85.94Z"/><circle class="cls-4" cx="131.48" cy="89.19" r="1.13"/><circle class="cls-20" cx="104.59" cy="48.96" r="22.49"/><circle class="cls-2" cx="98.48" cy="71.45" r="7.84"/><circle class="cls-20" cx="78.62" cy="73.95" r="5.34"/><line class="cls-20" x1="78.6" y1="79.29" x2="99.23" y2="79.29"/><circle class="cls-20" cx="85.61" cy="61" r="2.62"/><circle class="cls-20" cx="102.14" cy="26.48" r="2.62"/><circle class="cls-20" cx="121.72" cy="63.61" r="2.62"/><circle class="cls-20" cx="98.48" cy="70.68" r="2.62"/><rect class="cls-7" x="24.54" y="34.31" width="1.84" height="2.44"/><rect class="cls-7" x="27.59" y="33.27" width="1.84" height="3.49"/><rect class="cls-7" x="30.65" y="29.78" width="1.84" height="6.97"/><rect class="cls-7" x="33.7" y="26.5" width="1.84" height="10.25"/><rect class="cls-7" x="36.75" y="25.47" width="1.84" height="11.28"/><rect class="cls-7" x="39.8" y="24.73" width="1.84" height="12.02"/><rect class="cls-7" x="42.86" y="24.73" width="1.84" height="12.02"/><rect class="cls-7" x="45.91" y="27.35" width="1.84" height="9.41"/><path class="cls-33" d="M23.63,53l3.46-1.68L29.5,49a2,2,0,0,1,2.09-1.12H35a44.5,44.5,0,0,0,4.83-1.68c.35-.15,0-1.07,1-1.07s2.6-.92,3.46-.92h3.46l1-1.37V53Z"/><path class="cls-6" d="M23.63,53l3.46-.92,2.41-1.31s.37-.61,2.09-.61H35c.5,0,4.48-.83,4.83-.92s0-.58,1-.58,2.6-.5,3.46-.5h3.46l1-.75V53Z"/><path class="cls-7" d="M23.63,53l3.05-.46,2.13-.65s.33-.31,1.84-.31h3.05c.45,0,4-.42,4.26-.46s0-.29.92-.29,2.29-.25,3.05-.25H45l.92-.38V53Z"/><path class="cls-7" d="M29.2,64a5.4,5.4,0,1,0,5.4,5.4H29.2Z"/><path class="cls-6" d="M29.68,63.43v5.4h5.4A5.4,5.4,0,0,0,29.68,63.43Z"/><path class="cls-34" d="M43.78,74.48a5.09,5.09,0,0,1,0-10.19"/><path class="cls-35" d="M48.09,72.09a5.09,5.09,0,0,1-4.32,2.39"/><path class="cls-36" d="M43.78,64.29a5.09,5.09,0,0,1,4.32,7.8"/><rect class="cls-20" x="275.29" y="17.4" width="115.4" height="74.12" rx="1" ry="1"/><path class="cls-3" d="M275.29,85.94h115.4a0,0,0,0,1,0,0v4.58a1,1,0,0,1-1,1H276.29a1,1,0,0,1-1-1V85.94A0,0,0,0,1,275.29,85.94Z"/><circle class="cls-4" cx="385.98" cy="89.19" r="1.13"/><rect class="cls-2" x="145.83" y="17.4" width="115.4" height="74.12" rx="1" ry="1"/><path class="cls-3" d="M145.83,85.94h115.4a0,0,0,0,1,0,0v4.58a1,1,0,0,1-1,1H146.83a1,1,0,0,1-1-1V85.94a0,0,0,0,1,0,0Z"/><circle class="cls-4" cx="256.52" cy="89.19" r="1.13"/><line class="cls-5" x1="187.93" y1="31.42" x2="187.93" y2="75.06"/><line class="cls-5" x1="203.31" y1="31.42" x2="203.31" y2="75.06"/><line class="cls-5" x1="218.7" y1="31.42" x2="218.7" y2="75.06"/><line class="cls-5" x1="234.08" y1="31.42" x2="234.08" y2="75.06"/><line class="cls-5" x1="249.46" y1="31.42" x2="249.46" y2="75.06"/><circle class="cls-6" cx="167.09" cy="29.35" r="0.7"/><circle class="cls-6" cx="164.91" cy="29.29" r="0.7"/><circle class="cls-7" cx="159.91" cy="33.37" r="0.7"/><circle class="cls-7" cx="157.58" cy="32.01" r="0.7"/><circle class="cls-7" cx="157.58" cy="34.44" r="0.7"/><circle class="cls-7" cx="159.91" cy="36.13" r="0.7"/><circle class="cls-7" cx="162.12" cy="35.1" r="0.7"/><circle class="cls-7" cx="157.58" cy="36.95" r="0.7"/><circle class="cls-6" cx="167.09" cy="27.5" r="0.7"/><circle class="cls-6" cx="169.23" cy="28.66" r="0.7"/><circle class="cls-7" cx="159.21" cy="38.16" r="0.7"/><circle class="cls-7" cx="154.56" cy="35.3" r="0.7"/><circle class="cls-6" cx="164.91" cy="26" r="0.7"/><circle class="cls-6" cx="160.99" cy="63.55" r="0.7"/><circle class="cls-6" cx="157.38" cy="59.83" r="0.7"/><circle class="cls-7" cx="166.7" cy="56.67" r="0.7"/><circle class="cls-7" cx="160.29" cy="53.6" r="0.7"/><circle class="cls-7" cx="154.89" cy="59.13" r="0.7"/><circle class="cls-7" cx="155.58" cy="55.23" r="0.7"/><circle class="cls-7" cx="160.29" cy="61.19" r="0.7"/><circle class="cls-7" cx="161.91" cy="55.97" r="0.7"/><circle class="cls-6" cx="165.25" cy="53.6" r="0.7"/><circle class="cls-6" cx="167.4" cy="54.75" r="0.7"/><circle class="cls-7" cx="157.38" cy="64.25" r="0.7"/><circle class="cls-7" cx="154.19" cy="63.55" r="0.7"/><circle class="cls-6" cx="163.08" cy="52.09" r="0.7"/><circle class="cls-6" cx="161.72" cy="84.05" r="0.7"/><circle class="cls-6" cx="165.33" cy="80.33" r="0.7"/><circle class="cls-7" cx="156.01" cy="77.17" r="0.7"/><circle class="cls-7" cx="162.42" cy="74.09" r="0.7"/><circle class="cls-7" cx="167.82" cy="79.63" r="0.7"/><circle class="cls-7" cx="167.13" cy="75.73" r="0.7"/><circle class="cls-7" cx="162.42" cy="81.69" r="0.7"/><circle class="cls-7" cx="160.8" cy="76.47" r="0.7"/><circle class="cls-6" cx="157.46" cy="74.09" r="0.7"/><circle class="cls-6" cx="155.31" cy="75.25" r="0.7"/><circle class="cls-7" cx="165.33" cy="84.75" r="0.7"/><circle class="cls-7" cx="168.52" cy="84.05" r="0.7"/><circle class="cls-6" cx="159.63" cy="72.59" r="0.7"/><polyline class="cls-8" points="187.93 68.97 203.31 60.84 218.7 55.23 234.08 52.09 249.46 59.13"/><polyline class="cls-37" points="187.93 70.33 203.31 63.71 218.7 59.14 234.08 56.59 249.46 62.32"/><polyline class="cls-9" points="187.93 71.12 203.31 65.69 218.7 61.95 234.08 59.85 249.46 64.55"/><polyline class="cls-10" points="187.93 52.73 203.31 46.01 218.7 41.38 234.08 38.79 249.46 44.6"/><polyline class="cls-11" points="187.93 75.84 203.31 70.38 218.7 66.6 234.08 64.5 249.46 69.23"/><polyline class="cls-38" points="187.93 63.67 203.31 59.19 218.7 56.09 234.08 54.36 249.46 58.25"/><polyline class="cls-10" points="187.93 51.84 203.31 45.12 218.7 40.49 234.08 37.9 249.46 43.72"/><polyline class="cls-38" points="187.93 53.62 203.31 49.13 218.7 46.04 234.08 44.31 249.46 48.19"/><rect class="cls-7" x="555.86" y="316.95" width="8.01" height="21.03"/><rect class="cls-39" x="483.77" y="217.6" width="152.97" height="106.13" rx="4" ry="4"/><rect class="cls-7" x="543.34" y="337.35" width="33.04" height="2.25"/><rect class="cls-40" x="490.99" y="224.15" width="137.75" height="83.88" rx="1" ry="1"/><path class="cls-41" d="M500.06,252.76l4.45-6.74a13.35,13.35,0,0,0,3.42-3.81c.85-1.85,5.81-2.93,5.81-2.93l6.84-1,3.89,1.81,2,1.13"/><circle class="cls-42" cx="589.78" cy="266.45" r="25.2"/><circle class="cls-43" cx="582.93" cy="291.65" r="8.78"/><circle class="cls-42" cx="560.68" cy="294.45" r="5.98"/><line class="cls-42" x1="560.65" y1="300.43" x2="583.77" y2="300.43"/><circle class="cls-42" cx="568.51" cy="279.93" r="2.93"/><circle class="cls-42" cx="587.04" cy="241.24" r="2.93"/><circle class="cls-42" cx="608.98" cy="282.86" r="2.93"/><circle class="cls-42" cx="582.93" cy="290.78" r="2.93"/><rect class="cls-7" x="500.06" y="250.02" width="2.07" height="2.74"/><rect class="cls-7" x="503.48" y="248.85" width="2.07" height="3.91"/><rect class="cls-7" x="506.91" y="244.95" width="2.07" height="7.81"/><rect class="cls-7" x="510.33" y="241.27" width="2.07" height="11.49"/><rect class="cls-7" x="513.75" y="240.12" width="2.07" height="12.64"/><rect class="cls-7" x="517.17" y="239.29" width="2.07" height="13.47"/><rect class="cls-7" x="520.59" y="239.29" width="2.07" height="13.47"/><rect class="cls-7" x="524.01" y="242.22" width="2.07" height="10.54"/><path class="cls-33" d="M499,271l3.88-1.88,2.71-2.68a2.26,2.26,0,0,1,2.34-1.26h3.88a49.88,49.88,0,0,0,5.41-1.88c.39-.17,0-1.2,1.17-1.2s2.91-1,3.88-1h3.88l1.17-1.54V271Z"/><path class="cls-44" d="M499,271l3.88-1,2.71-1.46s.42-.69,2.34-.69h3.88c.57,0,5-.93,5.41-1s0-.65,1.17-.65,2.91-.56,3.88-.56h3.88l1.17-.84V271Z"/><path class="cls-7" d="M499,271l3.42-.51,2.39-.73s.37-.34,2.07-.34h3.42c.5,0,4.43-.47,4.78-.51s0-.33,1-.33,2.57-.28,3.42-.28H523l1-.42V271Z"/><path class="cls-7" d="M505.28,283.28a6.05,6.05,0,1,0,6.05,6.05h-6.05Z"/><path class="cls-6" d="M505.82,282.66v6.05h6.05A6.05,6.05,0,0,0,505.82,282.66Z"/><path class="cls-45" d="M521.63,295a5.71,5.71,0,0,1,0-11.42"/><path class="cls-46" d="M526.46,292.37a5.7,5.7,0,0,1-4.84,2.68"/><path class="cls-47" d="M521.63,283.63a5.71,5.71,0,0,1,4.84,8.74"/><path class="cls-1" d="M276.29,100.37h12a0,0,0,0,1,0,0v74.12a0,0,0,0,1,0,0h-12a1,1,0,0,1-1-1V101.37a1,1,0,0,1,1-1Z"/><rect class="cls-2" x="275.29" y="100.37" width="115.4" height="74.12" rx="1" ry="1" transform="translate(665.97 274.85) rotate(-180)"/><path class="cls-3" d="M275.29,168.91h115.4a0,0,0,0,1,0,0v4.58a1,1,0,0,1-1,1H276.29a1,1,0,0,1-1-1v-4.58A0,0,0,0,1,275.29,168.91Z"/><circle class="cls-4" cx="385.98" cy="172.15" r="1.13"/><rect class="cls-6" x="300.81" y="110.35" width="15.38" height="4.61" rx="1" ry="1"/><rect class="cls-7" x="320.73" y="110.35" width="15.38" height="4.61" rx="1" ry="1"/><rect class="cls-6" x="341.43" y="110.35" width="15.38" height="4.61" rx="1" ry="1"/><rect class="cls-7" x="361.36" y="110.35" width="15.38" height="4.61" rx="1" ry="1"/><rect class="cls-6" x="300.81" y="119.05" width="15.38" height="4.61" rx="1" ry="1"/><rect class="cls-7" x="320.73" y="119.05" width="15.38" height="4.61" rx="1" ry="1"/><rect class="cls-6" x="361.36" y="127.75" width="15.38" height="4.61" rx="1" ry="1" transform="translate(738.1 260.11) rotate(180)"/><rect class="cls-7" x="341.43" y="127.75" width="15.38" height="4.61" rx="1" ry="1" transform="translate(698.25 260.11) rotate(180)"/><rect class="cls-6" x="320.73" y="127.75" width="15.38" height="4.61" rx="1" ry="1" transform="translate(656.85 260.11) rotate(180)"/><rect class="cls-7" x="300.81" y="127.75" width="15.38" height="4.61" rx="1" ry="1" transform="translate(617 260.11) rotate(180)"/><rect class="cls-6" x="361.36" y="119.05" width="15.38" height="4.61" rx="1" ry="1" transform="translate(738.1 242.71) rotate(180)"/><rect class="cls-7" x="341.43" y="119.05" width="15.38" height="4.61" rx="1" ry="1" transform="translate(698.25 242.71) rotate(180)"/><rect class="cls-6" x="361.36" y="136.98" width="15.38" height="4.61" rx="1" ry="1" transform="translate(738.1 278.57) rotate(-180)"/><rect class="cls-7" x="341.43" y="136.98" width="15.38" height="4.61" rx="1" ry="1" transform="translate(698.25 278.57) rotate(-180)"/><rect class="cls-6" x="320.73" y="136.98" width="15.38" height="4.61" rx="1" ry="1" transform="translate(656.85 278.57) rotate(-180)"/><rect class="cls-7" x="300.81" y="136.98" width="15.38" height="4.61" rx="1" ry="1" transform="translate(617 278.57) rotate(-180)"/><rect class="cls-6" x="361.36" y="145.68" width="15.38" height="4.61" rx="1" ry="1" transform="translate(738.1 295.97) rotate(-180)"/><rect class="cls-7" x="341.43" y="145.68" width="15.38" height="4.61" rx="1" ry="1" transform="translate(698.25 295.97) rotate(-180)"/><rect class="cls-6" x="300.81" y="154.38" width="15.38" height="4.61" rx="1" ry="1"/><rect class="cls-7" x="320.73" y="154.38" width="15.38" height="4.61" rx="1" ry="1"/><rect class="cls-6" x="341.43" y="154.38" width="15.38" height="4.61" rx="1" ry="1"/><rect class="cls-7" x="361.36" y="154.38" width="15.38" height="4.61" rx="1" ry="1"/><rect class="cls-6" x="300.81" y="145.68" width="15.38" height="4.61" rx="1" ry="1"/><rect class="cls-7" x="320.73" y="145.68" width="15.38" height="4.61" rx="1" ry="1"/><line class="cls-13" x1="146.58" y1="105.94" x2="261.13" y2="105.94"/><line class="cls-13" x1="146.58" y1="114.28" x2="261.13" y2="114.28"/><line class="cls-14" x1="212.46" y1="99.46" x2="212.46" y2="172.49"/><line class="cls-14" x1="204.03" y1="99.46" x2="204.03" y2="172.49"/><line class="cls-14" x1="195.61" y1="99.46" x2="195.61" y2="172.49"/><line class="cls-14" x1="187.19" y1="99.46" x2="187.19" y2="172.49"/><line class="cls-14" x1="178.76" y1="99.46" x2="178.76" y2="172.49"/><line class="cls-14" x1="170.34" y1="99.46" x2="170.34" y2="172.49"/><line class="cls-14" x1="161.91" y1="99.46" x2="161.91" y2="172.49"/><line class="cls-14" x1="153.49" y1="99.46" x2="153.49" y2="172.49"/><line class="cls-14" x1="254.58" y1="99.46" x2="254.58" y2="172.49"/><line class="cls-14" x1="246.15" y1="99.46" x2="246.15" y2="172.49"/><line class="cls-14" x1="237.73" y1="99.46" x2="237.73" y2="172.49"/><line class="cls-14" x1="229.3" y1="99.46" x2="229.3" y2="172.49"/><line class="cls-14" x1="220.88" y1="99.46" x2="220.88" y2="172.49"/><line class="cls-13" x1="146.58" y1="122.61" x2="261.13" y2="122.61"/><line class="cls-13" x1="146.58" y1="130.94" x2="261.13" y2="130.94"/><line class="cls-13" x1="146.58" y1="139.28" x2="261.13" y2="139.28"/><line class="cls-13" x1="146.58" y1="147.61" x2="261.13" y2="147.61"/><line class="cls-13" x1="146.58" y1="155.94" x2="261.13" y2="155.94"/><line class="cls-13" x1="146.58" y1="164.28" x2="261.13" y2="164.28"/><path class="cls-6" d="M603.79,83.38H380.92a1.28,1.28,0,0,0-1.14,1.37v77.61a1.28,1.28,0,0,0,1.14,1.37h77.37l24.44,25-3.76-25H603.79a1.28,1.28,0,0,0,1.14-1.37V84.75A1.28,1.28,0,0,0,603.79,83.38Z"/><rect class="cls-20" x="18.62" y="99.88" width="115.4" height="74.12" rx="1" ry="1"/><circle class="cls-48" cx="74.98" cy="134.3" r="7.26"/><circle class="cls-49" cx="74.98" cy="134.3" r="11.27"/><polygon class="cls-50" points="79.99 115.64 88.64 120.64 93.64 129.29 93.64 139.3 88.64 147.96 79.99 152.96 69.98 152.96 61.32 147.96 56.32 139.3 56.32 129.29 61.32 120.64 69.98 115.64 79.99 115.64"/><polygon class="cls-51" points="81.38 110.45 92.44 116.84 98.83 127.91 98.83 140.69 92.44 151.75 81.38 158.14 68.59 158.14 57.53 151.75 51.14 140.69 51.14 127.91 57.53 116.84 68.59 110.45 81.38 110.45"/><polygon class="cls-51" points="82.58 105.94 95.74 113.54 103.34 126.7 103.34 141.9 95.74 155.05 82.58 162.65 67.39 162.65 54.23 155.05 46.63 141.9 46.63 126.7 54.23 113.54 67.39 105.94 82.58 105.94"/><path class="cls-52" d="M74.76,134.45A20.78,20.78,0,0,1,54,155.25"/><path class="cls-52" d="M74.76,134.79A21.12,21.12,0,0,1,95.9,113.66"/><path class="cls-52" d="M75.1,134.79c0,10.37-9.6,18.77-21.47,18.77"/><path class="cls-52" d="M74.93,135.3c0,11.77-8.24,21.3-18.43,21.3"/><path class="cls-52" d="M75.1,135.3c0,9.16-9.68,16.57-21.64,16.57"/><path class="cls-52" d="M75.1,134.79c0-8.6,10.06-15.55,22.49-15.55"/><path class="cls-52" d="M74.76,134.62c0-14.39,4.77-26,10.65-26"/><path class="cls-52" d="M74.76,134.62c0,7.1,8.85,12.85,19.78,12.85"/><path class="cls-52" d="M74.59,134.79c0-2.34-10.51-4.23-23.5-4.23"/><path class="cls-52" d="M75.1,134.45c0,4.86-12.7,8.79-28.4,8.79"/><path class="cls-52" d="M75.1,134.79c0,.65-5.14,1.18-11.5,1.18"/><path class="cls-52" d="M74.76,134.79c0,3.46,4.46,6.26,10,6.26"/><circle class="cls-53" cx="74.98" cy="134.3" r="1.34"/><rect class="cls-7" x="386.7" y="317.45" width="8.01" height="21.03"/><rect class="cls-39" x="314.61" y="218.1" width="152.97" height="106.13" rx="4" ry="4"/><rect class="cls-54" x="321.83" y="224.65" width="137.75" height="83.88" rx="1" ry="1"/><rect class="cls-7" x="374.18" y="337.85" width="33.04" height="2.25"/><line class="cls-55" x1="-10.51" y1="343.26" x2="590.6" y2="343.26"/><path class="cls-39" d="M539.56,349.51h49a2,2,0,0,1,2,2v91.18a0,0,0,0,1,0,0h-53a0,0,0,0,1,0,0V351.51A2,2,0,0,1,539.56,349.51Z"/><rect class="cls-33" x="547.75" y="362.01" width="32.66" height="6.41" rx="1" ry="1"/><rect class="cls-33" x="547.75" y="373.86" width="32.66" height="6.41" rx="1" ry="1"/><circle class="cls-6" cx="564.08" cy="420.09" r="3.82"/><rect class="cls-7" x="216.06" y="316.97" width="8.01" height="21.03"/><rect class="cls-39" x="143.97" y="217.61" width="152.97" height="106.13" rx="4" ry="4"/><rect class="cls-7" x="203.54" y="337.37" width="33.04" height="2.25"/><rect class="cls-40" x="151.19" y="224.16" width="137.75" height="83.88" rx="1" ry="1"/><path class="cls-39" d="M478.95,349.51h49a2,2,0,0,1,2,2v91.18a0,0,0,0,1,0,0h-53a0,0,0,0,1,0,0V351.51A2,2,0,0,1,478.95,349.51Z"/><rect class="cls-33" x="487.14" y="362.01" width="32.66" height="6.41" rx="1" ry="1"/><rect class="cls-33" x="487.14" y="373.86" width="32.66" height="6.41" rx="1" ry="1"/><circle class="cls-6" cx="503.47" cy="420.09" r="3.82"/><circle class="cls-56" cx="362.91" cy="272.64" r="7.12"/><circle class="cls-57" cx="362.91" cy="272.64" r="11.05"/><polygon class="cls-58" points="358.01 290.93 349.52 286.03 344.62 277.54 344.62 267.74 349.52 259.25 358.01 254.35 367.81 254.35 376.3 259.25 381.2 267.74 381.2 277.54 376.3 286.03 367.81 290.93 358.01 290.93"/><polygon class="cls-59" points="356.65 296.01 345.8 289.75 339.54 278.9 339.54 266.38 345.8 255.53 356.65 249.27 369.17 249.27 380.02 255.53 386.28 266.38 386.28 278.9 380.02 289.75 369.17 296.01 356.65 296.01"/><polygon class="cls-59" points="355.46 300.43 342.57 292.98 335.12 280.09 335.12 265.19 342.57 252.3 355.46 244.85 370.36 244.85 383.25 252.3 390.7 265.19 390.7 280.09 383.25 292.98 370.36 300.43 355.46 300.43"/><path class="cls-60" d="M363.13,272.48a20.37,20.37,0,0,1,20.38-20.38"/><path class="cls-60" d="M363.13,272.15a20.7,20.7,0,0,1-20.71,20.72"/><path class="cls-60" d="M362.8,272.15c0-10.17,9.41-18.39,21-18.39"/><path class="cls-60" d="M363,271.66c0-11.54,8.08-20.88,18.06-20.88"/><path class="cls-60" d="M362.8,271.66c0-9,9.49-16.24,21.21-16.24"/><path class="cls-60" d="M362.8,272.15c0,8.43-9.86,15.25-22,15.25"/><path class="cls-60" d="M363.13,272.32c0,14.11-4.67,25.52-10.44,25.52"/><path class="cls-60" d="M363.13,272.32c0-7-8.67-12.59-19.39-12.59"/><path class="cls-61" d="M363.29,272.15c0,2.29,10.3,4.14,23,4.14"/><path class="cls-60" d="M362.8,272.48c0-4.76,12.45-8.62,27.84-8.62"/><path class="cls-60" d="M362.8,272.15c0-.64,5-1.16,11.27-1.16"/><path class="cls-62" d="M363.13,272.15c0-3.39-4.37-6.13-9.78-6.13"/><circle class="cls-63" cx="362.91" cy="272.64" r="1.31"/><rect class="cls-64" x="401.5" y="242.69" width="51.29" height="33.69" rx="1" ry="1"/><polyline class="cls-65" points="406.72 271.63 411.09 271.63 411.09 265.42 415.87 265.42 415.87 258.18 420.64 258.18 420.64 264.16 424.22 264.16 424.22 251.63 427.8 251.63 427.8 269.01 430.19 269.01 430.19 260.62 436.16 260.62 436.16 270.22 441.33 270.22 441.33 264.16 445.71 264.16 445.71 271.95"/><line class="cls-66" x1="406.51" y1="271.64" x2="447.38" y2="271.64"/><line class="cls-67" x1="418.18" y1="253.1" x2="418.18" y2="263.56"/><line class="cls-68" x1="413.39" y1="258.55" x2="413.39" y2="263.61"/><line class="cls-68" x1="426.21" y1="248.9" x2="426.21" y2="253.96"/><line class="cls-68" x1="432.99" y1="258.55" x2="432.99" y2="263.61"/><line class="cls-68" x1="439.04" y1="261.03" x2="439.04" y2="266.09"/><line class="cls-68" x1="443.62" y1="261.79" x2="443.62" y2="266.85"/><line class="cls-69" x1="406.51" y1="271.64" x2="406.51" y2="248.54"/><path class="cls-70" d="M330.09,230.82v1.26h2.28v.71h-2.28v1.29h2.63v.71H329.3v-4.67h3.33v.71Z"/><path class="cls-70" d="M334.45,234.78l-1.37-3.55h.8l1,2.79,1-2.79h.77l-1.36,3.55Z"/><path class="cls-70" d="M340.12,233.3h-2.68a1.08,1.08,0,0,0,1.1.89,1.38,1.38,0,0,0,1-.41l.41.43a1.93,1.93,0,0,1-1.47.6,1.8,1.8,0,1,1,0-3.6C339.71,231.21,340.22,232,340.12,233.3Zm-.67-.56a.91.91,0,0,0-1-.92,1,1,0,0,0-1,.92Z"/><path class="cls-70" d="M344.32,232.58v2.21h-.77v-2a.79.79,0,0,0-.85-.86,1,1,0,0,0-1,1v1.89h-.77v-3.55h.77v.68a1.34,1.34,0,0,1,1.31-.71A1.24,1.24,0,0,1,344.32,232.58Z"/><path class="cls-70" d="M347.36,234.56a1.71,1.71,0,0,1-.87.26.93.93,0,0,1-1-1v-1.84H345v-.57h.5v-1h.76v1h1v.57h-1v1.7c0,.37.14.48.38.48a1.22,1.22,0,0,0,.53-.15Z"/><path class="cls-70" d="M351.75,230.12a2.34,2.34,0,1,1,0,4.67h-1.89v-4.67Zm-1.13,4h1.15a1.56,1.56,0,0,0,1.6-1.62,1.59,1.59,0,0,0-1.63-1.63h-1.11Z"/><path class="cls-70" d="M355.78,230.22a.45.45,0,1,1-.45-.47A.44.44,0,0,1,355.78,230.22Zm-.83,4.56v-3.55h.76v3.55Z"/><path class="cls-70" d="M359.15,231.56l-.28.57a2.09,2.09,0,0,0-1-.31c-.3,0-.52.1-.52.35,0,.65,1.89.3,1.88,1.59,0,.73-.65,1.05-1.36,1.05a2.19,2.19,0,0,1-1.43-.49l.27-.55a1.94,1.94,0,0,0,1.19.44c.33,0,.58-.11.58-.38,0-.73-1.87-.32-1.86-1.6,0-.72.63-1,1.31-1A2.24,2.24,0,0,1,359.15,231.56Z"/><path class="cls-70" d="M363.72,233a1.64,1.64,0,0,1-1.68,1.79,1.39,1.39,0,0,1-1.25-.64v1.91H360v-4.84h.77v.61a1.39,1.39,0,0,1,1.24-.64A1.67,1.67,0,0,1,363.72,233Zm-.77,0a1.08,1.08,0,1,0-1.08,1.16A1.08,1.08,0,0,0,362.95,233Z"/><path class="cls-70" d="M364.56,234.78v-4.95h.77v4.95Z"/><path class="cls-70" d="M368.62,234.35a1.44,1.44,0,0,1-1.17.47,1.12,1.12,0,0,1-1.25-1.1c0-.65.49-1.06,1.34-1.07h1.07v-.11c0-.45-.29-.71-.85-.71a1.88,1.88,0,0,0-1,.36l-.31-.53a2.6,2.6,0,0,1,1.53-.45c.91,0,1.43.47,1.43,1.25v2.33h-.75Zm0-.81v-.33h-1c-.5,0-.73.13-.73.47s.26.53.69.53S368.57,233.92,368.61,233.54Z"/><path class="cls-70" d="M371.69,235.27a1.23,1.23,0,0,1-2,.54l.33-.59a.75.75,0,0,0,.46.17A.57.57,0,0,0,371,235l.12-.27-1.47-3.49h.79l1.06,2.69,1-2.69h.77Z"/><path class="cls-71" d="M473.49,326.84s-.36,4.48.58,5.49c2.19,2.37,10.11,4.32,12.69,2.37,1.36-1,1.85-6.55,1.85-6.55l-8-8.23Z"/><polygon class="cls-72" points="530.97 446.89 531.1 455.74 497.99 455.74 513.14 446.89 530.97 446.89"/><polygon class="cls-7" points="528.83 388.61 528.7 446.89 510.87 446.89 506.62 388.61 528.83 388.61"/><polygon class="cls-7" points="553.11 388.61 552.99 446.89 535.15 446.89 530.9 388.61 553.11 388.61"/><path class="cls-72" d="M500.93,185.78c-2.07-6.72,10.83-19.24,16.51-19.91,7.2-.85,20.87,11.85,24.29,19.91,5.26,12.4,7.17,50.07-2.92,56.16-5.73,3.46-6.87-24.25-6.87-24.25s-3.73-17.25-7-21.2C520.29,191,503.24,193.28,500.93,185.78Z"/><path class="cls-1" d="M557.4,277.76l.21,10.05.54,26.18,1.17,56.9q.26,12.73.53,25.47H505.27L504,292.93s-2.23,11.35-3.46,15c-2.47,7.34-11.59,21-11.59,21l-8.5-8.74s3.39-9.69,5.09-16.64c3.86-15.86,8.23-48.38,14.32-61.34,3.6-7.66,16.25-12.76,16.25-12.76H519l1.15,15.57,14.47-15.57c1-1.12,10.92,4.27,12.2,5a35.27,35.27,0,0,1,10,8.45c3.67,4.62,5.53,10.39,6.83,16.06,1.38,6,3.25,13,2.26,19.17-1,6.45-5.76,9.85-11.62,11.81-13.73,4.59-28.65,3.63-43,2l.11-14.93c9.75,6.05,19.82,11.8,30.79,15.14"/><path class="cls-71" d="M534.42,234.51v-17.3s6.47-7.79,8-10.77c2-3.77,5.38-16.15,5.38-16.15l-44.6-15.77-1.54,1.92s-2.93,27,0,35.38c1.22,3.48,5.6,10.84,9.23,11.54,1.75.33,6.85.74,6.85.74l2,21.56Z"/><path class="cls-73" d="M500.14,181.27c-2.62-6.72,13.7-19.24,20.88-19.91,9.11-.85,26.39,11.85,30.72,19.91,6.65,12.4,9.07,50.07-3.7,56.16-7.25,3.46-8.68-24.25-8.68-24.25s-4.71-17.25-8.89-21.2C524.62,186.47,503.06,188.76,500.14,181.27Z"/><line class="cls-74" x1="520" y1="248.11" x2="520" y2="279.28"/><line class="cls-74" x1="520" y1="396.35" x2="520" y2="295"/><polygon class="cls-73" points="552.99 446.89 553.11 455.74 520 455.74 535.15 446.89 552.99 446.89"/><path class="cls-71" d="M514.35,278.86s-3.61-4.12-5.3-4.16c-3.94-.1-12.38,5.17-12.86,9.08-.26,2.06,4.16,7.19,4.16,7.19h14Z"/><path class="cls-3" d="M18.62,168.43H134a0,0,0,0,1,0,0V173a1,1,0,0,1-1,1H19.62a1,1,0,0,1-1-1v-4.58A0,0,0,0,1,18.62,168.43Z"/><circle class="cls-4" cx="129.32" cy="171.67" r="1.13"/><rect class="cls-2" x="146.34" y="99.88" width="115.4" height="74.12" rx="1" ry="1"/><polygon class="cls-15" points="153.05 171 187.47 147.63 187.47 164.99 219.96 141.42 219.96 152.24 251.43 132.62 251.43 171 153.05 171"/><polygon class="cls-75" points="153.05 171.84 188.37 144.15 188.37 164.71 221.71 136.79 221.71 149.62 254 126.36 254 171.84 153.05 171.84"/><path class="cls-3" d="M146.34,168.43h115.4a0,0,0,0,1,0,0V173a1,1,0,0,1-1,1H147.34a1,1,0,0,1-1-1v-4.58a0,0,0,0,1,0,0Z"/><circle class="cls-4" cx="257.03" cy="171.67" r="1.13"/><path class="cls-17" d="M146.34,99.46h115.4a0,0,0,0,1,0,0v23.07a1,1,0,0,1-1,1H147.34a1,1,0,0,1-1-1V99.46A0,0,0,0,1,146.34,99.46Z" transform="translate(408.07 222.99) rotate(180)"/><path class="cls-76" d="M147.84,122.61s7.89-13.22,8.57-14,16.49-2.18,17.39-2.18,5,4,5.77,5.08,8.31,2.78,8.31,2.78S198,111.05,198.65,111s5.84-4.61,5.84-4.61l8.31,5.08,6.86,2.16,6.33-2.16h4.52l9.94-1,6.78,3.75,4,1.44,9.57,7Z"/><path class="cls-19" d="M146.58,123.08l14.86-2,3.77-3.1,4.39-1.16a3.61,3.61,0,0,1,.71-2.08c.67-.64,6,0,6,0s6.21-.64,7.1-1.4a13.57,13.57,0,0,1,3.55-1.53h7.12l4.86,4.64h9.77l8-1.71,4.88-2.94,4-.26s6,4.43,6.66,4.77,5.33,4.08,5.33,4.08l6.21-2.41,3.33-1.67,5.39,4.77,2.19,1.52h2.88"/><path class="cls-39" d="M168.87,349.76h49a2,2,0,0,1,2,2v91.18a0,0,0,0,1,0,0h-53a0,0,0,0,1,0,0V351.76A2,2,0,0,1,168.87,349.76Z"/><rect class="cls-33" x="177.06" y="362.26" width="32.66" height="6.41" rx="1" ry="1"/><rect class="cls-33" x="177.06" y="374.12" width="32.66" height="6.41" rx="1" ry="1"/><circle class="cls-6" cx="193.4" cy="420.35" r="3.82"/><path class="cls-64" d="M402.5,279.28H451.8a1,1,0,0,1,1,1v27.58a0,0,0,0,1,0,0H401.5a0,0,0,0,1,0,0V280.28A1,1,0,0,1,402.5,279.28Z"/><circle class="cls-70" cx="426.52" cy="292.73" r="0.7"/><circle class="cls-70" cx="424.2" cy="291.38" r="0.7"/><circle class="cls-70" cx="423.5" cy="294.4" r="0.7"/><circle class="cls-70" cx="426.52" cy="295.5" r="0.7"/><circle class="cls-70" cx="428.73" cy="294.46" r="0.7"/><circle class="cls-70" cx="424.2" cy="296.31" r="0.7"/><circle class="cls-70" cx="425.82" cy="297.52" r="0.7"/><circle class="cls-70" cx="421.17" cy="294.67" r="0.7"/><circle class="cls-70" cx="423.56" cy="296.17" r="0.7"/><circle class="cls-70" cx="428.04" cy="295.62" r="0.7"/><circle class="cls-70" cx="425.88" cy="295.1" r="0.7"/><circle class="cls-70" cx="423.56" cy="293.4" r="0.7"/><circle class="cls-70" cx="421.35" cy="294.43" r="0.7"/><circle class="cls-70" cx="425.19" cy="293.57" r="0.7"/><circle class="cls-70" cx="424.26" cy="291.38" r="0.7"/><circle class="cls-70" cx="428.91" cy="294.23" r="0.7"/><path class="cls-7" d="M230.14,276.05c1.4-1.4-.83-6.63-6.39-12.19-.46-.46-.92-.89-1.37-1.3.25-.14.5-.27.76-.39.4.37.79.74,1.17,1.12,4.85,4.85,8.56,11.15,6.39,13.32-2,2-7.44-1-12.07-5.2h1.19C224.65,275.67,228.9,277.29,230.14,276.05Z"/><path class="cls-7" d="M218.44,271.64l-.55-.51h2.05l.08.07c4.77,4.21,8.86,5.69,9.91,4.64h0c.59-.59.35-2.2-.64-4.2a30.76,30.76,0,0,0-5.75-7.57c-.46-.46-.91-.88-1.36-1.29l-.3-.27.35-.2c.26-.14.52-.28.79-.4l.17-.08.14.13c.4.37.8.74,1.18,1.13,4.88,4.88,8.78,11.35,6.39,13.73a2.64,2.64,0,0,1-1.95.71C226.19,277.54,221.91,274.8,218.44,271.64Zm4.43-9c.36.33.72.67,1.08,1a31.32,31.32,0,0,1,5.86,7.73c1.15,2.33,1.34,4.06.53,4.87h0c-1.48,1.48-5.94-.44-10.62-4.54h-.32c4.27,3.75,9.31,6.5,11.1,4.7,2-2-1.75-8.27-6.39-12.91-.33-.33-.68-.66-1-1Z"/><path class="cls-7" d="M234,266.09c-1.93-1.62-7.2-2.71-13.12-2.71-6.85,0-13.94,1.56-13.94,4.17a2,2,0,0,0,.82,1.46c1.93,1.62,7.2,2.71,13.12,2.71,6.85,0,13.94-1.56,13.94-4.17A2,2,0,0,0,234,266.09Zm-13.12,5c-5.63,0-10.79-1-12.55-2.51a1.36,1.36,0,0,1-.59-1c0-1.69,5.28-3.49,13.14-3.49,5.63,0,10.79,1,12.55,2.51a1.35,1.35,0,0,1,.59,1C234,269.24,228.74,271,220.88,271Z"/><path class="cls-7" d="M220.88,272c-6,0-11.33-1.12-13.3-2.77a2.22,2.22,0,0,1-.93-1.68c0-2.9,7.33-4.46,14.23-4.46,6,0,11.33,1.12,13.3,2.77h0a2.22,2.22,0,0,1,.93,1.69C235.11,270.45,227.78,272,220.88,272Zm0-8.34c-7.53,0-13.65,1.74-13.65,3.88a1.68,1.68,0,0,0,.72,1.24c1.88,1.58,7.08,2.64,12.93,2.64,7.53,0,13.65-1.74,13.65-3.88a1.68,1.68,0,0,0-.72-1.24h0C231.93,264.73,226.74,263.67,220.88,263.67Zm0,7.66c-5.69,0-10.93-1.06-12.74-2.58a1.62,1.62,0,0,1-.69-1.21c0-2.12,5.9-3.78,13.43-3.78,5.69,0,10.93,1.06,12.73,2.58a1.63,1.63,0,0,1,.69,1.21C234.31,269.67,228.41,271.33,220.88,271.33Zm0-7c-8,0-12.84,1.87-12.85,3.2a1.1,1.1,0,0,0,.48.76c1.71,1.44,6.79,2.44,12.36,2.44,8,0,12.84-1.86,12.84-3.2a1.1,1.1,0,0,0-.48-.76C231.53,265.35,226.45,264.35,220.88,264.35Z"/><path class="cls-7" d="M213.61,256.36c2.6.46,6.28,2.83,9.53,5.82-.26.11-.51.25-.76.39-4.88-4.46-9.27-6.26-10.69-5.18a2.66,2.66,0,0,0-.46-.64A3,3,0,0,1,213.61,256.36Z"/><path class="cls-7" d="M222.18,262.78c-4.86-4.44-9.06-6.11-10.32-5.16l-.27.21-.16-.31a2.36,2.36,0,0,0-.41-.57l-.24-.24.27-.2a3.28,3.28,0,0,1,2.61-.44h0c2.53.45,6.15,2.65,9.68,5.89l.33.3-.41.18c-.25.11-.5.24-.74.37l-.18.1Zm-8.62-6.14h0a3,3,0,0,0-1.89.16l.12.18c1.87-.88,6.21,1.23,10.63,5.23l.21-.11C219.33,259.13,215.88,257.05,213.56,256.64Z"/><path class="cls-6" d="M216.2,268.37h0a1.42,1.42,0,0,1-1.42-1.42v-3.66a1.42,1.42,0,0,1,1.42-1.42h0a1.42,1.42,0,0,1,1.42,1.42V267A1.42,1.42,0,0,1,216.2,268.37Z"/><path class="cls-6" d="M220.79,268.37h0a1.42,1.42,0,0,1-1.42-1.42v-8.13a1.42,1.42,0,0,1,1.42-1.42h0a1.42,1.42,0,0,1,1.42,1.42V267A1.42,1.42,0,0,1,220.79,268.37Z"/><path class="cls-6" d="M225.37,268.37h0A1.42,1.42,0,0,1,224,267v-12a1.42,1.42,0,0,1,1.42-1.42h0a1.42,1.42,0,0,1,1.42,1.42v12A1.42,1.42,0,0,1,225.37,268.37Z"/><path class="cls-77" d="M240.3,254.59a54.16,54.16,0,0,0-4.25-7.73l-1.21.87-.22-.31-.64.46-.76-1.13-1.91,1.33a54.69,54.69,0,0,1,4.41,7.36c2.92,7.16,4.17,24.36.11,30.46-.78,1.18-.44,1.85,0,2.21a1.26,1.26,0,0,0,.83.29h0l0,.05.1-.07a2.08,2.08,0,0,0,.59-.15h0l.16-.1a1.55,1.55,0,0,0,.32-.22v-.08l.32-.07a2.39,2.39,0,0,0,1.78-1C244.24,279.84,243.28,261.65,240.3,254.59Z"/><path class="cls-78" d="M206.19,245.88s-4,5.5-5.15,8.16c-3,7.16-3.67,24.19,0,31,4.09,7.61,35.36,7,39.55,0,4-6.65,3-23.85,0-31a54.88,54.88,0,0,0-4.53-7.46"/><ellipse class="cls-79" cx="221.43" cy="240.78" rx="15.38" ry="4.1"/><line class="cls-80" x1="206.06" y1="240.7" x2="206.06" y2="245.76"/><path class="cls-81" d="M236.06,246.58c-2.21,1.4-7.79,3-14.63,3-8.49,0-15.37-1.95-15.37-4.35"/><path class="cls-7" d="M211.23,256.74a2.66,2.66,0,0,1,.46.64l-.13.09c-1.4,1.4.83,6.63,6.39,12.18.63.63,1.26,1.22,1.88,1.76h-1.19c-.43-.39-.85-.78-1.25-1.19-4.85-4.85-8.56-11.15-6.39-13.32A1.94,1.94,0,0,1,211.23,256.74Z"/><path class="cls-7" d="M218.44,271.64c-.43-.39-.85-.79-1.26-1.2-4.88-4.88-8.78-11.35-6.39-13.73a1.09,1.09,0,0,1,.19-.15l.27-.2.18.18a2.9,2.9,0,0,1,.52.71l.11.22-.29.22c-.59.59-.35,2.2.64,4.2a30.76,30.76,0,0,0,5.75,7.57c.6.6,1.22,1.18,1.87,1.75l.58.51h-2.07Zm-.7-1.77a31.35,31.35,0,0,1-5.86-7.73c-1.13-2.29-1.34-4-.57-4.82l-.13-.19c-2,2,1.78,8.27,6.41,12.9.38.38.77.74,1.16,1.11h.32C218.62,270.72,218.18,270.3,217.75,269.87Z"/><polyline class="cls-82" points="336.25 27.36 336.11 32.77 324.69 32.77 324.69 65.58 324.69 72.5 336.11 72.5 336.11 76.47"/><rect class="cls-7" x="327.37" y="24.67" width="17.75" height="5.38" rx="1" ry="1"/><rect class="cls-7" x="315.82" y="49.4" width="17.75" height="5.38" rx="1" ry="1"/><rect class="cls-7" x="315.82" y="62.89" width="17.75" height="5.38" rx="1" ry="1"/><polyline class="cls-82" points="320.73 39.11 303.31 39.11 303.31 66.13 303.31 72.59 336.11 72.59 336.11 76.47 336.11 72.5 347.54 72.5 347.54 65.58 347.54 32.77 336.11 32.77 335.98 27.36"/><rect class="cls-7" x="315.82" y="36.41" width="17.75" height="5.38" rx="1" ry="1"/><rect class="cls-7" x="327.37" y="75.17" width="17.75" height="5.38" rx="1" ry="1"/><rect class="cls-7" x="294.15" y="49.4" width="17.75" height="5.38" rx="1" ry="1"/><rect class="cls-7" x="339.19" y="36.41" width="17.75" height="5.38" rx="1" ry="1"/><rect class="cls-7" x="339.19" y="62.89" width="17.75" height="5.38" rx="1" ry="1"/><rect class="cls-54" x="80.85" y="368.45" width="7.96" height="68.77" rx="1" ry="1"/><rect class="cls-54" x="40.5" y="252.65" width="7.96" height="114.24" rx="1" ry="1"/><path class="cls-83" d="M132.18,421.11V438.8s12.28,11.3,12.28,0V427.5Z"/><path class="cls-7" d="M131.22,437.47s-3.16,7.27-3.46,9.83c-.28,2.4,28.66,1.9,34-1,3-1.62-2.07-5.49-5.19-6.88C149.41,436.21,131.22,437.47,131.22,437.47Z"/><path class="cls-64" d="M69.23,338c-4,2-3.53,15.85,0,18.67,12.89,10.31,60.84-1.67,64.72,0,5.36,2.3-3.31,69.47-3.31,69.47l16.71,1.4s14.37-52.82,6.85-86.14C151.86,331,83,331.09,69.23,338Z"/><path class="cls-84" d="M106.32,289S80.27,302.74,67.53,302l.11,12.33c17.23-2.8,38.75-12.53,38.75-12.53Z"/><path class="cls-85" d="M86.42,251.81V237.07s-5.51-6.64-6.84-9.17C77.91,224.68,75,214.14,75,214.14l38-13.43,1.31,1.64s2.49,23,0,30.14c-1,3-4.77,9.24-7.86,9.83-1.49.28-5.84.63-5.84.63l-1.7,18.37Z"/><path class="cls-6" d="M98.58,261.56,86.26,248.3s-18.56,8.36-23.05,13.27C53.58,272.08,42.57,298.39,47,309.21c6.57,16.08,59.16-7.71,59.16-7.71l-.07-12.72s-34.12,18-43.36,11.59c-1.72-1.18-.66-6.37,0-8.35.58-1.75,4.42-5.9,4.42-5.9l.49,53.07h44.71V302.34s1.9,9.67,2.95,12.78c2.1,6.25,10.81,24.08,10.81,24.08h10.81s-7.4-21.84-8.84-27.77c-3.29-13.51-3.28-38.47-8.47-49.51C116.53,255.39,102,248.3,102,248.3H99.57Z"/><path class="cls-83" d="M67.58,258.18a24,24,0,0,0-4.32,3.39C53.63,272.08,42.62,298.39,47,309.21c2.37,5.79,10.71,6.4,20.4,4.82Zm-4.81,42.2c-1.72-1.18-.66-6.37,0-8.35.58-1.75,4.42-5.9,4.42-5.9l.14,15.58A9,9,0,0,1,62.76,300.38Z"/><path class="cls-86" d="M106.12,290.54s3.08-3.51,4.51-3.55c3.35-.09,10.55,4.41,11,7.74.22,1.76-3.55,6.12-3.55,6.12H106.12Z"/><path class="cls-83" d="M106.13,289.91s-26.06,13.71-38.79,12.92l.11,12.33c17.23-2.8,38.75-12.53,38.75-12.53Z"/><path class="cls-73" d="M82.6,232.81c-2.86.88-5.94-7.09-6.55-10-.81-3.88-1-12,0-15.85,1.17-4.46,2.23-14.78,22.27-14.74,4.66,0,16.11,3.28,16.11,12.4,0,2.9-6.71,3.91-9.23,4.21-3.13.38-9.49,1-12.45,2.06-2.24.82-6,6.14-7.27,8.19C83.27,222.72,86.69,231.55,82.6,232.81Z"/><ellipse class="cls-85" cx="84.83" cy="221.02" rx="2.62" ry="4.26"/><path class="cls-85" d="M106.2,290s3.08-3.51,4.51-3.55c3.35-.09,10.55,4.41,11,7.74.22,1.76-3.55,6.12-3.55,6.12H106.2Z"/><path class="cls-6" d="M139.37,422.89v17.69s12.28,11.3,12.28,0v-11.3Z"/><path class="cls-85" d="M106.13,289S80.07,302.74,67.33,302l.11,12.33c17.23-2.8,38.75-12.53,38.75-12.53Z"/><path class="cls-7" d="M69.38,338c-4.22,2-3.72,15.85,0,18.67,13.61,10.31,64.21-1.67,68.3,0,5.65,2.3-2.74,69.47-2.74,69.47l16.71,3.18S167,374.68,159,341.35C156.59,331,83.91,331.09,69.38,338Z"/><path class="cls-7" d="M138.27,440.69s-3,7.27-3.33,9.83c-.27,2.4,27.57,1.9,32.71-1,2.85-1.62-2-5.49-5-6.88C155.78,439.42,138.27,440.69,138.27,440.69Z"/><rect class="cls-54" x="41.34" y="363.75" width="83.93" height="9.4" rx="1" ry="1"/><line class="cls-87" x1="111.38" y1="445.41" x2="80.54" y2="436.62"/><line class="cls-87" x1="54.12" y1="445.41" x2="80.54" y2="436.62"/><circle class="cls-7" cx="112.82" cy="447.62" r="5.16"/><circle class="cls-7" cx="51.25" cy="447.62" r="5.16"/><line class="cls-88" x1="80.99" y1="434.25" x2="80.99" y2="454.84"/><circle class="cls-7" cx="80.99" cy="457.2" r="5.16"/><rect class="cls-83" x="62.72" y="300.38" width="8.36" height="16.29"/><path class="cls-70" d="M401.1,104.64v10.7H399v-10.7h-4v-1.91h10.1v1.91Z"/><path class="cls-70" d="M415.1,109.37v6H413v-5.38a2.13,2.13,0,0,0-2.3-2.32,2.74,2.74,0,0,0-2.74,3v4.72h-2.07V102H408v5.65a3.62,3.62,0,0,1,3.55-1.94A3.35,3.35,0,0,1,415.1,109.37Z"/><path class="cls-70" d="M420.1,103a1.21,1.21,0,1,1-1.21-1.26A1.19,1.19,0,0,1,420.1,103Zm-2.23,12.32v-9.58h2.05v9.58Z"/><path class="cls-70" d="M429.2,106.63l-.76,1.53a5.63,5.63,0,0,0-2.75-.85c-.81,0-1.4.27-1.4,1,0,1.76,5.09.81,5.08,4.29,0,2-1.75,2.84-3.67,2.84a5.93,5.93,0,0,1-3.85-1.33l.74-1.48a5.22,5.22,0,0,0,3.21,1.19c.88,0,1.57-.31,1.57-1,0-2-5-.86-5-4.32,0-1.94,1.69-2.77,3.53-2.77A6.06,6.06,0,0,1,429.2,106.63Z"/><path class="cls-70" d="M438.32,103a1.21,1.21,0,1,1-1.21-1.26A1.19,1.19,0,0,1,438.32,103Zm-2.23,12.32v-9.58h2.05v9.58Z"/><path class="cls-70" d="M447.41,106.63l-.76,1.53a5.63,5.63,0,0,0-2.75-.85c-.81,0-1.4.27-1.4,1,0,1.76,5.1.81,5.08,4.29,0,2-1.75,2.84-3.67,2.84a5.93,5.93,0,0,1-3.85-1.33l.74-1.48a5.22,5.22,0,0,0,3.21,1.19c.88,0,1.57-.31,1.57-1,0-2-5-.86-5-4.32,0-1.94,1.69-2.77,3.53-2.77A6.06,6.06,0,0,1,447.41,106.63Z"/><path class="cls-70" d="M463.47,109.37v6H461.4v-5.38a2.13,2.13,0,0,0-2.3-2.32,2.68,2.68,0,0,0-2.72,2.61v5.1H454.3v-9.58h2.07v1.84a3.62,3.62,0,0,1,3.53-1.91A3.35,3.35,0,0,1,463.47,109.37Z"/><path class="cls-70" d="M475.33,110.54a5,5,0,1,1-5-4.86A4.69,4.69,0,0,1,475.33,110.54Zm-7.92,0a2.93,2.93,0,1,0,2.93-3.1A2.89,2.89,0,0,0,467.41,110.56Z"/><path class="cls-70" d="M482.91,114.72a4.6,4.6,0,0,1-2.36.7,2.52,2.52,0,0,1-2.68-2.79v-5h-1.35v-1.55h1.35v-2.63h2.05v2.63h2.83v1.55h-2.83v4.59c0,1,.38,1.3,1,1.3a3.34,3.34,0,0,0,1.44-.41Z"/><path class="cls-70" d="M494.88,114.72a4.6,4.6,0,0,1-2.36.7,2.52,2.52,0,0,1-2.68-2.79v-5h-1.35v-1.55h1.35v-2.63h2.05v2.63h2.83v1.55h-2.83v4.59c0,1,.38,1.3,1,1.3a3.34,3.34,0,0,0,1.44-.41Z"/><path class="cls-70" d="M506.06,109.37v6H504v-5.38a2.13,2.13,0,0,0-2.3-2.32,2.74,2.74,0,0,0-2.74,3v4.72h-2.07V102h2.07v5.65a3.62,3.62,0,0,1,3.55-1.94A3.35,3.35,0,0,1,506.06,109.37Z"/><path class="cls-70" d="M517.25,111.33H510a2.92,2.92,0,0,0,3,2.39,3.72,3.72,0,0,0,2.7-1.12l1.1,1.17a5.21,5.21,0,0,1-4,1.62,4.86,4.86,0,1,1-.05-9.72C516.14,105.68,517.5,107.88,517.25,111.33Zm-1.8-1.51a2.46,2.46,0,0,0-2.67-2.48,2.73,2.73,0,0,0-2.81,2.48Z"/><path class="cls-70" d="M529.8,114.16a3.89,3.89,0,0,1-3.17,1.26c-2.07,0-3.37-1.28-3.37-3s1.31-2.86,3.62-2.88h2.9v-.29c0-1.21-.77-1.93-2.29-1.93a5,5,0,0,0-2.83,1l-.85-1.44a7,7,0,0,1,4.12-1.21c2.47,0,3.85,1.26,3.87,3.37l0,6.28h-2Zm0-2.2v-.88h-2.59c-1.35,0-2,.36-2,1.28s.7,1.42,1.85,1.42C528.54,113.78,529.67,113,529.78,112Z"/><path class="cls-70" d="M543.77,109.37v6H541.7v-5.38a2.13,2.13,0,0,0-2.3-2.32,2.68,2.68,0,0,0-2.72,2.61v5.1H534.6v-9.58h2.07v1.84a3.62,3.62,0,0,1,3.53-1.91A3.35,3.35,0,0,1,543.77,109.37Z"/><path class="cls-70" d="M552.28,114.16a3.89,3.89,0,0,1-3.17,1.26c-2.07,0-3.37-1.28-3.37-3s1.31-2.86,3.62-2.88h2.9v-.29c0-1.21-.77-1.93-2.29-1.93a5,5,0,0,0-2.83,1l-.85-1.44a7,7,0,0,1,4.12-1.21c2.47,0,3.85,1.26,3.87,3.37l0,6.28h-2Zm0-2.2v-.88h-2.59c-1.35,0-2,.36-2,1.28s.7,1.42,1.85,1.42C551,113.78,552.15,113,552.26,112Z"/><path class="cls-70" d="M557.17,115.33V102h2.07v13.36Z"/><path class="cls-70" d="M566.16,116.65a3.2,3.2,0,0,1-3.12,2.27,3.24,3.24,0,0,1-2.21-.81l.88-1.6A2,2,0,0,0,563,117a1.56,1.56,0,0,0,1.46-1.06l.32-.72-4-9.43h2.14l2.86,7.26,2.67-7.26h2.07Z"/><path class="cls-70" d="M578.07,106.63l-.76,1.53a5.63,5.63,0,0,0-2.75-.85c-.81,0-1.4.27-1.4,1,0,1.76,5.09.81,5.08,4.29,0,2-1.75,2.84-3.67,2.84a5.93,5.93,0,0,1-3.85-1.33l.74-1.48a5.22,5.22,0,0,0,3.21,1.19c.88,0,1.57-.31,1.57-1,0-2-5-.86-5-4.32,0-1.94,1.69-2.77,3.53-2.77A6.06,6.06,0,0,1,578.07,106.63Z"/><path class="cls-70" d="M582.55,103a1.21,1.21,0,1,1-1.21-1.26A1.19,1.19,0,0,1,582.55,103Zm-2.23,12.32v-9.58h2.05v9.58Z"/><path class="cls-70" d="M591.64,106.63l-.76,1.53a5.63,5.63,0,0,0-2.75-.85c-.81,0-1.4.27-1.4,1,0,1.76,5.09.81,5.08,4.29,0,2-1.75,2.84-3.67,2.84a5.93,5.93,0,0,1-3.85-1.33l.74-1.48a5.22,5.22,0,0,0,3.21,1.19c.88,0,1.57-.31,1.57-1,0-2-5-.86-5-4.32,0-1.94,1.69-2.77,3.53-2.77A6.06,6.06,0,0,1,591.64,106.63Z"/><path class="cls-70" d="M410.12,138.24a3.2,3.2,0,0,1-3.12,2.27,3.24,3.24,0,0,1-2.21-.81l.88-1.6a2,2,0,0,0,1.24.47,1.56,1.56,0,0,0,1.46-1.06l.32-.72-4-9.43h2.14l2.86,7.26,2.67-7.26h2.07Z"/><path class="cls-70" d="M424.64,132.14a5,5,0,1,1-5-4.86A4.69,4.69,0,0,1,424.64,132.14Zm-7.92,0a2.93,2.93,0,1,0,2.93-3.1A2.89,2.89,0,0,0,416.72,132.16Z"/><path class="cls-70" d="M435.5,136.93h-2.07v-1.87A3.53,3.53,0,0,1,430,137c-2.2,0-3.51-1.4-3.51-3.69v-6h2.07v5.38a2.11,2.11,0,0,0,2.23,2.32,2.71,2.71,0,0,0,2.63-3v-4.72h2.07Z"/><path class="cls-70" d="M448.94,135.76a3.89,3.89,0,0,1-3.17,1.26c-2.07,0-3.37-1.28-3.37-3s1.31-2.86,3.62-2.88h2.9v-.29c0-1.21-.77-1.93-2.29-1.93a5,5,0,0,0-2.83,1l-.85-1.44a7,7,0,0,1,4.12-1.21c2.47,0,3.85,1.26,3.87,3.37l0,6.28h-2Zm0-2.2v-.88h-2.59c-1.35,0-2,.36-2,1.28s.7,1.42,1.85,1.42C447.68,135.38,448.82,134.61,448.92,133.56Z"/><path class="cls-70" d="M455.82,129.26a3.48,3.48,0,0,1,3.31-2v2a2.9,2.9,0,0,0-3.31,2.67v5h-2.07v-9.58h2.07Z"/><path class="cls-70" d="M469.26,132.93H462a2.92,2.92,0,0,0,3,2.39,3.72,3.72,0,0,0,2.7-1.12l1.1,1.17a5.21,5.21,0,0,1-4,1.62,4.86,4.86,0,1,1-.05-9.72C468.15,127.28,469.52,129.48,469.26,132.93Zm-1.8-1.51a2.46,2.46,0,0,0-2.67-2.48,2.73,2.73,0,0,0-2.81,2.48Z"/><path class="cls-70" d="M476.16,136.93V123.57h2.07v13.36Z"/><path class="cls-70" d="M490.47,132.14a5,5,0,1,1-5-4.86A4.69,4.69,0,0,1,490.47,132.14Zm-7.92,0a2.93,2.93,0,1,0,2.93-3.1A2.89,2.89,0,0,0,482.55,132.16Z"/><path class="cls-70" d="M501.72,132.14a5,5,0,1,1-5-4.86A4.69,4.69,0,0,1,501.72,132.14Zm-7.92,0a2.93,2.93,0,1,0,2.93-3.1A2.89,2.89,0,0,0,493.8,132.16Z"/><path class="cls-70" d="M506,134.25v2.68H504V123.57H506v8.07l4.23-4.29h2.38l-3.55,3.71,3.82,5.87h-2.45l-2.81-4.39Z"/><path class="cls-70" d="M516.82,124.61a1.21,1.21,0,1,1-1.21-1.26A1.19,1.19,0,0,1,516.82,124.61Zm-2.23,12.32v-9.58h2.05v9.58Z"/><path class="cls-70" d="M528.86,131v6h-2.07v-5.38a2.13,2.13,0,0,0-2.3-2.32,2.68,2.68,0,0,0-2.72,2.61v5.1H519.7v-9.58h2.07v1.84a3.62,3.62,0,0,1,3.53-1.91A3.35,3.35,0,0,1,528.86,131Z"/><path class="cls-70" d="M540.27,136c0,2.75-2,4.48-5,4.48a7,7,0,0,1-4-1.26l.88-1.49a4.84,4.84,0,0,0,3,1,2.69,2.69,0,0,0,3-2.72v-1.21a3.51,3.51,0,0,1-3.17,1.62c-2.59,0-4.32-1.87-4.32-4.63s1.71-4.54,4.25-4.56a3.57,3.57,0,0,1,3.24,1.62v-1.55h2.05Zm-2.05-4.11a2.73,2.73,0,0,0-2.75-2.94,3,3,0,1,0,2.75,2.94Z"/><path class="cls-70" d="M550.24,126.58v1.13h2.5v1.55h-2.5v7.67h-2.05v-7.67h-1.26v-1.55h1.26v-.94a3.14,3.14,0,0,1,3.29-3.3,3.65,3.65,0,0,1,2.16.67l-.79,1.58a2.31,2.31,0,0,0-1.31-.45A1.2,1.2,0,0,0,550.24,126.58Z"/><path class="cls-70" d="M562.88,132.14a5,5,0,1,1-5-4.86A4.69,4.69,0,0,1,562.88,132.14Zm-7.92,0a2.93,2.93,0,1,0,2.93-3.1A2.89,2.89,0,0,0,555,132.16Z"/><path class="cls-70" d="M567.11,129.26a3.48,3.48,0,0,1,3.31-2v2a2.9,2.9,0,0,0-3.31,2.67v5H565v-9.58h2.07Z"/><path class="cls-70" d="M573.7,135.89a1.14,1.14,0,1,1-2.27,0,1.13,1.13,0,1,1,2.27,0Z"/><path class="cls-70" d="M577.62,135.89a1.14,1.14,0,1,1-2.27,0,1.13,1.13,0,1,1,2.27,0Z"/><path class="cls-70" d="M581.54,135.89a1.14,1.14,0,1,1-2.27,0,1.13,1.13,0,1,1,2.27,0Z"/></g></svg>