<?xml version="1.0" encoding="utf-8"?>
<!-- Generator: Adobe Illustrator 21.0.0, SVG Export Plug-In . SVG Version: 6.00 Build 0)  -->
<svg version="1.1" id="Layer_1" xmlns="http://www.w3.org/2000/svg" xmlns:xlink="http://www.w3.org/1999/xlink" x="0px" y="0px"
	 viewBox="0 0 406 273.1" style="enable-background:new 0 0 406 273.1;" xml:space="preserve">
<style type="text/css">
	.st0{fill:#2C3E50;}
	.st1{fill:#ECF0F1;stroke:#2C3E50;stroke-width:0.86;stroke-miterlimit:10;}
	.st2{fill:#E64C3C;stroke:#2C3E50;stroke-width:0.86;stroke-miterlimit:10;}
	.st3{fill:#FFFFFF;}
	.st4{fill:#ECF0F1;}
	.st5{fill:none;stroke:#2C3E50;stroke-width:0.71;stroke-miterlimit:10;}
	.st6{fill:#2C3E50;stroke:#2C3E50;stroke-width:0.19;stroke-miterlimit:10;}
	.st7{fill:#26B99A;stroke:#2C3E50;stroke-width:0.19;stroke-miterlimit:10;}
	.st8{fill:none;stroke:#7F8C8D;stroke-width:0.49;stroke-miterlimit:10;}
	.st9{fill:#3B97D3;}
	.st10{fill:none;stroke:#2C3E50;stroke-width:0.44;stroke-miterlimit:10;}
	.st11{fill:none;stroke:#2C3E50;stroke-width:0.36;stroke-miterlimit:10;}
	.st12{fill:none;stroke:#3B97D3;stroke-width:0.4;stroke-miterlimit:10;}
	.st13{fill:none;stroke:#3B97D3;stroke-width:0.36;stroke-miterlimit:10;}
	.st14{fill:none;stroke:#3B97D3;stroke-width:0.39;stroke-miterlimit:10;}
	.st15{fill:none;stroke:#ECF0F1;stroke-width:0.55;stroke-miterlimit:10;}
	.st16{fill:none;stroke:#ECF0F1;stroke-width:0.44;stroke-miterlimit:10;}
	.st17{fill:none;stroke:#2C3E50;stroke-width:0.66;stroke-miterlimit:10;}
	.st18{fill:none;stroke:#3B97D3;stroke-width:0.54;stroke-miterlimit:10;}
	.st19{fill:#ECF0F1;stroke:#2C3E50;stroke-width:0.71;stroke-miterlimit:10;}
	.st20{fill:#BDC3C7;stroke:#2C3E50;stroke-width:0.7;stroke-miterlimit:10;}
	.st21{fill:#2C3E50;stroke:#2C3E50;stroke-width:0.74;stroke-miterlimit:10;}
	.st22{fill:#FFFFFF;stroke:#2C3E50;stroke-width:0.71;stroke-miterlimit:10;}
	.st23{fill:none;stroke:#95A5A5;stroke-width:0.22;stroke-miterlimit:10;}
	.st24{fill:none;stroke:#95A5A5;stroke-width:0.66;stroke-miterlimit:10;}
	.st25{fill:none;stroke:#2C3E50;stroke-width:0.22;stroke-miterlimit:10;}
	.st26{fill:none;stroke:#3B97D3;stroke-width:0.15;stroke-miterlimit:10;}
	.st27{fill:none;stroke:#3B97D3;stroke-width:0.49;stroke-miterlimit:10;}
	.st28{fill:#2C3E50;stroke:#FFFFFF;stroke-width:0.11;stroke-miterlimit:10;}
	.st29{fill:none;stroke:#2C3E50;stroke-width:0.15;stroke-miterlimit:10;}
	.st30{fill:none;stroke:#3B97D3;stroke-width:0.25;stroke-miterlimit:10;}
	.st31{fill:none;stroke:#7F8C8D;stroke-width:0.15;stroke-miterlimit:10;}
	.st32{fill:none;stroke:#2C3E50;stroke-width:0.49;stroke-miterlimit:10;}
	.st33{fill:none;stroke:#3B97D3;stroke-width:0.38;stroke-miterlimit:10;}
	.st34{fill:#BDC3C7;}
	.st35{fill:#955BA5;}
	.st36{fill:none;stroke:#2C3E50;stroke-width:0.69;stroke-miterlimit:10;}
	.st37{fill:none;stroke:#BDC3C7;stroke-width:0.69;stroke-miterlimit:10;}
	.st38{fill:none;stroke:#3B97D3;stroke-width:0.69;stroke-miterlimit:10;}
	.st39{fill:none;stroke:#2C3E50;stroke-width:0.4;stroke-miterlimit:10;}
	.st40{fill:none;stroke:#3B97D3;stroke-width:0.33;stroke-miterlimit:10;}
	.st41{fill:none;stroke:#3B97D3;stroke-width:0.43;stroke-miterlimit:10;}
	.st42{fill:none;stroke:#95A5A5;stroke-width:0.49;stroke-miterlimit:10;}
	.st43{fill:none;stroke:#95A5A5;stroke-width:1.47;stroke-miterlimit:10;}
	.st44{fill:none;stroke:#2C3E50;stroke-width:0.98;stroke-miterlimit:10;}
	.st45{fill:none;stroke:#3B97D3;stroke-width:0.34;stroke-miterlimit:10;}
	.st46{fill:#2C3E50;stroke:#FFFFFF;stroke-width:0.25;stroke-miterlimit:10;}
	.st47{fill:none;stroke:#2C3E50;stroke-miterlimit:10;}
	.st48{fill:#C18141;}
	.st49{fill:#414042;}
	.st50{fill:#231F20;}
	.st51{fill:none;stroke:#BDC3C7;stroke-miterlimit:10;}
	.st52{fill:none;stroke:#3B97D3;stroke-width:0.64;stroke-miterlimit:10;}
	.st53{fill:#BDC3C7;stroke:#2C3E50;stroke-width:0.67;stroke-miterlimit:10;}
	.st54{fill:#2C3E50;stroke:#2C3E50;stroke-width:0.86;stroke-miterlimit:10;}
	.st55{fill:#2980BA;}
	.st56{fill:#35495E;}
	.st57{fill:#2E4155;}
	.st58{fill:#FAB492;}
	.st59{fill:#95A5A5;}
	.st60{fill:none;stroke:#2C3E50;stroke-width:2.58;stroke-miterlimit:10;}
	.st61{fill:none;stroke:#2C3E50;stroke-width:1.72;stroke-miterlimit:10;}
</style>
<title>cap-500</title>
<g id="Upload-2">
	<rect x="341.5" y="187.4" class="st0" width="4.8" height="12.6"/>
	<path class="st1" d="M302.3,127.9H386c2.2,0,4,1.8,4,4v55.6c0,2.2-1.8,4-4,4h-83.7c-2.2,0-4-1.8-4-4v-55.6
		C298.3,129.7,300.1,127.9,302.3,127.9z"/>
	<path class="st2" d="M304.6,133.1h80.6c0.6,0,1,0.4,1,1v48.3c0,0.6-0.4,1-1,1h-80.6c-0.6,0-1-0.4-1-1v-48.3
		C303.6,133.5,304.1,133.1,304.6,133.1z"/>
	<path class="st3" d="M328.7,154.9v2.2h3.5v1.2h-3.5v3.2h-1.3v-7.7h5.2v1.2L328.7,154.9z"/>
	<path class="st3" d="M337.1,160.7c-0.5,0.5-1.2,0.8-1.9,0.8c-1,0.1-1.9-0.6-2-1.6c0-0.1,0-0.1,0-0.2c0-1.1,0.8-1.8,2.2-1.8h1.8
		v-0.2c0-0.7-0.5-1.2-1.4-1.2c-0.6,0-1.2,0.2-1.7,0.6l-0.5-0.9c0.7-0.5,1.6-0.8,2.5-0.7c1.5,0,2.4,0.8,2.4,2.1v3.8h-1.2L337.1,160.7
		z M337.1,159.4v-0.5h-1.6c-0.8,0-1.2,0.2-1.2,0.8s0.4,0.9,1.1,0.9C336.4,160.5,337,160,337.1,159.4L337.1,159.4z"/>
	<path class="st3" d="M341.4,153.9c0,0.4-0.4,0.7-0.8,0.7s-0.7-0.4-0.7-0.8c0-0.4,0.3-0.7,0.7-0.7
		C341.1,153.1,341.4,153.4,341.4,153.9C341.4,153.9,341.4,153.9,341.4,153.9z M340.1,161.4v-5.9h1.2v5.9H340.1z"/>
	<path class="st3" d="M343.2,161.4v-8.2h1.3v8.2H343.2z"/>
	<path class="st3" d="M351.8,161.4h-1.3v-1.1c-0.4,0.8-1.2,1.3-2.1,1.2c-1.1,0.1-2.1-0.7-2.2-1.8c0-0.1,0-0.3,0-0.4v-3.6h1.3v3.3
		c-0.1,0.7,0.4,1.3,1.2,1.4c0.1,0,0.1,0,0.2,0c0.9,0,1.6-0.8,1.6-1.7c0-0.1,0-0.1,0-0.2v-2.9h1.3L351.8,161.4z"/>
	<path class="st3" d="M354.9,156.7c0.4-0.8,1.2-1.2,2-1.2v1.2c-1-0.1-1.9,0.6-2,1.5c0,0,0,0.1,0,0.1v3.1h-1.3v-5.9h1.3V156.7z"/>
	<path class="st3" d="M363.1,159h-4.4c0.2,0.9,0.9,1.5,1.8,1.5c0.6,0,1.2-0.2,1.6-0.7l0.7,0.7c-0.6,0.7-1.5,1-2.4,1
		c-1.6,0.2-3.2-0.9-3.4-2.5c-0.2-1.6,0.9-3.2,2.5-3.4c0.3,0,0.6,0,0.8,0C362.4,155.5,363.2,156.9,363.1,159z M362,158
		c0-0.8-0.6-1.5-1.5-1.5c-0.1,0-0.1,0-0.2,0c-0.9,0-1.6,0.6-1.7,1.5H362z"/>
	<path class="st4" d="M332.1,89.2h11.1c0.6,0,1,0.4,1,1v11.1c0,0.6-0.4,1-1,1h-11.1c-0.6,0-1-0.4-1-1V90.2
		C331.1,89.7,331.5,89.2,332.1,89.2z"/>
	<path class="st4" d="M332.1,74.7h11.1c0.6,0,1,0.4,1,1v11.1c0,0.6-0.4,1-1,1h-11.1c-0.6,0-1-0.4-1-1V75.7
		C331.1,75.2,331.5,74.7,332.1,74.7z"/>
	<path class="st4" d="M332.1,60.3h11.1c0.6,0,1,0.4,1,1v11.1c0,0.6-0.4,1-1,1h-11.1c-0.6,0-1-0.4-1-1V61.3
		C331.1,60.8,331.5,60.3,332.1,60.3z"/>
	<path class="st4" d="M395.5,102.6h-48.8l0,0V58.2l0,0h48.8c0.6,0,1,0.4,1,1v42.4C396.5,102.2,396,102.6,395.5,102.6z"/>
	<path class="st5" d="M328.3,58.2h67.2c0.6,0,1,0.4,1,1v42.4c0,0.6-0.4,1-1,1h-67.2c-0.6,0-1-0.4-1-1V59.2
		C327.3,58.6,327.7,58.2,328.3,58.2z"/>
	<path class="st6" d="M327.3,99.3h69.2l0,0v2.3c0,0.6-0.4,1-1,1h-67.2c-0.6,0-1-0.4-1-1V99.3L327.3,99.3z"/>
	<circle class="st7" cx="393.6" cy="101.2" r="0.7"/>
	<line class="st8" x1="352.5" y1="66.6" x2="352.5" y2="92.7"/>
	<line class="st8" x1="361.7" y1="66.6" x2="361.7" y2="92.7"/>
	<line class="st8" x1="371" y1="66.6" x2="371" y2="92.7"/>
	<line class="st8" x1="380.2" y1="66.6" x2="380.2" y2="92.7"/>
	<line class="st8" x1="389.4" y1="66.6" x2="389.4" y2="92.7"/>
	<circle class="st9" cx="340" cy="65.3" r="0.4"/>
	<circle class="st9" cx="338.7" cy="65.3" r="0.4"/>
	<circle class="st0" cx="335.7" cy="67.7" r="0.4"/>
	<circle class="st0" cx="334.3" cy="66.9" r="0.4"/>
	<circle class="st0" cx="334.3" cy="68.4" r="0.4"/>
	<circle class="st0" cx="335.7" cy="69.4" r="0.4"/>
	<circle class="st0" cx="337" cy="68.8" r="0.4"/>
	<circle class="st0" cx="334.3" cy="69.9" r="0.4"/>
	<circle class="st9" cx="340" cy="64.2" r="0.4"/>
	<circle class="st9" cx="341.3" cy="64.9" r="0.4"/>
	<circle class="st0" cx="335.3" cy="70.6" r="0.4"/>
	<circle class="st0" cx="332.5" cy="68.9" r="0.4"/>
	<circle class="st9" cx="338.7" cy="63.3" r="0.4"/>
	<circle class="st9" cx="336.4" cy="85.8" r="0.4"/>
	<circle class="st9" cx="334.2" cy="83.6" r="0.4"/>
	<circle class="st0" cx="339.8" cy="81.7" r="0.4"/>
	<circle class="st0" cx="335.9" cy="79.9" r="0.4"/>
	<circle class="st0" cx="332.7" cy="83.2" r="0.4"/>
	<circle class="st0" cx="333.1" cy="80.8" r="0.4"/>
	<circle class="st0" cx="335.9" cy="84.4" r="0.4"/>
	<circle class="st0" cx="336.9" cy="81.3" r="0.4"/>
	<circle class="st9" cx="338.9" cy="79.9" r="0.4"/>
	<circle class="st9" cx="340.2" cy="80.6" r="0.4"/>
	<circle class="st0" cx="334.2" cy="86.3" r="0.4"/>
	<circle class="st0" cx="332.3" cy="85.8" r="0.4"/>
	<circle class="st9" cx="337.6" cy="79" r="0.4"/>
	<circle class="st9" cx="336.8" cy="98.1" r="0.4"/>
	<circle class="st9" cx="339" cy="95.9" r="0.4"/>
	<circle class="st0" cx="333.4" cy="94" r="0.4"/>
	<circle class="st0" cx="337.2" cy="92.2" r="0.4"/>
	<circle class="st0" cx="340.5" cy="95.5" r="0.4"/>
	<circle class="st0" cx="340" cy="93.1" r="0.4"/>
	<circle class="st0" cx="337.2" cy="96.7" r="0.4"/>
	<circle class="st0" cx="336.2" cy="93.6" r="0.4"/>
	<circle class="st9" cx="334.2" cy="92.2" r="0.4"/>
	<circle class="st9" cx="333" cy="92.8" r="0.4"/>
	<circle class="st0" cx="339" cy="98.5" r="0.4"/>
	<circle class="st0" cx="340.9" cy="98.1" r="0.4"/>
	<circle class="st9" cx="335.5" cy="91.3" r="0.4"/>
	<polyline class="st10" points="352.5,89.1 361.7,84.2 371,80.8 380.2,79 389.4,83.2 	"/>
	<polyline class="st11" points="352.5,90.4 361.7,87.1 371,84.9 380.2,83.6 389.4,86.4 	"/>
	<polyline class="st12" points="352.5,79.3 361.7,75.3 371,72.5 380.2,71 389.4,74.5 	"/>
	<polyline class="st13" points="352.5,93.2 361.7,89.9 371,87.7 380.2,86.4 389.4,89.2 	"/>
	<polyline class="st14" points="352.5,83.2 361.7,87.1 371,89.8 380.2,91.4 389.4,88 	"/>
	<line class="st15" x1="327.9" y1="11.9" x2="396.6" y2="11.9"/>
	<line class="st15" x1="327.9" y1="16.9" x2="396.6" y2="16.9"/>
	<line class="st16" x1="367.4" y1="8" x2="367.4" y2="51.8"/>
	<line class="st16" x1="362.4" y1="8" x2="362.4" y2="51.8"/>
	<line class="st16" x1="357.3" y1="8" x2="357.3" y2="51.8"/>
	<line class="st16" x1="352.3" y1="8" x2="352.3" y2="51.8"/>
	<line class="st16" x1="347.2" y1="8" x2="347.2" y2="51.8"/>
	<line class="st16" x1="342.2" y1="8" x2="342.2" y2="51.8"/>
	<line class="st16" x1="337.1" y1="8" x2="337.1" y2="51.8"/>
	<line class="st16" x1="332.1" y1="8" x2="332.1" y2="51.8"/>
	<line class="st16" x1="392.7" y1="8" x2="392.7" y2="51.8"/>
	<line class="st16" x1="387.6" y1="8" x2="387.6" y2="51.8"/>
	<line class="st16" x1="382.6" y1="8" x2="382.6" y2="51.8"/>
	<line class="st16" x1="377.5" y1="8" x2="377.5" y2="51.8"/>
	<line class="st16" x1="372.5" y1="8" x2="372.5" y2="51.8"/>
	<line class="st15" x1="327.9" y1="21.9" x2="396.6" y2="21.9"/>
	<line class="st15" x1="327.9" y1="26.9" x2="396.6" y2="26.9"/>
	<line class="st15" x1="327.9" y1="31.9" x2="396.6" y2="31.9"/>
	<line class="st15" x1="327.9" y1="36.9" x2="396.6" y2="36.9"/>
	<line class="st15" x1="327.9" y1="41.9" x2="396.6" y2="41.9"/>
	<line class="st15" x1="327.9" y1="46.9" x2="396.6" y2="46.9"/>
	<polygon class="st17" points="331.8,50.9 352.4,36.9 352.4,47.3 371.9,33.2 371.9,39.7 390.8,27.9 390.8,50.9 	"/>
	<polygon class="st18" points="331.8,51.4 353,39.4 353,48.3 373,36.2 373,41.8 392.3,31.7 392.3,51.4 	"/>
	<circle class="st7" cx="394.1" cy="51.3" r="0.7"/>
	<path class="st19" d="M396.9,22.5h-69.2l0,0V9c0-0.6,0.4-1,1-1h67.2c0.6,0,1,0.4,1,1V22.5L396.9,22.5z"/>
	<path class="st20" d="M328.7,21.9c0,0,4.7-7.9,5.1-8.4s9.9-1.3,10.4-1.3s3,2.4,3.5,3s5,1.7,5,1.7s6-1.9,6.5-1.9
		c1.2-0.8,2.4-1.7,3.5-2.8l5,3l4.1,1.3l3.8-1.3h2.7l6-0.6l4.1,2.2l2.4,0.9l5.7,4.2L328.7,21.9z"/>
	<path class="st21" d="M327.9,22.2l8.9-1.2l2.3-1.9l2.6-0.7c0-0.5,0.2-0.9,0.4-1.2c0.4-0.4,3.6,0,3.6,0s3.7-0.4,4.3-0.8
		c0.7-0.4,1.4-0.7,2.1-0.9h4.3l2.9,2.8h5.9l4.8-1l2.9-1.8l2.4-0.1c0,0,3.6,2.7,4,2.9s3.2,2.5,3.2,2.5l3.7-1.5l2-1l3.2,2.8l1.3,0.9
		h1.7"/>
	<path class="st5" d="M328.8,7.8h67.2c0.6,0,1,0.4,1,1v42.4c0,0.6-0.4,1-1,1h-67.2c-0.6,0-1-0.4-1-1V8.8
		C327.8,8.3,328.2,7.8,328.8,7.8z"/>
	<path class="st6" d="M327.8,48.9h69.2l0,0v2.3c0,0.6-0.4,1-1,1h-67.2c-0.6,0-1-0.4-1-1V48.9L327.8,48.9z"/>
	<circle class="st7" cx="394.1" cy="50.8" r="0.7"/>
	<path class="st4" d="M252.1,58.4h6.8l0,0v44.4l0,0h-6.8c-0.6,0-1-0.4-1-1V59.4C251.1,58.9,251.5,58.4,252.1,58.4L252.1,58.4z"/>
	<path class="st5" d="M319.2,102.9h-67.2c-0.6,0-1-0.4-1-1V59.4c0-0.6,0.4-1,1-1h67.2c0.6,0,1,0.4,1,1v42.4
		C320.2,102.4,319.8,102.9,319.2,102.9z"/>
	<path class="st6" d="M251.1,99.5h69.2l0,0v2.3c0,0.6-0.4,1-1,1h-67.2c-0.6,0-1-0.4-1-1V99.5L251.1,99.5z"/>
	<circle class="st7" cx="317.4" cy="101.5" r="0.7"/>
	<path class="st9" d="M267.4,64.4h7.2c0.6,0,1,0.4,1,1v0.8c0,0.6-0.4,1-1,1h-7.2c-0.6,0-1-0.4-1-1v-0.8
		C266.4,64.9,266.8,64.4,267.4,64.4z"/>
	<path class="st0" d="M279.3,64.4h7.2c0.6,0,1,0.4,1,1v0.8c0,0.6-0.4,1-1,1h-7.2c-0.6,0-1-0.4-1-1v-0.8
		C278.3,64.9,278.8,64.4,279.3,64.4z"/>
	<path class="st9" d="M291.7,64.4h7.2c0.6,0,1,0.4,1,1v0.8c0,0.6-0.4,1-1,1h-7.2c-0.6,0-1-0.4-1-1v-0.8
		C290.7,64.9,291.2,64.4,291.7,64.4z"/>
	<path class="st0" d="M303.7,64.4h7.2c0.6,0,1,0.4,1,1v0.8c0,0.6-0.4,1-1,1h-7.2c-0.6,0-1-0.4-1-1v-0.8
		C302.7,64.9,303.1,64.4,303.7,64.4z"/>
	<path class="st9" d="M267.4,69.6h7.2c0.6,0,1,0.4,1,1v0.8c0,0.6-0.4,1-1,1h-7.2c-0.6,0-1-0.4-1-1v-0.8
		C266.4,70.1,266.8,69.6,267.4,69.6z"/>
	<path class="st0" d="M279.3,69.6h7.2c0.6,0,1,0.4,1,1v0.8c0,0.6-0.4,1-1,1h-7.2c-0.6,0-1-0.4-1-1v-0.8
		C278.3,70.1,278.8,69.6,279.3,69.6z"/>
	<path class="st9" d="M310.9,77.6h-7.2c-0.6,0-1-0.4-1-1v-0.8c0-0.6,0.4-1,1-1h7.2c0.6,0,1,0.4,1,1v0.8
		C311.9,77.2,311.4,77.6,310.9,77.6z"/>
	<path class="st0" d="M298.9,77.6h-7.2c-0.6,0-1-0.4-1-1v-0.8c0-0.6,0.4-1,1-1h7.2c0.6,0,1,0.4,1,1v0.8
		C299.9,77.2,299.5,77.6,298.9,77.6z"/>
	<path class="st9" d="M286.5,77.6h-7.2c-0.6,0-1-0.4-1-1v-0.8c0-0.6,0.4-1,1-1h7.2c0.6,0,1,0.4,1,1v0.8
		C287.5,77.2,287.1,77.6,286.5,77.6z"/>
	<path class="st0" d="M274.6,77.6h-7.2c-0.6,0-1-0.4-1-1v-0.8c0-0.6,0.4-1,1-1h7.2c0.6,0,1,0.4,1,1v0.8
		C275.6,77.2,275.1,77.6,274.6,77.6z"/>
	<path class="st9" d="M310.9,72.4h-7.2c-0.6,0-1-0.4-1-1v-0.8c0-0.6,0.4-1,1-1h7.2c0.6,0,1,0.4,1,1v0.8
		C311.9,72,311.4,72.4,310.9,72.4z"/>
	<path class="st0" d="M298.9,72.4h-7.2c-0.6,0-1-0.4-1-1v-0.8c0-0.6,0.4-1,1-1h7.2c0.6,0,1,0.4,1,1v0.8
		C299.9,72,299.5,72.4,298.9,72.4z"/>
	<path class="st9" d="M310.9,83.2h-7.2c-0.6,0-1-0.4-1-1v-0.8c0-0.6,0.4-1,1-1h7.2c0.6,0,1,0.4,1,1v0.8
		C311.9,82.7,311.4,83.2,310.9,83.2z"/>
	<path class="st0" d="M298.9,83.2h-7.2c-0.6,0-1-0.4-1-1v-0.8c0-0.6,0.4-1,1-1h7.2c0.6,0,1,0.4,1,1v0.8
		C299.9,82.7,299.5,83.2,298.9,83.2z"/>
	<path class="st9" d="M286.5,83.2h-7.2c-0.6,0-1-0.4-1-1v-0.8c0-0.6,0.4-1,1-1h7.2c0.6,0,1,0.4,1,1v0.8
		C287.5,82.7,287.1,83.2,286.5,83.2z"/>
	<path class="st0" d="M274.6,83.2h-7.2c-0.6,0-1-0.4-1-1v-0.8c0-0.6,0.4-1,1-1h7.2c0.6,0,1,0.4,1,1v0.8
		C275.6,82.7,275.1,83.2,274.6,83.2z"/>
	<path class="st9" d="M310.9,88.4h-7.2c-0.6,0-1-0.4-1-1v-0.8c0-0.6,0.4-1,1-1h7.2c0.6,0,1,0.4,1,1v0.8
		C311.9,87.9,311.4,88.4,310.9,88.4z"/>
	<path class="st0" d="M298.9,88.4h-7.2c-0.6,0-1-0.4-1-1v-0.8c0-0.6,0.4-1,1-1h7.2c0.6,0,1,0.4,1,1v0.8
		C299.9,87.9,299.5,88.4,298.9,88.4z"/>
	<path class="st9" d="M267.4,90.8h7.2c0.6,0,1,0.4,1,1v0.8c0,0.6-0.4,1-1,1h-7.2c-0.6,0-1-0.4-1-1v-0.8
		C266.4,91.3,266.8,90.8,267.4,90.8z"/>
	<path class="st0" d="M279.3,90.8h7.2c0.6,0,1,0.4,1,1v0.8c0,0.6-0.4,1-1,1h-7.2c-0.6,0-1-0.4-1-1v-0.8
		C278.3,91.3,278.8,90.8,279.3,90.8z"/>
	<path class="st9" d="M291.7,90.8h7.2c0.6,0,1,0.4,1,1v0.8c0,0.6-0.4,1-1,1h-7.2c-0.6,0-1-0.4-1-1v-0.8
		C290.7,91.3,291.2,90.8,291.7,90.8z"/>
	<path class="st0" d="M303.7,90.8h7.2c0.6,0,1,0.4,1,1v0.8c0,0.6-0.4,1-1,1h-7.2c-0.6,0-1-0.4-1-1v-0.8
		C302.7,91.3,303.1,90.8,303.7,90.8z"/>
	<path class="st9" d="M267.4,85.6h7.2c0.6,0,1,0.4,1,1v0.8c0,0.6-0.4,1-1,1h-7.2c-0.6,0-1-0.4-1-1v-0.8
		C266.4,86.1,266.8,85.6,267.4,85.6z"/>
	<path class="st0" d="M279.3,85.6h7.2c0.6,0,1,0.4,1,1v0.8c0,0.6-0.4,1-1,1h-7.2c-0.6,0-1-0.4-1-1v-0.8
		C278.3,86.1,278.8,85.6,279.3,85.6z"/>
	<path class="st22" d="M319.4,52.4h-67.2c-0.6,0-1-0.4-1-1V9c0-0.6,0.4-1,1-1h67.2c0.6,0,1,0.4,1,1v42.4
		C320.4,52,320,52.4,319.4,52.4z"/>
	<circle class="st23" cx="304.6" cy="19.9" r="2"/>
	<circle class="st24" cx="304.6" cy="19.9" r="3"/>
	<polygon class="st25" points="299.6,21.2 301,23.5 303.3,24.9 306,24.9 308.3,23.5 309.6,21.2 309.6,18.5 308.3,16.2 306,14.8 
		303.3,14.8 301,16.2 299.6,18.5 	"/>
	<polygon class="st10" points="298.2,21.6 299.9,24.6 302.9,26.3 306.4,26.3 309.3,24.6 311,21.6 311,18.1 309.3,15.2 306.4,13.4 
		302.9,13.4 299.9,15.2 298.2,18.1 	"/>
	<polygon class="st10" points="297,21.9 299,25.4 302.6,27.5 306.7,27.5 310.2,25.4 312.3,21.9 312.3,17.8 310.2,14.3 306.7,12.2 
		302.6,12.2 299,14.3 297,17.8 	"/>
	<path class="st26" d="M304.7,19.8c3.1,0,5.6-2.5,5.6-5.6c0,0,0,0,0,0"/>
	<path class="st27" d="M304.8,19.8c-3.1,0-5.7,2.5-5.7,5.7v0"/>
	<path class="st26" d="M304.8,19.9c2.8,0,5-2.6,5-5.8"/>
	<path class="st26" d="M304.9,19.8c3.2,0,5.7-2.2,5.7-5"/>
	<path class="st27" d="M304.9,19.9c2.5,0,4.5-2.6,4.5-5.8"/>
	<path class="st26" d="M304.8,19.9c-2.3,0-4.2,2.7-4.2,6"/>
	<path class="st26" d="M304.7,19.8c-3.9,0-7,1.3-7,2.9"/>
	<path class="st26" d="M304.7,19.8c1.9,0,3.5,2.4,3.5,5.3"/>
	<path class="st26" d="M304.8,19.8c-0.6,0-1.1-2.8-1.1-6.3"/>
	<path class="st26" d="M304.7,19.9c1.3,0,2.4-3.4,2.4-7.6"/>
	<path class="st26" d="M304.8,19.9c0.2,0,0.3-1.4,0.3-3.1"/>
	<path class="st26" d="M304.8,19.8c0.9,0,1.7,1.2,1.7,2.7"/>
	<circle class="st28" cx="304.6" cy="19.9" r="0.4"/>
	<path class="st6" d="M319.4,52.4h-67.2c-0.6,0-1-0.4-1-1v-2.3l0,0h69.2l0,0v2.3C320.4,52,320,52.4,319.4,52.4z"/>
	<circle class="st7" cx="254" cy="51" r="0.7"/>
	<circle class="st23" cx="286" cy="19.9" r="2"/>
	<circle class="st24" cx="286" cy="19.9" r="3"/>
	<polygon class="st25" points="287.4,24.9 289.7,23.5 291,21.2 291,18.5 289.7,16.2 287.4,14.8 284.7,14.8 282.3,16.2 281,18.5 
		281,21.2 282.3,23.5 284.7,24.9 	"/>
	<polygon class="st10" points="287.7,26.3 290.7,24.6 292.4,21.6 292.4,18.1 290.7,15.2 287.7,13.4 284.3,13.4 281.3,15.2 
		279.6,18.1 279.6,21.6 281.3,24.6 284.3,26.3 	"/>
	<polygon class="st10" points="288.1,27.5 291.6,25.4 293.6,21.9 293.6,17.8 291.6,14.3 288.1,12.2 284,12.2 280.4,14.3 278.4,17.8 
		278.4,21.9 280.4,25.4 284,27.5 	"/>
	<path class="st26" d="M286,19.8c0-3.1-2.5-5.6-5.6-5.6l0,0"/>
	<path class="st27" d="M286,19.7c0,3.1,2.5,5.7,5.7,5.7l0,0"/>
	<path class="st26" d="M286,19.8c0,3.9,1.3,7,2.9,7"/>
	<path class="st26" d="M286,19.8c0-1.9,2.4-3.5,5.3-3.5"/>
	<path class="st26" d="M285.9,19.7c0,0.6-2.8,1.1-6.3,1.1"/>
	<path class="st26" d="M286,19.8c0-1.3-3.4-2.4-7.6-2.4"/>
	<path class="st26" d="M286,19.7c0-0.2-1.4-0.3-3.1-0.3"/>
	<path class="st26" d="M286,19.7c0-0.9,1.2-1.7,2.7-1.7"/>
	<circle class="st28" cx="286" cy="19.9" r="0.4"/>
	<circle class="st23" cx="267.4" cy="19.9" r="2"/>
	<circle class="st24" cx="267.4" cy="19.9" r="3"/>
	<polygon class="st25" points="268.8,24.9 271.1,23.5 272.4,21.2 272.4,18.5 271.1,16.2 268.8,14.8 266.1,14.8 263.7,16.2 
		262.4,18.5 262.4,21.2 263.7,23.5 266.1,24.9 	"/>
	<polygon class="st10" points="269.1,26.3 272.1,24.6 273.8,21.6 273.8,18.1 272.1,15.2 269.1,13.4 265.7,13.4 262.7,15.2 261,18.1 
		261,21.6 262.7,24.6 265.7,26.3 	"/>
	<polygon class="st10" points="269.5,27.5 273,25.4 275,21.9 275,17.8 273,14.3 269.5,12.2 265.4,12.2 261.8,14.3 259.8,17.8 
		259.8,21.9 261.8,25.4 265.4,27.5 	"/>
	<path class="st26" d="M267.4,19.8c0-3.1-2.5-5.6-5.6-5.6l0,0"/>
	<path class="st26" d="M267.4,19.8c0,3.9,1.3,7,2.9,7"/>
	<path class="st29" d="M267.4,19.8c0-1.9,2.4-3.5,5.3-3.5"/>
	<path class="st29" d="M267.3,19.7c0,0.6-2.8,1.1-6.3,1.1"/>
	<path class="st29" d="M267.4,19.8c0-1.3-3.4-2.4-7.6-2.4"/>
	<path class="st26" d="M267.4,19.7c0-0.2-1.4-0.3-3.1-0.3"/>
	<path class="st30" d="M267.4,19.7c0-0.9,1.2-1.7,2.7-1.7"/>
	<circle class="st28" cx="267.4" cy="19.9" r="0.4"/>
	<circle class="st23" cx="267.8" cy="37.1" r="2"/>
	<circle class="st24" cx="267.8" cy="37.1" r="3"/>
	<polygon class="st25" points="272.9,35.7 271.5,33.4 269.2,32.1 266.5,32.1 264.1,33.4 262.8,35.7 262.8,38.4 264.1,40.8 
		266.5,42.1 269.2,42.1 271.5,40.8 272.9,38.4 	"/>
	<polygon class="st10" points="274.2,35.4 272.5,32.4 269.5,30.7 266.1,30.7 263.1,32.4 261.4,35.4 261.4,38.8 263.1,41.8 
		266.1,43.5 269.5,43.5 272.5,41.8 274.2,38.8 	"/>
	<polygon class="st10" points="275.5,35 273.4,31.5 269.9,29.5 265.8,29.5 262.2,31.5 260.2,35 260.2,39.1 262.2,42.7 265.8,44.7 
		269.9,44.7 273.4,42.7 275.5,39.1 	"/>
	<path class="st26" d="M267.8,37.2c-3.1,0-5.6,2.5-5.6,5.6v0"/>
	<path class="st29" d="M267.7,37.1c-2.8,0-5,2.6-5,5.8"/>
	<path class="st29" d="M267.7,37.1c2.3,0,4.2-2.7,4.2-6"/>
	<path class="st29" d="M267.7,37.2c3.9,0,7-1.3,7-2.9"/>
	<path class="st29" d="M267.7,37.2c-1.9,0-3.5-2.4-3.5-5.3"/>
	<path class="st26" d="M267.7,37.2c0.6,0,1.1,2.8,1.1,6.3"/>
	<path class="st26" d="M267.8,37.1c-1.3,0-2.4,3.4-2.4,7.7"/>
	<path class="st26" d="M267.7,37.1c-0.2,0-0.3,1.4-0.3,3.1"/>
	<path class="st26" d="M267.7,37.2c-0.9,0-1.7-1.2-1.7-2.7"/>
	<circle class="st28" cx="267.8" cy="37.1" r="0.4"/>
	<circle class="st23" cx="286.4" cy="37.1" r="2"/>
	<circle class="st24" cx="286.4" cy="37.1" r="3"/>
	<polygon class="st25" points="285.1,32.1 282.8,33.4 281.4,35.7 281.4,38.4 282.8,40.8 285.1,42.1 287.8,42.1 290.1,40.8 
		291.5,38.4 291.5,35.7 290.1,33.4 287.8,32.1 	"/>
	<polygon class="st10" points="284.7,30.7 281.7,32.4 280,35.4 280,38.8 281.7,41.8 284.7,43.5 288.1,43.5 291.1,41.8 292.9,38.8 
		292.9,35.4 291.1,32.4 288.1,30.7 	"/>
	<polygon class="st10" points="284.4,29.5 280.9,31.5 278.8,35 278.8,39.1 280.9,42.7 284.4,44.7 288.5,44.7 292,42.7 294.1,39.1 
		294.1,35 292,31.5 288.5,29.5 	"/>
	<path class="st31" d="M286.5,37.1c0,3.1,2.5,5.6,5.6,5.6l0,0"/>
	<path class="st32" d="M286.5,37.2c0-3.1-2.5-5.7-5.7-5.7l0,0"/>
	<path class="st26" d="M286.5,37.2c0-3.9-1.3-7-2.9-7"/>
	<path class="st31" d="M286.5,37.2c0,1.9-2.4,3.5-5.3,3.5"/>
	<path class="st26" d="M286.5,37.2c0-0.6,2.8-1.1,6.3-1.1"/>
	<path class="st26" d="M286.4,37.1c0,1.3,3.4,2.4,7.6,2.4"/>
	<path class="st26" d="M286.4,37.2c0,0.2,1.4,0.3,3.1,0.3"/>
	<path class="st26" d="M286.5,37.2c0,0.9-1.2,1.7-2.7,1.7"/>
	<circle class="st28" cx="286.4" cy="37.1" r="0.4"/>
	<circle class="st23" cx="305" cy="37.1" r="2"/>
	<circle class="st24" cx="305" cy="37.1" r="3"/>
	<polygon class="st25" points="303.7,32.1 301.4,33.4 300,35.7 300,38.4 301.4,40.8 303.7,42.1 306.4,42.1 308.7,40.8 310.1,38.4 
		310.1,35.7 308.7,33.4 306.4,32.1 	"/>
	<polygon class="st10" points="303.3,30.7 300.3,32.4 298.6,35.4 298.6,38.8 300.3,41.8 303.3,43.5 306.8,43.5 309.7,41.8 
		311.5,38.8 311.5,35.4 309.7,32.4 306.8,30.7 	"/>
	<polygon class="st10" points="303,29.5 299.5,31.5 297.4,35 297.4,39.1 299.5,42.7 303,44.7 307.1,44.7 310.6,42.7 312.7,39.1 
		312.7,35 310.6,31.5 307.1,29.5 	"/>
	<path class="st26" d="M305.1,37.1c0,3.1,2.5,5.6,5.6,5.6l0,0"/>
	<path class="st26" d="M305.1,37.2c0-3.9-1.3-7-2.9-7"/>
	<path class="st26" d="M305.1,37.2c0,1.9-2.4,3.5-5.3,3.5"/>
	<path class="st26" d="M305.1,37.2c0-0.6,2.8-1.1,6.3-1.1"/>
	<path class="st26" d="M305,37.1c0,1.3,3.4,2.4,7.6,2.4"/>
	<path class="st26" d="M305,37.2c0,0.2,1.4,0.3,3.1,0.3"/>
	<path class="st26" d="M305.1,37.2c0,0.9-1.2,1.7-2.7,1.7"/>
	<circle class="st28" cx="305" cy="37.1" r="0.4"/>
	<path class="st4" d="M100.5,38.9h11.1c0.6,0,1,0.4,1,1V51c0,0.6-0.4,1-1,1h-11.1c-0.6,0-1-0.4-1-1V39.9
		C99.5,39.3,100,38.9,100.5,38.9z"/>
	<path class="st4" d="M100.5,24.4h11.1c0.6,0,1,0.4,1,1v11.1c0,0.6-0.4,1-1,1h-11.1c-0.6,0-1-0.4-1-1V25.4
		C99.5,24.8,99.9,24.4,100.5,24.4z"/>
	<path class="st4" d="M100.5,10h11.1c0.6,0,1,0.4,1,1v11.1c0,0.6-0.4,1-1,1h-11.1c-0.6,0-1-0.4-1-1V11C99.5,10.4,99.9,10,100.5,10z"
		/>
	<path class="st4" d="M163.9,52.3h-48.8l0,0V7.8l0,0h48.8c0.6,0,1,0.4,1,1v42.4C164.9,51.8,164.5,52.3,163.9,52.3L163.9,52.3z"/>
	<path class="st4" d="M20.7,7.8h20.7l0,0v44.4l0,0H20.7c-0.6,0-1-0.4-1-1V8.8C19.7,8.3,20.1,7.8,20.7,7.8z"/>
	<path class="st33" d="M23,19.5l2.4-3.6c0.7-0.5,1.4-1.2,1.8-2c0.5-1,3.1-1.6,3.1-1.6l3.7-0.6l2.1,1l1.1,0.6"/>
	<path class="st5" d="M20.7,7.8h67.2c0.6,0,1,0.4,1,1v42.4c0,0.6-0.4,1-1,1H20.7c-0.6,0-1-0.4-1-1V8.8C19.7,8.3,20.2,7.8,20.7,7.8z"
		/>
	<path class="st6" d="M19.7,48.9h69.2l0,0v2.3c0,0.6-0.4,1-1,1H20.7c-0.6,0-1-0.4-1-1V48.9L19.7,48.9z"/>
	<circle class="st7" cx="87.1" cy="50.9" r="0.7"/>
	<circle class="st22" cx="71" cy="26.8" r="13.5"/>
	<circle class="st5" cx="67.3" cy="40.3" r="4.7"/>
	<circle class="st22" cx="55.4" cy="41.7" r="3.2"/>
	<line class="st5" x1="55.4" y1="44.9" x2="67.8" y2="44.9"/>
	<circle class="st22" cx="59.6" cy="34" r="1.6"/>
	<circle class="st22" cx="69.5" cy="13.3" r="1.6"/>
	<circle class="st22" cx="81.3" cy="35.6" r="1.6"/>
	<circle class="st22" cx="67.3" cy="39.8" r="1.6"/>
	<rect x="23" y="18" class="st0" width="1.1" height="1.5"/>
	<rect x="24.8" y="17.4" class="st0" width="1.1" height="2.1"/>
	<rect x="26.7" y="15.3" class="st0" width="1.1" height="4.2"/>
	<rect x="28.5" y="13.3" class="st0" width="1.1" height="6.2"/>
	<rect x="30.3" y="12.7" class="st0" width="1.1" height="6.8"/>
	<rect x="32.2" y="12.2" class="st0" width="1.1" height="7.2"/>
	<rect x="34" y="12.2" class="st0" width="1.1" height="7.2"/>
	<rect x="35.8" y="13.8" class="st0" width="1.1" height="5.6"/>
	<path class="st34" d="M22.5,29.2l2.1-1l1.5-1.4c0.2-0.5,0.7-0.7,1.2-0.7h2.1c1-0.3,1.9-0.6,2.9-1c0.2-0.1,0-0.6,0.6-0.6
		s1.6-0.5,2.1-0.5H37l0.6-0.8v6.1L22.5,29.2z"/>
	<path class="st35" d="M22.5,29.2l2.1-0.5l1.5-0.8c0,0,0.2-0.4,1.2-0.4h2.1c0.3,0,2.7-0.5,2.9-0.5s0-0.4,0.6-0.4s1.6-0.3,2.1-0.3H37
		l0.6-0.5v3.4L22.5,29.2z"/>
	<path class="st0" d="M22.5,29.2l1.8-0.3l1.3-0.4c0,0,0.2-0.2,1.1-0.2h1.8c0.3,0,2.4-0.2,2.6-0.3s0-0.2,0.5-0.2
		c0.6,0,1.4-0.1,1.8-0.1h1.8l0.5-0.2v1.7L22.5,29.2z"/>
	<path class="st0" d="M25.8,35.8c-1.8,0-3.3,1.4-3.3,3.2c0,1.8,1.4,3.3,3.2,3.3s3.3-1.4,3.3-3.2c0,0,0,0,0-0.1h-3.2V35.8z"/>
	<path class="st9" d="M26.1,35.4v3.2h3.2C29.3,36.9,27.9,35.4,26.1,35.4L26.1,35.4z"/>
	<path class="st36" d="M34.5,42.1c-1.7,0-3.1-1.4-3.1-3.1s1.4-3.1,3.1-3.1"/>
	<path class="st37" d="M37.1,40.6c-0.6,0.9-1.5,1.4-2.6,1.4"/>
	<path class="st38" d="M34.5,36c1.7,0,3.1,1.4,3.1,3c0,0.6-0.2,1.2-0.5,1.6"/>
	<path class="st22" d="M174.3,7.8h67.2c0.6,0,1,0.4,1,1v42.4c0,0.6-0.4,1-1,1h-67.2c-0.6,0-1-0.4-1-1V8.8
		C173.3,8.3,173.8,7.8,174.3,7.8z"/>
	<circle class="st23" cx="189.1" cy="19.7" r="1.9"/>
	<circle class="st24" cx="189.1" cy="19.7" r="3"/>
	<polygon class="st25" points="194.1,21.1 192.8,23.4 190.4,24.7 187.8,24.7 185.4,23.4 184.1,21.1 184.1,18.4 185.4,16 187.8,14.7 
		190.4,14.7 192.8,16 194.1,18.4 	"/>
	<polygon class="st10" points="195.5,21.4 193.8,24.4 190.8,26.1 187.4,26.1 184.4,24.4 182.7,21.4 182.7,18 184.4,15 187.4,13.3 
		190.8,13.3 193.8,15 195.5,18 	"/>
	<polygon class="st10" points="196.7,21.8 194.7,25.3 191.1,27.3 187.1,27.3 183.5,25.3 181.5,21.8 181.5,17.7 183.5,14.1 
		187.1,12.1 191.1,12.1 194.7,14.1 196.7,17.7 	"/>
	<path class="st26" d="M189.1,19.7c-3.1,0-5.6-2.5-5.6-5.6c0,0,0,0,0,0"/>
	<path class="st27" d="M189,19.7c3.1,0,5.7,2.5,5.7,5.7v0"/>
	<path class="st26" d="M189,19.7c-2.8,0-5.1-2.6-5.1-5.8"/>
	<path class="st26" d="M188.8,19.7c-3.2,0-5.7-2.2-5.7-5"/>
	<path class="st27" d="M188.8,19.7c-2.5,0-4.5-2.6-4.5-5.8"/>
	<path class="st26" d="M189,19.7c2.3,0,4.2,2.7,4.2,6"/>
	<path class="st26" d="M189,19.7c3.9,0,7,1.3,7,2.9"/>
	<path class="st26" d="M189,19.7c-1.9,0-3.5,2.4-3.5,5.3"/>
	<path class="st26" d="M189,19.6c0.6,0,1.1-2.8,1.1-6.3"/>
	<path class="st26" d="M189.1,19.7c-1.3,0-2.4-3.4-2.4-7.6"/>
	<path class="st26" d="M189,19.7c-0.2,0-0.3-1.4-0.3-3.1"/>
	<path class="st26" d="M189,19.7c-0.9,0-1.7,1.2-1.7,2.7"/>
	<circle class="st28" cx="189.1" cy="19.7" r="0.4"/>
	<path class="st6" d="M173.3,48.9h69.2l0,0v2.3c0,0.6-0.4,1-1,1h-67.2c-0.6,0-1-0.4-1-1V48.9L173.3,48.9z"/>
	<circle class="st7" cx="239.7" cy="50.9" r="0.7"/>
	<circle class="st23" cx="207.7" cy="19.7" r="1.9"/>
	<circle class="st24" cx="207.7" cy="19.7" r="3"/>
	<polygon class="st25" points="206.4,24.7 204,23.4 202.7,21.1 202.7,18.4 204,16 206.4,14.7 209.1,14.7 211.4,16 212.7,18.4 
		212.7,21.1 211.4,23.4 209.1,24.7 	"/>
	<polygon class="st10" points="206,26.1 203,24.4 201.3,21.4 201.3,18 203,15 206,13.3 209.4,13.3 212.4,15 214.1,18 214.1,21.4 
		212.4,24.4 209.4,26.1 	"/>
	<polygon class="st10" points="205.7,27.3 202.1,25.3 200.1,21.8 200.1,17.7 202.1,14.1 205.7,12.1 209.8,12.1 213.3,14.1 
		215.3,17.7 215.3,21.8 213.3,25.3 209.8,27.3 	"/>
	<path class="st26" d="M207.8,19.7c0-3.1,2.5-5.6,5.6-5.6l0,0"/>
	<path class="st27" d="M207.8,19.6c0,3.1-2.5,5.7-5.7,5.7l0,0"/>
	<path class="st26" d="M207.8,19.6c0,3.9-1.3,7-2.9,7"/>
	<path class="st26" d="M207.8,19.6c0-1.9-2.4-3.5-5.3-3.5"/>
	<path class="st26" d="M207.8,19.6c0,0.6,2.8,1.1,6.3,1.1"/>
	<path class="st26" d="M207.7,19.7c0-1.3,3.4-2.4,7.6-2.4"/>
	<path class="st26" d="M207.7,19.6c0-0.2,1.4-0.3,3.1-0.3"/>
	<path class="st26" d="M207.8,19.6c0-0.9-1.2-1.7-2.7-1.7"/>
	<circle class="st28" cx="207.7" cy="19.7" r="0.4"/>
	<circle class="st23" cx="226.3" cy="19.7" r="1.9"/>
	<circle class="st24" cx="226.3" cy="19.7" r="3"/>
	<polygon class="st25" points="225,24.7 222.6,23.4 221.3,21.1 221.3,18.4 222.6,16 225,14.7 227.7,14.7 230,16 231.3,18.4 
		231.3,21.1 230,23.4 227.7,24.7 	"/>
	<polygon class="st10" points="224.6,26.1 221.6,24.4 219.9,21.4 219.9,18 221.6,15 224.6,13.3 228,13.3 231,15 232.7,18 
		232.7,21.4 231,24.4 228,26.1 	"/>
	<polygon class="st10" points="224.3,27.3 220.7,25.3 218.7,21.8 218.7,17.7 220.7,14.1 224.3,12.1 228.4,12.1 231.9,14.1 
		233.9,17.7 233.9,21.8 231.9,25.3 228.4,27.3 	"/>
	<path class="st26" d="M226.4,19.7c0-3.1,2.5-5.6,5.6-5.6l0,0"/>
	<path class="st26" d="M226.4,19.6c0,3.9-1.3,7-2.9,7"/>
	<path class="st29" d="M226.4,19.6c0-1.9-2.4-3.5-5.3-3.5"/>
	<path class="st29" d="M226.4,19.6c0,0.6,2.8,1.1,6.3,1.1"/>
	<path class="st29" d="M226.3,19.7c0-1.3,3.4-2.4,7.6-2.4"/>
	<path class="st26" d="M226.3,19.6c0-0.2,1.4-0.3,3.1-0.3"/>
	<path class="st30" d="M226.4,19.6c0-0.9-1.2-1.7-2.7-1.7"/>
	<circle class="st28" cx="226.3" cy="19.7" r="0.4"/>
	<circle class="st23" cx="225.9" cy="36.9" r="1.9"/>
	<circle class="st24" cx="225.9" cy="36.9" r="3"/>
	<polygon class="st25" points="220.9,35.6 222.2,33.3 224.6,31.9 227.2,31.9 229.6,33.3 230.9,35.6 230.9,38.3 229.6,40.6 227.2,42 
		224.6,42 222.2,40.6 220.9,38.3 	"/>
	<polygon class="st10" points="219.5,35.2 221.2,32.2 224.2,30.5 227.6,30.5 230.6,32.2 232.3,35.2 232.3,38.7 230.6,41.6 
		227.6,43.4 224.2,43.4 221.2,41.6 219.5,38.7 	"/>
	<polygon class="st10" points="218.3,34.9 220.3,31.4 223.9,29.3 227.9,29.3 231.5,31.4 233.5,34.9 233.5,39 231.5,42.5 227.9,44.6 
		223.9,44.6 220.3,42.5 218.3,39 	"/>
	<path class="st26" d="M225.9,37c3.1,0,5.6,2.5,5.6,5.6v0"/>
	<path class="st29" d="M226,36.9c2.8,0,5.1,2.6,5.1,5.8"/>
	<path class="st29" d="M226,36.9c-2.3,0-4.2-2.7-4.2-6"/>
	<path class="st29" d="M226,37c-3.9,0-7-1.3-7-2.9"/>
	<path class="st29" d="M226,37c1.9,0,3.5-2.4,3.5-5.3"/>
	<path class="st26" d="M226,37.1c-0.6,0-1.1,2.8-1.1,6.3"/>
	<path class="st26" d="M225.9,36.9c1.3,0,2.4,3.4,2.4,7.7"/>
	<path class="st26" d="M226,36.9c0.2,0,0.3,1.4,0.3,3.1"/>
	<path class="st26" d="M226,37c0.9,0,1.7-1.2,1.7-2.7"/>
	<circle class="st28" cx="225.9" cy="36.9" r="0.4"/>
	<circle class="st23" cx="207.3" cy="36.9" r="1.9"/>
	<circle class="st24" cx="207.3" cy="36.9" r="3"/>
	<polygon class="st25" points="208.6,31.9 211,33.3 212.3,35.6 212.3,38.3 211,40.6 208.6,42 205.9,42 203.6,40.6 202.3,38.3 
		202.3,35.6 203.6,33.3 205.9,31.9 	"/>
	<polygon class="st10" points="209,30.5 212,32.2 213.7,35.2 213.7,38.7 212,41.6 209,43.4 205.6,43.4 202.6,41.6 200.9,38.7 
		200.9,35.2 202.6,32.2 205.6,30.5 	"/>
	<polygon class="st10" points="209.3,29.3 212.9,31.4 214.9,34.9 214.9,39 212.9,42.5 209.3,44.6 205.2,44.6 201.7,42.5 199.7,39 
		199.7,34.9 201.7,31.4 205.2,29.3 	"/>
	<path class="st31" d="M207.2,37c0,3.1-2.5,5.6-5.6,5.6l0,0"/>
	<path class="st32" d="M207.2,37.1c0-3.1,2.5-5.7,5.7-5.7l0,0"/>
	<path class="st26" d="M207.2,37c0-3.9,1.3-7,2.9-7"/>
	<path class="st31" d="M207.2,37c0,1.9,2.4,3.5,5.3,3.5"/>
	<path class="st26" d="M207.2,37.1c0-0.6-2.8-1.1-6.3-1.1"/>
	<path class="st26" d="M207.3,37c0,1.3-3.4,2.4-7.6,2.4"/>
	<path class="st26" d="M207.3,37.1c0,0.2-1.4,0.3-3.1,0.3"/>
	<path class="st26" d="M207.2,37.1c0,0.9,1.2,1.7,2.7,1.7"/>
	<circle class="st28" cx="207.3" cy="36.9" r="0.4"/>
	<circle class="st23" cx="188.7" cy="36.9" r="1.9"/>
	<circle class="st24" cx="188.7" cy="36.9" r="3"/>
	<polygon class="st25" points="190,31.9 192.4,33.3 193.7,35.6 193.7,38.3 192.4,40.6 190,42 187.3,42 185,40.6 183.7,38.3 
		183.7,35.6 185,33.3 187.3,31.9 	"/>
	<polygon class="st10" points="190.4,30.5 193.4,32.2 195.1,35.2 195.1,38.7 193.4,41.6 190.4,43.4 187,43.4 184,41.6 182.3,38.7 
		182.3,35.2 184,32.2 187,30.5 	"/>
	<polygon class="st10" points="190.7,29.3 194.3,31.4 196.3,34.9 196.3,39 194.3,42.5 190.7,44.6 186.6,44.6 183.1,42.5 181.1,39 
		181.1,34.9 183.1,31.4 186.6,29.3 	"/>
	<path class="st26" d="M188.6,37c0,3.1-2.5,5.6-5.6,5.6l0,0"/>
	<path class="st26" d="M188.6,37c0-3.9,1.3-7,2.9-7"/>
	<path class="st26" d="M188.6,37c0,1.9,2.4,3.5,5.3,3.5"/>
	<path class="st26" d="M188.6,37.1c0-0.6-2.8-1.1-6.3-1.1"/>
	<path class="st26" d="M188.7,37c0,1.3-3.4,2.4-7.6,2.4"/>
	<path class="st26" d="M188.7,37.1c0,0.2-1.4,0.3-3.1,0.3"/>
	<path class="st26" d="M188.6,37.1c0,0.9,1.2,1.7,2.7,1.7"/>
	<circle class="st28" cx="188.7" cy="36.9" r="0.4"/>
	<path class="st5" d="M96.7,7.8h67.2c0.6,0,1,0.4,1,1v42.4c0,0.6-0.4,1-1,1H96.7c-0.6,0-1-0.4-1-1V8.8C95.7,8.3,96.2,7.8,96.7,7.8z"
		/>
	<path class="st6" d="M95.7,48.9h69.2l0,0v2.3c0,0.6-0.4,1-1,1H96.7c-0.6,0-1-0.4-1-1V48.9L95.7,48.9z"/>
	<circle class="st7" cx="162.1" cy="50.9" r="0.7"/>
	<line class="st8" x1="121" y1="16.3" x2="121" y2="42.4"/>
	<line class="st8" x1="130.2" y1="16.3" x2="130.2" y2="42.4"/>
	<line class="st8" x1="139.4" y1="16.3" x2="139.4" y2="42.4"/>
	<line class="st8" x1="148.6" y1="16.3" x2="148.6" y2="42.4"/>
	<line class="st8" x1="157.9" y1="16.3" x2="157.9" y2="42.4"/>
	<circle class="st9" cx="108.5" cy="15" r="0.4"/>
	<circle class="st9" cx="107.2" cy="15" r="0.4"/>
	<circle class="st0" cx="104.2" cy="17.4" r="0.4"/>
	<circle class="st0" cx="102.8" cy="16.6" r="0.4"/>
	<circle class="st0" cx="102.8" cy="18.1" r="0.4"/>
	<circle class="st0" cx="104.2" cy="19.1" r="0.4"/>
	<circle class="st0" cx="105.5" cy="18.5" r="0.4"/>
	<circle class="st0" cx="102.8" cy="19.6" r="0.4"/>
	<circle class="st9" cx="108.5" cy="13.9" r="0.4"/>
	<circle class="st9" cx="109.8" cy="14.6" r="0.4"/>
	<circle class="st0" cx="103.7" cy="20.3" r="0.4"/>
	<circle class="st0" cx="101" cy="18.6" r="0.4"/>
	<circle class="st9" cx="107.2" cy="13" r="0.4"/>
	<circle class="st9" cx="104.8" cy="35.5" r="0.4"/>
	<circle class="st9" cx="102.7" cy="33.3" r="0.4"/>
	<circle class="st0" cx="108.2" cy="31.4" r="0.4"/>
	<circle class="st0" cx="104.4" cy="29.5" r="0.4"/>
	<circle class="st0" cx="101.2" cy="32.9" r="0.4"/>
	<circle class="st0" cx="101.6" cy="30.5" r="0.4"/>
	<circle class="st0" cx="104.4" cy="34.1" r="0.4"/>
	<circle class="st0" cx="105.4" cy="31" r="0.4"/>
	<circle class="st9" cx="107.4" cy="29.5" r="0.4"/>
	<circle class="st9" cx="108.7" cy="30.2" r="0.4"/>
	<circle class="st0" cx="102.7" cy="35.9" r="0.4"/>
	<circle class="st0" cx="100.7" cy="35.5" r="0.4"/>
	<circle class="st9" cx="106.1" cy="28.6" r="0.4"/>
	<circle class="st9" cx="105.2" cy="47.8" r="0.4"/>
	<circle class="st9" cx="107.4" cy="45.6" r="0.4"/>
	<circle class="st0" cx="101.8" cy="43.7" r="0.4"/>
	<circle class="st0" cx="105.7" cy="41.8" r="0.4"/>
	<circle class="st0" cx="108.9" cy="45.2" r="0.4"/>
	<circle class="st0" cx="108.5" cy="42.8" r="0.4"/>
	<circle class="st0" cx="105.7" cy="46.4" r="0.4"/>
	<circle class="st0" cx="104.7" cy="43.3" r="0.4"/>
	<circle class="st9" cx="102.7" cy="41.8" r="0.4"/>
	<circle class="st9" cx="101.4" cy="42.5" r="0.4"/>
	<circle class="st0" cx="107.4" cy="48.2" r="0.4"/>
	<circle class="st0" cx="109.3" cy="47.8" r="0.4"/>
	<circle class="st9" cx="104" cy="40.9" r="0.4"/>
	<polyline class="st10" points="121,38.8 130.2,33.9 139.4,30.5 148.6,28.6 157.9,32.9 	"/>
	<polyline class="st39" points="121,39.6 130.2,35.6 139.4,32.9 148.6,31.3 157.9,34.8 	"/>
	<polyline class="st11" points="121,40.1 130.2,36.8 139.4,34.6 148.6,33.3 157.9,36.1 	"/>
	<polyline class="st12" points="121,29 130.2,25 139.4,22.2 148.6,20.7 157.9,24.2 	"/>
	<polyline class="st13" points="121,42.9 130.2,39.6 139.4,37.3 148.6,36.1 157.9,38.9 	"/>
	<polyline class="st40" points="121,35.6 130.2,32.9 139.4,31 148.6,30 157.9,32.3 	"/>
	<polyline class="st12" points="121,28.5 130.2,24.5 139.4,21.7 148.6,20.1 157.9,23.6 	"/>
	<polyline class="st40" points="121,29.6 130.2,26.9 139.4,25 148.6,24 157.9,26.3 	"/>
	<rect x="334" y="199.7" class="st0" width="19.8" height="1.4"/>
	<path class="st41" d="M308.1,149l2.7-4c0.8-0.6,1.5-1.4,2-2.3c0.5-1.1,3.5-1.8,3.5-1.8l4.1-0.6l2.3,1.1l1.2,0.7"/>
	<rect x="308.1" y="147.3" class="st0" width="1.2" height="1.6"/>
	<rect x="310.1" y="146.6" class="st0" width="1.2" height="2.3"/>
	<rect x="312.2" y="144.3" class="st0" width="1.2" height="4.7"/>
	<rect x="314.2" y="142.1" class="st0" width="1.2" height="6.9"/>
	<rect x="316.3" y="141.4" class="st0" width="1.2" height="7.6"/>
	<rect x="318.3" y="140.9" class="st0" width="1.2" height="8.1"/>
	<rect x="320.4" y="140.9" class="st0" width="1.2" height="8.1"/>
	<rect x="322.4" y="142.6" class="st0" width="1.2" height="6.3"/>
	<path class="st0" d="M311.2,167.2c-2,0-3.6,1.6-3.6,3.6s1.6,3.6,3.6,3.6c2,0,3.6-1.6,3.6-3.6h-3.6V167.2z"/>
	<path class="st9" d="M311.5,166.9v3.6h3.6C315.2,168.5,313.5,166.9,311.5,166.9L311.5,166.9z"/>
	<path class="st4" d="M174.3,57.6h6.8l0,0V102l0,0h-6.8c-0.6,0-1-0.4-1-1V58.6C173.3,58,173.8,57.6,174.3,57.6z"/>
	<path class="st5" d="M241.5,102h-67.2c-0.6,0-1-0.4-1-1V58.6c0-0.6,0.4-1,1-1h67.2c0.6,0,1,0.4,1,1V101
		C242.5,101.6,242.1,102,241.5,102z"/>
	<path class="st6" d="M173.3,98.7h69.2l0,0v2.3c0,0.6-0.4,1-1,1h-67.2c-0.6,0-1-0.4-1-1V98.7L173.3,98.7z"/>
	<circle class="st7" cx="239.7" cy="100.6" r="0.7"/>
	<path class="st9" d="M189.6,63.6h7.2c0.6,0,1,0.4,1,1v0.8c0,0.6-0.4,1-1,1h-7.2c-0.6,0-1-0.4-1-1v-0.8
		C188.6,64,189.1,63.6,189.6,63.6z"/>
	<path class="st0" d="M201.6,63.6h7.2c0.6,0,1,0.4,1,1v0.8c0,0.6-0.4,1-1,1h-7.2c-0.6,0-1-0.4-1-1v-0.8
		C200.6,64,201,63.6,201.6,63.6z"/>
	<path class="st9" d="M214,63.6h7.2c0.6,0,1,0.4,1,1v0.8c0,0.6-0.4,1-1,1H214c-0.6,0-1-0.4-1-1v-0.8C213,64,213.4,63.6,214,63.6z"/>
	<path class="st0" d="M225.9,63.6h7.2c0.6,0,1,0.4,1,1v0.8c0,0.6-0.4,1-1,1h-7.2c-0.6,0-1-0.4-1-1v-0.8
		C224.9,64,225.4,63.6,225.9,63.6z"/>
	<path class="st9" d="M189.6,68.8h7.2c0.6,0,1,0.4,1,1v0.8c0,0.6-0.4,1-1,1h-7.2c-0.6,0-1-0.4-1-1v-0.8
		C188.6,69.2,189.1,68.8,189.6,68.8z"/>
	<path class="st0" d="M201.6,68.8h7.2c0.6,0,1,0.4,1,1v0.8c0,0.6-0.4,1-1,1h-7.2c-0.6,0-1-0.4-1-1v-0.8
		C200.6,69.2,201,68.8,201.6,68.8z"/>
	<path class="st9" d="M233.1,76.8h-7.2c-0.6,0-1-0.4-1-1V75c0-0.6,0.4-1,1-1h7.2c0.6,0,1,0.4,1,1v0.8
		C234.1,76.3,233.7,76.8,233.1,76.8z"/>
	<path class="st0" d="M221.2,76.8H214c-0.6,0-1-0.4-1-1V75c0-0.6,0.4-1,1-1h7.2c0.6,0,1,0.4,1,1v0.8
		C222.2,76.3,221.8,76.8,221.2,76.8z"/>
	<path class="st9" d="M208.8,76.8h-7.2c-0.6,0-1-0.4-1-1V75c0-0.6,0.4-1,1-1h7.2c0.6,0,1,0.4,1,1v0.8
		C209.8,76.3,209.4,76.8,208.8,76.8z"/>
	<path class="st0" d="M196.9,76.8h-7.2c-0.6,0-1-0.4-1-1V75c0-0.6,0.4-1,1-1h7.2c0.6,0,1,0.4,1,1v0.8
		C197.9,76.3,197.4,76.8,196.9,76.8z"/>
	<path class="st9" d="M233.1,71.6h-7.2c-0.6,0-1-0.4-1-1v-0.8c0-0.6,0.4-1,1-1h7.2c0.6,0,1,0.4,1,1v0.8
		C234.1,71.1,233.7,71.6,233.1,71.6z"/>
	<path class="st0" d="M221.2,71.6H214c-0.6,0-1-0.4-1-1v-0.8c0-0.6,0.4-1,1-1h7.2c0.6,0,1,0.4,1,1v0.8
		C222.2,71.1,221.8,71.6,221.2,71.6z"/>
	<path class="st9" d="M233.1,82.3h-7.2c-0.6,0-1-0.4-1-1v-0.8c0-0.6,0.4-1,1-1h7.2c0.6,0,1,0.4,1,1v0.8
		C234.1,81.9,233.7,82.3,233.1,82.3z"/>
	<path class="st0" d="M221.2,82.3H214c-0.6,0-1-0.4-1-1v-0.8c0-0.6,0.4-1,1-1h7.2c0.6,0,1,0.4,1,1v0.8
		C222.2,81.9,221.8,82.3,221.2,82.3z"/>
	<path class="st9" d="M208.8,82.3h-7.2c-0.6,0-1-0.4-1-1v-0.8c0-0.6,0.4-1,1-1h7.2c0.6,0,1,0.4,1,1v0.8
		C209.8,81.9,209.4,82.3,208.8,82.3z"/>
	<path class="st0" d="M196.9,82.3h-7.2c-0.6,0-1-0.4-1-1v-0.8c0-0.6,0.4-1,1-1h7.2c0.6,0,1,0.4,1,1v0.8
		C197.9,81.9,197.4,82.3,196.9,82.3z"/>
	<path class="st9" d="M233.1,87.5h-7.2c-0.6,0-1-0.4-1-1v-0.8c0-0.6,0.4-1,1-1h7.2c0.6,0,1,0.4,1,1v0.8
		C234.1,87.1,233.7,87.5,233.1,87.5z"/>
	<path class="st0" d="M221.2,87.5H214c-0.6,0-1-0.4-1-1v-0.8c0-0.6,0.4-1,1-1h7.2c0.6,0,1,0.4,1,1v0.8
		C222.2,87.1,221.8,87.5,221.2,87.5z"/>
	<path class="st9" d="M189.6,90h7.2c0.6,0,1,0.4,1,1v0.8c0,0.6-0.4,1-1,1h-7.2c-0.6,0-1-0.4-1-1V91C188.6,90.4,189.1,90,189.6,90z"
		/>
	<path class="st0" d="M201.6,90h7.2c0.6,0,1,0.4,1,1v0.8c0,0.6-0.4,1-1,1h-7.2c-0.6,0-1-0.4-1-1V91C200.6,90.4,201,90,201.6,90z"/>
	<path class="st9" d="M214,90h7.2c0.6,0,1,0.4,1,1v0.8c0,0.6-0.4,1-1,1H214c-0.6,0-1-0.4-1-1V91C213,90.4,213.4,90,214,90z"/>
	<path class="st0" d="M225.9,90h7.2c0.6,0,1,0.4,1,1v0.8c0,0.6-0.4,1-1,1h-7.2c-0.6,0-1-0.4-1-1V91C224.9,90.4,225.4,90,225.9,90z"
		/>
	<path class="st9" d="M189.6,84.8h7.2c0.6,0,1,0.4,1,1v0.8c0,0.6-0.4,1-1,1h-7.2c-0.6,0-1-0.4-1-1v-0.8
		C188.6,85.2,189.1,84.8,189.6,84.8z"/>
	<path class="st0" d="M201.6,84.8h7.2c0.6,0,1,0.4,1,1v0.8c0,0.6-0.4,1-1,1h-7.2c-0.6,0-1-0.4-1-1v-0.8
		C200.6,85.2,201,84.8,201.6,84.8z"/>
	<line class="st15" x1="96.2" y1="60.9" x2="164.8" y2="60.9"/>
	<line class="st15" x1="96.2" y1="65.9" x2="164.8" y2="65.9"/>
	<line class="st16" x1="135.7" y1="57" x2="135.7" y2="100.8"/>
	<line class="st16" x1="130.6" y1="57" x2="130.6" y2="100.8"/>
	<line class="st16" x1="125.6" y1="57" x2="125.6" y2="100.8"/>
	<line class="st16" x1="120.5" y1="57" x2="120.5" y2="100.8"/>
	<line class="st16" x1="115.5" y1="57" x2="115.5" y2="100.8"/>
	<line class="st16" x1="110.4" y1="57" x2="110.4" y2="100.8"/>
	<line class="st16" x1="105.4" y1="57" x2="105.4" y2="100.8"/>
	<line class="st16" x1="100.3" y1="57" x2="100.3" y2="100.8"/>
	<line class="st16" x1="160.9" y1="57" x2="160.9" y2="100.8"/>
	<line class="st16" x1="155.9" y1="57" x2="155.9" y2="100.8"/>
	<line class="st16" x1="150.8" y1="57" x2="150.8" y2="100.8"/>
	<line class="st16" x1="145.8" y1="57" x2="145.8" y2="100.8"/>
	<line class="st16" x1="140.7" y1="57" x2="140.7" y2="100.8"/>
	<line class="st15" x1="96.2" y1="70.9" x2="164.8" y2="70.9"/>
	<line class="st15" x1="96.2" y1="75.9" x2="164.8" y2="75.9"/>
	<line class="st15" x1="96.2" y1="80.9" x2="164.8" y2="80.9"/>
	<line class="st15" x1="96.2" y1="85.9" x2="164.8" y2="85.9"/>
	<line class="st15" x1="96.2" y1="90.9" x2="164.8" y2="90.9"/>
	<line class="st15" x1="96.2" y1="95.9" x2="164.8" y2="95.9"/>
	<path class="st0" d="M370.3,47.4H236.6c-0.4,0-0.7,0.4-0.7,0.8v46.5c0,0.4,0.3,0.8,0.7,0.8H283l14.6,15l-2.3-15h74.8
		c0.4,0,0.7-0.4,0.7-0.8V48.2C370.9,47.8,370.7,47.5,370.3,47.4z"/>
	<path class="st22" d="M20.5,57.3h67.2c0.6,0,1,0.4,1,1v42.4c0,0.6-0.4,1-1,1H20.5c-0.6,0-1-0.4-1-1V58.3
		C19.5,57.7,19.9,57.3,20.5,57.3z"/>
	<circle class="st42" cx="53.2" cy="77.9" r="4.3"/>
	<circle class="st43" cx="53.2" cy="77.9" r="6.8"/>
	<polygon class="st32" points="56.2,66.7 61.4,69.7 64.4,74.9 64.4,80.9 61.4,86.1 56.2,89.1 50.2,89.1 45.1,86.1 42.1,80.9 
		42.1,74.9 45.1,69.7 50.2,66.7 	"/>
	<polygon class="st44" points="57.1,63.6 63.7,67.5 67.6,74.1 67.6,81.8 63.7,88.4 57.1,92.2 49.4,92.2 42.8,88.4 39,81.8 39,74.1 
		42.8,67.5 49.4,63.6 	"/>
	<polygon class="st44" points="57.8,60.9 65.7,65.5 70.2,73.4 70.2,82.5 65.7,90.4 57.8,94.9 48.7,94.9 40.8,90.4 36.2,82.5 
		36.2,73.4 40.8,65.5 48.7,60.9 	"/>
	<path class="st45" d="M53.1,78c0,6.9-5.5,12.5-12.4,12.5c0,0,0,0,0,0"/>
	<path class="st45" d="M53.1,78.2c0-7,5.7-12.7,12.6-12.7c0,0,0,0,0,0"/>
	<path class="st45" d="M53.3,78.2c0,6.2-5.8,11.2-12.9,11.2"/>
	<path class="st45" d="M53.2,78.5c0,7.1-4.9,12.8-11,12.8"/>
	<path class="st45" d="M53.3,78.5c0,5.5-5.8,9.9-13,9.9"/>
	<path class="st45" d="M53.3,78.2c0-5.2,6-9.3,13.5-9.3"/>
	<path class="st45" d="M53.1,78.1c0-8.6,2.9-15.6,6.4-15.6"/>
	<path class="st45" d="M53.1,78.1c0,4.3,5.3,7.7,11.9,7.7"/>
	<path class="st45" d="M53,78.2c0-1.4-6.3-2.5-14.1-2.5"/>
	<path class="st45" d="M53.3,78c0,2.9-7.6,5.3-17,5.3"/>
	<path class="st45" d="M53.3,78.2c0,0.4-3.1,0.7-6.9,0.7"/>
	<path class="st45" d="M53.1,78.2c0,2.1,2.7,3.8,6,3.8"/>
	<circle class="st46" cx="53.2" cy="77.9" r="0.8"/>
	<rect x="240.1" y="187.7" class="st0" width="4.8" height="12.6"/>
	<path class="st1" d="M200.9,128.2h83.7c2.2,0,4,1.8,4,4v55.6c0,2.2-1.8,4-4,4h-83.7c-2.2,0-4-1.8-4-4v-55.6
		C196.9,130,198.7,128.2,200.9,128.2z"/>
	<path class="st2" d="M202.2,132.1h80.6c0.6,0,1,0.4,1,1v48.3c0,0.6-0.4,1-1,1h-80.6c-0.6,0-1-0.4-1-1v-48.3
		C201.2,132.5,201.7,132.1,202.2,132.1z"/>
	<rect x="232.6" y="200" class="st0" width="19.8" height="1.4"/>
	<line class="st47" x1="2" y1="203.2" x2="362.4" y2="203.2"/>
	<path class="st1" d="M332.6,206.9h27.8c1.1,0,2,0.9,2,2v53.9l0,0h-31.8l0,0v-53.9C330.6,207.8,331.5,206.9,332.6,206.9z"/>
	<path class="st34" d="M337.7,214.4h17.6c0.6,0,1,0.4,1,1v1.8c0,0.6-0.4,1-1,1h-17.6c-0.6,0-1-0.4-1-1v-1.8
		C336.7,214.9,337.1,214.4,337.7,214.4z"/>
	<path class="st34" d="M337.7,221.5h17.6c0.6,0,1,0.4,1,1v1.8c0,0.6-0.4,1-1,1h-17.6c-0.6,0-1-0.4-1-1v-1.8
		C336.7,222,337.1,221.5,337.7,221.5z"/>
	<circle class="st9" cx="346.5" cy="249.3" r="2.3"/>
	<rect x="137.8" y="187.4" class="st0" width="4.8" height="12.6"/>
	<path class="st1" d="M98.6,127.9h83.7c2.2,0,4,1.8,4,4v55.6c0,2.2-1.8,4-4,4H98.6c-2.2,0-4-1.8-4-4v-55.6
		C94.6,129.7,96.4,127.9,98.6,127.9z"/>
	<rect x="130.3" y="199.7" class="st0" width="19.8" height="1.4"/>
	<path class="st1" d="M296.2,206.9H324c1.1,0,2,0.9,2,2v53.9l0,0h-31.8l0,0v-53.9C294.2,207.8,295.1,206.9,296.2,206.9
		C296.2,206.9,296.2,206.9,296.2,206.9z"/>
	<path class="st34" d="M301.3,214.4h17.6c0.6,0,1,0.4,1,1v1.8c0,0.6-0.4,1-1,1h-17.6c-0.6,0-1-0.4-1-1v-1.8
		C300.3,214.9,300.8,214.4,301.3,214.4z"/>
	<path class="st34" d="M301.3,221.5h17.6c0.6,0,1,0.4,1,1v1.8c0,0.6-0.4,1-1,1h-17.6c-0.6,0-1-0.4-1-1v-1.8
		C300.3,222,300.8,221.5,301.3,221.5z"/>
	<circle class="st9" cx="310.1" cy="249.3" r="2.3"/>
	<path class="st48" d="M292.1,193.4c0,0-0.2,2.7,0.4,3.3c1.3,1.4,6.1,2.6,7.6,1.4c0.8-0.6,1.1-3.9,1.1-3.9l-4.8-4.9L292.1,193.4z"/>
	<polygon class="st49" points="326.6,265.3 326.7,270.6 306.8,270.6 315.9,265.3 	"/>
	<polygon class="st0" points="325.3,230.4 325.2,265.3 314.6,265.3 312,230.4 	"/>
	<polygon class="st0" points="339.9,230.4 339.8,265.3 329.1,265.3 326.6,230.4 	"/>
	<path class="st49" d="M308.6,108.8c-1.2-4,6.5-11.5,9.9-11.9c4.3-0.5,12.5,7.1,14.6,11.9c3.1,7.4,4.3,30-1.8,33.7
		c-3.4,2.1-4.1-14.5-4.1-14.5s-2.2-10.3-4.2-12.7C320.2,111.9,310,113.3,308.6,108.8z"/>
	<path class="st4" d="M342.5,163.9l0.1,6l0.3,15.7l0.7,34.1l0.3,15.3h-32.7l-0.8-62c0,0-1.3,6.8-2.1,9c-1.5,4.4-7,12.6-7,12.6
		l-5.1-5.2c0,0,2-5.8,3-10c2.3-9.5,4.9-29,8.6-36.8c2.2-4.6,9.7-7.6,9.7-7.6h1.7l0.7,9.3l8.7-9.3c0.6-0.7,6.5,2.6,7.3,3
		c2.3,1.3,4.3,3,6,5.1c2.1,2.9,3.5,6.2,4.1,9.6c0.8,3.6,2,7.8,1.4,11.5c-0.6,3.9-3.5,5.9-7,7.1c-8.2,2.8-17.2,2.2-25.8,1.2l0.1-9
		c5.8,3.6,11.9,7.1,18.5,9.1"/>
	<path class="st48" d="M328.7,138v-10.4c1.7-2,3.3-4.2,4.8-6.4c1.2-2.3,3.2-9.7,3.2-9.7L310,102l-0.9,1.2c0,0-1.8,16.2,0,21.2
		c0.7,2.1,3.4,6.5,5.5,6.9c1,0.2,4.1,0.4,4.1,0.4l1.2,12.9L328.7,138z"/>
	<path class="st50" d="M308.1,106.1c-1.6-4,8.2-11.5,12.5-11.9c5.5-0.5,15.8,7.1,18.4,11.9c4,7.4,5.4,30-2.2,33.7
		c-4.4,2.1-5.2-14.5-5.2-14.5s-2.8-10.3-5.3-12.7C322.8,109.2,309.9,110.6,308.1,106.1z"/>
	<line class="st51" x1="320" y1="146.2" x2="320" y2="164.8"/>
	<line class="st51" x1="320" y1="235" x2="320" y2="174.3"/>
	<polygon class="st50" points="339.8,265.3 339.9,270.6 320,270.6 329.1,265.3 	"/>
	<path class="st48" d="M316.6,164.6c0,0-2.2-2.5-3.2-2.5c-2.4-0.1-7.4,3.1-7.7,5.4c-0.1,1.2,2.5,4.3,2.5,4.3h8.4L316.6,164.6z"/>
	<path class="st6" d="M19.5,98.4h69.2l0,0v2.3c0,0.6-0.4,1-1,1H20.5c-0.6,0-1-0.4-1-1V98.4L19.5,98.4z"/>
	<circle class="st7" cx="85.8" cy="100.3" r="0.7"/>
	<path class="st5" d="M97,57.3h67.2c0.6,0,1,0.4,1,1v42.4c0,0.6-0.4,1-1,1H97c-0.6,0-1-0.4-1-1V58.3C96,57.7,96.5,57.3,97,57.3z"/>
	<polygon class="st17" points="100.1,99.9 120.7,85.9 120.7,96.3 140.2,82.2 140.2,88.7 159,76.9 159,99.9 	"/>
	<polygon class="st52" points="100.1,100.4 121.2,83.8 121.2,96.2 141.2,79.4 141.2,87.1 160.6,73.2 160.6,100.4 	"/>
	<path class="st6" d="M96,98.4h69.2l0,0v2.3c0,0.6-0.4,1-1,1H97c-0.6,0-1-0.4-1-1V98.4L96,98.4z"/>
	<circle class="st7" cx="162.4" cy="100.3" r="0.7"/>
	<path class="st19" d="M165.2,71.5H96l0,0V58c0-0.6,0.4-1,1-1h67.2c0.6,0,1,0.4,1,1V71.5L165.2,71.5z"/>
	<path class="st53" d="M96.9,70.9c0,0,4.3-7.9,4.7-8.4s9-1.3,9.5-1.3s2.7,2.4,3.2,3s4.5,1.7,4.5,1.7s5.5-1.9,5.9-1.9
		c1.1-0.8,2.2-1.8,3.2-2.8l4.5,3l3.8,1.3l3.5-1.3h2.5l5.4-0.6l3.7,2.2l2.2,0.9l5.2,4.2L96.9,70.9z"/>
	<path class="st21" d="M96.2,71.2l8.9-1.2l2.3-1.9l2.6-0.7c0-0.5,0.2-0.9,0.4-1.2c0.4-0.4,3.6,0,3.6,0s3.7-0.4,4.3-0.8
		c0.7-0.4,1.4-0.7,2.1-0.9h4.3l2.9,2.8h5.9l4.8-1l2.9-1.8l2.4-0.2c0,0,3.6,2.7,4,2.9s3.2,2.4,3.2,2.4l3.7-1.4l2-1l3.2,2.8l1.3,0.9
		h1.7"/>
	<path class="st1" d="M110.3,207.1h27.8c1.1,0,2,0.9,2,2V263l0,0h-31.8l0,0v-53.9C108.3,208,109.2,207.1,110.3,207.1z"/>
	<path class="st34" d="M115.4,214.6H133c0.6,0,1,0.4,1,1v1.8c0,0.6-0.4,1-1,1h-17.6c-0.6,0-1-0.4-1-1v-1.8
		C114.4,215,114.9,214.6,115.4,214.6z"/>
	<path class="st34" d="M115.4,221.7H133c0.6,0,1,0.4,1,1v1.8c0,0.6-0.4,1-1,1h-17.6c-0.6,0-1-0.4-1-1v-1.8
		C114.4,222.1,114.9,221.7,115.4,221.7z"/>
	<circle class="st9" cx="124.2" cy="249.4" r="2.3"/>
	<path class="st3" d="M268.2,71.5v-7.7h1.3v7.7H268.2z"/>
	<path class="st3" d="M279.1,66.6l-0.7,0.8c-0.4-0.4-1-0.7-1.7-0.7c-1,0.1-1.8,1-1.7,2.1c0.1,0.9,0.8,1.6,1.7,1.7
		c0.7,0,1.3-0.2,1.7-0.7l0.7,0.7c-0.6,0.7-1.5,1.1-2.5,1.1c-1.6-0.2-2.8-1.8-2.5-3.4c0.2-1.3,1.2-2.4,2.5-2.5
		C277.6,65.6,278.5,65.9,279.1,66.6z"/>
	<path class="st3" d="M283.8,70.8c-0.5,0.5-1.2,0.8-1.9,0.8c-1,0.1-1.9-0.6-2-1.6c0-0.1,0-0.1,0-0.2c0-1.1,0.8-1.8,2.2-1.8h1.8v-0.2
		c0-0.7-0.5-1.2-1.4-1.2c-0.6,0-1.2,0.2-1.7,0.6l-0.5-0.9c0.7-0.5,1.6-0.8,2.5-0.7c1.5,0,2.4,0.8,2.4,2.1v3.8h-1.2L283.8,70.8z
		 M283.8,69.5v-0.5h-1.6c-0.8,0-1.2,0.2-1.2,0.8s0.4,0.9,1.1,0.9C283,70.6,283.7,70.1,283.8,69.5L283.8,69.5z"/>
	<path class="st3" d="M292.3,67.9v3.6h-1.3v-3.3c0.1-0.7-0.5-1.4-1.2-1.4c-0.1,0-0.2,0-0.2,0c-0.9,0-1.6,0.7-1.6,1.6v3.1h-1.3v-5.8
		h1.3v1.1c0.4-0.8,1.3-1.3,2.2-1.2c1.1-0.1,2.1,0.7,2.2,1.8C292.4,67.6,292.4,67.7,292.3,67.9z"/>
	<path class="st3" d="M300.6,66.2l-0.5,0.9c-0.5-0.3-1.1-0.5-1.7-0.5c-0.5,0-0.9,0.2-0.9,0.6c0,1.1,3.1,0.5,3.1,2.6
		c0,1.2-1.1,1.7-2.2,1.7c-0.9,0-1.7-0.3-2.4-0.8l0.5-0.9c0.6,0.5,1.3,0.7,2,0.7c0.5,0,1-0.2,1-0.6c0-1.2-3.1-0.5-3.1-2.6
		c0-1.2,1-1.7,2.2-1.7C299.4,65.6,300.1,65.8,300.6,66.2z"/>
	<path class="st3" d="M307.2,69.1h-4.4c0.2,0.9,0.9,1.5,1.8,1.5c0.6,0,1.2-0.2,1.6-0.7l0.7,0.7c-0.6,0.7-1.5,1-2.4,1
		c-1.6,0.2-3.2-0.9-3.4-2.5c-0.2-1.6,0.9-3.2,2.5-3.4c0.3,0,0.6,0,0.8,0C306.5,65.6,307.3,67,307.2,69.1z M306.1,68.1
		c0-0.8-0.6-1.5-1.5-1.5c-0.1,0-0.1,0-0.2,0c-0.9,0-1.6,0.6-1.7,1.5H306.1z"/>
	<path class="st3" d="M313.6,69.1h-4.4c0.2,0.9,0.9,1.5,1.8,1.5c0.6,0,1.2-0.2,1.6-0.7l0.7,0.7c-0.6,0.7-1.5,1-2.4,1
		c-1.6,0.2-3.2-0.9-3.4-2.5c-0.2-1.6,0.9-3.2,2.5-3.4c0.3,0,0.6,0,0.8,0C313,65.6,313.8,67,313.6,69.1z M312.5,68.1
		c0-0.8-0.6-1.5-1.5-1.5c-0.1,0-0.1,0-0.2,0c-0.9,0-1.6,0.6-1.7,1.5H312.5z"/>
	<path class="st3" d="M321.1,71.1c-0.4,0.3-0.9,0.4-1.4,0.4c-0.8,0.1-1.6-0.5-1.7-1.4c0-0.1,0-0.2,0-0.3v-3h-0.8v-0.9h0.8v-1.6h1.2
		v1.6h1.8v0.9h-1.7v2.8c0,0.6,0.2,0.8,0.6,0.8c0.3,0,0.6-0.1,0.9-0.2L321.1,71.1z"/>
	<path class="st3" d="M327.9,67.9v3.6h-1.3v-3.3c0.1-0.7-0.5-1.4-1.2-1.4c-0.1,0-0.2,0-0.2,0c-0.9,0-1.7,0.7-1.7,1.7
		c0,0.1,0,0.1,0,0.2v2.9h-1.3v-8.2h1.3v3.4c0.4-0.8,1.3-1.3,2.2-1.2c1.1-0.1,2.1,0.7,2.2,1.8C328,67.6,328,67.7,327.9,67.9z"/>
	<path class="st3" d="M333.1,70.8c-0.5,0.5-1.2,0.8-1.9,0.8c-1,0.1-1.9-0.6-2-1.6c0-0.1,0-0.1,0-0.2c0-1.1,0.8-1.8,2.2-1.8h1.8v-0.2
		c0-0.7-0.5-1.2-1.4-1.2c-0.6,0-1.2,0.2-1.7,0.6l-0.5-0.9c0.7-0.5,1.6-0.8,2.5-0.7c1.5,0,2.4,0.8,2.4,2.1v3.8h-1.2L333.1,70.8z
		 M333.1,69.5v-0.5h-1.6c-0.8,0-1.2,0.2-1.2,0.8s0.4,0.9,1.1,0.9C332.4,70.6,333.1,70.1,333.1,69.5L333.1,69.5z"/>
	<path class="st3" d="M339.4,71.1c-0.4,0.3-0.9,0.4-1.4,0.4c-0.8,0.1-1.6-0.6-1.6-1.4c0-0.1,0-0.2,0-0.3v-3h-0.8v-0.9h0.8v-1.6h1.2
		v1.6h1.7v0.9h-1.7v2.8c0,0.6,0.2,0.8,0.6,0.8c0.3,0,0.6-0.1,0.9-0.2L339.4,71.1z"/>
	<path class="st3" d="M341.5,70.9c0,0.4-0.3,0.7-0.7,0.7s-0.7-0.3-0.7-0.7s0.3-0.7,0.7-0.7S341.5,70.5,341.5,70.9z"/>
	<path class="st3" d="M343.9,70.9c0,0.4-0.3,0.7-0.7,0.7s-0.7-0.3-0.7-0.7s0.3-0.7,0.7-0.7S343.9,70.5,343.9,70.9z"/>
	<path class="st3" d="M346.3,70.9c0,0.4-0.3,0.7-0.7,0.7s-0.7-0.3-0.7-0.7s0.3-0.7,0.7-0.7S346.3,70.5,346.3,70.9z"/>
	<path class="st0" d="M18.3,17.6h133.6c0.4,0,0.7,0.4,0.7,0.8V65c0,0.4-0.3,0.8-0.7,0.8h-46.4l-14.7,15l2.3-15H18.3
		c-0.4,0-0.7-0.4-0.7-0.8V18.4C17.6,18,17.9,17.7,18.3,17.6z"/>
	<path class="st3" d="M38.6,31.7v6.5h-1.3v-6.5h-2.4v-1.2H41v1.2H38.6z"/>
	<path class="st3" d="M47.1,34.6v3.6h-1.3V35c0.1-0.7-0.5-1.4-1.2-1.4c-0.1,0-0.2,0-0.2,0c-0.9,0-1.7,0.7-1.7,1.7c0,0.1,0,0.1,0,0.2
		v2.9h-1.3v-8.2h1.3v3.5c0.4-0.8,1.3-1.3,2.2-1.2c1.1-0.1,2.1,0.7,2.1,1.8C47.2,34.4,47.1,34.5,47.1,34.6z"/>
	<path class="st3" d="M54,35.8h-4.5c0.2,0.9,0.9,1.5,1.8,1.5c0.6,0,1.2-0.2,1.6-0.7l0.7,0.7c-0.6,0.7-1.5,1-2.4,1
		c-1.6,0.2-3.2-0.9-3.4-2.5s0.9-3.2,2.5-3.4c0.3,0,0.6,0,0.8,0C53.3,32.4,54.1,33.7,54,35.8z M52.9,34.9c0-0.8-0.6-1.5-1.5-1.5
		c-0.1,0-0.1,0-0.2,0c-0.9,0-1.6,0.6-1.7,1.5H52.9z"/>
	<path class="st3" d="M61.9,33l-0.5,0.9c-0.5-0.3-1.1-0.5-1.7-0.5c-0.5,0-0.9,0.2-0.9,0.6c0,1.1,3.1,0.5,3.1,2.6
		c0,1.2-1.1,1.7-2.2,1.7c-0.9,0-1.7-0.3-2.3-0.8l0.5-0.9c0.6,0.5,1.3,0.7,2,0.7c0.5,0,1-0.2,1-0.6c0-1.2-3.1-0.5-3.1-2.6
		c0-1.2,1-1.7,2.2-1.7C60.7,32.4,61.3,32.6,61.9,33z"/>
	<path class="st3" d="M68.4,35.8H64c0.2,0.9,0.9,1.5,1.8,1.5c0.6,0,1.2-0.2,1.7-0.7l0.7,0.7c-0.6,0.7-1.5,1-2.4,1
		c-1.6,0.2-3.2-0.9-3.4-2.5s0.9-3.2,2.5-3.4c0.3,0,0.6,0,0.8,0C67.8,32.4,68.6,33.7,68.4,35.8z M67.3,34.9c0-0.8-0.6-1.5-1.5-1.5
		c-0.1,0-0.1,0-0.2,0c-0.9,0-1.6,0.6-1.7,1.5L67.3,34.9z"/>
	<path class="st3" d="M71,33.6c0.4-0.8,1.2-1.2,2-1.2v1.2c-1-0.1-1.9,0.6-2,1.5c0,0,0,0.1,0,0.1v3.1h-1.2v-5.9H71V33.6z"/>
	<path class="st3" d="M75.7,38.3l-2.3-5.8h1.3l1.6,4.6l1.6-4.6h1.3L77,38.3H75.7z"/>
	<path class="st3" d="M85.1,35.8h-4.4c0.2,0.9,0.9,1.5,1.8,1.5c0.6,0,1.2-0.2,1.7-0.7l0.7,0.7c-0.6,0.7-1.5,1-2.4,1
		c-1.6,0.2-3.2-0.9-3.4-2.5c-0.2-1.6,0.9-3.2,2.5-3.4c0.3,0,0.6,0,0.8,0C84.4,32.4,85.2,33.7,85.1,35.8z M84,34.9
		c0-0.8-0.6-1.5-1.5-1.5c-0.1,0-0.1,0-0.2,0c-0.9,0-1.6,0.6-1.7,1.5H84z"/>
	<path class="st3" d="M87.7,33.6c0.4-0.8,1.2-1.2,2-1.2v1.2c-1-0.1-1.9,0.6-2,1.5c0,0,0,0.1,0,0.1v3.1h-1.3v-5.9h1.3L87.7,33.6z"/>
	<path class="st3" d="M94.9,30.7c0,0.4-0.4,0.7-0.8,0.7s-0.7-0.4-0.7-0.8c0-0.4,0.3-0.7,0.7-0.7C94.6,30,94.9,30.3,94.9,30.7
		C95,30.7,95,30.7,94.9,30.7z M93.6,38.3v-5.9h1.2v5.8L93.6,38.3z"/>
	<path class="st3" d="M100.5,33l-0.5,0.9c-0.5-0.3-1.1-0.5-1.7-0.5c-0.5,0-0.9,0.2-0.9,0.6c0,1.1,3.1,0.5,3.1,2.6
		c0,1.2-1.1,1.7-2.2,1.7c-0.9,0-1.7-0.3-2.3-0.9l0.4-0.9c0.6,0.5,1.3,0.7,2,0.7c0.5,0,1-0.2,1-0.6c0-1.2-3.1-0.5-3.1-2.6
		c0-1.2,1-1.7,2.2-1.7C99.2,32.4,99.9,32.6,100.5,33z"/>
	<path class="st3" d="M110.4,34.6v3.6h-1.3V35c0.1-0.7-0.5-1.4-1.2-1.4c-0.1,0-0.2,0-0.2,0c-0.9,0-1.7,0.7-1.7,1.6
		c0,0.1,0,0.1,0,0.2v2.9h-1.3v-8.2h1.3v3.5c0.4-0.8,1.3-1.3,2.2-1.2c1.1-0.1,2.1,0.7,2.2,1.8C110.4,34.3,110.4,34.5,110.4,34.6z"/>
	<path class="st3" d="M115.6,37.6c-0.5,0.5-1.2,0.8-1.9,0.8c-1,0.1-1.9-0.6-2-1.6c0-0.1,0-0.1,0-0.2c0-1.1,0.8-1.8,2.2-1.8h1.8v-0.2
		c0-0.7-0.5-1.2-1.4-1.2c-0.6,0-1.2,0.2-1.7,0.6l-0.5-0.9c0.7-0.5,1.6-0.8,2.5-0.7c1.5,0,2.3,0.8,2.4,2.1v3.8h-1.2L115.6,37.6z
		 M115.6,36.2v-0.5H114c-0.8,0-1.2,0.2-1.2,0.8s0.4,0.9,1.1,0.9C114.8,37.3,115.5,36.8,115.6,36.2L115.6,36.2z"/>
	<path class="st3" d="M119.7,38.3l-2.3-5.8h1.3l1.6,4.6l1.6-4.6h1.3l-2.3,5.9H119.7z"/>
	<path class="st3" d="M125.5,30.7c0,0.4-0.4,0.7-0.8,0.7s-0.7-0.4-0.7-0.8c0-0.4,0.3-0.7,0.7-0.7C125.1,30,125.5,30.3,125.5,30.7
		C125.5,30.7,125.5,30.7,125.5,30.7z M124.1,38.3v-5.9h1.2v5.8L124.1,38.3z"/>
	<path class="st3" d="M132.8,34.6v3.6h-1.3V35c0.1-0.7-0.5-1.4-1.2-1.4c-0.1,0-0.2,0-0.2,0c-0.9,0-1.6,0.7-1.7,1.6v3.1h-1.3v-5.9
		h1.3v1.1c0.4-0.8,1.3-1.3,2.2-1.2c1.1-0.1,2.1,0.7,2.2,1.8C132.9,34.3,132.9,34.5,132.8,34.6z"/>
	<path class="st3" d="M139.8,37.7c0,1.7-1.2,2.7-3,2.7c-0.9,0-1.7-0.3-2.4-0.8l0.5-0.9c0.5,0.4,1.2,0.6,1.8,0.6
		c0.9,0.1,1.7-0.5,1.8-1.4c0-0.1,0-0.1,0-0.2V37c-0.4,0.7-1.2,1-1.9,1c-1.4,0.1-2.6-1.1-2.7-2.5c0-0.1,0-0.2,0-0.3
		c-0.1-1.4,0.9-2.7,2.4-2.8c0.1,0,0.2,0,0.2,0c0.8-0.1,1.6,0.3,2,1v-1h1.2L139.8,37.7z M138.6,35.2c0.1-0.9-0.6-1.7-1.5-1.8
		c0,0-0.1,0-0.1,0c-1-0.1-1.8,0.7-1.9,1.7c-0.1,1,0.7,1.8,1.7,1.9c1,0.1,1.8-0.7,1.9-1.7C138.6,35.3,138.6,35.2,138.6,35.2z"/>
	<path class="st3" d="M66.7,50.8c-0.5,0.5-1.2,0.8-1.9,0.8c-1,0.1-1.9-0.6-2-1.6c0-0.1,0-0.1,0-0.2c0-1.1,0.8-1.8,2.2-1.8h1.8v-0.2
		c0-0.7-0.5-1.2-1.4-1.2c-0.6,0-1.2,0.2-1.7,0.6L63,46.3c0.7-0.5,1.6-0.8,2.5-0.7c1.5,0,2.3,0.8,2.4,2.1v3.8h-1.2V50.8z M66.7,49.4
		v-0.5h-1.6c-0.8,0-1.2,0.2-1.2,0.8s0.4,0.9,1.1,0.9C65.9,50.5,66.6,50,66.7,49.4L66.7,49.4z"/>
	<path class="st3" d="M75.2,47.8v3.6H74v-3.3c0.1-0.7-0.5-1.4-1.2-1.4c-0.1,0-0.2,0-0.2,0c-0.9,0-1.6,0.7-1.7,1.6v3.1h-1.3v-5.9h1.3
		v1.1c0.4-0.8,1.3-1.3,2.2-1.2c1.1-0.1,2.1,0.7,2.2,1.8C75.3,47.5,75.3,47.7,75.2,47.8z"/>
	<path class="st3" d="M81.1,43.9c0,0.4-0.4,0.7-0.8,0.7c-0.4,0-0.7-0.4-0.7-0.8c0-0.4,0.3-0.7,0.7-0.7
		C80.8,43.2,81.1,43.5,81.1,43.9C81.1,43.9,81.1,43.9,81.1,43.9z M79.8,51.5v-5.9H81v5.8L79.8,51.5z"/>
	<path class="st3" d="M86.7,46.2l-0.5,0.9c-0.5-0.3-1.1-0.5-1.7-0.5c-0.5,0-0.9,0.2-0.9,0.6c0,1.1,3.1,0.5,3.1,2.6
		c0,1.2-1.1,1.7-2.2,1.7c-0.9,0-1.7-0.3-2.3-0.8l0.4-0.9c0.6,0.5,1.3,0.7,2,0.7c0.5,0,1-0.2,1-0.6c0-1.2-3.1-0.5-3.1-2.6
		c0-1.2,1-1.7,2.2-1.7C85.4,45.6,86.1,45.8,86.7,46.2z"/>
	<path class="st3" d="M91.8,46.2l-0.5,0.9c-0.5-0.3-1.1-0.5-1.7-0.5c-0.5,0-0.9,0.2-0.9,0.6c0,1.1,3.1,0.5,3.1,2.6
		c0,1.2-1.1,1.7-2.2,1.7c-0.9,0-1.7-0.3-2.3-0.8l0.4-0.9c0.6,0.5,1.3,0.7,2,0.7c0.5,0,1-0.2,1-0.6c0-1.2-3.1-0.5-3.1-2.6
		c0-1.2,1-1.7,2.2-1.7C90.6,45.6,91.3,45.8,91.8,46.2z"/>
	<path class="st3" d="M98.5,51.5h-1.3v-1.1c-0.4,0.8-1.2,1.3-2.1,1.2c-1.1,0.1-2.1-0.7-2.2-1.8c0-0.2,0-0.3,0-0.5v-3.6h1.3v3.3
		c-0.1,0.7,0.4,1.3,1.2,1.4c0.1,0,0.1,0,0.2,0c0.9,0,1.6-0.8,1.6-1.7c0-0.1,0-0.1,0-0.2v-2.9h1.3V51.5z"/>
	<path class="st3" d="M105.6,49h-4.4c0.2,0.9,0.9,1.5,1.8,1.5c0.6,0,1.2-0.2,1.7-0.7l0.7,0.7c-0.6,0.7-1.5,1-2.4,1
		c-1.6,0.2-3.2-0.9-3.4-2.5c-0.2-1.6,0.9-3.2,2.5-3.4c0.3,0,0.6,0,0.8,0C104.9,45.6,105.7,46.9,105.6,49z M104.5,48.1
		c0-0.8-0.6-1.5-1.5-1.5c-0.1,0-0.1,0-0.2,0c-0.9,0-1.6,0.6-1.7,1.5H104.5z"/>
	<path class="st3" d="M107.8,50.8c0,0.4-0.3,0.7-0.7,0.7s-0.7-0.3-0.7-0.7s0.3-0.7,0.7-0.7S107.8,50.4,107.8,50.8z"/>
	<path class="st3" d="M110.2,50.8c0,0.4-0.3,0.7-0.7,0.7s-0.7-0.3-0.7-0.7s0.3-0.7,0.7-0.7S110.2,50.4,110.2,50.8z"/>
	<path class="st3" d="M112.6,50.8c0,0.4-0.3,0.7-0.7,0.7s-0.7-0.3-0.7-0.7s0.3-0.7,0.7-0.7S112.6,50.4,112.6,50.8z"/>
	<path class="st3" d="M226.3,153.9v2.2h3.5v1.2h-3.5v3.2H225v-7.7h5.2v1.2L226.3,153.9z"/>
	<path class="st3" d="M234.7,159.7c-0.5,0.5-1.2,0.8-1.9,0.8c-1,0.1-1.9-0.6-2-1.6c0-0.1,0-0.1,0-0.2c0-1.1,0.8-1.8,2.2-1.8h1.8
		v-0.2c0-0.7-0.5-1.2-1.4-1.2c-0.6,0-1.2,0.2-1.7,0.6l-0.5-0.9c0.7-0.5,1.6-0.8,2.5-0.7c1.5,0,2.4,0.8,2.4,2.1v3.8h-1.2L234.7,159.7
		z M234.7,158.4v-0.5h-1.6c-0.8,0-1.2,0.2-1.2,0.8s0.4,0.9,1.1,0.9C233.9,159.5,234.6,159,234.7,158.4L234.7,158.4z"/>
	<path class="st3" d="M239,152.9c0,0.4-0.4,0.7-0.8,0.7s-0.7-0.4-0.7-0.8c0-0.4,0.3-0.7,0.7-0.7C238.7,152.1,239,152.4,239,152.9
		C239,152.9,239,152.9,239,152.9z M237.6,160.4v-5.9h1.2v5.9H237.6z"/>
	<path class="st3" d="M240.8,160.4v-8.2h1.3v8.2H240.8z"/>
	<path class="st3" d="M249.3,160.4h-1.3v-1.1c-0.4,0.8-1.2,1.3-2.1,1.2c-1.1,0.1-2.1-0.7-2.2-1.8c0-0.1,0-0.3,0-0.4v-3.6h1.3v3.3
		c-0.1,0.7,0.4,1.3,1.2,1.4c0.1,0,0.1,0,0.2,0c0.9,0,1.6-0.8,1.6-1.7c0-0.1,0-0.1,0-0.2v-2.9h1.3L249.3,160.4z"/>
	<path class="st3" d="M252.5,155.7c0.4-0.8,1.2-1.2,2-1.2v1.2c-1-0.1-1.9,0.6-2,1.5c0,0,0,0.1,0,0.1v3.1h-1.3v-5.9h1.3V155.7z"/>
	<path class="st3" d="M260.7,158h-4.4c0.2,0.9,0.9,1.5,1.8,1.5c0.6,0,1.2-0.2,1.6-0.7l0.7,0.7c-0.6,0.7-1.5,1-2.4,1
		c-1.6,0.2-3.2-0.9-3.4-2.5c-0.2-1.6,0.9-3.2,2.5-3.4c0.3,0,0.6,0,0.8,0C260,154.5,260.8,155.9,260.7,158z M259.6,157.1
		c0-0.8-0.6-1.5-1.5-1.5c-0.1,0-0.1,0-0.2,0c-0.9,0-1.6,0.6-1.7,1.5H259.6z"/>
	<path class="st2" d="M99.7,131.5h80.6c0.6,0,1,0.4,1,1v48.3c0,0.6-0.4,1-1,1H99.7c-0.6,0-1-0.4-1-1v-48.3
		C98.7,132,99.1,131.5,99.7,131.5z"/>
	<path class="st3" d="M123.7,153.3v2.2h3.5v1.2h-3.5v3.2h-1.3v-7.7h5.2v1.2L123.7,153.3z"/>
	<path class="st3" d="M132.2,159.1c-0.5,0.5-1.2,0.8-1.9,0.8c-1,0.1-1.9-0.6-2-1.6c0-0.1,0-0.1,0-0.2c0-1.1,0.8-1.8,2.2-1.8h1.8
		v-0.2c0-0.7-0.5-1.2-1.4-1.2c-0.6,0-1.2,0.2-1.7,0.6l-0.5-0.9c0.7-0.5,1.6-0.8,2.5-0.7c1.5,0,2.4,0.8,2.4,2.1v3.8h-1.2L132.2,159.1
		z M132.2,157.8v-0.5h-1.6c-0.8,0-1.2,0.2-1.2,0.8s0.4,0.9,1.1,0.9C131.4,158.9,132.1,158.4,132.2,157.8L132.2,157.8z"/>
	<path class="st3" d="M136.5,152.3c0,0.4-0.4,0.7-0.8,0.7s-0.7-0.4-0.7-0.8c0-0.4,0.3-0.7,0.7-0.7
		C136.1,151.5,136.5,151.9,136.5,152.3C136.5,152.3,136.5,152.3,136.5,152.3z M135.1,159.8V154h1.2v5.9L135.1,159.8z"/>
	<path class="st3" d="M138.3,159.8v-8.2h1.3v8.2H138.3z"/>
	<path class="st3" d="M146.8,159.8h-1.3v-1.1c-0.4,0.8-1.2,1.3-2.1,1.2c-1.1,0.1-2.1-0.7-2.2-1.8c0-0.1,0-0.3,0-0.4V154h1.3v3.3
		c-0.1,0.7,0.4,1.3,1.2,1.4c0.1,0,0.1,0,0.2,0c0.9,0,1.6-0.8,1.6-1.7c0-0.1,0-0.1,0-0.2V154h1.3L146.8,159.8z"/>
	<path class="st3" d="M149.9,155.1c0.4-0.8,1.2-1.2,2-1.2v1.2c-1-0.1-1.9,0.6-2,1.5c0,0,0,0.1,0,0.1v3.1h-1.3V154h1.3V155.1z"/>
	<path class="st3" d="M158.1,157.4h-4.4c0.2,0.9,0.9,1.5,1.8,1.5c0.6,0,1.2-0.2,1.6-0.7l0.7,0.7c-0.6,0.7-1.5,1-2.4,1
		c-1.6,0.2-3.2-0.9-3.4-2.5c-0.2-1.6,0.9-3.2,2.5-3.4c0.3,0,0.6,0,0.8,0C157.5,153.9,158.3,155.3,158.1,157.4z M157,156.5
		c0-0.8-0.6-1.5-1.5-1.5c-0.1,0-0.1,0-0.2,0c-0.9,0-1.6,0.6-1.7,1.5H157z"/>
	<path class="st0" d="M209.4,82.6H75.8c-0.4,0-0.7,0.4-0.7,0.8V130c0,0.4,0.3,0.8,0.7,0.8h46.4l-9.6,15.4l22-15.4h74.8
		c0.4,0,0.7-0.4,0.7-0.8V83.4C210.2,83,209.9,82.7,209.4,82.6z"/>
	<path class="st3" d="M92.7,103.3v-7.7H94v7.7H92.7z"/>
	<path class="st3" d="M96.8,96.3c0,0.2-0.1,0.4-0.2,0.6L96,97.8h-0.7l0.4-0.9c-0.3-0.2-0.4-0.6-0.2-1c0.2-0.3,0.6-0.4,1-0.2
		C96.7,95.8,96.8,96,96.8,96.3z"/>
	<path class="st3" d="M98.3,103.3v-8.2h1.3v8.2L98.3,103.3z"/>
	<path class="st3" d="M101.6,103.3v-8.2h1.3v8.2L101.6,103.3z"/>
	<path class="st3" d="M110.9,102.9c-0.4,0.3-0.9,0.4-1.4,0.4c-0.8,0.1-1.6-0.6-1.6-1.4c0-0.1,0-0.2,0-0.3v-3H107v-0.9h0.8V96h1.2
		v1.6h1.7v0.9h-1.7v2.8c0,0.6,0.2,0.8,0.6,0.8c0.3,0,0.6-0.1,0.9-0.2L110.9,102.9z"/>
	<path class="st3" d="M117.4,103.3h-1.3v-1.1c-0.4,0.8-1.2,1.3-2.1,1.2c-1.1,0.1-2.1-0.7-2.2-1.8c0-0.1,0-0.3,0-0.4v-3.6h1.3v3.3
		c-0.1,0.7,0.4,1.3,1.2,1.4c0.1,0,0.1,0,0.2,0c0.9,0,1.6-0.8,1.6-1.7c0-0.1,0-0.1,0-0.2v-2.9h1.3V103.3z"/>
	<path class="st3" d="M120.5,98.6c0.4-0.8,1.2-1.2,2-1.2v1.2c-1-0.1-1.9,0.6-2,1.5c0,0,0,0.1,0,0.1v3.1h-1.3v-5.8h1.3V98.6z"/>
	<path class="st3" d="M129.2,99.6v3.6h-1.3V100c0.1-0.7-0.5-1.4-1.2-1.4c-0.1,0-0.2,0-0.2,0c-0.9,0-1.6,0.7-1.7,1.6v3.1h-1.3v-5.9
		h1.3v1.1c0.4-0.8,1.3-1.3,2.2-1.2c1.1-0.1,2.1,0.7,2.2,1.8C129.2,99.3,129.2,99.5,129.2,99.6z"/>
	<path class="st3" d="M135.1,95.7c0,0.4-0.4,0.7-0.8,0.7c-0.4,0-0.7-0.4-0.7-0.8c0-0.4,0.3-0.7,0.7-0.7
		C134.7,95,135.1,95.3,135.1,95.7C135.1,95.7,135.1,95.7,135.1,95.7z M133.7,103.3v-5.8h1.3v5.8H133.7z"/>
	<path class="st3" d="M140.1,102.9c-0.4,0.3-0.9,0.4-1.4,0.4c-0.8,0.1-1.6-0.6-1.6-1.4c0-0.1,0-0.2,0-0.3v-3h-0.8v-0.9h0.8V96h1.2
		v1.6h1.7v0.9h-1.7v2.8c0,0.6,0.2,0.8,0.6,0.8c0.3,0,0.6-0.1,0.9-0.2L140.1,102.9z"/>
	<path class="st3" d="M149.7,100.3c0,1.7-1.3,3.1-3,3.1c-1.7,0-3.1-1.3-3.1-3c0-1.7,1.3-3.1,3-3.1c0,0,0.1,0,0.1,0
		c1.6-0.1,2.9,1.2,3,2.7C149.7,100.2,149.7,100.3,149.7,100.3z M144.9,100.3c0.1,1,0.9,1.7,1.9,1.7s1.7-0.9,1.7-1.9
		c-0.1-0.9-0.8-1.7-1.8-1.7c-1,0-1.8,0.8-1.8,1.7C144.9,100.2,144.9,100.3,144.9,100.3L144.9,100.3z"/>
	<path class="st3" d="M152.5,96.9v0.7h1.5v0.9h-1.5v4.7h-1.2v-4.7h-0.8v-0.9h0.8v-0.6c0-1.1,0.8-2,1.8-2c0.1,0,0.1,0,0.2,0
		c0.5,0,0.9,0.1,1.3,0.4l-0.5,1c-0.2-0.2-0.5-0.3-0.8-0.3c-0.4,0-0.8,0.3-0.8,0.7C152.5,96.9,152.5,96.9,152.5,96.9z"/>
	<path class="st3" d="M156.3,96.9v0.7h1.5v0.9h-1.5v4.7H155v-4.7h-0.8v-0.9h0.8v-0.6c0-1.1,0.8-2,1.8-2c0.1,0,0.1,0,0.2,0
		c0.5,0,0.9,0.1,1.3,0.4l-0.5,1c-0.2-0.2-0.5-0.3-0.8-0.3C156.6,96.2,156.3,96.5,156.3,96.9C156.3,96.9,156.3,96.9,156.3,96.9z"/>
	<path class="st3" d="M164.9,102.6c-0.5,0.5-1.2,0.8-1.9,0.8c-1,0.1-1.9-0.6-2-1.6c0-0.1,0-0.1,0-0.2c0-1.1,0.8-1.8,2.2-1.8h1.8
		v-0.2c0-0.7-0.5-1.2-1.4-1.2c-0.6,0-1.2,0.2-1.7,0.6l-0.5-0.9c0.7-0.5,1.6-0.8,2.5-0.7c1.5,0,2.4,0.8,2.4,2.1v3.8h-1.2L164.9,102.6
		z M164.9,101.2v-0.5h-1.6c-0.8,0-1.2,0.2-1.2,0.8s0.4,0.9,1.1,0.9C164.1,102.3,164.9,101.8,164.9,101.2L164.9,101.2z"/>
	<path class="st3" d="M173.5,99.6v3.6h-1.3V100c0.1-0.7-0.5-1.4-1.2-1.4c-0.1,0-0.2,0-0.2,0c-0.9,0-1.6,0.7-1.7,1.6v3.1h-1.3v-5.9
		h1.3v1.1c0.4-0.8,1.3-1.3,2.2-1.2c1.1-0.1,2.1,0.7,2.2,1.8C173.5,99.3,173.5,99.5,173.5,99.6z"/>
	<path class="st3" d="M180.7,103.3h-1.3v-1c-0.4,0.7-1.2,1.1-2.1,1.1c-1.7,0-3-1.3-3-3s1.3-3,3-3c0.8,0,1.6,0.4,2.1,1.1v-3.3h1.3
		L180.7,103.3z M179.5,100.4c0.1-1-0.6-1.8-1.6-1.9c-0.1,0-0.1,0-0.2,0c-1,0-1.8,0.8-1.8,1.8c0,0,0,0.1,0,0.1c0,1,0.8,1.8,1.8,1.8
		S179.5,101.4,179.5,100.4L179.5,100.4z"/>
	<path class="st3" d="M191,100.3c0,1.7-1.3,3.1-3,3.1c-1.7,0-3.1-1.3-3.1-3c0-1.7,1.3-3.1,3-3.1c0,0,0.1,0,0.1,0
		c1.6-0.1,2.9,1.2,3,2.7C191,100.2,191,100.3,191,100.3z M186.2,100.3c0.1,1,0.9,1.7,1.9,1.7c1-0.1,1.7-0.9,1.7-1.9
		c-0.1-0.9-0.8-1.7-1.7-1.7c-1,0-1.8,0.8-1.8,1.7C186.2,100.2,186.2,100.3,186.2,100.3L186.2,100.3z"/>
	<path class="st3" d="M198,99.6v3.6h-1.3V100c0.1-0.7-0.5-1.4-1.2-1.4c-0.1,0-0.2,0-0.2,0c-0.9,0-1.6,0.7-1.7,1.6v3.1h-1.3v-5.9h1.3
		v1.1c0.4-0.8,1.3-1.3,2.2-1.2c1.1-0.1,2.1,0.7,2.2,1.8C198,99.3,198,99.5,198,99.6z"/>
	<path class="st3" d="M133.3,115.8c-0.5,0.5-1.2,0.8-1.9,0.8c-1,0.1-1.9-0.6-2-1.6c0-0.1,0-0.1,0-0.2c0-1.1,0.8-1.8,2.2-1.8h1.8
		v-0.2c0-0.7-0.5-1.2-1.4-1.2c-0.6,0-1.2,0.2-1.7,0.6l-0.5-0.9c0.7-0.5,1.6-0.8,2.5-0.7c1.5,0,2.4,0.8,2.4,2.1v3.8h-1.2V115.8z
		 M133.3,114.4v-0.5h-1.6c-0.8,0-1.2,0.2-1.2,0.8s0.4,0.9,1.1,0.9C132.5,115.5,133.2,115,133.3,114.4L133.3,114.4z"/>
	<path class="st3" d="M141.5,115.9c0,1.7-1.2,2.7-3,2.7c-0.9,0-1.7-0.3-2.4-0.8l0.5-0.9c0.5,0.4,1.2,0.6,1.8,0.6
		c0.9,0.1,1.7-0.5,1.8-1.4c0-0.1,0-0.1,0-0.2v-0.7c-0.4,0.7-1.2,1-1.9,1c-1.4,0-2.6-1.1-2.7-2.5c0-0.1,0-0.2,0-0.3
		c-0.1-1.4,0.9-2.7,2.4-2.8c0.1,0,0.2,0,0.2,0c0.8-0.1,1.6,0.3,2,1v-0.9h1.2L141.5,115.9z M140.3,113.4c0.1-0.9-0.6-1.7-1.5-1.8
		c0,0-0.1,0-0.1,0c-1-0.1-1.8,0.7-1.9,1.7c-0.1,1,0.7,1.8,1.7,1.9c1,0.1,1.8-0.7,1.9-1.7C140.3,113.5,140.3,113.4,140.3,113.4z"/>
	<path class="st3" d="M146.8,115.8c-0.5,0.5-1.2,0.8-1.9,0.8c-1,0.1-1.9-0.6-2-1.6c0-0.1,0-0.1,0-0.2c0-1.1,0.8-1.8,2.2-1.8h1.8
		v-0.2c0-0.7-0.5-1.2-1.4-1.2c-0.6,0-1.2,0.2-1.7,0.6l-0.5-0.9c0.7-0.5,1.6-0.8,2.5-0.7c1.5,0,2.4,0.8,2.4,2.1v3.8h-1.2L146.8,115.8
		z M146.8,114.4v-0.5h-1.6c-0.8,0-1.2,0.2-1.2,0.8s0.4,0.9,1.1,0.9C146,115.5,146.7,115,146.8,114.4L146.8,114.4z"/>
	<path class="st3" d="M151.1,108.9c0,0.4-0.4,0.7-0.8,0.7c-0.4,0-0.7-0.4-0.7-0.8c0-0.4,0.3-0.7,0.7-0.7
		C150.8,108.2,151.1,108.5,151.1,108.9C151.1,108.9,151.1,108.9,151.1,108.9z M149.7,116.5v-5.8h1.3v5.8H149.7z"/>
	<path class="st3" d="M158.4,112.8v3.6h-1.3v-3.3c0.1-0.7-0.5-1.4-1.2-1.4c-0.1,0-0.2,0-0.2,0c-0.9,0-1.6,0.7-1.7,1.6v3.1h-1.3v-5.8
		h1.3v1.1c0.4-0.8,1.3-1.3,2.2-1.2c1.1-0.1,2.1,0.7,2.2,1.8C158.5,112.5,158.5,112.7,158.4,112.8z"/>
	<path class="st3" d="M161.2,115.8c0,0.4-0.3,0.7-0.7,0.7c-0.4,0-0.7-0.3-0.7-0.7s0.3-0.7,0.7-0.7
		C160.9,115.1,161.2,115.4,161.2,115.8z M160.9,114h-0.8l-0.2-3.3v-1.9h1.2v1.9L160.9,114z"/>
	<path class="st54" d="M59,215h2.8c0.6,0,1,0.4,1,1v39.2c0,0.6-0.4,1-1,1H59c-0.6,0-1-0.4-1-1V216C58,215.5,58.4,215,59,215z"/>
	<path class="st54" d="M34.8,145.6h2.8c0.6,0,1,0.4,1,1v66.5c0,0.6-0.4,1-1,1h-2.8c-0.6,0-1-0.4-1-1v-66.5
		C33.8,146,34.2,145.6,34.8,145.6z"/>
	<path class="st55" d="M88.8,246.6v10.6c0,0,7.4,6.8,7.4,0v-6.8L88.8,246.6z"/>
	<path class="st0" d="M88.2,256.4c-0.9,1.9-1.5,3.9-2.1,5.9c-0.2,1.4,17.2,1.1,20.4-0.6c1.8-1-1.2-3.3-3.1-4.1
		C99.1,255.6,88.2,256.4,88.2,256.4z"/>
	<path class="st56" d="M51,196.7c-2.4,1.2-2.1,9.5,0,11.2c7.7,6.2,36.5-1,38.8,0c3.2,1.4-2,41.6-2,41.6l10,0.8
		c0,0,8.6-31.7,4.1-51.6C100.6,192.6,59.3,192.6,51,196.7z"/>
	<path class="st57" d="M73.3,167.4c0,0-15.6,8.2-23.3,7.7l0.1,7.4c10.3-1.7,23.2-7.5,23.2-7.5L73.3,167.4z"/>
	<path class="st58" d="M61.3,145.1v-8.8c-1.5-1.7-2.8-3.6-4.1-5.5c-1.1-2.7-2-5.4-2.8-8.2l22.8-8.1l0.8,1c0,0,1.5,13.8,0,18.1
		c-0.6,1.8-2.9,5.5-4.7,5.9c-0.9,0.2-3.5,0.4-3.5,0.4l-1,11L61.3,145.1z"/>
	<path class="st9" d="M68.6,150.9l-7.4-8c0,0-11.1,5-13.8,8c-5.8,6.3-12.4,22.1-9.7,28.6c3.9,9.6,35.5-4.6,35.5-4.6v-7.6
		c0,0-20.5,10.8-26,6.9c-1-0.7-0.4-3.8,0-5c0.7-1.3,1.6-2.5,2.7-3.5l0.3,31.8h26.8v-22.1c0,0,1.1,5.8,1.8,7.7
		c1.3,3.8,6.5,14.4,6.5,14.4h6.5c0,0-4.4-13.1-5.3-16.6c-2-8.1-2-23.1-5.1-29.7c-1.8-3.9-10.5-8.2-10.5-8.2h-1.5L68.6,150.9z"/>
	<path class="st55" d="M50,148.9c-0.9,0.6-1.8,1.2-2.6,2c-5.8,6.3-12.4,22.1-9.7,28.6c1.4,3.5,6.4,3.8,12.2,2.9L50,148.9z
		 M47.1,174.2c-1-0.7-0.4-3.8,0-5c0.7-1.3,1.6-2.5,2.7-3.5l0.1,9.3C48.9,175,48,174.7,47.1,174.2L47.1,174.2z"/>
	<path class="st59" d="M73.1,168.3c0,0,1.8-2.1,2.7-2.1c2-0.1,6.3,2.6,6.6,4.6c0.1,1.1-2.1,3.7-2.1,3.7h-7.2V168.3z"/>
	<path class="st55" d="M73.1,167.9c0,0-15.6,8.2-23.3,7.8l0.1,7.4c10.3-1.7,23.2-7.5,23.2-7.5L73.1,167.9z"/>
	<path class="st50" d="M59,133.7c-1.7,0.5-3.6-4.2-3.9-6c-0.5-3.1-0.5-6.4,0-9.5c0.7-2.7,1.3-8.9,13.3-8.8c2.8,0,9.7,2,9.7,7.4
		c0,1.7-4,2.3-5.5,2.5c-2.5,0.2-5,0.6-7.5,1.2c-1.3,0.5-3.6,3.7-4.4,4.9C59.4,127.7,61.5,132.9,59,133.7z"/>
	<ellipse class="st58" cx="60.4" cy="126.6" rx="1.6" ry="2.5"/>
	<path class="st58" d="M73.2,168c0,0,1.8-2.1,2.7-2.1c2-0.1,6.3,2.6,6.6,4.6c0.1,1.1-2.1,3.7-2.1,3.7h-7.2V168z"/>
	<path class="st9" d="M93.1,247.6v10.6c0,0,7.4,6.8,7.4,0v-6.8L93.1,247.6z"/>
	<path class="st58" d="M73.1,167.4c0,0-15.6,8.2-23.3,7.8l0.1,7.4c10.3-1.7,23.2-7.6,23.2-7.6L73.1,167.4z"/>
	<path class="st0" d="M51.1,196.7c-2.5,1.2-2.2,9.5,0,11.2c8.2,6.2,38.5-1,40.9,0c3.4,1.4-1.6,41.6-1.6,41.6l10,1.9
		c0,0,9.2-32.7,4.4-52.7C103.4,192.6,59.8,192.6,51.1,196.7z"/>
	<path class="st0" d="M92.4,258.3c-0.8,1.9-1.5,3.9-2,5.9c-0.2,1.4,16.5,1.1,19.6-0.6c1.7-1-1.2-3.3-3-4.1
		C102.9,257.6,92.4,258.3,92.4,258.3z"/>
	<path class="st54" d="M35.3,212.2h48.3c0.6,0,1,0.4,1,1v3.6c0,0.6-0.4,1-1,1H35.3c-0.6,0-1-0.4-1-1v-3.6
		C34.3,212.6,34.7,212.2,35.3,212.2z"/>
	<line class="st60" x1="76.3" y1="261.1" x2="57.8" y2="255.9"/>
	<line class="st60" x1="42" y1="261.1" x2="57.8" y2="255.9"/>
	<circle class="st0" cx="77.2" cy="262.5" r="3.1"/>
	<circle class="st0" cx="40.2" cy="262.5" r="3.1"/>
	<line class="st61" x1="58.1" y1="254.5" x2="58.1" y2="266.8"/>
	<circle class="st0" cx="58.1" cy="268.2" r="3.1"/>
	<rect x="47.1" y="174.2" class="st55" width="5" height="9.8"/>
</g>
</svg>
