<svg xmlns="http://www.w3.org/2000/svg" viewBox="0 0 406 273.11"><defs><style>.cls-1,.cls-22,.cls-30,.cls-49,.cls-57,.cls-7{fill:#2c3e50;}.cls-2,.cls-20,.cls-5{fill:#ecf0f1;}.cls-11,.cls-12,.cls-18,.cls-2,.cls-20,.cls-21,.cls-22,.cls-23,.cls-26,.cls-27,.cls-3,.cls-31,.cls-34,.cls-38,.cls-41,.cls-46,.cls-47,.cls-50,.cls-56,.cls-57,.cls-6,.cls-63,.cls-64,.cls-7,.cls-8{stroke:#2c3e50;}.cls-11,.cls-12,.cls-13,.cls-14,.cls-15,.cls-16,.cls-17,.cls-18,.cls-19,.cls-2,.cls-20,.cls-21,.cls-22,.cls-23,.cls-24,.cls-25,.cls-26,.cls-27,.cls-28,.cls-29,.cls-3,.cls-30,.cls-31,.cls-32,.cls-33,.cls-34,.cls-35,.cls-38,.cls-39,.cls-40,.cls-41,.cls-42,.cls-43,.cls-44,.cls-45,.cls-46,.cls-47,.cls-48,.cls-49,.cls-50,.cls-54,.cls-55,.cls-56,.cls-57,.cls-6,.cls-63,.cls-64,.cls-7,.cls-8,.cls-9{stroke-miterlimit:10;}.cls-2,.cls-3,.cls-57{stroke-width:0.86px;}.cls-3{fill:#e64c3c;}.cls-23,.cls-4{fill:#fff;}.cls-11,.cls-12,.cls-13,.cls-14,.cls-15,.cls-16,.cls-17,.cls-18,.cls-19,.cls-24,.cls-25,.cls-26,.cls-27,.cls-28,.cls-29,.cls-31,.cls-32,.cls-33,.cls-34,.cls-35,.cls-38,.cls-39,.cls-40,.cls-41,.cls-42,.cls-43,.cls-44,.cls-45,.cls-46,.cls-47,.cls-48,.cls-50,.cls-54,.cls-55,.cls-6,.cls-63,.cls-64,.cls-9{fill:none;}.cls-20,.cls-23,.cls-6{stroke-width:0.71px;}.cls-7,.cls-8{stroke-width:0.19px;}.cls-8{fill:#26b99a;}.cls-33,.cls-9{stroke:#7f8c8d;}.cls-9{stroke-width:0.49px;}.cls-10{fill:#3b97d3;}.cls-11{stroke-width:0.44px;}.cls-12{stroke-width:0.36px;}.cls-13,.cls-14,.cls-15,.cls-19,.cls-28,.cls-29,.cls-32,.cls-35,.cls-40,.cls-42,.cls-43,.cls-48,.cls-55{stroke:#3b97d3;}.cls-13{stroke-width:0.4px;}.cls-14{stroke-width:0.36px;}.cls-15{stroke-width:0.39px;}.cls-16,.cls-17{stroke:#ecf0f1;}.cls-16{stroke-width:0.55px;}.cls-17{stroke-width:0.44px;}.cls-18{stroke-width:0.66px;}.cls-19{stroke-width:0.54px;}.cls-21,.cls-36,.cls-56{fill:#bdc3c7;}.cls-21{stroke-width:0.7px;}.cls-22{stroke-width:0.74px;}.cls-24,.cls-25,.cls-44,.cls-45{stroke:#95a5a5;}.cls-24,.cls-26{stroke-width:0.22px;}.cls-25{stroke-width:0.66px;}.cls-27{stroke-width:0.44px;}.cls-28,.cls-31,.cls-33{stroke-width:0.15px;}.cls-29,.cls-34{stroke-width:0.49px;}.cls-30,.cls-49{stroke:#fff;}.cls-30{stroke-width:0.11px;}.cls-32{stroke-width:0.25px;}.cls-35{stroke-width:0.38px;}.cls-37{fill:#955ba5;}.cls-38,.cls-39,.cls-40{stroke-width:0.69px;}.cls-39,.cls-54{stroke:#bdc3c7;}.cls-41{stroke-width:0.4px;}.cls-42{stroke-width:0.33px;}.cls-43{stroke-width:0.43px;}.cls-44,.cls-46{stroke-width:0.49px;}.cls-45{stroke-width:1.47px;}.cls-47{stroke-width:0.98px;}.cls-48{stroke-width:0.34px;}.cls-49{stroke-width:0.25px;}.cls-51{fill:#c18141;}.cls-52{fill:#414042;}.cls-53{fill:#231f20;}.cls-55{stroke-width:0.64px;}.cls-56{stroke-width:0.67px;}.cls-58{fill:#2980ba;}.cls-59{fill:#35495e;}.cls-60{fill:#2e4155;}.cls-61{fill:#fab492;}.cls-62{fill:#95a5a5;}.cls-63{stroke-width:2.58px;}.cls-64{stroke-width:1.72px;}</style></defs><title>cap-500</title><g id="Upload-2"><rect class="cls-1" x="341.53" y="187.43" width="4.8" height="12.6"/><rect class="cls-2" x="298.31" y="127.87" width="91.7" height="63.62" rx="4" ry="4"/><rect class="cls-3" x="303.64" y="133.1" width="82.58" height="50.28" rx="1" ry="1"/><path class="cls-4" d="M328.67,154.88v2.22h3.5v1.16h-3.5v3.16h-1.3v-7.7h5.17v1.17Z"/><path class="cls-4" d="M337.13,160.7a2.37,2.37,0,0,1-1.94.77,1.85,1.85,0,0,1-2.06-1.82c0-1.07.8-1.75,2.21-1.76h1.77v-.18c0-.74-.47-1.18-1.4-1.18a3.09,3.09,0,0,0-1.73.59l-.52-.88a4.29,4.29,0,0,1,2.52-.74c1.51,0,2.35.77,2.37,2.06v3.84h-1.24Zm0-1.34v-.54h-1.58c-.83,0-1.21.22-1.21.78s.43.87,1.13.87C336.36,160.47,337.05,160,337.12,159.36Z"/><path class="cls-4" d="M341.43,153.89a.74.74,0,1,1-.74-.77A.73.73,0,0,1,341.43,153.89Zm-1.36,7.53v-5.85h1.25v5.85Z"/><path class="cls-4" d="M343.24,161.41v-8.16h1.26v8.16Z"/><path class="cls-4" d="M351.75,161.41h-1.27v-1.14a2.16,2.16,0,0,1-2.09,1.19,2,2,0,0,1-2.15-2.26v-3.64h1.27v3.29a1.29,1.29,0,0,0,1.36,1.42,1.65,1.65,0,0,0,1.61-1.83v-2.88h1.27Z"/><path class="cls-4" d="M354.88,156.73a2.13,2.13,0,0,1,2-1.21v1.21a1.77,1.77,0,0,0-2,1.63v3.06h-1.26v-5.85h1.26Z"/><path class="cls-4" d="M363.1,159h-4.42a1.78,1.78,0,0,0,1.82,1.46,2.28,2.28,0,0,0,1.65-.68l.67.71a3.19,3.19,0,0,1-2.42,1,3,3,0,1,1,0-5.94C362.42,155.52,363.25,156.86,363.1,159ZM362,158a1.5,1.5,0,0,0-1.63-1.52,1.66,1.66,0,0,0-1.72,1.52Z"/><rect class="cls-5" x="331.06" y="89.23" width="13.11" height="13.11" rx="1" ry="1"/><rect class="cls-5" x="331.06" y="74.72" width="13.11" height="13.11" rx="1" ry="1"/><rect class="cls-5" x="331.06" y="60.31" width="13.11" height="13.11" rx="1" ry="1"/><path class="cls-5" d="M347.61,58.18h48.84a0,0,0,0,1,0,0v44.43a0,0,0,0,1,0,0H347.61a1,1,0,0,1-1-1V59.18a1,1,0,0,1,1-1Z" transform="translate(743.07 160.79) rotate(-180)"/><rect class="cls-6" x="327.27" y="58.18" width="69.18" height="44.43" rx="1" ry="1"/><path class="cls-7" d="M327.27,99.27h69.18a0,0,0,0,1,0,0v2.34a1,1,0,0,1-1,1H328.27a1,1,0,0,1-1-1V99.27A0,0,0,0,1,327.27,99.27Z"/><circle class="cls-8" cx="393.64" cy="101.21" r="0.68"/><line class="cls-9" x1="352.51" y1="66.58" x2="352.51" y2="92.74"/><line class="cls-9" x1="361.74" y1="66.58" x2="361.74" y2="92.74"/><line class="cls-9" x1="370.96" y1="66.58" x2="370.96" y2="92.74"/><line class="cls-9" x1="380.18" y1="66.58" x2="380.18" y2="92.74"/><line class="cls-9" x1="389.4" y1="66.58" x2="389.4" y2="92.74"/><circle class="cls-10" cx="340.02" cy="65.34" r="0.42"/><circle class="cls-10" cx="338.71" cy="65.3" r="0.42"/><circle class="cls-1" cx="335.72" cy="67.75" r="0.42"/><circle class="cls-1" cx="334.32" cy="66.94" r="0.42"/><circle class="cls-1" cx="334.32" cy="68.39" r="0.42"/><circle class="cls-1" cx="335.72" cy="69.4" r="0.42"/><circle class="cls-1" cx="337.04" cy="68.79" r="0.42"/><circle class="cls-1" cx="334.32" cy="69.9" r="0.42"/><circle class="cls-10" cx="340.02" cy="64.23" r="0.42"/><circle class="cls-10" cx="341.31" cy="64.92" r="0.42"/><circle class="cls-1" cx="335.3" cy="70.62" r="0.42"/><circle class="cls-1" cx="332.51" cy="68.91" r="0.42"/><circle class="cls-10" cx="338.71" cy="63.33" r="0.42"/><circle class="cls-10" cx="336.36" cy="85.84" r="0.42"/><circle class="cls-10" cx="334.2" cy="83.61" r="0.42"/><circle class="cls-1" cx="339.79" cy="81.72" r="0.42"/><circle class="cls-1" cx="335.94" cy="79.87" r="0.42"/><circle class="cls-1" cx="332.71" cy="83.19" r="0.42"/><circle class="cls-1" cx="333.12" cy="80.85" r="0.42"/><circle class="cls-1" cx="335.94" cy="84.43" r="0.42"/><circle class="cls-1" cx="336.92" cy="81.3" r="0.42"/><circle class="cls-10" cx="338.92" cy="79.87" r="0.42"/><circle class="cls-10" cx="340.21" cy="80.56" r="0.42"/><circle class="cls-1" cx="334.2" cy="86.26" r="0.42"/><circle class="cls-1" cx="332.29" cy="85.84" r="0.42"/><circle class="cls-10" cx="337.62" cy="78.97" r="0.42"/><circle class="cls-10" cx="336.8" cy="98.13" r="0.42"/><circle class="cls-10" cx="338.97" cy="95.9" r="0.42"/><circle class="cls-1" cx="333.38" cy="94" r="0.42"/><circle class="cls-1" cx="337.22" cy="92.16" r="0.42"/><circle class="cls-1" cx="340.46" cy="95.48" r="0.42"/><circle class="cls-1" cx="340.04" cy="93.14" r="0.42"/><circle class="cls-1" cx="337.22" cy="96.72" r="0.42"/><circle class="cls-1" cx="336.25" cy="93.59" r="0.42"/><circle class="cls-10" cx="334.25" cy="92.16" r="0.42"/><circle class="cls-10" cx="332.96" cy="92.85" r="0.42"/><circle class="cls-1" cx="338.97" cy="98.55" r="0.42"/><circle class="cls-1" cx="340.88" cy="98.13" r="0.42"/><circle class="cls-10" cx="335.55" cy="91.26" r="0.42"/><polyline class="cls-11" points="352.51 89.09 361.74 84.21 370.96 80.85 380.18 78.97 389.4 83.19"/><polyline class="cls-12" points="352.51 90.38 361.74 87.12 370.96 84.88 380.18 83.63 389.4 86.44"/><polyline class="cls-13" points="352.51 79.35 361.74 75.33 370.96 72.55 380.18 71 389.4 74.48"/><polyline class="cls-14" points="352.51 93.21 361.74 89.93 370.96 87.67 380.18 86.41 389.4 89.25"/><polyline class="cls-15" points="352.51 83.22 361.74 87.14 370.96 89.84 380.18 91.36 389.4 87.96"/><line class="cls-16" x1="327.91" y1="11.93" x2="396.59" y2="11.93"/><line class="cls-16" x1="327.91" y1="16.93" x2="396.59" y2="16.93"/><line class="cls-17" x1="367.41" y1="8.04" x2="367.41" y2="51.82"/><line class="cls-17" x1="362.36" y1="8.04" x2="362.36" y2="51.82"/><line class="cls-17" x1="357.31" y1="8.04" x2="357.31" y2="51.82"/><line class="cls-17" x1="352.26" y1="8.04" x2="352.26" y2="51.82"/><line class="cls-17" x1="347.21" y1="8.04" x2="347.21" y2="51.82"/><line class="cls-17" x1="342.16" y1="8.04" x2="342.16" y2="51.82"/><line class="cls-17" x1="337.11" y1="8.04" x2="337.11" y2="51.82"/><line class="cls-17" x1="332.06" y1="8.04" x2="332.06" y2="51.82"/><line class="cls-17" x1="392.66" y1="8.04" x2="392.66" y2="51.82"/><line class="cls-17" x1="387.61" y1="8.04" x2="387.61" y2="51.82"/><line class="cls-17" x1="382.56" y1="8.04" x2="382.56" y2="51.82"/><line class="cls-17" x1="377.51" y1="8.04" x2="377.51" y2="51.82"/><line class="cls-17" x1="372.46" y1="8.04" x2="372.46" y2="51.82"/><line class="cls-16" x1="327.91" y1="21.92" x2="396.59" y2="21.92"/><line class="cls-16" x1="327.91" y1="26.92" x2="396.59" y2="26.92"/><line class="cls-16" x1="327.91" y1="31.91" x2="396.59" y2="31.91"/><line class="cls-16" x1="327.91" y1="36.91" x2="396.59" y2="36.91"/><line class="cls-16" x1="327.91" y1="41.9" x2="396.59" y2="41.9"/><line class="cls-16" x1="327.91" y1="46.9" x2="396.59" y2="46.9"/><polygon class="cls-18" points="331.79 50.93 352.43 36.92 352.43 47.33 371.91 33.2 371.91 39.69 390.77 27.92 390.77 50.93 331.79 50.93"/><polygon class="cls-19" points="331.79 51.44 352.97 39.41 352.97 48.34 372.96 36.21 372.96 41.78 392.31 31.68 392.31 51.44 331.79 51.44"/><circle class="cls-8" cx="394.13" cy="51.33" r="0.68"/><path class="cls-20" d="M327.77,8h69.18a0,0,0,0,1,0,0V21.47a1,1,0,0,1-1,1H328.77a1,1,0,0,1-1-1V8a0,0,0,0,1,0,0Z" transform="translate(724.72 30.52) rotate(180)"/><path class="cls-21" d="M328.67,21.92s4.73-7.93,5.14-8.41,9.89-1.3,10.43-1.3,3,2.39,3.46,3,5,1.67,5,1.67,6-1.93,6.46-1.95a27.94,27.94,0,0,0,3.5-2.76l5,3,4.11,1.3,3.79-1.3h2.71l6-.63,4.06,2.25,2.41.86,5.73,4.18Z"/><path class="cls-22" d="M327.91,22.21,336.82,21l2.26-1.86,2.63-.7a2.16,2.16,0,0,1,.43-1.25c.4-.38,3.59,0,3.59,0s3.73-.38,4.26-.84a8.14,8.14,0,0,1,2.13-.92h4.27l2.91,2.78h5.85l4.79-1,2.93-1.76,2.39-.15s3.59,2.66,4,2.86,3.19,2.45,3.19,2.45l3.73-1.45,2-1L391.41,21l1.31.91h1.72"/><rect class="cls-6" x="327.77" y="7.81" width="69.18" height="44.43" rx="1" ry="1"/><path class="cls-7" d="M327.77,48.9h69.18a0,0,0,0,1,0,0v2.34a1,1,0,0,1-1,1H328.77a1,1,0,0,1-1-1V48.9A0,0,0,0,1,327.77,48.9Z"/><circle class="cls-8" cx="394.13" cy="50.85" r="0.68"/><path class="cls-5" d="M252.07,58.44h6.77a0,0,0,0,1,0,0v44.43a0,0,0,0,1,0,0h-6.77a1,1,0,0,1-1-1V59.44a1,1,0,0,1,1-1Z"/><rect class="cls-6" x="251.07" y="58.44" width="69.18" height="44.43" rx="1" ry="1" transform="translate(571.32 161.32) rotate(-180)"/><path class="cls-7" d="M251.07,99.53h69.18a0,0,0,0,1,0,0v2.34a1,1,0,0,1-1,1H252.07a1,1,0,0,1-1-1V99.53A0,0,0,0,1,251.07,99.53Z"/><circle class="cls-8" cx="317.43" cy="101.48" r="0.68"/><rect class="cls-10" x="266.37" y="64.43" width="9.22" height="2.76" rx="1" ry="1"/><rect class="cls-1" x="278.32" y="64.43" width="9.22" height="2.76" rx="1" ry="1"/><rect class="cls-10" x="290.73" y="64.43" width="9.22" height="2.76" rx="1" ry="1"/><rect class="cls-1" x="302.67" y="64.43" width="9.22" height="2.76" rx="1" ry="1"/><rect class="cls-10" x="266.37" y="69.65" width="9.22" height="2.76" rx="1" ry="1"/><rect class="cls-1" x="278.32" y="69.65" width="9.22" height="2.76" rx="1" ry="1"/><rect class="cls-10" x="302.67" y="74.86" width="9.22" height="2.76" rx="1" ry="1" transform="translate(614.56 152.48) rotate(180)"/><rect class="cls-1" x="290.73" y="74.86" width="9.22" height="2.76" rx="1" ry="1" transform="translate(590.68 152.48) rotate(180)"/><rect class="cls-10" x="278.32" y="74.86" width="9.22" height="2.76" rx="1" ry="1" transform="translate(565.85 152.48) rotate(180)"/><rect class="cls-1" x="266.37" y="74.86" width="9.22" height="2.76" rx="1" ry="1" transform="translate(541.96 152.48) rotate(180)"/><rect class="cls-10" x="302.67" y="69.65" width="9.22" height="2.76" rx="1" ry="1" transform="translate(614.56 142.05) rotate(180)"/><rect class="cls-1" x="290.73" y="69.65" width="9.22" height="2.76" rx="1" ry="1" transform="translate(590.68 142.05) rotate(180)"/><rect class="cls-10" x="302.67" y="80.39" width="9.22" height="2.76" rx="1" ry="1" transform="translate(614.56 163.55) rotate(-180)"/><rect class="cls-1" x="290.73" y="80.39" width="9.22" height="2.76" rx="1" ry="1" transform="translate(590.68 163.55) rotate(-180)"/><rect class="cls-10" x="278.32" y="80.39" width="9.22" height="2.76" rx="1" ry="1" transform="translate(565.85 163.55) rotate(-180)"/><rect class="cls-1" x="266.37" y="80.39" width="9.22" height="2.76" rx="1" ry="1" transform="translate(541.96 163.55) rotate(-180)"/><rect class="cls-10" x="302.67" y="85.61" width="9.22" height="2.76" rx="1" ry="1" transform="translate(614.56 173.98) rotate(-180)"/><rect class="cls-1" x="290.73" y="85.61" width="9.22" height="2.76" rx="1" ry="1" transform="translate(590.68 173.98) rotate(-180)"/><rect class="cls-10" x="266.37" y="90.83" width="9.22" height="2.76" rx="1" ry="1"/><rect class="cls-1" x="278.32" y="90.83" width="9.22" height="2.76" rx="1" ry="1"/><rect class="cls-10" x="290.73" y="90.83" width="9.22" height="2.76" rx="1" ry="1"/><rect class="cls-1" x="302.67" y="90.83" width="9.22" height="2.76" rx="1" ry="1"/><rect class="cls-10" x="266.37" y="85.61" width="9.22" height="2.76" rx="1" ry="1"/><rect class="cls-1" x="278.32" y="85.61" width="9.22" height="2.76" rx="1" ry="1"/><rect class="cls-23" x="251.22" y="8" width="69.18" height="44.43" rx="1" ry="1" transform="translate(571.62 60.43) rotate(-180)"/><circle class="cls-24" cx="304.63" cy="19.86" r="1.95"/><circle class="cls-25" cx="304.63" cy="19.86" r="3.03"/><polygon class="cls-26" points="299.61 21.21 300.95 23.54 303.28 24.89 305.98 24.89 308.31 23.54 309.65 21.21 309.65 18.52 308.31 16.18 305.98 14.84 303.28 14.84 300.95 16.18 299.61 18.52 299.61 21.21"/><polygon class="cls-27" points="298.21 21.58 299.93 24.56 302.91 26.28 306.35 26.28 309.33 24.56 311.05 21.58 311.05 18.14 309.33 15.16 306.35 13.44 302.91 13.44 299.93 15.16 298.21 18.14 298.21 21.58"/><polygon class="cls-27" points="297 21.91 299.04 25.45 302.58 27.5 306.68 27.5 310.22 25.45 312.26 21.91 312.26 17.82 310.22 14.28 306.68 12.23 302.58 12.23 299.04 14.28 297 17.82 297 21.91"/><path class="cls-28" d="M304.67,19.8a5.6,5.6,0,0,0,5.6-5.6"/><path class="cls-29" d="M304.76,19.8a5.69,5.69,0,0,0-5.69,5.69"/><path class="cls-28" d="M304.76,19.89c2.79,0,5.05-2.59,5.05-5.78"/><path class="cls-28" d="M304.9,19.85c3.17,0,5.74-2.22,5.74-5"/><path class="cls-29" d="M304.9,19.89c2.47,0,4.46-2.61,4.46-5.83"/><path class="cls-28" d="M304.76,19.89c-2.31,0-4.19,2.71-4.19,6.05"/><path class="cls-28" d="M304.72,19.8c-3.87,0-7,1.28-7,2.87"/><path class="cls-28" d="M304.72,19.8c1.91,0,3.46,2.38,3.46,5.33"/><path class="cls-28" d="M304.76,19.76c-.63,0-1.14-2.83-1.14-6.33"/><path class="cls-28" d="M304.67,19.89c1.31,0,2.37-3.42,2.37-7.65"/><path class="cls-28" d="M304.76,19.89c.18,0,.32-1.38.32-3.09"/><path class="cls-28" d="M304.76,19.8c.93,0,1.68,1.2,1.68,2.69"/><circle class="cls-30" cx="304.63" cy="19.86" r="0.36"/><path class="cls-7" d="M252.22,49.09H319.4a1,1,0,0,1,1,1v2.34a0,0,0,0,1,0,0H251.22a0,0,0,0,1,0,0V50.09A1,1,0,0,1,252.22,49.09Z" transform="translate(571.62 101.52) rotate(-180)"/><circle class="cls-8" cx="254.04" cy="51.03" r="0.68"/><circle class="cls-24" cx="286.02" cy="19.86" r="1.95"/><circle class="cls-25" cx="286.02" cy="19.86" r="3.03"/><polygon class="cls-26" points="287.37 24.89 289.7 23.54 291.05 21.21 291.05 18.52 289.7 16.18 287.37 14.84 284.68 14.84 282.34 16.18 281 18.52 281 21.21 282.34 23.54 284.68 24.89 287.37 24.89"/><polygon class="cls-27" points="287.74 26.28 290.72 24.56 292.44 21.58 292.44 18.14 290.72 15.16 287.74 13.44 284.3 13.44 281.32 15.16 279.6 18.14 279.6 21.58 281.32 24.56 284.3 26.28 287.74 26.28"/><polygon class="cls-27" points="288.07 27.5 291.61 25.45 293.65 21.91 293.65 17.82 291.61 14.28 288.07 12.23 283.98 12.23 280.43 14.28 278.39 17.82 278.39 21.91 280.43 25.45 283.98 27.5 288.07 27.5"/><path class="cls-28" d="M286,19.82a5.6,5.6,0,0,0-5.6-5.6"/><path class="cls-29" d="M286,19.73a5.69,5.69,0,0,0,5.69,5.69"/><path class="cls-28" d="M286,19.77c0,3.87,1.28,7,2.87,7"/><path class="cls-28" d="M286,19.77c0-1.91,2.38-3.46,5.33-3.46"/><path class="cls-28" d="M285.92,19.73c0,.63-2.83,1.14-6.33,1.14"/><path class="cls-28" d="M286.05,19.82c0-1.31-3.42-2.37-7.65-2.37"/><path class="cls-28" d="M286.05,19.73c0-.18-1.38-.32-3.09-.32"/><path class="cls-28" d="M286,19.73c0-.93,1.2-1.68,2.69-1.68"/><circle class="cls-30" cx="286.02" cy="19.86" r="0.36"/><circle class="cls-24" cx="267.41" cy="19.86" r="1.95"/><circle class="cls-25" cx="267.41" cy="19.86" r="3.03"/><polygon class="cls-26" points="268.76 24.89 271.09 23.54 272.44 21.21 272.44 18.52 271.09 16.18 268.76 14.84 266.07 14.84 263.74 16.18 262.39 18.52 262.39 21.21 263.74 23.54 266.07 24.89 268.76 24.89"/><polygon class="cls-27" points="269.13 26.28 272.11 24.56 273.83 21.58 273.83 18.14 272.11 15.16 269.13 13.44 265.69 13.44 262.71 15.16 260.99 18.14 260.99 21.58 262.71 24.56 265.69 26.28 269.13 26.28"/><polygon class="cls-27" points="269.46 27.5 273 25.45 275.05 21.91 275.05 17.82 273 14.28 269.46 12.23 265.37 12.23 261.82 14.28 259.78 17.82 259.78 21.91 261.82 25.45 265.37 27.5 269.46 27.5"/><path class="cls-28" d="M267.35,19.82a5.6,5.6,0,0,0-5.6-5.6"/><path class="cls-28" d="M267.35,19.77c0,3.87,1.28,7,2.87,7"/><path class="cls-31" d="M267.35,19.77c0-1.91,2.38-3.46,5.33-3.46"/><path class="cls-31" d="M267.31,19.73c0,.63-2.83,1.14-6.33,1.14"/><path class="cls-31" d="M267.44,19.82c0-1.31-3.42-2.37-7.65-2.37"/><path class="cls-28" d="M267.44,19.73c0-.18-1.38-.32-3.09-.32"/><path class="cls-32" d="M267.35,19.73c0-.93,1.2-1.68,2.69-1.68"/><circle class="cls-30" cx="267.41" cy="19.86" r="0.36"/><circle class="cls-24" cx="267.83" cy="37.1" r="1.95"/><circle class="cls-25" cx="267.83" cy="37.1" r="3.03"/><polygon class="cls-26" points="272.85 35.75 271.5 33.42 269.17 32.07 266.48 32.07 264.15 33.42 262.8 35.75 262.8 38.44 264.15 40.77 266.48 42.12 269.17 42.12 271.5 40.77 272.85 38.44 272.85 35.75"/><polygon class="cls-27" points="274.25 35.38 272.52 32.4 269.55 30.68 266.11 30.68 263.13 32.4 261.41 35.38 261.41 38.82 263.13 41.8 266.11 43.52 269.55 43.52 272.52 41.8 274.25 38.82 274.25 35.38"/><polygon class="cls-27" points="275.46 35.05 273.41 31.51 269.87 29.46 265.78 29.46 262.24 31.51 260.19 35.05 260.19 39.14 262.24 42.68 265.78 44.73 269.87 44.73 273.41 42.68 275.46 39.14 275.46 35.05"/><path class="cls-28" d="M267.78,37.16a5.6,5.6,0,0,0-5.6,5.6"/><path class="cls-31" d="M267.69,37.06c-2.79,0-5.05,2.59-5.05,5.78"/><path class="cls-31" d="M267.69,37.06c2.31,0,4.19-2.71,4.19-6.05"/><path class="cls-31" d="M267.74,37.16c3.87,0,7-1.28,7-2.87"/><path class="cls-31" d="M267.74,37.16c-1.91,0-3.46-2.38-3.46-5.33"/><path class="cls-28" d="M267.69,37.2c.63,0,1.14,2.83,1.14,6.33"/><path class="cls-28" d="M267.78,37.06c-1.31,0-2.37,3.42-2.37,7.65"/><path class="cls-28" d="M267.69,37.06c-.18,0-.32,1.38-.32,3.09"/><path class="cls-28" d="M267.69,37.16c-.93,0-1.68-1.2-1.68-2.69"/><circle class="cls-30" cx="267.83" cy="37.1" r="0.36"/><circle class="cls-24" cx="286.43" cy="37.1" r="1.95"/><circle class="cls-25" cx="286.43" cy="37.1" r="3.03"/><polygon class="cls-26" points="285.09 32.07 282.76 33.42 281.41 35.75 281.41 38.44 282.76 40.77 285.09 42.12 287.78 42.12 290.11 40.77 291.46 38.44 291.46 35.75 290.11 33.42 287.78 32.07 285.09 32.07"/><polygon class="cls-27" points="284.71 30.68 281.74 32.4 280.01 35.38 280.01 38.82 281.74 41.8 284.71 43.52 288.15 43.52 291.13 41.8 292.85 38.82 292.85 35.38 291.13 32.4 288.15 30.68 284.71 30.68"/><polygon class="cls-27" points="284.39 29.46 280.85 31.51 278.8 35.05 278.8 39.14 280.85 42.68 284.39 44.73 288.48 44.73 292.02 42.68 294.07 39.14 294.07 35.05 292.02 31.51 288.48 29.46 284.39 29.46"/><path class="cls-33" d="M286.49,37.14a5.6,5.6,0,0,0,5.6,5.6"/><path class="cls-34" d="M286.49,37.23a5.69,5.69,0,0,0-5.69-5.69"/><path class="cls-28" d="M286.49,37.18c0-3.87-1.28-7-2.87-7"/><path class="cls-33" d="M286.49,37.18c0,1.91-2.38,3.46-5.33,3.46"/><path class="cls-28" d="M286.54,37.23c0-.63,2.83-1.14,6.33-1.14"/><path class="cls-28" d="M286.4,37.14c0,1.31,3.42,2.37,7.65,2.37"/><path class="cls-28" d="M286.4,37.23c0,.18,1.38.32,3.09.32"/><path class="cls-28" d="M286.49,37.23c0,.93-1.2,1.68-2.69,1.68"/><circle class="cls-30" cx="286.43" cy="37.1" r="0.36"/><circle class="cls-24" cx="305.04" cy="37.1" r="1.95"/><circle class="cls-25" cx="305.04" cy="37.1" r="3.03"/><polygon class="cls-26" points="303.7 32.07 301.37 33.42 300.02 35.75 300.02 38.44 301.37 40.77 303.7 42.12 306.39 42.12 308.72 40.77 310.07 38.44 310.07 35.75 308.72 33.42 306.39 32.07 303.7 32.07"/><polygon class="cls-27" points="303.32 30.68 300.34 32.4 298.62 35.38 298.62 38.82 300.34 41.8 303.32 43.52 306.76 43.52 309.74 41.8 311.46 38.82 311.46 35.38 309.74 32.4 306.76 30.68 303.32 30.68"/><polygon class="cls-27" points="303 29.46 299.46 31.51 297.41 35.05 297.41 39.14 299.46 42.68 303 44.73 307.09 44.73 310.63 42.68 312.68 39.14 312.68 35.05 310.63 31.51 307.09 29.46 303 29.46"/><path class="cls-28" d="M305.1,37.14a5.6,5.6,0,0,0,5.6,5.6"/><path class="cls-28" d="M305.1,37.18c0-3.87-1.28-7-2.87-7"/><path class="cls-28" d="M305.1,37.18c0,1.91-2.38,3.46-5.33,3.46"/><path class="cls-28" d="M305.15,37.23c0-.63,2.83-1.14,6.33-1.14"/><path class="cls-28" d="M305,37.14c0,1.31,3.42,2.37,7.65,2.37"/><path class="cls-28" d="M305,37.23c0,.18,1.38.32,3.09.32"/><path class="cls-28" d="M305.1,37.23c0,.93-1.2,1.68-2.69,1.68"/><circle class="cls-30" cx="305.04" cy="37.1" r="0.36"/><rect class="cls-5" x="99.51" y="38.9" width="13.11" height="13.11" rx="1" ry="1"/><rect class="cls-5" x="99.5" y="24.39" width="13.11" height="13.11" rx="1" ry="1"/><rect class="cls-5" x="99.5" y="9.99" width="13.11" height="13.11" rx="1" ry="1"/><path class="cls-5" d="M116.06,7.85H164.9a0,0,0,0,1,0,0V52.29a0,0,0,0,1,0,0H116.06a1,1,0,0,1-1-1V8.85A1,1,0,0,1,116.06,7.85Z" transform="translate(279.96 60.14) rotate(-180)"/><path class="cls-5" d="M20.68,7.85H41.35a0,0,0,0,1,0,0V52.29a0,0,0,0,1,0,0H20.68a1,1,0,0,1-1-1V8.85a1,1,0,0,1,1-1Z"/><path class="cls-35" d="M23,19.46l2.38-3.6a7.14,7.14,0,0,0,1.83-2c.45-1,3.11-1.57,3.11-1.57L34,11.73l2.08,1,1.06.6"/><rect class="cls-6" x="19.73" y="7.85" width="69.18" height="44.43" rx="1" ry="1"/><path class="cls-7" d="M19.73,48.94H88.91a0,0,0,0,1,0,0v2.34a1,1,0,0,1-1,1H20.73a1,1,0,0,1-1-1V48.94a0,0,0,0,1,0,0Z"/><circle class="cls-8" cx="87.12" cy="50.89" r="0.68"/><circle class="cls-23" cx="71" cy="26.78" r="13.48"/><circle class="cls-6" cx="67.34" cy="40.26" r="4.7"/><circle class="cls-23" cx="55.43" cy="41.75" r="3.2"/><line class="cls-23" x1="55.42" y1="44.95" x2="67.78" y2="44.95"/><circle class="cls-23" cx="59.62" cy="33.99" r="1.57"/><circle class="cls-23" cx="69.53" cy="13.29" r="1.57"/><circle class="cls-23" cx="81.27" cy="35.56" r="1.57"/><circle class="cls-23" cx="67.34" cy="39.79" r="1.57"/><rect class="cls-1" x="23.01" y="17.99" width="1.11" height="1.46"/><rect class="cls-1" x="24.84" y="17.37" width="1.11" height="2.09"/><rect class="cls-1" x="26.67" y="15.28" width="1.11" height="4.18"/><rect class="cls-1" x="28.5" y="13.31" width="1.11" height="6.15"/><rect class="cls-1" x="30.33" y="12.69" width="1.11" height="6.76"/><rect class="cls-1" x="32.16" y="12.25" width="1.11" height="7.21"/><rect class="cls-1" x="33.99" y="12.25" width="1.11" height="7.21"/><rect class="cls-1" x="35.82" y="13.82" width="1.11" height="5.64"/><path class="cls-36" d="M22.47,29.22l2.07-1L26,26.78a1.21,1.21,0,0,1,1.25-.67h2.07a26.68,26.68,0,0,0,2.89-1c.21-.09,0-.64.63-.64s1.56-.55,2.07-.55H37l.63-.82v6.13Z"/><path class="cls-37" d="M22.47,29.22l2.07-.55L26,27.88s.22-.37,1.25-.37h2.07c.3,0,2.69-.5,2.89-.55s0-.35.63-.35,1.56-.3,2.07-.3H37l.63-.45v3.35Z"/><path class="cls-1" d="M22.47,29.22l1.83-.27,1.28-.39s.2-.18,1.11-.18h1.83c.27,0,2.37-.25,2.56-.27s0-.17.55-.17,1.37-.15,1.83-.15h1.83l.55-.22v1.67Z"/><path class="cls-1" d="M25.8,35.78A3.24,3.24,0,1,0,29,39H25.8Z"/><path class="cls-10" d="M26.09,35.45v3.24h3.24A3.24,3.24,0,0,0,26.09,35.45Z"/><path class="cls-38" d="M34.54,42.07a3.05,3.05,0,1,1,0-6.11"/><path class="cls-39" d="M37.13,40.64a3.05,3.05,0,0,1-2.59,1.43"/><path class="cls-40" d="M34.54,36a3.05,3.05,0,0,1,2.59,4.68"/><rect class="cls-23" x="173.33" y="7.85" width="69.18" height="44.43" rx="1" ry="1"/><circle class="cls-24" cx="189.1" cy="19.72" r="1.95"/><circle class="cls-25" cx="189.1" cy="19.72" r="3.03"/><polygon class="cls-26" points="194.12 21.06 192.78 23.39 190.44 24.74 187.75 24.74 185.42 23.39 184.07 21.06 184.07 18.37 185.42 16.04 187.75 14.69 190.44 14.69 192.78 16.04 194.12 18.37 194.12 21.06"/><polygon class="cls-27" points="195.52 21.44 193.8 24.42 190.82 26.14 187.38 26.14 184.4 24.42 182.68 21.44 182.68 18 184.4 15.02 187.38 13.3 190.82 13.3 193.8 15.02 195.52 18 195.52 21.44"/><polygon class="cls-27" points="196.73 21.76 194.69 25.3 191.15 27.35 187.05 27.35 183.51 25.3 181.47 21.76 181.47 17.67 183.51 14.13 187.05 12.08 191.15 12.08 194.69 14.13 196.73 17.67 196.73 21.76"/><path class="cls-28" d="M189.06,19.66a5.6,5.6,0,0,1-5.6-5.6"/><path class="cls-29" d="M189,19.66a5.69,5.69,0,0,1,5.69,5.69"/><path class="cls-28" d="M189,19.75c-2.79,0-5.05-2.59-5.05-5.78"/><path class="cls-28" d="M188.83,19.7c-3.17,0-5.74-2.22-5.74-5"/><path class="cls-29" d="M188.83,19.75c-2.47,0-4.46-2.61-4.46-5.83"/><path class="cls-28" d="M189,19.75c2.31,0,4.19,2.71,4.19,6.05"/><path class="cls-28" d="M189,19.66c3.87,0,7,1.28,7,2.87"/><path class="cls-28" d="M189,19.66c-1.91,0-3.46,2.38-3.46,5.33"/><path class="cls-28" d="M189,19.61c.63,0,1.14-2.83,1.14-6.33"/><path class="cls-28" d="M189.06,19.75c-1.31,0-2.37-3.42-2.37-7.65"/><path class="cls-28" d="M189,19.75c-.18,0-.32-1.38-.32-3.09"/><path class="cls-28" d="M189,19.66c-.93,0-1.68,1.2-1.68,2.69"/><circle class="cls-30" cx="189.1" cy="19.72" r="0.36"/><path class="cls-7" d="M173.33,48.94h69.18a0,0,0,0,1,0,0v2.34a1,1,0,0,1-1,1H174.33a1,1,0,0,1-1-1V48.94A0,0,0,0,1,173.33,48.94Z"/><circle class="cls-8" cx="239.69" cy="50.89" r="0.68"/><circle class="cls-24" cx="207.71" cy="19.72" r="1.95"/><circle class="cls-25" cx="207.71" cy="19.72" r="3.03"/><polygon class="cls-26" points="206.36 24.74 204.03 23.39 202.68 21.06 202.68 18.37 204.03 16.04 206.36 14.69 209.05 14.69 211.38 16.04 212.73 18.37 212.73 21.06 211.38 23.39 209.05 24.74 206.36 24.74"/><polygon class="cls-27" points="205.99 26.14 203.01 24.42 201.29 21.44 201.29 18 203.01 15.02 205.99 13.3 209.43 13.3 212.41 15.02 214.13 18 214.13 21.44 212.41 24.42 209.43 26.14 205.99 26.14"/><polygon class="cls-27" points="205.66 27.35 202.12 25.3 200.07 21.76 200.07 17.67 202.12 14.13 205.66 12.08 209.75 12.08 213.29 14.13 215.34 17.67 215.34 21.76 213.29 25.3 209.75 27.35 205.66 27.35"/><path class="cls-28" d="M207.77,19.67a5.6,5.6,0,0,1,5.6-5.6"/><path class="cls-29" d="M207.77,19.58a5.69,5.69,0,0,1-5.69,5.69"/><path class="cls-28" d="M207.77,19.63c0,3.87-1.28,7-2.87,7"/><path class="cls-28" d="M207.77,19.63c0-1.91-2.38-3.46-5.33-3.46"/><path class="cls-28" d="M207.81,19.58c0,.63,2.83,1.14,6.33,1.14"/><path class="cls-28" d="M207.68,19.67c0-1.31,3.42-2.37,7.65-2.37"/><path class="cls-28" d="M207.68,19.58c0-.18,1.38-.32,3.09-.32"/><path class="cls-28" d="M207.77,19.58c0-.93-1.2-1.68-2.69-1.68"/><circle class="cls-30" cx="207.71" cy="19.72" r="0.36"/><circle class="cls-24" cx="226.32" cy="19.72" r="1.95"/><circle class="cls-25" cx="226.32" cy="19.72" r="3.03"/><polygon class="cls-26" points="224.97 24.74 222.64 23.39 221.29 21.06 221.29 18.37 222.64 16.04 224.97 14.69 227.66 14.69 230 16.04 231.34 18.37 231.34 21.06 230 23.39 227.66 24.74 224.97 24.74"/><polygon class="cls-27" points="224.6 26.14 221.62 24.42 219.9 21.44 219.9 18 221.62 15.02 224.6 13.3 228.04 13.3 231.02 15.02 232.74 18 232.74 21.44 231.02 24.42 228.04 26.14 224.6 26.14"/><polygon class="cls-27" points="224.27 27.35 220.73 25.3 218.68 21.76 218.68 17.67 220.73 14.13 224.27 12.08 228.36 12.08 231.9 14.13 233.95 17.67 233.95 21.76 231.9 25.3 228.36 27.35 224.27 27.35"/><path class="cls-28" d="M226.38,19.67a5.6,5.6,0,0,1,5.6-5.6"/><path class="cls-28" d="M226.38,19.63c0,3.87-1.28,7-2.87,7"/><path class="cls-31" d="M226.38,19.63c0-1.91-2.38-3.46-5.33-3.46"/><path class="cls-31" d="M226.42,19.58c0,.63,2.83,1.14,6.33,1.14"/><path class="cls-31" d="M226.29,19.67c0-1.31,3.42-2.37,7.65-2.37"/><path class="cls-28" d="M226.29,19.58c0-.18,1.38-.32,3.09-.32"/><path class="cls-32" d="M226.38,19.58c0-.93-1.2-1.68-2.69-1.68"/><circle class="cls-30" cx="226.32" cy="19.72" r="0.36"/><circle class="cls-24" cx="225.9" cy="36.95" r="1.95"/><circle class="cls-25" cx="225.9" cy="36.95" r="3.03"/><polygon class="cls-26" points="220.88 35.6 222.23 33.27 224.56 31.93 227.25 31.93 229.58 33.27 230.93 35.6 230.93 38.3 229.58 40.63 227.25 41.97 224.56 41.97 222.23 40.63 220.88 38.3 220.88 35.6"/><polygon class="cls-27" points="219.48 35.23 221.21 32.25 224.18 30.53 227.62 30.53 230.6 32.25 232.32 35.23 232.32 38.67 230.6 41.65 227.62 43.37 224.18 43.37 221.21 41.65 219.48 38.67 219.48 35.23"/><polygon class="cls-27" points="218.27 34.9 220.32 31.36 223.86 29.32 227.95 29.32 231.49 31.36 233.54 34.9 233.54 39 231.49 42.54 227.95 44.58 223.86 44.58 220.32 42.54 218.27 39 218.27 34.9"/><path class="cls-28" d="M225.95,37a5.6,5.6,0,0,1,5.6,5.6"/><path class="cls-31" d="M226,36.92c2.79,0,5.05,2.59,5.05,5.78"/><path class="cls-31" d="M226,36.92c-2.31,0-4.19-2.71-4.19-6.05"/><path class="cls-31" d="M226,37c-3.87,0-7-1.28-7-2.87"/><path class="cls-31" d="M226,37c1.91,0,3.46-2.38,3.46-5.33"/><path class="cls-28" d="M226,37.06c-.63,0-1.14,2.83-1.14,6.33"/><path class="cls-28" d="M225.95,36.92c1.31,0,2.37,3.42,2.37,7.65"/><path class="cls-28" d="M226,36.92c.18,0,.32,1.38.32,3.09"/><path class="cls-28" d="M226,37c.93,0,1.68-1.2,1.68-2.69"/><circle class="cls-30" cx="225.9" cy="36.95" r="0.36"/><circle class="cls-24" cx="207.29" cy="36.95" r="1.95"/><circle class="cls-25" cx="207.29" cy="36.95" r="3.03"/><polygon class="cls-26" points="208.64 31.93 210.97 33.27 212.32 35.6 212.32 38.3 210.97 40.63 208.64 41.97 205.95 41.97 203.62 40.63 202.27 38.3 202.27 35.6 203.62 33.27 205.95 31.93 208.64 31.93"/><polygon class="cls-27" points="209.01 30.53 211.99 32.25 213.71 35.23 213.71 38.67 211.99 41.65 209.01 43.37 205.57 43.37 202.6 41.65 200.88 38.67 200.88 35.23 202.6 32.25 205.57 30.53 209.01 30.53"/><polygon class="cls-27" points="209.34 29.32 212.88 31.36 214.93 34.9 214.93 39 212.88 42.54 209.34 44.58 205.25 44.58 201.71 42.54 199.66 39 199.66 34.9 201.71 31.36 205.25 29.32 209.34 29.32"/><path class="cls-33" d="M207.23,37a5.6,5.6,0,0,1-5.6,5.6"/><path class="cls-34" d="M207.23,37.08a5.69,5.69,0,0,1,5.69-5.69"/><path class="cls-28" d="M207.23,37c0-3.87,1.28-7,2.87-7"/><path class="cls-33" d="M207.23,37c0,1.91,2.38,3.46,5.33,3.46"/><path class="cls-28" d="M207.19,37.08c0-.63-2.83-1.14-6.33-1.14"/><path class="cls-28" d="M207.33,37c0,1.31-3.42,2.37-7.65,2.37"/><path class="cls-28" d="M207.33,37.08c0,.18-1.38.32-3.09.32"/><path class="cls-28" d="M207.23,37.08c0,.93,1.2,1.68,2.69,1.68"/><circle class="cls-30" cx="207.29" cy="36.95" r="0.36"/><circle class="cls-24" cx="188.69" cy="36.95" r="1.95"/><circle class="cls-25" cx="188.69" cy="36.95" r="3.03"/><polygon class="cls-26" points="190.03 31.93 192.36 33.27 193.71 35.6 193.71 38.3 192.36 40.63 190.03 41.97 187.34 41.97 185.01 40.63 183.66 38.3 183.66 35.6 185.01 33.27 187.34 31.93 190.03 31.93"/><polygon class="cls-27" points="190.41 30.53 193.38 32.25 195.1 35.23 195.1 38.67 193.38 41.65 190.41 43.37 186.97 43.37 183.99 41.65 182.27 38.67 182.27 35.23 183.99 32.25 186.97 30.53 190.41 30.53"/><polygon class="cls-27" points="190.73 29.32 194.27 31.36 196.32 34.9 196.32 39 194.27 42.54 190.73 44.58 186.64 44.58 183.1 42.54 181.05 39 181.05 34.9 183.1 31.36 186.64 29.32 190.73 29.32"/><path class="cls-28" d="M188.63,37a5.6,5.6,0,0,1-5.6,5.6"/><path class="cls-28" d="M188.63,37c0-3.87,1.28-7,2.87-7"/><path class="cls-28" d="M188.63,37c0,1.91,2.38,3.46,5.33,3.46"/><path class="cls-28" d="M188.58,37.08c0-.63-2.83-1.14-6.33-1.14"/><path class="cls-28" d="M188.72,37c0,1.31-3.42,2.37-7.65,2.37"/><path class="cls-28" d="M188.72,37.08c0,.18-1.38.32-3.09.32"/><path class="cls-28" d="M188.63,37.08c0,.93,1.2,1.68,2.69,1.68"/><circle class="cls-30" cx="188.69" cy="36.95" r="0.36"/><rect class="cls-6" x="95.72" y="7.85" width="69.18" height="44.43" rx="1" ry="1"/><path class="cls-7" d="M95.72,48.94H164.9a0,0,0,0,1,0,0v2.34a1,1,0,0,1-1,1H96.72a1,1,0,0,1-1-1V48.94a0,0,0,0,1,0,0Z"/><circle class="cls-8" cx="162.08" cy="50.89" r="0.68"/><line class="cls-9" x1="120.96" y1="16.26" x2="120.96" y2="42.42"/><line class="cls-9" x1="130.18" y1="16.26" x2="130.18" y2="42.42"/><line class="cls-9" x1="139.41" y1="16.26" x2="139.41" y2="42.42"/><line class="cls-9" x1="148.63" y1="16.26" x2="148.63" y2="42.42"/><line class="cls-9" x1="157.85" y1="16.26" x2="157.85" y2="42.42"/><circle class="cls-10" cx="108.47" cy="15.02" r="0.42"/><circle class="cls-10" cx="107.16" cy="14.98" r="0.42"/><circle class="cls-1" cx="104.16" cy="17.42" r="0.42"/><circle class="cls-1" cx="102.77" cy="16.61" r="0.42"/><circle class="cls-1" cx="102.77" cy="18.07" r="0.42"/><circle class="cls-1" cx="104.16" cy="19.08" r="0.42"/><circle class="cls-1" cx="105.49" cy="18.46" r="0.42"/><circle class="cls-1" cx="102.77" cy="19.57" r="0.42"/><circle class="cls-10" cx="108.47" cy="13.91" r="0.42"/><circle class="cls-10" cx="109.75" cy="14.6" r="0.42"/><circle class="cls-1" cx="103.74" cy="20.3" r="0.42"/><circle class="cls-1" cx="100.96" cy="18.59" r="0.42"/><circle class="cls-10" cx="107.16" cy="13.01" r="0.42"/><circle class="cls-10" cx="104.81" cy="35.52" r="0.42"/><circle class="cls-10" cx="102.65" cy="33.29" r="0.42"/><circle class="cls-1" cx="108.24" cy="31.39" r="0.42"/><circle class="cls-1" cx="104.39" cy="29.55" r="0.42"/><circle class="cls-1" cx="101.15" cy="32.87" r="0.42"/><circle class="cls-1" cx="101.57" cy="30.53" r="0.42"/><circle class="cls-1" cx="104.39" cy="34.11" r="0.42"/><circle class="cls-1" cx="105.37" cy="30.98" r="0.42"/><circle class="cls-10" cx="107.37" cy="29.55" r="0.42"/><circle class="cls-10" cx="108.65" cy="30.24" r="0.42"/><circle class="cls-1" cx="102.65" cy="35.94" r="0.42"/><circle class="cls-1" cx="100.73" cy="35.52" r="0.42"/><circle class="cls-10" cx="106.06" cy="28.65" r="0.42"/><circle class="cls-10" cx="105.25" cy="47.81" r="0.42"/><circle class="cls-10" cx="107.41" cy="45.58" r="0.42"/><circle class="cls-1" cx="101.82" cy="43.68" r="0.42"/><circle class="cls-1" cx="105.67" cy="41.84" r="0.42"/><circle class="cls-1" cx="108.91" cy="45.16" r="0.42"/><circle class="cls-1" cx="108.49" cy="42.82" r="0.42"/><circle class="cls-1" cx="105.67" cy="46.4" r="0.42"/><circle class="cls-1" cx="104.69" cy="43.26" r="0.42"/><circle class="cls-10" cx="102.69" cy="41.84" r="0.42"/><circle class="cls-10" cx="101.41" cy="42.53" r="0.42"/><circle class="cls-1" cx="107.41" cy="48.23" r="0.42"/><circle class="cls-1" cx="109.33" cy="47.81" r="0.42"/><circle class="cls-10" cx="104" cy="40.94" r="0.42"/><polyline class="cls-11" points="120.96 38.77 130.18 33.89 139.41 30.53 148.63 28.65 157.85 32.87"/><polyline class="cls-41" points="120.96 39.58 130.18 35.61 139.41 32.88 148.63 31.35 157.85 34.78"/><polyline class="cls-12" points="120.96 40.06 130.18 36.8 139.41 34.56 148.63 33.3 157.85 36.12"/><polyline class="cls-13" points="120.96 29.03 130.18 25 139.41 22.23 148.63 20.68 157.85 24.16"/><polyline class="cls-14" points="120.96 42.89 130.18 39.61 139.41 37.35 148.63 36.09 157.85 38.92"/><polyline class="cls-42" points="120.96 35.59 130.18 32.9 139.41 31.05 148.63 30.01 157.85 32.34"/><polyline class="cls-13" points="120.96 28.5 130.18 24.47 139.41 21.7 148.63 20.14 157.85 23.63"/><polyline class="cls-42" points="120.96 29.57 130.18 26.88 139.41 25.02 148.63 23.99 157.85 26.31"/><rect class="cls-1" x="334.03" y="199.66" width="19.81" height="1.35"/><path class="cls-43" d="M308.08,149l2.67-4a8,8,0,0,0,2.05-2.28c.51-1.11,3.48-1.76,3.48-1.76l4.1-.59,2.33,1.08,1.19.67"/><rect class="cls-1" x="308.08" y="147.31" width="1.24" height="1.64"/><rect class="cls-1" x="310.13" y="146.61" width="1.24" height="2.34"/><rect class="cls-1" x="312.18" y="144.27" width="1.24" height="4.68"/><rect class="cls-1" x="314.24" y="142.06" width="1.24" height="6.89"/><rect class="cls-1" x="316.29" y="141.37" width="1.24" height="7.58"/><rect class="cls-1" x="318.34" y="140.87" width="1.24" height="8.08"/><rect class="cls-1" x="320.39" y="140.87" width="1.24" height="8.08"/><rect class="cls-1" x="322.44" y="142.63" width="1.24" height="6.32"/><path class="cls-1" d="M311.21,167.25a3.63,3.63,0,1,0,3.63,3.63h-3.63Z"/><path class="cls-10" d="M311.53,166.88v3.63h3.63A3.63,3.63,0,0,0,311.53,166.88Z"/><path class="cls-5" d="M174.33,57.59h6.77a0,0,0,0,1,0,0V102a0,0,0,0,1,0,0h-6.77a1,1,0,0,1-1-1V58.59a1,1,0,0,1,1-1Z"/><rect class="cls-6" x="173.33" y="57.59" width="69.18" height="44.43" rx="1" ry="1" transform="translate(415.84 159.62) rotate(-180)"/><path class="cls-7" d="M173.33,98.68h69.18a0,0,0,0,1,0,0V101a1,1,0,0,1-1,1H174.33a1,1,0,0,1-1-1V98.68a0,0,0,0,1,0,0Z"/><circle class="cls-8" cx="239.69" cy="100.63" r="0.68"/><rect class="cls-10" x="188.63" y="63.58" width="9.22" height="2.76" rx="1" ry="1"/><rect class="cls-1" x="200.57" y="63.58" width="9.22" height="2.76" rx="1" ry="1"/><rect class="cls-10" x="212.99" y="63.58" width="9.22" height="2.76" rx="1" ry="1"/><rect class="cls-1" x="224.93" y="63.58" width="9.22" height="2.76" rx="1" ry="1"/><rect class="cls-10" x="188.63" y="68.79" width="9.22" height="2.76" rx="1" ry="1"/><rect class="cls-1" x="200.57" y="68.79" width="9.22" height="2.76" rx="1" ry="1"/><rect class="cls-10" x="224.93" y="74.01" width="9.22" height="2.76" rx="1" ry="1" transform="translate(459.08 150.78) rotate(180)"/><rect class="cls-1" x="212.99" y="74.01" width="9.22" height="2.76" rx="1" ry="1" transform="translate(435.19 150.78) rotate(180)"/><rect class="cls-10" x="200.57" y="74.01" width="9.22" height="2.76" rx="1" ry="1" transform="translate(410.37 150.78) rotate(180)"/><rect class="cls-1" x="188.63" y="74.01" width="9.22" height="2.76" rx="1" ry="1" transform="translate(386.48 150.78) rotate(180)"/><rect class="cls-10" x="224.93" y="68.79" width="9.22" height="2.76" rx="1" ry="1" transform="translate(459.08 140.35) rotate(180)"/><rect class="cls-1" x="212.99" y="68.79" width="9.22" height="2.76" rx="1" ry="1" transform="translate(435.19 140.35) rotate(180)"/><rect class="cls-10" x="224.93" y="79.54" width="9.22" height="2.76" rx="1" ry="1" transform="translate(459.08 161.84) rotate(-180)"/><rect class="cls-1" x="212.99" y="79.54" width="9.22" height="2.76" rx="1" ry="1" transform="translate(435.19 161.84) rotate(-180)"/><rect class="cls-10" x="200.57" y="79.54" width="9.22" height="2.76" rx="1" ry="1" transform="translate(410.37 161.84) rotate(-180)"/><rect class="cls-1" x="188.63" y="79.54" width="9.22" height="2.76" rx="1" ry="1" transform="translate(386.48 161.84) rotate(-180)"/><rect class="cls-10" x="224.93" y="84.76" width="9.22" height="2.76" rx="1" ry="1" transform="translate(459.08 172.27) rotate(-180)"/><rect class="cls-1" x="212.99" y="84.76" width="9.22" height="2.76" rx="1" ry="1" transform="translate(435.19 172.27) rotate(-180)"/><rect class="cls-10" x="188.63" y="89.97" width="9.22" height="2.76" rx="1" ry="1"/><rect class="cls-1" x="200.57" y="89.97" width="9.22" height="2.76" rx="1" ry="1"/><rect class="cls-10" x="212.99" y="89.97" width="9.22" height="2.76" rx="1" ry="1"/><rect class="cls-1" x="224.93" y="89.97" width="9.22" height="2.76" rx="1" ry="1"/><rect class="cls-10" x="188.63" y="84.76" width="9.22" height="2.76" rx="1" ry="1"/><rect class="cls-1" x="200.57" y="84.76" width="9.22" height="2.76" rx="1" ry="1"/><line class="cls-16" x1="96.17" y1="60.93" x2="164.84" y2="60.93"/><line class="cls-16" x1="96.17" y1="65.93" x2="164.84" y2="65.93"/><line class="cls-17" x1="135.67" y1="57.05" x2="135.67" y2="100.83"/><line class="cls-17" x1="130.62" y1="57.05" x2="130.62" y2="100.83"/><line class="cls-17" x1="125.57" y1="57.05" x2="125.57" y2="100.83"/><line class="cls-17" x1="120.52" y1="57.05" x2="120.52" y2="100.83"/><line class="cls-17" x1="115.47" y1="57.05" x2="115.47" y2="100.83"/><line class="cls-17" x1="110.42" y1="57.05" x2="110.42" y2="100.83"/><line class="cls-17" x1="105.37" y1="57.05" x2="105.37" y2="100.83"/><line class="cls-17" x1="100.32" y1="57.05" x2="100.32" y2="100.83"/><line class="cls-17" x1="160.91" y1="57.05" x2="160.91" y2="100.83"/><line class="cls-17" x1="155.86" y1="57.05" x2="155.86" y2="100.83"/><line class="cls-17" x1="150.81" y1="57.05" x2="150.81" y2="100.83"/><line class="cls-17" x1="145.76" y1="57.05" x2="145.76" y2="100.83"/><line class="cls-17" x1="140.71" y1="57.05" x2="140.71" y2="100.83"/><line class="cls-16" x1="96.17" y1="70.92" x2="164.84" y2="70.92"/><line class="cls-16" x1="96.17" y1="75.92" x2="164.84" y2="75.92"/><line class="cls-16" x1="96.17" y1="80.92" x2="164.84" y2="80.92"/><line class="cls-16" x1="96.17" y1="85.91" x2="164.84" y2="85.91"/><line class="cls-16" x1="96.17" y1="90.91" x2="164.84" y2="90.91"/><line class="cls-16" x1="96.17" y1="95.9" x2="164.84" y2="95.9"/><path class="cls-1" d="M370.26,47.41H236.65a.77.77,0,0,0-.69.82V94.76a.77.77,0,0,0,.69.82H283l14.65,15-2.26-15h74.83a.77.77,0,0,0,.69-.82V48.23A.77.77,0,0,0,370.26,47.41Z"/><rect class="cls-23" x="19.46" y="57.3" width="69.18" height="44.43" rx="1" ry="1"/><circle class="cls-44" cx="53.25" cy="77.93" r="4.35"/><circle class="cls-45" cx="53.25" cy="77.93" r="6.76"/><polygon class="cls-46" points="56.25 66.74 61.44 69.74 64.44 74.93 64.44 80.93 61.44 86.12 56.25 89.12 50.25 89.12 45.06 86.12 42.06 80.93 42.06 74.93 45.06 69.74 50.25 66.74 56.25 66.74"/><polygon class="cls-47" points="57.08 63.64 63.72 67.47 67.55 74.1 67.55 81.76 63.72 88.4 57.08 92.23 49.42 92.23 42.79 88.4 38.96 81.76 38.96 74.1 42.79 67.47 49.42 63.64 57.08 63.64"/><polygon class="cls-47" points="57.81 60.93 65.69 65.49 70.25 73.38 70.25 82.49 65.69 90.37 57.81 94.93 48.7 94.93 40.81 90.37 36.25 82.49 36.25 73.38 40.81 65.49 48.7 60.93 57.81 60.93"/><path class="cls-48" d="M53.12,78A12.46,12.46,0,0,1,40.65,90.49"/><path class="cls-48" d="M53.12,78.23A12.66,12.66,0,0,1,65.79,65.56"/><path class="cls-48" d="M53.32,78.23c0,6.22-5.76,11.25-12.87,11.25"/><path class="cls-48" d="M53.22,78.53c0,7.06-4.94,12.77-11,12.77"/><path class="cls-48" d="M53.32,78.53c0,5.49-5.8,9.93-13,9.93"/><path class="cls-48" d="M53.32,78.23c0-5.15,6-9.32,13.48-9.32"/><path class="cls-48" d="M53.12,78.13c0-8.63,2.86-15.61,6.39-15.61"/><path class="cls-48" d="M53.12,78.13c0,4.26,5.3,7.7,11.86,7.7"/><path class="cls-48" d="M53,78.23c0-1.4-6.3-2.53-14.09-2.53"/><path class="cls-48" d="M53.32,78c0,2.91-7.62,5.27-17,5.27"/><path class="cls-48" d="M53.32,78.23c0,.39-3.08.71-6.89.71"/><path class="cls-48" d="M53.12,78.23c0,2.07,2.67,3.75,6,3.75"/><circle class="cls-49" cx="53.25" cy="77.93" r="0.8"/><rect class="cls-1" x="240.12" y="187.73" width="4.8" height="12.6"/><rect class="cls-2" x="196.9" y="128.17" width="91.7" height="63.62" rx="4" ry="4"/><rect class="cls-3" x="201.23" y="132.1" width="82.58" height="50.28" rx="1" ry="1"/><rect class="cls-1" x="232.62" y="199.96" width="19.81" height="1.35"/><line class="cls-50" x1="2" y1="203.2" x2="362.36" y2="203.2"/><path class="cls-2" d="M332.56,206.95h27.8a2,2,0,0,1,2,2v53.86a0,0,0,0,1,0,0h-31.8a0,0,0,0,1,0,0V208.95A2,2,0,0,1,332.56,206.95Z"/><rect class="cls-36" x="336.67" y="214.44" width="19.58" height="3.84" rx="1" ry="1"/><rect class="cls-36" x="336.67" y="221.55" width="19.58" height="3.84" rx="1" ry="1"/><circle class="cls-10" cx="346.46" cy="249.26" r="2.29"/><rect class="cls-1" x="137.82" y="187.44" width="4.8" height="12.6"/><rect class="cls-2" x="94.61" y="127.88" width="91.7" height="63.62" rx="4" ry="4"/><rect class="cls-1" x="130.32" y="199.67" width="19.81" height="1.35"/><path class="cls-2" d="M296.22,206.95H324a2,2,0,0,1,2,2v53.86a0,0,0,0,1,0,0h-31.8a0,0,0,0,1,0,0V208.95A2,2,0,0,1,296.22,206.95Z"/><rect class="cls-36" x="300.33" y="214.44" width="19.58" height="3.84" rx="1" ry="1"/><rect class="cls-36" x="300.33" y="221.55" width="19.58" height="3.84" rx="1" ry="1"/><circle class="cls-10" cx="310.12" cy="249.26" r="2.29"/><path class="cls-51" d="M292.15,193.36s-.21,2.68.35,3.29c1.31,1.42,6.06,2.59,7.61,1.42.81-.62,1.11-3.93,1.11-3.93l-4.8-4.93Z"/><polygon class="cls-52" points="326.61 265.33 326.69 270.63 306.84 270.63 315.92 265.33 326.61 265.33"/><polygon class="cls-1" points="325.32 230.39 325.25 265.33 314.56 265.33 312.01 230.39 325.32 230.39"/><polygon class="cls-1" points="339.88 230.39 339.81 265.33 329.12 265.33 326.57 230.39 339.88 230.39"/><path class="cls-52" d="M308.6,108.8c-1.24-4,6.49-11.53,9.9-11.94,4.32-.51,12.51,7.1,14.56,11.94,3.15,7.43,4.3,30-1.75,33.67-3.44,2.08-4.12-14.54-4.12-14.54S325,117.59,323,115.22C320.21,111.91,310,113.29,308.6,108.8Z"/><path class="cls-5" d="M342.46,163.94l.12,6,.32,15.7.7,34.11.31,15.27H311.2l-.76-62s-1.34,6.8-2.07,9c-1.48,4.4-6.95,12.62-6.95,12.62l-5.09-5.24s2-5.81,3-10c2.31-9.51,4.94-29,8.59-36.77,2.16-4.59,9.74-7.65,9.74-7.65h1.73l.69,9.34,8.67-9.34c.63-.67,6.55,2.56,7.32,3a21.15,21.15,0,0,1,6,5.07,23.87,23.87,0,0,1,4.1,9.63c.83,3.6,1.95,7.8,1.36,11.49-.62,3.87-3.45,5.91-7,7.08-8.23,2.75-17.18,2.18-25.8,1.17l.07-9c5.84,3.63,11.88,7.08,18.46,9.08"/><path class="cls-51" d="M328.68,138V127.64a65.37,65.37,0,0,0,4.81-6.45c1.18-2.26,3.23-9.68,3.23-9.68L310,102.05l-.92,1.15s-1.75,16.2,0,21.21c.73,2.09,3.36,6.5,5.53,6.92,1,.2,4.11.44,4.11.44l1.19,12.93Z"/><path class="cls-53" d="M308.13,106.09c-1.57-4,8.21-11.53,12.52-11.94,5.46-.51,15.82,7.1,18.42,11.94,4,7.43,5.44,30-2.22,33.67-4.35,2.08-5.21-14.54-5.21-14.54s-2.83-10.34-5.33-12.71C322.8,109.21,309.88,110.58,308.13,106.09Z"/><line class="cls-54" x1="320.03" y1="146.16" x2="320.03" y2="164.85"/><line class="cls-54" x1="320.03" y1="235.03" x2="320.03" y2="174.27"/><polygon class="cls-53" points="339.81 265.33 339.88 270.63 320.03 270.63 329.12 265.33 339.81 265.33"/><path class="cls-51" d="M316.65,164.6s-2.17-2.47-3.18-2.5c-2.36-.06-7.42,3.1-7.71,5.44-.15,1.24,2.5,4.31,2.5,4.31h8.39Z"/><path class="cls-7" d="M19.46,98.39H88.64a0,0,0,0,1,0,0v2.34a1,1,0,0,1-1,1H20.46a1,1,0,0,1-1-1V98.39A0,0,0,0,1,19.46,98.39Z"/><circle class="cls-8" cx="85.82" cy="100.34" r="0.68"/><rect class="cls-6" x="96.03" y="57.3" width="69.18" height="44.43" rx="1" ry="1"/><polygon class="cls-18" points="100.05 99.94 120.69 85.92 120.69 96.33 140.16 82.2 140.16 88.69 159.03 76.92 159.03 99.94 100.05 99.94"/><polygon class="cls-55" points="100.05 100.44 121.23 83.84 121.23 96.17 141.21 79.43 141.21 87.11 160.57 73.18 160.57 100.44 100.05 100.44"/><path class="cls-7" d="M96,98.39H165.2a0,0,0,0,1,0,0v2.34a1,1,0,0,1-1,1H97a1,1,0,0,1-1-1V98.39A0,0,0,0,1,96,98.39Z"/><circle class="cls-8" cx="162.39" cy="100.34" r="0.68"/><path class="cls-20" d="M96,57H165.2a0,0,0,0,1,0,0V70.47a1,1,0,0,1-1,1H97a1,1,0,0,1-1-1V57a0,0,0,0,1,0,0Z" transform="translate(261.23 128.52) rotate(180)"/><path class="cls-56" d="M96.93,70.92s4.31-7.93,4.68-8.41,9-1.3,9.51-1.3,2.73,2.39,3.15,3,4.54,1.67,4.54,1.67S124.33,64,124.7,64a26,26,0,0,0,3.19-2.76l4.54,3,3.75,1.3,3.46-1.3h2.47l5.43-.63,3.7,2.25,2.19.86,5.23,4.18Z"/><path class="cls-22" d="M96.17,71.21,105.08,70l2.26-1.86,2.63-.7a2.16,2.16,0,0,1,.43-1.25c.4-.38,3.59,0,3.59,0s3.73-.38,4.26-.84a8.14,8.14,0,0,1,2.13-.92h4.27l2.91,2.78h5.85l4.79-1,2.93-1.76,2.39-.15s3.59,2.66,4,2.86,3.19,2.45,3.19,2.45l3.73-1.45,2-1L159.67,70l1.31.91h1.72"/><path class="cls-2" d="M110.34,207.1h27.8a2,2,0,0,1,2,2V263a0,0,0,0,1,0,0h-31.8a0,0,0,0,1,0,0V209.1A2,2,0,0,1,110.34,207.1Z"/><rect class="cls-36" x="114.45" y="214.6" width="19.58" height="3.84" rx="1" ry="1"/><rect class="cls-36" x="114.45" y="221.7" width="19.58" height="3.84" rx="1" ry="1"/><circle class="cls-10" cx="124.24" cy="249.42" r="2.29"/><path class="cls-4" d="M268.23,71.51v-7.7h1.3v7.7Z"/><path class="cls-4" d="M279.14,66.57l-.69.81a2.21,2.21,0,0,0-1.67-.66,1.88,1.88,0,0,0,0,3.74,2.18,2.18,0,0,0,1.73-.7l.7.7a3,3,0,0,1-2.49,1.09,3,3,0,0,1,0-5.94A3.09,3.09,0,0,1,279.14,66.57Z"/><path class="cls-4" d="M283.79,70.8a2.37,2.37,0,0,1-1.94.77,1.85,1.85,0,0,1-2.06-1.82c0-1.07.8-1.75,2.21-1.76h1.77v-.18c0-.74-.47-1.18-1.4-1.18a3.08,3.08,0,0,0-1.73.59l-.52-.88a4.29,4.29,0,0,1,2.52-.74c1.51,0,2.35.77,2.37,2.06v3.84h-1.24Zm0-1.34v-.54h-1.58c-.83,0-1.21.22-1.21.78s.43.87,1.13.87C283,70.57,283.71,70.09,283.78,69.46Z"/><path class="cls-4" d="M292.33,67.87v3.64h-1.27V68.22a1.3,1.3,0,0,0-1.41-1.42A1.64,1.64,0,0,0,288,68.4v3.11h-1.26V65.66H288v1.12a2.21,2.21,0,0,1,2.16-1.17A2,2,0,0,1,292.33,67.87Z"/><path class="cls-4" d="M300.65,66.2l-.46.94a3.44,3.44,0,0,0-1.68-.52c-.5,0-.86.17-.86.58,0,1.08,3.11.5,3.1,2.62,0,1.2-1.07,1.74-2.25,1.74a3.62,3.62,0,0,1-2.35-.81l.45-.9a3.19,3.19,0,0,0,2,.73c.54,0,1-.19,1-.63,0-1.2-3.08-.53-3.07-2.64,0-1.19,1-1.69,2.16-1.69A3.7,3.7,0,0,1,300.65,66.2Z"/><path class="cls-4" d="M307.18,69.07h-4.42a1.78,1.78,0,0,0,1.82,1.46,2.28,2.28,0,0,0,1.65-.68l.67.71a3.18,3.18,0,0,1-2.42,1,3,3,0,1,1,0-5.94C306.49,65.62,307.33,67,307.18,69.07Zm-1.1-.92a1.5,1.5,0,0,0-1.63-1.52,1.66,1.66,0,0,0-1.72,1.52Z"/><path class="cls-4" d="M313.64,69.07h-4.42A1.78,1.78,0,0,0,311,70.53a2.28,2.28,0,0,0,1.65-.68l.67.71a3.18,3.18,0,0,1-2.42,1,3,3,0,1,1,0-5.94C313,65.62,313.8,67,313.64,69.07Zm-1.1-.92a1.5,1.5,0,0,0-1.63-1.52,1.66,1.66,0,0,0-1.72,1.52Z"/><path class="cls-4" d="M321.11,71.14a2.81,2.81,0,0,1-1.44.43A1.54,1.54,0,0,1,318,69.86v-3h-.83v-.95H318V64.27h1.25v1.61H321v.95h-1.73v2.81c0,.6.23.79.63.79a2,2,0,0,0,.88-.25Z"/><path class="cls-4" d="M327.94,67.87v3.64h-1.26V68.22a1.3,1.3,0,0,0-1.41-1.42,1.67,1.67,0,0,0-1.67,1.83v2.88h-1.26V63.35h1.26v3.45a2.22,2.22,0,0,1,2.17-1.19A2,2,0,0,1,327.94,67.87Z"/><path class="cls-4" d="M333.15,70.8a2.37,2.37,0,0,1-1.94.77,1.85,1.85,0,0,1-2.06-1.82c0-1.07.8-1.75,2.21-1.76h1.77v-.18c0-.74-.47-1.18-1.4-1.18a3.08,3.08,0,0,0-1.73.59l-.52-.88a4.29,4.29,0,0,1,2.52-.74c1.51,0,2.35.77,2.37,2.06v3.84h-1.24Zm0-1.34v-.54h-1.58c-.83,0-1.21.22-1.21.78s.43.87,1.13.87C332.38,70.57,333.07,70.09,333.13,69.46Z"/><path class="cls-4" d="M339.39,71.14a2.81,2.81,0,0,1-1.44.43,1.54,1.54,0,0,1-1.64-1.71v-3h-.83v-.95h.83V64.27h1.25v1.61h1.73v.95h-1.73v2.81c0,.6.23.79.63.79a2,2,0,0,0,.88-.25Z"/><path class="cls-4" d="M341.52,70.88a.69.69,0,1,1-1.39,0,.69.69,0,1,1,1.39,0Z"/><path class="cls-4" d="M343.91,70.88a.69.69,0,1,1-1.39,0,.69.69,0,1,1,1.39,0Z"/><path class="cls-4" d="M346.31,70.88a.69.69,0,1,1-1.39,0,.69.69,0,1,1,1.39,0Z"/><path class="cls-1" d="M18.33,17.62H151.93a.77.77,0,0,1,.69.82V65a.77.77,0,0,1-.69.82H105.55L90.9,80.8l2.26-15H18.33a.77.77,0,0,1-.69-.82V18.44A.77.77,0,0,1,18.33,17.62Z"/><path class="cls-4" d="M38.57,31.74v6.54h-1.3V31.74H34.84V30.57H41v1.17Z"/><path class="cls-4" d="M47.13,34.63v3.64H45.87V35a1.3,1.3,0,0,0-1.41-1.42,1.67,1.67,0,0,0-1.67,1.83v2.88H41.52V30.11h1.26v3.45A2.22,2.22,0,0,1,45,32.37,2,2,0,0,1,47.13,34.63Z"/><path class="cls-4" d="M54,35.83H49.55a1.78,1.78,0,0,0,1.82,1.46A2.28,2.28,0,0,0,53,36.61l.67.71a3.18,3.18,0,0,1-2.42,1,3,3,0,1,1,0-5.94C53.29,32.37,54.13,33.72,54,35.83Zm-1.1-.92a1.5,1.5,0,0,0-1.63-1.52,1.66,1.66,0,0,0-1.72,1.52Z"/><path class="cls-4" d="M61.92,33l-.46.94a3.44,3.44,0,0,0-1.68-.52c-.5,0-.86.17-.86.58,0,1.08,3.11.5,3.1,2.62,0,1.2-1.07,1.74-2.25,1.74a3.62,3.62,0,0,1-2.35-.81l.45-.9a3.19,3.19,0,0,0,2,.73c.54,0,1-.19,1-.63,0-1.2-3.08-.53-3.07-2.64,0-1.19,1-1.69,2.16-1.69A3.7,3.7,0,0,1,61.92,33Z"/><path class="cls-4" d="M68.45,35.83H64a1.78,1.78,0,0,0,1.82,1.46,2.28,2.28,0,0,0,1.65-.68l.67.71a3.18,3.18,0,0,1-2.42,1,3,3,0,1,1,0-5.94C67.77,32.37,68.6,33.72,68.45,35.83Zm-1.1-.92a1.5,1.5,0,0,0-1.63-1.52A1.66,1.66,0,0,0,64,34.9Z"/><path class="cls-4" d="M71,33.58a2.13,2.13,0,0,1,2-1.21v1.21a1.77,1.77,0,0,0-2,1.63v3.06H69.77V32.42H71Z"/><path class="cls-4" d="M75.73,38.27l-2.27-5.85h1.32L76.41,37,78,32.42h1.27L77,38.27Z"/><path class="cls-4" d="M85.09,35.83H80.67a1.78,1.78,0,0,0,1.82,1.46,2.28,2.28,0,0,0,1.65-.68l.67.71a3.18,3.18,0,0,1-2.42,1,3,3,0,1,1,0-5.94C84.41,32.37,85.25,33.72,85.09,35.83ZM84,34.9a1.5,1.5,0,0,0-1.63-1.52,1.66,1.66,0,0,0-1.72,1.52Z"/><path class="cls-4" d="M87.68,33.58a2.13,2.13,0,0,1,2-1.21v1.21a1.77,1.77,0,0,0-2,1.63v3.06H86.41V32.42h1.26Z"/><path class="cls-4" d="M94.95,30.75a.74.74,0,1,1-.74-.77A.73.73,0,0,1,94.95,30.75Zm-1.36,7.52V32.42h1.25v5.85Z"/><path class="cls-4" d="M100.5,33l-.46.94a3.44,3.44,0,0,0-1.68-.52c-.5,0-.86.17-.86.58,0,1.08,3.11.5,3.1,2.62,0,1.2-1.07,1.74-2.25,1.74A3.62,3.62,0,0,1,96,37.5l.45-.9a3.19,3.19,0,0,0,2,.73c.54,0,1-.19,1-.63,0-1.2-3.08-.53-3.07-2.64,0-1.19,1-1.69,2.16-1.69A3.7,3.7,0,0,1,100.5,33Z"/><path class="cls-4" d="M110.38,34.63v3.64h-1.26V35a1.3,1.3,0,0,0-1.41-1.42A1.67,1.67,0,0,0,106,35.39v2.88h-1.26V30.11H106v3.45a2.22,2.22,0,0,1,2.17-1.19A2,2,0,0,1,110.38,34.63Z"/><path class="cls-4" d="M115.58,37.56a2.37,2.37,0,0,1-1.94.77,1.85,1.85,0,0,1-2.06-1.82c0-1.07.8-1.75,2.21-1.76h1.77v-.18c0-.74-.47-1.18-1.4-1.18a3.08,3.08,0,0,0-1.73.59l-.52-.88a4.29,4.29,0,0,1,2.52-.74c1.51,0,2.35.77,2.37,2.06v3.84h-1.24Zm0-1.34v-.54H114c-.83,0-1.21.22-1.21.78s.43.87,1.13.87C114.81,37.33,115.51,36.85,115.57,36.21Z"/><path class="cls-4" d="M119.69,38.27l-2.27-5.85h1.32L120.37,37,122,32.42h1.27L121,38.27Z"/><path class="cls-4" d="M125.48,30.75a.74.74,0,1,1-.74-.77A.73.73,0,0,1,125.48,30.75Zm-1.36,7.52V32.42h1.25v5.85Z"/><path class="cls-4" d="M132.84,34.63v3.64h-1.27V35a1.3,1.3,0,0,0-1.41-1.42,1.64,1.64,0,0,0-1.66,1.6v3.11h-1.26V32.42h1.26v1.12a2.21,2.21,0,0,1,2.16-1.17A2,2,0,0,1,132.84,34.63Z"/><path class="cls-4" d="M139.82,37.7c0,1.68-1.2,2.74-3,2.74a4.26,4.26,0,0,1-2.43-.77l.54-.91a3,3,0,0,0,1.84.64,1.65,1.65,0,0,0,1.84-1.66V37a2.14,2.14,0,0,1-1.94,1A2.59,2.59,0,0,1,134,35.16a2.57,2.57,0,0,1,2.6-2.78,2.18,2.18,0,0,1,2,1v-.95h1.25Zm-1.25-2.51a1.67,1.67,0,0,0-1.68-1.79,1.8,1.8,0,1,0,1.68,1.79Z"/><path class="cls-4" d="M66.69,50.76a2.37,2.37,0,0,1-1.94.77,1.85,1.85,0,0,1-2.06-1.82c0-1.07.8-1.75,2.21-1.76h1.77v-.18c0-.74-.47-1.18-1.4-1.18a3.08,3.08,0,0,0-1.73.59L63,46.31a4.29,4.29,0,0,1,2.52-.74c1.51,0,2.35.77,2.37,2.06v3.84H66.69Zm0-1.34v-.54H65.1c-.83,0-1.21.22-1.21.78s.43.87,1.13.87C65.92,50.52,66.62,50.05,66.68,49.41Z"/><path class="cls-4" d="M75.23,47.83v3.64H74V48.18a1.3,1.3,0,0,0-1.41-1.42,1.64,1.64,0,0,0-1.66,1.6v3.11H69.63V45.62h1.26v1.12a2.21,2.21,0,0,1,2.16-1.17A2,2,0,0,1,75.23,47.83Z"/><path class="cls-4" d="M81.13,43.95a.74.74,0,1,1-.74-.77A.73.73,0,0,1,81.13,43.95Zm-1.36,7.52V45.62H81v5.85Z"/><path class="cls-4" d="M86.68,46.16l-.46.94a3.44,3.44,0,0,0-1.68-.52c-.5,0-.86.17-.86.58,0,1.08,3.11.5,3.1,2.62,0,1.2-1.07,1.74-2.25,1.74a3.62,3.62,0,0,1-2.35-.81l.45-.9a3.19,3.19,0,0,0,2,.73c.54,0,1-.19,1-.63,0-1.2-3.08-.53-3.07-2.64,0-1.19,1-1.69,2.16-1.69A3.7,3.7,0,0,1,86.68,46.16Z"/><path class="cls-4" d="M91.85,46.16l-.46.94a3.44,3.44,0,0,0-1.68-.52c-.5,0-.86.17-.86.58,0,1.08,3.11.5,3.1,2.62,0,1.2-1.07,1.74-2.25,1.74a3.62,3.62,0,0,1-2.35-.81l.45-.9a3.19,3.19,0,0,0,2,.73c.54,0,1-.19,1-.63,0-1.2-3.08-.53-3.07-2.64,0-1.19,1-1.69,2.16-1.69A3.7,3.7,0,0,1,91.85,46.16Z"/><path class="cls-4" d="M98.54,51.47H97.27V50.33a2.16,2.16,0,0,1-2.09,1.19A2,2,0,0,1,93,49.26V45.62H94.3v3.29a1.29,1.29,0,0,0,1.36,1.42,1.65,1.65,0,0,0,1.61-1.83V45.62h1.27Z"/><path class="cls-4" d="M105.56,49h-4.42a1.78,1.78,0,0,0,1.82,1.46,2.28,2.28,0,0,0,1.65-.68l.67.71a3.18,3.18,0,0,1-2.42,1,3,3,0,1,1,0-5.94C104.87,45.57,105.71,46.92,105.56,49Zm-1.1-.92a1.5,1.5,0,0,0-1.63-1.52,1.66,1.66,0,0,0-1.72,1.52Z"/><path class="cls-4" d="M107.83,50.83a.69.69,0,1,1-1.39,0,.69.69,0,1,1,1.39,0Z"/><path class="cls-4" d="M110.23,50.83a.69.69,0,1,1-1.39,0,.69.69,0,1,1,1.39,0Z"/><path class="cls-4" d="M112.63,50.83a.69.69,0,1,1-1.39,0,.69.69,0,1,1,1.39,0Z"/><path class="cls-4" d="M226.26,153.88v2.22h3.5v1.16h-3.5v3.16H225v-7.7h5.17v1.17Z"/><path class="cls-4" d="M234.72,159.7a2.37,2.37,0,0,1-1.94.77,1.85,1.85,0,0,1-2.06-1.82c0-1.07.8-1.75,2.21-1.76h1.77v-.18c0-.74-.47-1.18-1.4-1.18a3.09,3.09,0,0,0-1.73.59l-.52-.88a4.29,4.29,0,0,1,2.52-.74c1.51,0,2.35.77,2.37,2.06v3.84h-1.24Zm0-1.34v-.54h-1.58c-.83,0-1.21.22-1.21.78s.43.87,1.13.87C233.95,159.47,234.64,159,234.71,158.36Z"/><path class="cls-4" d="M239,152.89a.74.74,0,1,1-.74-.77A.73.73,0,0,1,239,152.89Zm-1.36,7.53v-5.85h1.25v5.85Z"/><path class="cls-4" d="M240.83,160.41v-8.16h1.26v8.16Z"/><path class="cls-4" d="M249.34,160.41h-1.27v-1.14a2.16,2.16,0,0,1-2.09,1.19,2,2,0,0,1-2.15-2.26v-3.64h1.27v3.29a1.29,1.29,0,0,0,1.36,1.42,1.65,1.65,0,0,0,1.61-1.83v-2.88h1.27Z"/><path class="cls-4" d="M252.47,155.73a2.13,2.13,0,0,1,2-1.21v1.21a1.77,1.77,0,0,0-2,1.63v3.06h-1.26v-5.85h1.26Z"/><path class="cls-4" d="M260.69,158h-4.42a1.78,1.78,0,0,0,1.82,1.46,2.28,2.28,0,0,0,1.65-.68l.67.71a3.19,3.19,0,0,1-2.42,1,3,3,0,1,1,0-5.94C260,154.52,260.84,155.86,260.69,158Zm-1.1-.92a1.5,1.5,0,0,0-1.63-1.52,1.66,1.66,0,0,0-1.72,1.52Z"/><rect class="cls-3" x="98.69" y="131.53" width="82.58" height="50.28" rx="1" ry="1"/><path class="cls-4" d="M123.72,153.31v2.22h3.5v1.16h-3.5v3.16h-1.3v-7.7h5.17v1.17Z"/><path class="cls-4" d="M132.18,159.13a2.37,2.37,0,0,1-1.94.77,1.85,1.85,0,0,1-2.06-1.82c0-1.07.8-1.75,2.21-1.76h1.77v-.18c0-.74-.47-1.18-1.4-1.18a3.08,3.08,0,0,0-1.73.59l-.52-.88a4.29,4.29,0,0,1,2.52-.74c1.51,0,2.35.77,2.37,2.06v3.84h-1.24Zm0-1.34v-.54h-1.58c-.83,0-1.21.22-1.21.78s.43.87,1.13.87C131.41,158.89,132.1,158.42,132.17,157.78Z"/><path class="cls-4" d="M136.48,152.32a.74.74,0,1,1-.74-.77A.73.73,0,0,1,136.48,152.32Zm-1.36,7.52V154h1.25v5.85Z"/><path class="cls-4" d="M138.29,159.84v-8.16h1.26v8.16Z"/><path class="cls-4" d="M146.8,159.84h-1.27V158.7a2.16,2.16,0,0,1-2.09,1.19,2,2,0,0,1-2.15-2.25V154h1.27v3.29a1.29,1.29,0,0,0,1.36,1.42,1.65,1.65,0,0,0,1.61-1.83V154h1.27Z"/><path class="cls-4" d="M149.93,155.15a2.13,2.13,0,0,1,2-1.21v1.21a1.77,1.77,0,0,0-2,1.63v3.06h-1.26V154h1.26Z"/><path class="cls-4" d="M158.15,157.4h-4.42a1.78,1.78,0,0,0,1.82,1.46,2.28,2.28,0,0,0,1.65-.68l.67.71a3.18,3.18,0,0,1-2.42,1,3,3,0,1,1,0-5.94C157.47,153.94,158.3,155.29,158.15,157.4Zm-1.1-.92a1.5,1.5,0,0,0-1.63-1.52,1.66,1.66,0,0,0-1.72,1.52Z"/><path class="cls-1" d="M209.43,82.62H75.82a.77.77,0,0,0-.69.82V130a.77.77,0,0,0,.69.82H122.2l-9.58,15.37,22-15.37h74.83a.77.77,0,0,0,.69-.82V83.44A.77.77,0,0,0,209.43,82.62Z"/><path class="cls-4" d="M92.66,103.27v-7.7H94v7.7Z"/><path class="cls-4" d="M96.84,96.27a1,1,0,0,1-.2.57l-.63.95h-.65l.42-.95a.69.69,0,1,1,1.06-.57Z"/><path class="cls-4" d="M98.31,103.27V95.11h1.26v8.16Z"/><path class="cls-4" d="M101.56,103.27V95.11h1.26v8.16Z"/><path class="cls-4" d="M110.9,102.9a2.81,2.81,0,0,1-1.44.43,1.54,1.54,0,0,1-1.64-1.71v-3H107v-.95h.83V96h1.25v1.61h1.73v.95h-1.73v2.81c0,.6.23.79.63.79a2,2,0,0,0,.88-.25Z"/><path class="cls-4" d="M117.37,103.27h-1.27v-1.14a2.16,2.16,0,0,1-2.09,1.19,2,2,0,0,1-2.15-2.26V97.42h1.27v3.29a1.29,1.29,0,0,0,1.36,1.42,1.65,1.65,0,0,0,1.61-1.83V97.42h1.27Z"/><path class="cls-4" d="M120.51,98.58a2.13,2.13,0,0,1,2-1.21v1.21a1.77,1.77,0,0,0-2,1.63v3.06h-1.26V97.42h1.26Z"/><path class="cls-4" d="M129.18,99.63v3.64h-1.27V100a1.3,1.3,0,0,0-1.41-1.42,1.64,1.64,0,0,0-1.66,1.6v3.11h-1.26V97.42h1.26v1.12A2.21,2.21,0,0,1,127,97.37,2,2,0,0,1,129.18,99.63Z"/><path class="cls-4" d="M135.07,95.75a.74.74,0,1,1-.74-.77A.73.73,0,0,1,135.07,95.75Zm-1.36,7.52V97.42H135v5.85Z"/><path class="cls-4" d="M140.14,102.9a2.81,2.81,0,0,1-1.44.43,1.54,1.54,0,0,1-1.64-1.71v-3h-.83v-.95h.83V96h1.25v1.61H140v.95h-1.73v2.81c0,.6.23.79.63.79a2,2,0,0,0,.88-.25Z"/><path class="cls-4" d="M149.7,100.35a3.05,3.05,0,1,1-3-3A2.87,2.87,0,0,1,149.7,100.35Zm-4.84,0a1.79,1.79,0,1,0,1.79-1.89A1.76,1.76,0,0,0,144.86,100.36Z"/><path class="cls-4" d="M152.46,96.95v.69H154v.95h-1.53v4.69h-1.25V98.58h-.77v-.95h.77v-.57a1.92,1.92,0,0,1,2-2,2.24,2.24,0,0,1,1.32.41l-.48,1a1.41,1.41,0,0,0-.8-.28A.73.73,0,0,0,152.46,96.95Z"/><path class="cls-4" d="M156.3,96.95v.69h1.53v.95H156.3v4.69H155V98.58h-.77v-.95H155v-.57a1.92,1.92,0,0,1,2-2,2.24,2.24,0,0,1,1.32.41l-.48,1a1.41,1.41,0,0,0-.8-.28A.73.73,0,0,0,156.3,96.95Z"/><path class="cls-4" d="M164.92,102.56a2.37,2.37,0,0,1-1.94.77,1.85,1.85,0,0,1-2.06-1.82c0-1.07.8-1.75,2.21-1.76h1.77v-.18c0-.74-.47-1.18-1.4-1.18a3.08,3.08,0,0,0-1.73.59l-.52-.88a4.29,4.29,0,0,1,2.52-.74c1.51,0,2.35.77,2.37,2.06v3.84h-1.24Zm0-1.34v-.54h-1.58c-.83,0-1.21.22-1.21.78s.43.87,1.13.87C164.15,102.33,164.85,101.85,164.91,101.21Z"/><path class="cls-4" d="M173.46,99.63v3.64H172.2V100a1.3,1.3,0,0,0-1.41-1.42,1.64,1.64,0,0,0-1.66,1.6v3.11h-1.26V97.42h1.26v1.12a2.21,2.21,0,0,1,2.16-1.17A2,2,0,0,1,173.46,99.63Z"/><path class="cls-4" d="M180.73,103.27h-1.26v-1a2.27,2.27,0,0,1-2.06,1.06,3,3,0,0,1,0-6,2.31,2.31,0,0,1,2.08,1.07V95.11h1.26Zm-1.26-2.9a1.78,1.78,0,0,0-1.79-1.93,1.8,1.8,0,0,0-1.8,1.93,1.8,1.8,0,1,0,3.6,0Z"/><path class="cls-4" d="M191,100.35a3.05,3.05,0,1,1-3-3A2.87,2.87,0,0,1,191,100.35Zm-4.84,0A1.79,1.79,0,1,0,188,98.46,1.76,1.76,0,0,0,186.21,100.36Z"/><path class="cls-4" d="M198,99.63v3.64H196.7V100a1.3,1.3,0,0,0-1.41-1.42,1.64,1.64,0,0,0-1.66,1.6v3.11h-1.26V97.42h1.26v1.12a2.21,2.21,0,0,1,2.16-1.17A2,2,0,0,1,198,99.63Z"/><path class="cls-4" d="M133.3,115.76a2.37,2.37,0,0,1-1.94.77,1.85,1.85,0,0,1-2.06-1.82c0-1.07.8-1.75,2.21-1.76h1.77v-.18c0-.74-.47-1.18-1.4-1.18a3.08,3.08,0,0,0-1.73.59l-.52-.88a4.29,4.29,0,0,1,2.52-.74c1.51,0,2.35.77,2.37,2.06v3.84H133.3Zm0-1.34v-.54h-1.58c-.83,0-1.21.22-1.21.78s.43.87,1.13.87C132.53,115.52,133.22,115.05,133.29,114.41Z"/><path class="cls-4" d="M141.52,115.9c0,1.68-1.2,2.74-3,2.74a4.26,4.26,0,0,1-2.43-.77l.54-.91a3,3,0,0,0,1.84.64,1.65,1.65,0,0,0,1.84-1.66v-.74a2.14,2.14,0,0,1-1.94,1,2.59,2.59,0,0,1-2.64-2.83,2.57,2.57,0,0,1,2.6-2.78,2.18,2.18,0,0,1,2,1v-.95h1.25Zm-1.25-2.51a1.67,1.67,0,0,0-1.68-1.79,1.8,1.8,0,1,0,1.68,1.79Z"/><path class="cls-4" d="M146.79,115.76a2.37,2.37,0,0,1-1.94.77,1.85,1.85,0,0,1-2.06-1.82c0-1.07.8-1.75,2.21-1.76h1.77v-.18c0-.74-.47-1.18-1.4-1.18a3.08,3.08,0,0,0-1.73.59l-.52-.88a4.29,4.29,0,0,1,2.52-.74c1.51,0,2.35.77,2.37,2.06v3.84h-1.24Zm0-1.34v-.54h-1.58c-.83,0-1.21.22-1.21.78s.43.87,1.13.87C146,115.52,146.71,115.05,146.78,114.41Z"/><path class="cls-4" d="M151.09,108.95a.74.74,0,1,1-.74-.77A.73.73,0,0,1,151.09,108.95Zm-1.36,7.52v-5.85H151v5.85Z"/><path class="cls-4" d="M158.45,112.83v3.64h-1.27v-3.29a1.3,1.3,0,0,0-1.41-1.42,1.64,1.64,0,0,0-1.66,1.6v3.11h-1.26v-5.85h1.26v1.12a2.21,2.21,0,0,1,2.16-1.17A2,2,0,0,1,158.45,112.83Z"/><path class="cls-4" d="M161.22,115.83a.69.69,0,1,1-1.39,0,.69.69,0,1,1,1.39,0Zm-.3-1.81h-.8l-.2-3.26v-1.89h1.2v1.89Z"/><rect class="cls-57" x="57.99" y="215.02" width="4.77" height="41.23" rx="1" ry="1"/><rect class="cls-57" x="33.8" y="145.6" width="4.77" height="68.49" rx="1" ry="1"/><path class="cls-58" d="M88.77,246.59v10.6s7.36,6.77,7.36,0v-6.77Z"/><path class="cls-1" d="M88.19,256.39a37.15,37.15,0,0,0-2.07,5.89c-.17,1.44,17.18,1.14,20.38-.62,1.77-1-1.24-3.29-3.11-4.12C99.09,255.64,88.19,256.39,88.19,256.39Z"/><path class="cls-59" d="M51,196.74c-2.4,1.2-2.11,9.5,0,11.19,7.73,6.18,36.47-1,38.8,0,3.21,1.38-2,41.64-2,41.64l10,.84s8.61-31.66,4.11-51.64C100.56,192.59,59.27,192.62,51,196.74Z"/><path class="cls-60" d="M73.26,167.41S57.64,175.63,50,175.15l.07,7.39C60.4,180.86,73.3,175,73.3,175Z"/><path class="cls-61" d="M61.33,145.09v-8.84a55.69,55.69,0,0,1-4.1-5.5,70.58,70.58,0,0,1-2.75-8.25l22.78-8.05.79,1s1.49,13.8,0,18.07c-.62,1.78-2.86,5.54-4.71,5.89-.89.17-3.5.38-3.5.38l-1,11Z"/><path class="cls-10" d="M68.62,150.94l-7.39-8s-11.13,5-13.82,8C41.64,157.24,35,173,37.69,179.51c3.94,9.64,35.46-4.62,35.46-4.62l0-7.63s-20.45,10.76-26,6.95c-1-.71-.4-3.82,0-5a18.11,18.11,0,0,1,2.65-3.53l.29,31.81H76.87V175.39s1.14,5.8,1.77,7.66c1.26,3.75,6.48,14.43,6.48,14.43H91.6s-4.44-13.1-5.3-16.65c-2-8.1-2-23.06-5.08-29.68C79.38,147.24,70.69,143,70.69,143H69.21Z"/><path class="cls-58" d="M50,148.91a14.4,14.4,0,0,0-2.59,2c-5.77,6.3-12.37,22.08-9.72,28.57,1.42,3.47,6.42,3.84,12.23,2.89Zm-2.88,25.3c-1-.71-.4-3.82,0-5a18.11,18.11,0,0,1,2.65-3.53l.09,9.34A5.39,5.39,0,0,1,47.15,174.21Z"/><path class="cls-62" d="M73.14,168.31s1.85-2.1,2.71-2.13c2-.05,6.32,2.64,6.57,4.64.13,1.05-2.13,3.67-2.13,3.67H73.14Z"/><path class="cls-58" d="M73.14,167.93s-15.62,8.22-23.26,7.75l.07,7.39c10.33-1.68,23.23-7.51,23.23-7.51Z"/><path class="cls-53" d="M59,133.7c-1.72.53-3.56-4.25-3.93-6a27.89,27.89,0,0,1,0-9.5c.7-2.67,1.34-8.86,13.35-8.84,2.8,0,9.66,2,9.66,7.43,0,1.74-4,2.34-5.53,2.53a44,44,0,0,0-7.46,1.23c-1.34.49-3.62,3.68-4.36,4.91C59.44,127.66,61.49,132.95,59,133.7Z"/><ellipse class="cls-61" cx="60.38" cy="126.63" rx="1.57" ry="2.55"/><path class="cls-61" d="M73.19,168s1.85-2.1,2.71-2.13c2-.05,6.32,2.64,6.57,4.64.13,1.05-2.13,3.67-2.13,3.67H73.19Z"/><path class="cls-10" d="M93.07,247.65v10.6s7.36,6.77,7.36,0v-6.77Z"/><path class="cls-61" d="M73.14,167.41s-15.62,8.22-23.26,7.75l.07,7.39C60.28,180.86,73.19,175,73.19,175Z"/><path class="cls-1" d="M51.12,196.74c-2.53,1.2-2.23,9.5,0,11.19,8.16,6.18,38.49-1,40.94,0,3.39,1.38-1.64,41.64-1.64,41.64l10,1.91s9.19-32.73,4.43-52.71C103.4,192.59,59.82,192.62,51.12,196.74Z"/><path class="cls-1" d="M92.42,258.32a38.13,38.13,0,0,0-2,5.89c-.16,1.44,16.53,1.14,19.61-.62,1.71-1-1.2-3.29-3-4.12C102.91,257.57,92.42,258.32,92.42,258.32Z"/><rect class="cls-57" x="34.3" y="212.2" width="50.31" height="5.64" rx="1" ry="1"/><line class="cls-63" x1="76.3" y1="261.15" x2="57.8" y2="255.88"/><line class="cls-63" x1="41.97" y1="261.15" x2="57.8" y2="255.88"/><circle class="cls-1" cx="77.16" cy="262.48" r="3.09"/><circle class="cls-1" cx="40.25" cy="262.48" r="3.09"/><line class="cls-64" x1="58.08" y1="254.46" x2="58.08" y2="266.8"/><circle class="cls-1" cx="58.08" cy="268.22" r="3.09"/><rect class="cls-58" x="47.12" y="174.21" width="5.01" height="9.76"/></g></svg>