<svg width="100%" height="100%" viewBox="0 0 290 53" fill="none" xmlns="http://www.w3.org/2000/svg">
<path d="M29.3771 40.1053C30.5894 38.893 28.6536 34.3602 23.8386 29.5453C23.4395 29.1472 23.0445 28.7754 22.6515 28.4166C22.8692 28.2947 23.0888 28.1808 23.3136 28.082C23.6582 28.3995 23.9998 28.7219 24.3314 29.0535C28.5306 33.2527 31.7493 38.7187 29.8699 40.5991C28.1477 42.3203 23.4214 39.7617 19.4116 36.0945C19.7482 36.0945 20.0787 36.0945 20.4446 36.0945C24.6196 39.7758 28.3019 41.1796 29.3771 40.1053Z" fill="white"/>
<path d="M19.2423 36.2755L18.7637 35.8381H20.5403L20.6119 35.9006C24.7496 39.5516 28.2898 40.8314 29.1988 39.9235C29.7127 39.4095 29.4991 38.0148 28.6425 36.2845C27.6408 34.263 25.8722 31.9321 23.6613 29.7201C23.2652 29.3241 22.8722 28.9543 22.4822 28.5985L22.2242 28.3627L22.5296 28.1924C22.7543 28.0674 22.981 27.9505 23.2128 27.8478L23.364 27.7812L23.4859 27.8931C23.8336 28.2126 24.1772 28.5381 24.5108 28.8716C28.7372 33.0981 32.1152 38.7071 30.0493 40.774C29.622 41.2013 29.0446 41.3917 28.3613 41.3917C25.9529 41.3907 22.2414 39.0185 19.2423 36.2755ZM23.0838 28.4675C23.3932 28.7537 23.7046 29.051 24.018 29.3644C26.2673 31.6127 28.0701 33.9919 29.095 36.0618C30.0947 38.0803 30.2579 39.5778 29.5565 40.2812C28.2767 41.56 24.413 39.9043 20.3519 36.343H20.0727C23.7721 39.5949 28.1376 41.9732 29.6936 40.4183C31.438 38.6729 28.1769 33.2512 24.1551 29.2284C23.8658 28.9391 23.5686 28.657 23.2683 28.3778C23.2048 28.405 23.1443 28.4363 23.0838 28.4675Z" fill="white"/>
<path d="M32.7199 31.4788C31.0501 30.076 26.4821 29.1348 21.3537 29.1348C15.4161 29.1348 9.27393 30.4851 9.27393 32.7465C9.27393 33.1899 9.51377 33.6162 9.9874 34.0132C11.6572 35.416 16.2253 36.3582 21.3547 36.3582C27.2923 36.3592 33.4344 35.0079 33.4344 32.7465C33.4334 32.3031 33.1936 31.8768 32.7199 31.4788ZM21.3537 35.7727C16.4752 35.7727 12.0039 34.8789 10.4792 33.599C10.1416 33.3149 9.97027 33.0287 9.97027 32.7455C9.97128 31.2833 14.5454 29.7182 21.3537 29.7182C26.2321 29.7182 30.7035 30.6111 32.2272 31.8919C32.5658 32.1761 32.7371 32.4633 32.7371 32.7455C32.7371 34.2087 28.162 35.7737 21.3537 35.7727Z" fill="white"/>
<path d="M21.3532 36.6248C16.1694 36.6248 11.5368 35.6584 9.82465 34.2204C9.29156 33.7729 9.02148 33.2812 9.02148 32.7612C9.02148 30.2509 15.3753 28.8965 21.3532 28.8965C26.537 28.8965 31.1705 29.8629 32.8817 31.3009C33.4148 31.7474 33.6848 32.2402 33.6848 32.7612C33.6848 35.2704 27.3311 36.6248 21.3532 36.6248ZM21.3532 29.4004C14.8311 29.4004 9.52535 30.9079 9.52535 32.7612C9.52535 33.126 9.73496 33.4877 10.1491 33.8344C11.7776 35.2019 16.2802 36.121 21.3542 36.121C27.8762 36.121 33.182 34.6134 33.182 32.7612C33.182 32.3954 32.9724 32.0336 32.5582 31.6869C30.9307 30.3194 26.4281 29.4004 21.3532 29.4004ZM21.3532 36.0393C16.4203 36.0393 11.8824 35.1213 10.3174 33.8072C9.91938 33.4726 9.71783 33.1199 9.71783 32.7612C9.71783 30.923 14.8291 29.482 21.3532 29.482C26.286 29.482 30.8249 30.4 32.3889 31.7141C32.7869 32.0487 32.9885 32.4014 32.9885 32.7612C32.9875 34.5993 27.8772 36.0393 21.3532 36.0393ZM21.3532 29.9859C14.4572 29.9859 10.2227 31.6033 10.2217 32.7612C10.2217 32.9647 10.3628 33.1874 10.6419 33.4212C12.1243 34.6658 16.5291 35.5355 21.3532 35.5355C28.2491 35.5355 32.4836 33.9191 32.4836 32.7612C32.4836 32.5566 32.3425 32.3339 32.0634 32.1001C30.583 30.8555 26.1782 29.9859 21.3532 29.9859Z" fill="white"/>
<path d="M15.0547 23.0688C17.3059 23.4679 20.4934 25.5197 23.3141 28.1136C23.0893 28.2133 22.8686 28.3262 22.652 28.4481C18.4225 24.5845 14.6233 23.0245 13.3899 23.9577C13.2851 23.7561 13.151 23.5657 12.9878 23.4004C13.4997 23.0205 14.2041 22.9177 15.0547 23.0688Z" fill="white"/>
<path d="M22.4814 28.5994C18.27 24.7529 14.6291 23.3068 13.5407 24.1241L13.3029 24.3044L13.1659 24.0394C13.0671 23.8499 12.9472 23.6837 12.8081 23.5436L12.6025 23.338L12.8363 23.1647C13.3987 22.7455 14.1595 22.6195 15.0987 22.7858C17.2956 23.1748 20.4296 25.0834 23.4841 27.893L23.7662 28.153L23.4145 28.3082C23.1969 28.4049 22.9832 28.5148 22.7726 28.6327L22.6144 28.7203L22.4814 28.5994ZM15.011 23.2816C14.3449 23.1637 13.7937 23.212 13.3714 23.4247C13.4097 23.4741 13.445 23.5255 13.4793 23.5768C15.0967 22.812 18.8596 24.6461 22.689 28.1056C22.7484 28.0744 22.8079 28.0431 22.8683 28.0119C20.0074 25.4402 17.0205 23.6383 15.011 23.2816Z" fill="white"/>
<g filter="url(#filter0_d)">
<path d="M17.2992 33.4721C16.624 33.4721 16.0708 32.9198 16.0708 32.2437V29.0683C16.0708 28.3931 16.623 27.8398 17.2992 27.8398C17.9744 27.8398 18.5277 28.3921 18.5277 29.0683V32.2437C18.5267 32.9198 17.9744 33.4721 17.2992 33.4721Z" fill="#ECF0F1"/>
</g>
<g filter="url(#filter1_d)">
<path d="M21.2729 33.4785C20.5977 33.4785 20.0444 32.9262 20.0444 32.25V25.2069C20.0444 24.5318 20.5967 23.9785 21.2729 23.9785C21.948 23.9785 22.5003 24.5308 22.5003 25.2069V32.25C22.5013 32.9262 21.9491 33.4785 21.2729 33.4785Z" fill="#ECF0F1"/>
</g>
<g filter="url(#filter2_d)">
<path d="M25.2465 33.4638C24.5713 33.4638 24.0181 32.9116 24.0181 32.2354V21.8144C24.0181 21.1392 24.5703 20.5859 25.2465 20.5859C25.9217 20.5859 26.4749 21.1382 26.4749 21.8144V32.2354C26.4749 32.9116 25.9217 33.4638 25.2465 33.4638Z" fill="#ECF0F1"/>
</g>
<path opacity="0.3" d="M38.1822 19.4962C37.4617 17.7911 35.5853 14.2932 34.503 12.7937L33.4539 13.5505C33.3914 13.4638 33.3229 13.3641 33.2655 13.2845L32.7132 13.6825C32.4754 13.3258 32.2487 12.9882 32.0532 12.707L30.3975 13.8569C31.6209 15.6174 33.6142 18.7605 34.2158 20.2389C36.7422 26.4415 37.8315 41.3439 34.3105 46.6345C33.6313 47.6553 33.9296 48.2368 34.2984 48.5452C34.5211 48.7306 34.772 48.7991 35.0149 48.7991C35.029 48.7991 35.0411 48.7941 35.0552 48.7941L35.0814 48.8384C35.1137 48.8193 35.1399 48.7991 35.1711 48.779C35.3535 48.7578 35.5299 48.7124 35.679 48.6469L35.6861 48.659C35.7475 48.6218 35.7919 48.5945 35.8241 48.5754C35.9471 48.5089 36.0438 48.4373 36.1002 48.3829L36.1053 48.3174C36.198 48.2952 36.2897 48.2731 36.3864 48.2539C36.8661 48.1602 37.5222 48.0312 37.9253 47.3752C41.5995 41.3771 40.7661 25.6071 38.1822 19.4962Z" fill="#BDC3C7"/>
<path d="M8.62293 11.9492C8.62293 11.9492 5.11902 16.7118 4.16267 19.0225C1.59092 25.2312 0.983257 39.9814 4.16267 45.9008C7.70488 52.4965 34.801 51.9523 38.4339 45.9008C41.8924 40.1396 41.0056 25.2312 38.4339 19.0225C37.7516 17.3759 35.588 14.0816 34.5097 12.5559" stroke="white" stroke-width="4" stroke-miterlimit="10"/>
<path d="M21.834 9.10253C29.1923 9.10253 35.1573 7.51257 35.1573 5.55126C35.1573 3.58996 29.1923 2 21.834 2C14.4758 2 8.51074 3.58996 8.51074 5.55126C8.51074 7.51257 14.4758 9.10253 21.834 9.10253Z" stroke="white" stroke-width="4" stroke-miterlimit="10"/>
<path d="M8.51074 7.47852V11.8622" stroke="white" stroke-width="3" stroke-miterlimit="10" stroke-linecap="round" stroke-linejoin="round"/>
<path d="M34.5098 12.5751C32.5971 13.7854 27.756 15.1791 21.8345 15.1791C14.476 15.1791 8.51123 13.4921 8.51123 11.4102" stroke="white" stroke-width="4" stroke-miterlimit="10" stroke-linecap="round"/>
<path d="M21.452 45.7406C24.8492 45.7406 27.6032 45.2998 27.6032 44.756C27.6032 44.2123 24.8492 43.7715 21.452 43.7715C18.0548 43.7715 15.3008 44.2123 15.3008 44.756C15.3008 45.2998 18.0548 45.7406 21.452 45.7406Z" fill="#ECF0F1"/>
<path d="M12.9871 23.3848C13.1503 23.55 13.2844 23.7395 13.3892 23.942C13.3529 23.9693 13.3106 23.9914 13.2793 24.0227C12.067 25.235 14.0029 29.7668 18.8168 34.5817C19.3661 35.1299 19.9082 35.6358 20.4443 36.1084C20.0785 36.1084 19.748 36.1084 19.4114 36.1084C19.0426 35.7708 18.6778 35.4282 18.3241 35.0745C14.1248 30.8753 10.9051 25.4093 12.7855 23.5299C12.846 23.4714 12.9216 23.4341 12.9871 23.3848Z" fill="white"/>
<path d="M19.2428 36.3129C18.8719 35.9723 18.5041 35.6277 18.1484 35.2719C13.9209 31.0455 10.544 25.4364 12.6098 23.3706C12.6673 23.3131 12.7287 23.2728 12.7781 23.2416L13.0129 23.0723L13.1661 23.2264C13.3414 23.4028 13.4916 23.6104 13.6135 23.8442L13.7113 24.0316L13.4594 24.2201C12.9454 24.734 13.159 26.1277 14.0156 27.859C15.0173 29.8805 16.7859 32.2114 18.9969 34.4234C19.5128 34.9394 20.057 35.4493 20.6133 35.9391L21.1131 36.3804H19.3153L19.2428 36.3129ZM18.6401 34.7781C16.3919 32.5289 14.588 30.1506 13.5631 28.0817C12.5816 26.0995 12.4053 24.6181 13.0653 23.9006C13.029 23.8442 12.9908 23.7918 12.9504 23.7404C11.2393 25.5019 14.4933 30.9044 18.5041 34.9152C18.8316 35.2427 19.1702 35.5611 19.5108 35.8746H19.7879C19.3959 35.5158 19.011 35.149 18.6401 34.7781Z" fill="white"/>
<path d="M54.5195 14.404C54.5195 13.0787 54.7249 11.8747 55.1355 10.792C55.5649 9.69067 56.1529 8.75733 56.8995 7.992C57.6649 7.208 58.5702 6.60133 59.6155 6.172C60.6609 5.74267 61.8089 5.528 63.0595 5.528C64.0115 5.528 64.8515 5.64933 65.5795 5.892C66.3262 6.116 66.9795 6.44267 67.5395 6.872V10.484C66.2515 9.364 64.8142 8.804 63.2275 8.804C62.4622 8.804 61.7622 8.93467 61.1275 9.196C60.5115 9.45733 59.9795 9.84 59.5315 10.344C59.0835 10.8293 58.7382 11.4173 58.4955 12.108C58.2529 12.7987 58.1315 13.564 58.1315 14.404C58.1315 15.244 58.2529 16.0093 58.4955 16.7C58.7382 17.372 59.0835 17.96 59.5315 18.464C59.9795 18.9493 60.5115 19.3227 61.1275 19.584C61.7622 19.8453 62.4622 19.976 63.2275 19.976C64.0489 19.976 64.8049 19.8453 65.4955 19.584C66.2049 19.3227 66.8862 18.9027 67.5395 18.324V21.936C66.9795 22.3653 66.3262 22.7013 65.5795 22.944C64.8515 23.168 64.0115 23.28 63.0595 23.28C61.8089 23.28 60.6609 23.0653 59.6155 22.636C58.5702 22.2067 57.6649 21.6093 56.8995 20.844C56.1529 20.06 55.5649 19.1267 55.1355 18.044C54.7249 16.9427 54.5195 15.7293 54.5195 14.404ZM82.1019 5.808V8.944H73.9539V12.696H81.3459V15.748H73.9539V19.836H82.1019V23H70.4259V5.808H82.1019ZM88.4194 16.588V23H84.8634V5.808H91.9474C93.7581 5.808 95.2141 6.27467 96.3154 7.208C97.4168 8.14133 97.9674 9.49467 97.9674 11.268C97.9674 12.6493 97.6128 13.7693 96.9034 14.628C96.2128 15.468 95.2608 16.0373 94.0474 16.336L98.5834 23H94.5514L90.2954 16.588H88.4194ZM88.4194 13.648H91.7234C92.6194 13.648 93.2914 13.4333 93.7394 13.004C94.2061 12.556 94.4394 11.9773 94.4394 11.268C94.4394 10.54 94.2061 9.96133 93.7394 9.532C93.2914 9.084 92.6194 8.86 91.7234 8.86H88.4194V13.648ZM115.033 23H112.205L104.085 11.548V23H100.641V5.808H104.001L111.589 16.672V5.808H115.033V23ZM62.0235 33.552L59.2235 40.888H64.8515L62.0235 33.552ZM67.5675 48L65.5795 42.82H58.4955L56.5355 48H54.2955L61.0155 30.808H63.0875L69.8075 48H67.5675ZM72.2632 48V35.568H74.3632V37.136C74.7179 36.6507 75.2125 36.2307 75.8472 35.876C76.5005 35.5027 77.2285 35.316 78.0312 35.316C79.4312 35.316 80.5045 35.736 81.2512 36.576C82.0165 37.416 82.3992 38.508 82.3992 39.852V48H80.2712V40.188C80.2712 39.3293 80.0472 38.6293 79.5992 38.088C79.1512 37.528 78.4605 37.248 77.5272 37.248C76.7992 37.248 76.1459 37.472 75.5672 37.92C74.9885 38.3493 74.5872 38.9 74.3632 39.572V48H72.2632ZM92.8784 44.92V43.632C92.7104 43.1653 92.3464 42.792 91.7864 42.512C91.2451 42.232 90.6478 42.092 89.9944 42.092C89.2478 42.092 88.5664 42.2693 87.9504 42.624C87.3344 42.96 87.0264 43.5013 87.0264 44.248C87.0264 44.9947 87.3344 45.5547 87.9504 45.928C88.5664 46.2827 89.2478 46.46 89.9944 46.46C90.6478 46.46 91.2451 46.32 91.7864 46.04C92.3464 45.76 92.7104 45.3867 92.8784 44.92ZM92.8784 41.364V39.74C92.8784 38.9747 92.6078 38.368 92.0664 37.92C91.5438 37.472 90.8251 37.248 89.9104 37.248C89.2198 37.248 88.5851 37.3507 88.0064 37.556C87.4464 37.7427 86.9051 38.004 86.3824 38.34V36.352C86.7931 36.0533 87.3438 35.8107 88.0344 35.624C88.7438 35.4187 89.4811 35.316 90.2464 35.316C91.7024 35.316 92.8411 35.6987 93.6624 36.464C94.5024 37.2293 94.9224 38.2653 94.9224 39.572V48H92.8784V47.076C92.6358 47.3187 92.2158 47.5707 91.6184 47.832C91.0398 48.0933 90.3864 48.224 89.6584 48.224C88.3891 48.224 87.2971 47.8693 86.3824 47.16C85.4864 46.4507 85.0384 45.48 85.0384 44.248C85.0384 43.0907 85.4958 42.1573 86.4104 41.448C87.3251 40.72 88.4451 40.356 89.7704 40.356C90.4051 40.356 91.0118 40.468 91.5904 40.692C92.1878 40.8973 92.6171 41.1213 92.8784 41.364ZM100.613 29.8V48H98.5132V29.8H100.613ZM108.033 52.76H105.961L107.837 48.084L102.993 35.568H105.261L108.929 45.368L112.541 35.568H114.725L108.033 52.76ZM116.297 47.02V44.78C116.876 45.3027 117.51 45.7133 118.201 46.012C118.91 46.3107 119.638 46.46 120.385 46.46C121.076 46.46 121.673 46.3293 122.177 46.068C122.7 45.788 122.961 45.34 122.961 44.724C122.961 44.2573 122.793 43.8933 122.457 43.632C122.14 43.352 121.71 43.1187 121.169 42.932L119.461 42.344C118.528 42.0453 117.772 41.6347 117.193 41.112C116.614 40.5893 116.325 39.824 116.325 38.816C116.325 37.7333 116.745 36.884 117.585 36.268C118.444 35.6333 119.489 35.316 120.721 35.316C121.412 35.316 122.074 35.4093 122.709 35.596C123.344 35.7827 123.913 36.0533 124.417 36.408V38.592C123.894 38.1627 123.334 37.808 122.737 37.528C122.14 37.248 121.468 37.108 120.721 37.108C120.086 37.108 119.536 37.248 119.069 37.528C118.602 37.808 118.369 38.2093 118.369 38.732C118.369 39.236 118.528 39.6093 118.845 39.852C119.181 40.076 119.638 40.2907 120.217 40.496L122.121 41.14C123.054 41.4573 123.773 41.9053 124.277 42.484C124.781 43.044 125.033 43.7627 125.033 44.64C125.033 45.7787 124.576 46.6653 123.661 47.3C122.765 47.9347 121.673 48.252 120.385 48.252C119.582 48.252 118.817 48.14 118.089 47.916C117.361 47.6733 116.764 47.3747 116.297 47.02ZM130.425 31.816C130.425 32.1707 130.285 32.488 130.005 32.768C129.744 33.0293 129.426 33.16 129.053 33.16C128.698 33.16 128.381 33.0293 128.101 32.768C127.84 32.488 127.709 32.1707 127.709 31.816C127.709 31.4427 127.84 31.1253 128.101 30.864C128.381 30.6027 128.698 30.472 129.053 30.472C129.426 30.472 129.744 30.6027 130.005 30.864C130.285 31.1253 130.425 31.4427 130.425 31.816ZM130.117 35.568V48H128.017V35.568H130.117ZM133.141 47.02V44.78C133.719 45.3027 134.354 45.7133 135.045 46.012C135.754 46.3107 136.482 46.46 137.229 46.46C137.919 46.46 138.517 46.3293 139.021 46.068C139.543 45.788 139.805 45.34 139.805 44.724C139.805 44.2573 139.637 43.8933 139.301 43.632C138.983 43.352 138.554 43.1187 138.013 42.932L136.305 42.344C135.371 42.0453 134.615 41.6347 134.037 41.112C133.458 40.5893 133.169 39.824 133.169 38.816C133.169 37.7333 133.589 36.884 134.429 36.268C135.287 35.6333 136.333 35.316 137.565 35.316C138.255 35.316 138.918 35.4093 139.553 35.596C140.187 35.7827 140.757 36.0533 141.261 36.408V38.592C140.738 38.1627 140.178 37.808 139.581 37.528C138.983 37.248 138.311 37.108 137.565 37.108C136.93 37.108 136.379 37.248 135.913 37.528C135.446 37.808 135.213 38.2093 135.213 38.732C135.213 39.236 135.371 39.6093 135.689 39.852C136.025 40.076 136.482 40.2907 137.061 40.496L138.965 41.14C139.898 41.4573 140.617 41.9053 141.121 42.484C141.625 43.044 141.877 43.7627 141.877 44.64C141.877 45.7787 141.419 46.6653 140.505 47.3C139.609 47.9347 138.517 48.252 137.229 48.252C136.426 48.252 135.661 48.14 134.933 47.916C134.205 47.6733 133.607 47.3747 133.141 47.02ZM157.565 41.112H153.421V48H151.209V30.808H157.565C159.301 30.808 160.691 31.2467 161.737 32.124C162.782 33.0013 163.305 34.28 163.305 35.96C163.305 37.64 162.782 38.9187 161.737 39.796C160.691 40.6733 159.301 41.112 157.565 41.112ZM157.537 39.152C158.694 39.152 159.581 38.8627 160.197 38.284C160.813 37.6867 161.121 36.912 161.121 35.96C161.121 34.9893 160.813 34.2147 160.197 33.636C159.581 33.0387 158.694 32.74 157.537 32.74H153.421V39.152H157.537ZM172.382 35.512V37.668C172.214 37.556 171.999 37.472 171.738 37.416C171.495 37.36 171.243 37.332 170.982 37.332C170.328 37.332 169.731 37.5373 169.19 37.948C168.667 38.3587 168.303 38.928 168.098 39.656V48H165.998V35.568H168.098V37.192C168.359 36.6693 168.76 36.2307 169.302 35.876C169.862 35.5027 170.487 35.316 171.178 35.316C171.439 35.316 171.672 35.3347 171.878 35.372C172.102 35.4093 172.27 35.456 172.382 35.512ZM179.314 37.108C178.512 37.108 177.793 37.388 177.158 37.948C176.524 38.508 176.113 39.3573 175.926 40.496H182.338C182.301 39.5813 182.04 38.788 181.554 38.116C181.069 37.444 180.322 37.108 179.314 37.108ZM183.514 47.16C183.01 47.552 182.441 47.832 181.806 48C181.172 48.168 180.481 48.252 179.734 48.252C177.942 48.252 176.496 47.6827 175.394 46.544C174.293 45.3867 173.742 43.8373 173.742 41.896C173.742 39.9733 174.256 38.396 175.282 37.164C176.309 35.932 177.644 35.316 179.286 35.316C180.966 35.316 182.236 35.876 183.094 36.996C183.953 38.116 184.382 39.5813 184.382 41.392V42.148H175.814C175.87 43.5853 176.3 44.6587 177.102 45.368C177.905 46.0587 178.866 46.404 179.986 46.404C180.677 46.404 181.293 46.3107 181.834 46.124C182.394 45.9373 182.954 45.6387 183.514 45.228V47.16ZM186.625 47.02V44.78C187.204 45.3027 187.838 45.7133 188.529 46.012C189.238 46.3107 189.966 46.46 190.713 46.46C191.404 46.46 192.001 46.3293 192.505 46.068C193.028 45.788 193.289 45.34 193.289 44.724C193.289 44.2573 193.121 43.8933 192.785 43.632C192.468 43.352 192.038 43.1187 191.497 42.932L189.789 42.344C188.856 42.0453 188.1 41.6347 187.521 41.112C186.942 40.5893 186.653 39.824 186.653 38.816C186.653 37.7333 187.073 36.884 187.913 36.268C188.772 35.6333 189.817 35.316 191.049 35.316C191.74 35.316 192.402 35.4093 193.037 35.596C193.672 35.7827 194.241 36.0533 194.745 36.408V38.592C194.222 38.1627 193.662 37.808 193.065 37.528C192.468 37.248 191.796 37.108 191.049 37.108C190.414 37.108 189.864 37.248 189.397 37.528C188.93 37.808 188.697 38.2093 188.697 38.732C188.697 39.236 188.856 39.6093 189.173 39.852C189.509 40.076 189.966 40.2907 190.545 40.496L192.449 41.14C193.382 41.4573 194.101 41.9053 194.605 42.484C195.109 43.044 195.361 43.7627 195.361 44.64C195.361 45.7787 194.904 46.6653 193.989 47.3C193.093 47.9347 192.001 48.252 190.713 48.252C189.91 48.252 189.145 48.14 188.417 47.916C187.689 47.6733 187.092 47.3747 186.625 47.02ZM203.021 37.108C202.219 37.108 201.5 37.388 200.865 37.948C200.231 38.508 199.82 39.3573 199.633 40.496H206.045C206.008 39.5813 205.747 38.788 205.261 38.116C204.776 37.444 204.029 37.108 203.021 37.108ZM207.221 47.16C206.717 47.552 206.148 47.832 205.513 48C204.879 48.168 204.188 48.252 203.441 48.252C201.649 48.252 200.203 47.6827 199.101 46.544C198 45.3867 197.449 43.8373 197.449 41.896C197.449 39.9733 197.963 38.396 198.989 37.164C200.016 35.932 201.351 35.316 202.993 35.316C204.673 35.316 205.943 35.876 206.801 36.996C207.66 38.116 208.089 39.5813 208.089 41.392V42.148H199.521C199.577 43.5853 200.007 44.6587 200.809 45.368C201.612 46.0587 202.573 46.404 203.693 46.404C204.384 46.404 205 46.3107 205.541 46.124C206.101 45.9373 206.661 45.6387 207.221 45.228V47.16ZM217.335 35.512V37.668C217.167 37.556 216.952 37.472 216.691 37.416C216.448 37.36 216.196 37.332 215.935 37.332C215.281 37.332 214.684 37.5373 214.143 37.948C213.62 38.3587 213.256 38.928 213.051 39.656V48H210.951V35.568H213.051V37.192C213.312 36.6693 213.713 36.2307 214.255 35.876C214.815 35.5027 215.44 35.316 216.131 35.316C216.392 35.316 216.625 35.3347 216.831 35.372C217.055 35.4093 217.223 35.456 217.335 35.512ZM225.463 48H223.391L218.575 35.568H220.843L224.483 45.34L228.095 35.568H230.307L225.463 48ZM239.386 44.92V43.632C239.218 43.1653 238.854 42.792 238.294 42.512C237.753 42.232 237.156 42.092 236.502 42.092C235.756 42.092 235.074 42.2693 234.458 42.624C233.842 42.96 233.534 43.5013 233.534 44.248C233.534 44.9947 233.842 45.5547 234.458 45.928C235.074 46.2827 235.756 46.46 236.502 46.46C237.156 46.46 237.753 46.32 238.294 46.04C238.854 45.76 239.218 45.3867 239.386 44.92ZM239.386 41.364V39.74C239.386 38.9747 239.116 38.368 238.574 37.92C238.052 37.472 237.333 37.248 236.418 37.248C235.728 37.248 235.093 37.3507 234.514 37.556C233.954 37.7427 233.413 38.004 232.89 38.34V36.352C233.301 36.0533 233.852 35.8107 234.542 35.624C235.252 35.4187 235.989 35.316 236.754 35.316C238.21 35.316 239.349 35.6987 240.17 36.464C241.01 37.2293 241.43 38.2653 241.43 39.572V48H239.386V47.076C239.144 47.3187 238.724 47.5707 238.126 47.832C237.548 48.0933 236.894 48.224 236.166 48.224C234.897 48.224 233.805 47.8693 232.89 47.16C231.994 46.4507 231.546 45.48 231.546 44.248C231.546 43.0907 232.004 42.1573 232.918 41.448C233.833 40.72 234.953 40.356 236.278 40.356C236.913 40.356 237.52 40.468 238.098 40.692C238.696 40.8973 239.125 41.1213 239.386 41.364ZM248.411 37.36V48H246.311V37.36H243.707V35.568H246.311V32.292H248.411V35.568H251.295V37.36H248.411ZM256.261 31.816C256.261 32.1707 256.121 32.488 255.841 32.768C255.58 33.0293 255.262 33.16 254.889 33.16C254.534 33.16 254.217 33.0293 253.937 32.768C253.676 32.488 253.545 32.1707 253.545 31.816C253.545 31.4427 253.676 31.1253 253.937 30.864C254.217 30.6027 254.534 30.472 254.889 30.472C255.262 30.472 255.58 30.6027 255.841 30.864C256.121 31.1253 256.261 31.4427 256.261 31.816ZM255.953 35.568V48H253.853V35.568H255.953ZM270.233 41.784C270.233 43.6693 269.701 45.2187 268.637 46.432C267.573 47.6453 266.201 48.252 264.521 48.252C262.822 48.252 261.441 47.6453 260.377 46.432C259.331 45.2187 258.809 43.6693 258.809 41.784C258.809 39.8987 259.331 38.3493 260.377 37.136C261.441 35.9227 262.822 35.316 264.521 35.316C266.201 35.316 267.573 35.9227 268.637 37.136C269.701 38.3493 270.233 39.8987 270.233 41.784ZM268.105 41.784C268.105 40.44 267.787 39.3387 267.153 38.48C266.518 37.6027 265.641 37.164 264.521 37.164C263.401 37.164 262.523 37.6027 261.889 38.48C261.254 39.3387 260.937 40.44 260.937 41.784C260.937 43.128 261.254 44.2387 261.889 45.116C262.523 45.9747 263.401 46.404 264.521 46.404C265.641 46.404 266.518 45.9747 267.153 45.116C267.787 44.2387 268.105 43.128 268.105 41.784ZM273.076 48V35.568H275.176V37.136C275.53 36.6507 276.025 36.2307 276.66 35.876C277.313 35.5027 278.041 35.316 278.844 35.316C280.244 35.316 281.317 35.736 282.064 36.576C282.829 37.416 283.212 38.508 283.212 39.852V48H281.084V40.188C281.084 39.3293 280.86 38.6293 280.412 38.088C279.964 37.528 279.273 37.248 278.34 37.248C277.612 37.248 276.958 37.472 276.38 37.92C275.801 38.3493 275.4 38.9 275.176 39.572V48H273.076Z" fill="white"/>
<defs>
<filter id="filter0_d" x="12.0708" y="27.8398" width="10.4569" height="13.6322" filterUnits="userSpaceOnUse" color-interpolation-filters="sRGB">
<feFlood flood-opacity="0" result="BackgroundImageFix"/>
<feColorMatrix in="SourceAlpha" type="matrix" values="0 0 0 0 0 0 0 0 0 0 0 0 0 0 0 0 0 0 127 0"/>
<feOffset dy="4"/>
<feGaussianBlur stdDeviation="2"/>
<feColorMatrix type="matrix" values="0 0 0 0 0 0 0 0 0 0 0 0 0 0 0 0 0 0 0.25 0"/>
<feBlend mode="normal" in2="BackgroundImageFix" result="effect1_dropShadow"/>
<feBlend mode="normal" in="SourceGraphic" in2="effect1_dropShadow" result="shape"/>
</filter>
<filter id="filter1_d" x="16.0444" y="23.9785" width="10.4559" height="17.4999" filterUnits="userSpaceOnUse" color-interpolation-filters="sRGB">
<feFlood flood-opacity="0" result="BackgroundImageFix"/>
<feColorMatrix in="SourceAlpha" type="matrix" values="0 0 0 0 0 0 0 0 0 0 0 0 0 0 0 0 0 0 127 0"/>
<feOffset dy="4"/>
<feGaussianBlur stdDeviation="2"/>
<feColorMatrix type="matrix" values="0 0 0 0 0 0 0 0 0 0 0 0 0 0 0 0 0 0 0.25 0"/>
<feBlend mode="normal" in2="BackgroundImageFix" result="effect1_dropShadow"/>
<feBlend mode="normal" in="SourceGraphic" in2="effect1_dropShadow" result="shape"/>
</filter>
<filter id="filter2_d" x="20.0181" y="20.5859" width="10.4569" height="20.8779" filterUnits="userSpaceOnUse" color-interpolation-filters="sRGB">
<feFlood flood-opacity="0" result="BackgroundImageFix"/>
<feColorMatrix in="SourceAlpha" type="matrix" values="0 0 0 0 0 0 0 0 0 0 0 0 0 0 0 0 0 0 127 0"/>
<feOffset dy="4"/>
<feGaussianBlur stdDeviation="2"/>
<feColorMatrix type="matrix" values="0 0 0 0 0 0 0 0 0 0 0 0 0 0 0 0 0 0 0.25 0"/>
<feBlend mode="normal" in2="BackgroundImageFix" result="effect1_dropShadow"/>
<feBlend mode="normal" in="SourceGraphic" in2="effect1_dropShadow" result="shape"/>
</filter>
</defs>
</svg>
