<?xml version="1.0" encoding="UTF-8" standalone="no"?>
<!-- Generator: Adobe Illustrator 19.1.0, SVG Export Plug-In . SVG Version: 6.00 Build 0)  -->

<svg
   xmlns:dc="http://purl.org/dc/elements/1.1/"
   xmlns:cc="http://creativecommons.org/ns#"
   xmlns:rdf="http://www.w3.org/1999/02/22-rdf-syntax-ns#"
   xmlns:svg="http://www.w3.org/2000/svg"
   xmlns="http://www.w3.org/2000/svg"
   xmlns:sodipodi="http://sodipodi.sourceforge.net/DTD/sodipodi-0.dtd"
   xmlns:inkscape="http://www.inkscape.org/namespaces/inkscape"
   version="1.1"
   id="Layer_1"
   x="0px"
   y="0px"
   viewBox="0 0 62 62"
   xml:space="preserve"
   sodipodi:docname="cap_logo_docs_lrg.svg"
   inkscape:version="0.92.0 r"
   inkscape:export-filename="/home/sonea/projekte/cap-docs/cap_logo_docs.svg.png"
   inkscape:export-xdpi="96"
   inkscape:export-ydpi="96"
   style="enable-background:new 0 0 62 62;"><metadata
     id="metadata51"><rdf:RDF><cc:Work
         rdf:about=""><dc:format>image/svg+xml</dc:format><dc:type
           rdf:resource="http://purl.org/dc/dcmitype/StillImage" /></cc:Work></rdf:RDF></metadata><defs
     id="defs49" /><sodipodi:namedview
     pagecolor="#ffffff"
     bordercolor="#666666"
     borderopacity="1"
     objecttolerance="10"
     gridtolerance="10"
     guidetolerance="10"
     inkscape:pageopacity="0"
     inkscape:pageshadow="2"
     inkscape:window-width="1280"
     inkscape:window-height="752"
     id="namedview47"
     showgrid="false"
     inkscape:zoom="2.6915677"
     inkscape:cx="67.931089"
     inkscape:cy="34.531297"
     inkscape:window-x="0"
     inkscape:window-y="0"
     inkscape:window-maximized="1"
     inkscape:current-layer="Layer_1"
     showguides="false" /><path
     style="fill:#ffffff;stroke:#5f6f83;stroke-width:2;stroke-linecap:butt;stroke-linejoin:miter;stroke-opacity:1;stroke-miterlimit:4;stroke-dasharray:none"
     d="M 4.351695,4.2033898 C 9.3526378,11.770347 11.498609,21.203857 9.1520909,30.870088 5.1889769,47.756317 4.5538798,55.479658 6.190678,58.716101 L 54.3983,58.322034 C 51.966801,54.297754 54.221949,43.389828 56.237283,32.182203 58.51315,21.446366 56.97182,12.336102 54.3983,3.6779661 Z"
     id="path4697"
     inkscape:connector-curvature="0"
     sodipodi:nodetypes="ccccccc" /><g
     id="g4805"><path
       inkscape:connector-curvature="0"
       id="path3725"
       d="M 11.031789,8.5382787 50.998424,8.2752882"
       style="fill:none;stroke:#5f6f83;stroke-width:1;stroke-linecap:butt;stroke-linejoin:miter;stroke-opacity:1;stroke-miterlimit:4;stroke-dasharray:none" /><path
       inkscape:connector-curvature="0"
       id="path3727"
       d="M 12.677261,13.541089 52.091096,13.278127"
       style="fill:none;stroke:#5f6f83;stroke-width:1;stroke-linecap:butt;stroke-linejoin:miter;stroke-opacity:1;stroke-miterlimit:4;stroke-dasharray:none" /><path
       inkscape:connector-curvature="0"
       id="path3729"
       d="m 13.651519,18.543832 39.045318,-0.13147"
       style="fill:none;stroke:#5f6f83;stroke-width:1;stroke-linecap:butt;stroke-linejoin:miter;stroke-opacity:1;stroke-miterlimit:4;stroke-dasharray:none" /><path
       inkscape:connector-curvature="0"
       id="path3731"
       d="M 14.072034,23.546601 H 52.797447"
       style="fill:none;stroke:#5f6f83;stroke-width:1;stroke-linecap:butt;stroke-linejoin:miter;stroke-miterlimit:4;stroke-dasharray:none;stroke-opacity:1" /><path
       inkscape:connector-curvature="0"
       id="path3733"
       d="M 13.809322,28.549422 H 32.199153"
       style="fill:none;stroke:#5f6f83;stroke-width:1px;stroke-linecap:butt;stroke-linejoin:miter;stroke-opacity:1" /><path
       inkscape:connector-curvature="0"
       id="path3735"
       d="M 13.415617,33.420848 51.737979,33.5523"
       style="fill:none;stroke:#5f6f83;stroke-width:1;stroke-linecap:butt;stroke-linejoin:miter;stroke-opacity:1;stroke-miterlimit:4;stroke-dasharray:none" /><path
       inkscape:connector-curvature="0"
       id="path3737"
       d="m 11.839157,38.423699 39.143031,0.131399"
       style="fill:none;stroke:#5f6f83;stroke-width:1;stroke-linecap:butt;stroke-linejoin:miter;stroke-opacity:1;stroke-miterlimit:4;stroke-dasharray:none" /><path
       inkscape:connector-curvature="0"
       id="path3739"
       d="m 11.049454,43.295209 27.192072,0.262712"
       style="fill:none;stroke:#5f6f83;stroke-width:1;stroke-linecap:butt;stroke-linejoin:miter;stroke-opacity:1;stroke-miterlimit:4;stroke-dasharray:none" /><path
       inkscape:connector-curvature="0"
       id="path3741"
       d="m 10.357009,48.429478 39.346161,0.13114"
       style="fill:none;stroke:#5f6f83;stroke-width:1;stroke-linecap:butt;stroke-linejoin:miter;stroke-opacity:1;stroke-miterlimit:4;stroke-dasharray:none" /><path
       inkscape:connector-curvature="0"
       id="path3743"
       d="M 9.9773723,53.563525 49.453362,53.300881"
       style="fill:none;stroke:#5f6f83;stroke-width:1;stroke-linecap:butt;stroke-linejoin:miter;stroke-opacity:1;stroke-miterlimit:4;stroke-dasharray:none" /></g><g
     id="g4748"><path
       inkscape:connector-curvature="0"
       id="path4609"
       d="m 13.792373,22.199153 -1.707627,9.851694 -0.262712,8.144068 1.576271,7.75 1.576271,2.889831 5.254238,2.233051 7.75,1.182203 h 7.881356 l 7.224576,-1.838983 4.334746,-2.364407 2.101694,-5.648305 0.65678,-6.961864 L 49.783898,31.394068 48.733051,25.351695 46.5,20.097458 44.055,16.358 44.266949,10.63983 37.961864,8.0127118 30.34322,7.75 24.694915,8.4067796 20.228814,10.114407 18.254999,11.3 18.367,15.757 Z"
       style="fill:#ffffff;stroke:none;stroke-width:1px;stroke-linecap:butt;stroke-linejoin:miter;stroke-opacity:1" /><g
       id="g6"><path
         style="fill:#2c3e50"
         d="m 38.963,41.7 c 1.203,-1.203 -0.718,-5.701 -5.496,-10.479 -0.396,-0.395 -0.788,-0.764 -1.178,-1.12 0.216,-0.121 0.434,-0.234 0.657,-0.332 0.342,0.315 0.681,0.635 1.01,0.964 4.167,4.167 7.361,9.591 5.496,11.457 -1.709,1.708 -6.399,-0.831 -10.378,-4.47 0.334,0 0.662,0 1.025,0 4.143,3.653 7.797,5.046 8.864,3.98 z"
         id="path2"
         inkscape:connector-curvature="0" /><path
         style="fill:#2c3e50"
         d="M 28.905,37.903 28.43,37.469 h 1.763 l 0.071,0.062 c 4.106,3.623 7.619,4.893 8.521,3.992 v 0 c 0.51,-0.51 0.298,-1.894 -0.552,-3.611 -0.994,-2.006 -2.749,-4.319 -4.943,-6.514 -0.393,-0.393 -0.783,-0.76 -1.17,-1.113 l -0.256,-0.234 0.303,-0.169 c 0.223,-0.124 0.448,-0.24 0.678,-0.342 l 0.15,-0.066 0.121,0.111 c 0.345,0.317 0.686,0.64 1.017,0.971 4.194,4.194 7.546,9.76 5.496,11.811 -0.424,0.424 -0.997,0.613 -1.675,0.613 -2.39,-10e-4 -6.073,-2.355 -9.049,-5.077 z m 3.812,-7.748 c 0.307,0.284 0.616,0.579 0.927,0.89 2.232,2.231 4.021,4.592 5.038,6.646 0.992,2.003 1.154,3.489 0.458,4.187 v 0 0 c -1.27,1.269 -5.104,-0.374 -9.134,-3.908 h -0.277 c 3.671,3.227 8.003,5.587 9.547,4.044 1.731,-1.732 -1.505,-7.112 -5.496,-11.104 -0.287,-0.287 -0.582,-0.567 -0.88,-0.844 -0.063,0.027 -0.123,0.058 -0.183,0.089 z"
         id="path4"
         inkscape:connector-curvature="0" /></g><g
       id="g12"><path
         style="fill:#2c3e50"
         d="M 42.279,33.13 C 40.622,31.738 36.089,30.804 31,30.804 c -5.892,0 -11.987,1.34 -11.987,3.584 0,0.44 0.238,0.863 0.708,1.257 1.657,1.392 6.19,2.327 11.28,2.327 5.892,10e-4 11.987,-1.34 11.987,-3.584 -10e-4,-0.44 -0.239,-0.863 -0.709,-1.258 z M 31,37.391 c -4.841,0 -9.278,-0.887 -10.791,-2.157 -0.335,-0.282 -0.505,-0.566 -0.505,-0.847 10e-4,-1.451 4.54,-3.004 11.296,-3.004 4.841,0 9.278,0.886 10.79,2.157 0.336,0.282 0.506,0.567 0.506,0.847 0,1.452 -4.54,3.005 -11.296,3.004 z"
         id="path8"
         inkscape:connector-curvature="0" /><path
         style="fill:#2c3e50"
         d="m 31,38.222 c -5.144,0 -9.741,-0.959 -11.44,-2.386 -0.529,-0.444 -0.797,-0.932 -0.797,-1.448 0,-2.491 6.305,-3.835 12.237,-3.835 5.144,0 9.742,0.959 11.44,2.386 v 0 c 0.529,0.443 0.797,0.932 0.797,1.449 0,2.49 -6.305,3.834 -12.237,3.834 z m 0,-7.169 c -6.472,0 -11.737,1.496 -11.737,3.335 0,0.362 0.208,0.721 0.619,1.065 1.616,1.357 6.084,2.269 11.119,2.269 6.472,0 11.737,-1.496 11.737,-3.334 0,-0.363 -0.208,-0.722 -0.619,-1.066 v 0 C 40.504,31.965 36.036,31.053 31,31.053 Z m 0,6.588 c -4.895,0 -9.398,-0.911 -10.951,-2.215 -0.395,-0.332 -0.595,-0.682 -0.595,-1.038 0,-1.824 5.072,-3.254 11.546,-3.254 4.895,0 9.399,0.911 10.951,2.215 0.395,0.332 0.595,0.682 0.595,1.039 -10e-4,1.824 -5.072,3.253 -11.546,3.253 z m 0,-6.007 c -6.843,0 -11.045,1.605 -11.046,2.754 0,0.202 0.14,0.423 0.417,0.655 1.471,1.235 5.842,2.098 10.629,2.098 6.843,0 11.045,-1.604 11.045,-2.753 0,-0.203 -0.14,-0.424 -0.417,-0.656 C 40.159,32.497 35.788,31.634 31,31.634 Z"
         id="path10"
         inkscape:connector-curvature="0" /></g><g
       id="g18"><path
         style="fill:#2c3e50"
         d="m 24.75,24.762 c 2.234,0.396 5.397,2.432 8.196,5.006 -0.223,0.099 -0.442,0.211 -0.657,0.332 -4.197,-3.834 -7.967,-5.382 -9.191,-4.456 -0.104,-0.2 -0.237,-0.389 -0.399,-0.553 0.508,-0.377 1.207,-0.479 2.051,-0.329 z"
         id="path14"
         inkscape:connector-curvature="0" /><path
         style="fill:#2c3e50"
         d="m 32.12,30.285 c -4.179,-3.817 -7.792,-5.252 -8.872,-4.441 l -0.236,0.179 -0.136,-0.263 c -0.098,-0.188 -0.217,-0.353 -0.355,-0.492 l -0.204,-0.204 0.232,-0.172 c 0.558,-0.416 1.313,-0.541 2.245,-0.376 v 0 c 2.18,0.386 5.29,2.28 8.321,5.068 l 0.28,0.258 -0.349,0.154 c -0.216,0.096 -0.428,0.205 -0.637,0.322 l -0.157,0.087 z m -7.413,-5.277 v 0 c -0.661,-0.117 -1.208,-0.069 -1.627,0.142 0.038,0.049 0.073,0.1 0.107,0.151 1.605,-0.759 5.339,1.061 9.139,4.494 0.059,-0.031 0.118,-0.062 0.178,-0.093 -2.839,-2.552 -5.803,-4.34 -7.797,-4.694 z"
         id="path16"
         inkscape:connector-curvature="0" /></g><path
       style="fill:#3b97d3"
       d="m 26.978,35.091 v 0 c -0.67,0 -1.219,-0.548 -1.219,-1.219 v -3.151 c 0,-0.67 0.548,-1.219 1.219,-1.219 v 0 c 0.67,0 1.219,0.548 1.219,1.219 v 3.151 c -10e-4,0.671 -0.549,1.219 -1.219,1.219 z"
       id="path20"
       inkscape:connector-curvature="0" /><path
       style="fill:#3b97d3"
       d="m 30.921,35.091 v 0 c -0.67,0 -1.219,-0.548 -1.219,-1.219 v -6.989 c 0,-0.67 0.548,-1.219 1.219,-1.219 v 0 c 0.67,0 1.218,0.548 1.218,1.219 v 6.989 c 10e-4,0.671 -0.547,1.219 -1.218,1.219 z"
       id="path22"
       inkscape:connector-curvature="0" /><path
       style="fill:#3b97d3"
       d="m 34.863,35.091 v 0 c -0.67,0 -1.219,-0.548 -1.219,-1.219 V 23.531 c 0,-0.67 0.548,-1.219 1.219,-1.219 v 0 c 0.67,0 1.219,0.548 1.219,1.219 v 10.341 c 0,0.671 -0.549,1.219 -1.219,1.219 z"
       id="path24"
       inkscape:connector-curvature="0" /><path
       style="opacity:0.3;fill:#bdc3c7"
       d="m 47.7,23.246 c -0.715,-1.692 -2.577,-5.163 -3.651,-6.651 l -1.041,0.751 c -0.062,-0.086 -0.13,-0.185 -0.187,-0.264 l -0.548,0.395 c -0.236,-0.354 -0.461,-0.689 -0.655,-0.968 l -1.643,1.141 c 1.214,1.747 3.192,4.866 3.789,6.333 2.507,6.155 3.588,20.943 0.094,26.193 -0.674,1.013 -0.378,1.59 -0.012,1.896 0.221,0.184 0.47,0.252 0.711,0.252 0.014,0 0.026,-0.005 0.04,-0.005 l 0.026,0.044 c 0.032,-0.019 0.058,-0.039 0.089,-0.059 0.181,-0.021 0.356,-0.066 0.504,-0.131 l 0.007,0.012 c 0.061,-0.037 0.105,-0.064 0.137,-0.083 0.122,-0.066 0.218,-0.137 0.274,-0.191 l 0.005,-0.065 c 0.092,-0.022 0.183,-0.044 0.279,-0.063 0.476,-0.093 1.127,-0.221 1.527,-0.872 3.646,-5.952 2.819,-21.601 0.255,-27.665 z"
       id="path26"
       inkscape:connector-curvature="0" /><path
       style="clip-rule:evenodd;fill:none;fill-rule:evenodd;stroke:#2c3e50;stroke-width:1.65349996;stroke-miterlimit:10"
       d="m 18.367,15.757 c 0,0 -3.477,4.726 -4.426,7.019 -2.552,6.161 -3.155,20.798 0,26.672 3.515,6.545 30.403,6.005 34.008,0 3.432,-5.717 2.552,-20.511 0,-26.672 -0.677,-1.634 -2.824,-4.903 -3.894,-6.417"
       id="path28"
       inkscape:connector-curvature="0" /><ellipse
       style="clip-rule:evenodd;fill:none;fill-rule:evenodd;stroke:#2c3e50;stroke-width:1.65349996;stroke-miterlimit:10"
       cx="31.476999"
       cy="11.369"
       rx="13.221"
       ry="3.5239999"
       id="ellipse30" /><line
       style="fill:none;stroke:#2c3e50;stroke-width:1.65349996;stroke-linecap:round;stroke-linejoin:round;stroke-miterlimit:10"
       x1="18.254999"
       y1="11.3"
       x2="18.254999"
       y2="15.65"
       id="line32" /><path
       style="clip-rule:evenodd;fill:none;fill-rule:evenodd;stroke:#2c3e50;stroke-width:1.65349996;stroke-linecap:round;stroke-miterlimit:10"
       d="m 44.055,16.358 c -1.898,1.201 -6.702,2.584 -12.578,2.584 -7.302,0 -13.221,-1.674 -13.221,-3.74"
       id="path34"
       inkscape:connector-curvature="0" /><ellipse
       style="clip-rule:evenodd;fill:#ecf0f1;fill-rule:evenodd"
       cx="31.098"
       cy="48.299"
       rx="6.1040001"
       ry="0.977"
       id="ellipse36" /><g
       id="g42"><path
         style="fill:#2c3e50"
         d="m 22.698,25.092 c 0.162,0.164 0.295,0.352 0.399,0.553 -0.036,0.027 -0.078,0.049 -0.109,0.08 -1.203,1.203 0.718,5.7 5.495,10.478 0.545,0.544 1.083,1.046 1.615,1.515 -0.363,0 -0.691,0 -1.025,0 -0.366,-0.335 -0.728,-0.675 -1.079,-1.026 -4.167,-4.167 -7.362,-9.591 -5.496,-11.456 0.06,-0.058 0.135,-0.095 0.2,-0.144 z"
         id="path38"
         inkscape:connector-curvature="0" /><path
         style="fill:#2c3e50"
         d="m 28.905,37.903 c -0.368,-0.338 -0.733,-0.68 -1.086,-1.033 -4.195,-4.194 -7.546,-9.76 -5.496,-11.81 0.057,-0.057 0.118,-0.097 0.167,-0.128 l 0.233,-0.168 0.152,0.153 c 0.174,0.175 0.323,0.381 0.444,0.613 l 0.097,0.186 -0.25,0.187 c -0.51,0.51 -0.298,1.893 0.552,3.611 0.994,2.006 2.749,4.319 4.943,6.514 0.512,0.512 1.052,1.018 1.604,1.504 l 0.496,0.438 H 28.977 Z M 28.307,36.38 c -2.231,-2.232 -4.021,-4.592 -5.038,-6.645 -0.974,-1.967 -1.149,-3.437 -0.494,-4.149 -0.036,-0.056 -0.074,-0.108 -0.114,-0.159 -1.698,1.748 1.531,7.109 5.511,11.089 0.325,0.325 0.661,0.641 0.999,0.952 h 0.275 c -0.389,-0.356 -0.771,-0.72 -1.139,-1.088 z"
         id="path40"
         inkscape:connector-curvature="0" /></g></g></svg>